  0
SECTION
  2
HEADER
  9
$ACADVER
  1
AC1009
  9
$EXTMIN
 10
0.0
 20
0.0
 30
0.0
  9
$EXTMAX
 10
1000.0
 20
1000.0
 30
0.0
  9
$FILLMODE
 70
 0
  9
$SPLFRAME
 70
 1
  0
ENDSEC
  0
SECTION
  2
TABLES
  0
TABLE
  2
LAYER
 70
1
  0
LAYER
  2
0
 70
     0
 62
     7
  6
CONTINUOUS
  0
ENDTAB
  0
ENDSEC
  0
SECTION
  2
ENTITIES
  0
LINE
  8
0
 62
     0
 10
91.2964
 20
115.616
 30
0.0
 11
91.6891
 21
115.601
 31
0.0
  0
LINE
  8
0
 62
     0
 10
91.6891
 20
115.601
 30
0.0
 11
92.0792
 21
115.554
 31
0.0
  0
LINE
  8
0
 62
     0
 10
92.0792
 20
115.554
 30
0.0
 11
92.4638
 21
115.478
 31
0.0
  0
LINE
  8
0
 62
     0
 10
92.4638
 20
115.478
 30
0.0
 11
92.8412
 21
115.372
 31
0.0
  0
LINE
  8
0
 62
     0
 10
92.8412
 20
115.372
 30
0.0
 11
93.2092
 21
115.236
 31
0.0
  0
LINE
  8
0
 62
     0
 10
93.2092
 20
115.236
 30
0.0
 11
93.5662
 21
115.072
 31
0.0
  0
LINE
  8
0
 62
     0
 10
93.5662
 20
115.072
 30
0.0
 11
93.9091
 21
114.88
 31
0.0
  0
LINE
  8
0
 62
     0
 10
93.9091
 20
114.88
 30
0.0
 11
94.2344
 21
114.661
 31
0.0
  0
LINE
  8
0
 62
     0
 10
94.2344
 20
114.661
 30
0.0
 11
94.543
 21
114.419
 31
0.0
  0
LINE
  8
0
 62
     0
 10
94.543
 20
114.419
 30
0.0
 11
94.8312
 21
114.151
 31
0.0
  0
LINE
  8
0
 62
     0
 10
94.8312
 20
114.151
 30
0.0
 11
95.0983
 21
113.863
 31
0.0
  0
LINE
  8
0
 62
     0
 10
95.0983
 20
113.863
 30
0.0
 11
95.341
 21
113.555
 31
0.0
  0
LINE
  8
0
 62
     0
 10
95.341
 20
113.555
 30
0.0
 11
95.5601
 21
113.229
 31
0.0
  0
LINE
  8
0
 62
     0
 10
95.5601
 20
113.229
 30
0.0
 11
95.7516
 21
112.886
 31
0.0
  0
LINE
  8
0
 62
     0
 10
95.7516
 20
112.886
 30
0.0
 11
95.9157
 21
112.529
 31
0.0
  0
LINE
  8
0
 62
     0
 10
95.9157
 20
112.529
 30
0.0
 11
96.0519
 21
112.161
 31
0.0
  0
LINE
  8
0
 62
     0
 10
96.0519
 20
112.161
 30
0.0
 11
96.1581
 21
111.784
 31
0.0
  0
LINE
  8
0
 62
     0
 10
96.1581
 20
111.784
 30
0.0
 11
96.2339
 21
111.399
 31
0.0
  0
LINE
  8
0
 62
     0
 10
96.2339
 20
111.399
 30
0.0
 11
96.2808
 21
111.009
 31
0.0
  0
LINE
  8
0
 62
     0
 10
96.2808
 20
111.009
 30
0.0
 11
96.296
 21
110.615
 31
0.0
  0
LINE
  8
0
 62
     0
 10
96.296
 20
110.615
 30
0.0
 11
96.296
 21
5.36469
 31
0.0
  0
LINE
  8
0
 62
     0
 10
96.296
 20
5.36469
 30
0.0
 11
96.2808
 21
4.97198
 31
0.0
  0
LINE
  8
0
 62
     0
 10
96.2808
 20
4.97198
 30
0.0
 11
96.2339
 21
4.58198
 31
0.0
  0
LINE
  8
0
 62
     0
 10
96.2339
 20
4.58198
 30
0.0
 11
96.1581
 21
4.19749
 31
0.0
  0
LINE
  8
0
 62
     0
 10
96.1581
 20
4.19749
 30
0.0
 11
96.0519
 21
3.81991
 31
0.0
  0
LINE
  8
0
 62
     0
 10
96.0519
 20
3.81991
 30
0.0
 11
95.9157
 21
3.45199
 31
0.0
  0
LINE
  8
0
 62
     0
 10
95.9157
 20
3.45199
 30
0.0
 11
95.7516
 21
3.09507
 31
0.0
  0
LINE
  8
0
 62
     0
 10
95.7516
 20
3.09507
 30
0.0
 11
95.5601
 21
2.75194
 31
0.0
  0
LINE
  8
0
 62
     0
 10
95.5601
 20
2.75194
 30
0.0
 11
95.341
 21
2.42673
 31
0.0
  0
LINE
  8
0
 62
     0
 10
95.341
 20
2.42673
 30
0.0
 11
95.0983
 21
2.11805
 31
0.0
  0
LINE
  8
0
 62
     0
 10
95.0983
 20
2.11805
 30
0.0
 11
94.8312
 21
1.83003
 31
0.0
  0
LINE
  8
0
 62
     0
 10
94.8312
 20
1.83003
 30
0.0
 11
94.543
 21
1.5627
 31
0.0
  0
LINE
  8
0
 62
     0
 10
94.543
 20
1.5627
 30
0.0
 11
94.2344
 21
1.32016
 31
0.0
  0
LINE
  8
0
 62
     0
 10
94.2344
 20
1.32016
 30
0.0
 11
93.9091
 21
1.10105
 31
0.0
  0
LINE
  8
0
 62
     0
 10
93.9091
 20
1.10105
 30
0.0
 11
93.5662
 21
0.909507
 31
0.0
  0
LINE
  8
0
 62
     0
 10
93.5662
 20
0.909507
 30
0.0
 11
93.2092
 21
0.745518
 31
0.0
  0
LINE
  8
0
 62
     0
 10
93.2092
 20
0.745518
 30
0.0
 11
92.8412
 21
0.609092
 31
0.0
  0
LINE
  8
0
 62
     0
 10
92.8412
 20
0.609092
 30
0.0
 11
92.4638
 21
0.502984
 31
0.0
  0
LINE
  8
0
 62
     0
 10
92.4638
 20
0.502984
 30
0.0
 11
92.0792
 21
0.427193
 31
0.0
  0
LINE
  8
0
 62
     0
 10
92.0792
 20
0.427193
 30
0.0
 11
91.6891
 21
0.38034
 31
0.0
  0
LINE
  8
0
 62
     0
 10
91.6891
 20
0.38034
 30
0.0
 11
91.295
 21
0.365181
 31
0.0
  0
LINE
  8
0
 62
     0
 10
91.295
 20
0.365181
 30
0.0
 11
5.09598
 21
0.365181
 31
0.0
  0
LINE
  8
0
 62
     0
 10
5.09598
 20
0.365181
 30
0.0
 11
4.70186
 21
0.38034
 31
0.0
  0
LINE
  8
0
 62
     0
 10
4.70186
 20
0.38034
 30
0.0
 11
4.3119
 21
0.427193
 31
0.0
  0
LINE
  8
0
 62
     0
 10
4.3119
 20
0.427193
 30
0.0
 11
3.9274
 21
0.502984
 31
0.0
  0
LINE
  8
0
 62
     0
 10
3.9274
 20
0.502984
 30
0.0
 11
3.54983
 21
0.609092
 31
0.0
  0
LINE
  8
0
 62
     0
 10
3.54983
 20
0.609092
 30
0.0
 11
3.18189
 21
0.745518
 31
0.0
  0
LINE
  8
0
 62
     0
 10
3.18189
 20
0.745518
 30
0.0
 11
2.82498
 21
0.909507
 31
0.0
  0
LINE
  8
0
 62
     0
 10
2.82498
 20
0.909507
 30
0.0
 11
2.48185
 21
1.10105
 31
0.0
  0
LINE
  8
0
 62
     0
 10
2.48185
 20
1.10105
 30
0.0
 11
2.15663
 21
1.32016
 31
0.0
  0
LINE
  8
0
 62
     0
 10
2.15663
 20
1.32016
 30
0.0
 11
1.84795
 21
1.5627
 31
0.0
  0
LINE
  8
0
 62
     0
 10
1.84795
 20
1.5627
 30
0.0
 11
1.55994
 21
1.83003
 31
0.0
  0
LINE
  8
0
 62
     0
 10
1.55994
 20
1.83003
 30
0.0
 11
1.2926
 21
2.11805
 31
0.0
  0
LINE
  8
0
 62
     0
 10
1.2926
 20
2.11805
 30
0.0
 11
1.05006
 21
2.42673
 31
0.0
  0
LINE
  8
0
 62
     0
 10
1.05006
 20
2.42673
 30
0.0
 11
0.830957
 21
2.75194
 31
0.0
  0
LINE
  8
0
 62
     0
 10
0.830957
 20
2.75194
 30
0.0
 11
0.63941
 21
3.09507
 31
0.0
  0
LINE
  8
0
 62
     0
 10
0.63941
 20
3.09507
 30
0.0
 11
0.475424
 21
3.45199
 31
0.0
  0
LINE
  8
0
 62
     0
 10
0.475424
 20
3.45199
 30
0.0
 11
0.338998
 21
3.81991
 31
0.0
  0
LINE
  8
0
 62
     0
 10
0.338998
 20
3.81991
 30
0.0
 11
0.232888
 21
4.19749
 31
0.0
  0
LINE
  8
0
 62
     0
 10
0.232888
 20
4.19749
 30
0.0
 11
0.157097
 21
4.58198
 31
0.0
  0
LINE
  8
0
 62
     0
 10
0.157097
 20
4.58198
 30
0.0
 11
0.110243
 21
4.97198
 31
0.0
  0
LINE
  8
0
 62
     0
 10
0.110243
 20
4.97198
 30
0.0
 11
0.0950846
 21
5.36607
 31
0.0
  0
LINE
  8
0
 62
     0
 10
0.0950846
 20
5.36607
 30
0.0
 11
0.0950846
 21
110.615
 31
0.0
  0
LINE
  8
0
 62
     0
 10
0.0950846
 20
110.615
 30
0.0
 11
0.110243
 21
111.009
 31
0.0
  0
LINE
  8
0
 62
     0
 10
0.110243
 20
111.009
 30
0.0
 11
0.157097
 21
111.399
 31
0.0
  0
LINE
  8
0
 62
     0
 10
0.157097
 20
111.399
 30
0.0
 11
0.232888
 21
111.784
 31
0.0
  0
LINE
  8
0
 62
     0
 10
0.232888
 20
111.784
 30
0.0
 11
0.338998
 21
112.161
 31
0.0
  0
LINE
  8
0
 62
     0
 10
0.338998
 20
112.161
 30
0.0
 11
0.475424
 21
112.529
 31
0.0
  0
LINE
  8
0
 62
     0
 10
0.475424
 20
112.529
 30
0.0
 11
0.63941
 21
112.886
 31
0.0
  0
LINE
  8
0
 62
     0
 10
0.63941
 20
112.886
 30
0.0
 11
0.830957
 21
113.229
 31
0.0
  0
LINE
  8
0
 62
     0
 10
0.830957
 20
113.229
 30
0.0
 11
1.05006
 21
113.555
 31
0.0
  0
LINE
  8
0
 62
     0
 10
1.05006
 20
113.555
 30
0.0
 11
1.2926
 21
113.863
 31
0.0
  0
LINE
  8
0
 62
     0
 10
1.2926
 20
113.863
 30
0.0
 11
1.55994
 21
114.151
 31
0.0
  0
LINE
  8
0
 62
     0
 10
1.55994
 20
114.151
 30
0.0
 11
1.84795
 21
114.419
 31
0.0
  0
LINE
  8
0
 62
     0
 10
1.84795
 20
114.419
 30
0.0
 11
2.15663
 21
114.661
 31
0.0
  0
LINE
  8
0
 62
     0
 10
2.15663
 20
114.661
 30
0.0
 11
2.48185
 21
114.88
 31
0.0
  0
LINE
  8
0
 62
     0
 10
2.48185
 20
114.88
 30
0.0
 11
2.82498
 21
115.072
 31
0.0
  0
LINE
  8
0
 62
     0
 10
2.82498
 20
115.072
 30
0.0
 11
3.18189
 21
115.236
 31
0.0
  0
LINE
  8
0
 62
     0
 10
3.18189
 20
115.236
 30
0.0
 11
3.54983
 21
115.372
 31
0.0
  0
LINE
  8
0
 62
     0
 10
3.54983
 20
115.372
 30
0.0
 11
3.9274
 21
115.478
 31
0.0
  0
LINE
  8
0
 62
     0
 10
3.9274
 20
115.478
 30
0.0
 11
4.3119
 21
115.554
 31
0.0
  0
LINE
  8
0
 62
     0
 10
4.3119
 20
115.554
 30
0.0
 11
4.70186
 21
115.601
 31
0.0
  0
LINE
  8
0
 62
     0
 10
4.70186
 20
115.601
 30
0.0
 11
5.09598
 21
115.616
 31
0.0
  0
LINE
  8
0
 62
     0
 10
5.09598
 20
115.616
 30
0.0
 11
91.2964
 21
115.616
 31
0.0
  0
LINE
  8
0
 62
     0
 10
4.55443
 20
7.02938
 30
0.0
 11
4.06658
 21
6.77997
 31
0.0
  0
LINE
  8
0
 62
     0
 10
4.06658
 20
6.77997
 30
0.0
 11
3.67937
 21
6.3941
 31
0.0
  0
LINE
  8
0
 62
     0
 10
3.67937
 20
6.3941
 30
0.0
 11
3.42994
 21
5.90628
 31
0.0
  0
LINE
  8
0
 62
     0
 10
3.42994
 20
5.90628
 30
0.0
 11
3.34588
 21
5.36469
 31
0.0
  0
LINE
  8
0
 62
     0
 10
3.34588
 20
5.36469
 30
0.0
 11
3.42994
 21
4.82452
 31
0.0
  0
LINE
  8
0
 62
     0
 10
3.42994
 20
4.82452
 30
0.0
 11
3.67937
 21
4.3367
 31
0.0
  0
LINE
  8
0
 62
     0
 10
3.67937
 20
4.3367
 30
0.0
 11
4.06658
 21
3.94945
 31
0.0
  0
LINE
  8
0
 62
     0
 10
4.06658
 20
3.94945
 30
0.0
 11
4.55443
 21
3.70004
 31
0.0
  0
LINE
  8
0
 62
     0
 10
4.55443
 20
3.70004
 30
0.0
 11
5.09598
 21
3.6146
 31
0.0
  0
LINE
  8
0
 62
     0
 10
5.09598
 20
3.6146
 30
0.0
 11
5.63619
 21
3.70004
 31
0.0
  0
LINE
  8
0
 62
     0
 10
5.63619
 20
3.70004
 30
0.0
 11
6.12401
 21
3.94945
 31
0.0
  0
LINE
  8
0
 62
     0
 10
6.12401
 20
3.94945
 30
0.0
 11
6.50984
 21
4.3367
 31
0.0
  0
LINE
  8
0
 62
     0
 10
6.50984
 20
4.3367
 30
0.0
 11
6.75929
 21
4.82452
 31
0.0
  0
LINE
  8
0
 62
     0
 10
6.75929
 20
4.82452
 30
0.0
 11
6.84611
 21
5.36469
 31
0.0
  0
LINE
  8
0
 62
     0
 10
6.84611
 20
5.36469
 30
0.0
 11
6.75929
 21
5.90628
 31
0.0
  0
LINE
  8
0
 62
     0
 10
6.75929
 20
5.90628
 30
0.0
 11
6.50984
 21
6.3941
 31
0.0
  0
LINE
  8
0
 62
     0
 10
6.50984
 20
6.3941
 30
0.0
 11
6.12401
 21
6.77997
 31
0.0
  0
LINE
  8
0
 62
     0
 10
6.12401
 20
6.77997
 30
0.0
 11
5.63619
 21
7.02938
 31
0.0
  0
LINE
  8
0
 62
     0
 10
5.63619
 20
7.02938
 30
0.0
 11
5.09598
 21
7.11482
 31
0.0
  0
LINE
  8
0
 62
     0
 10
5.09598
 20
7.11482
 30
0.0
 11
4.55443
 21
7.02938
 31
0.0
  0
LINE
  8
0
 62
     0
 10
90.7549
 20
7.02938
 30
0.0
 11
90.267
 21
6.77997
 31
0.0
  0
LINE
  8
0
 62
     0
 10
90.267
 20
6.77997
 30
0.0
 11
89.8811
 21
6.3941
 31
0.0
  0
LINE
  8
0
 62
     0
 10
89.8811
 20
6.3941
 30
0.0
 11
89.6317
 21
5.90628
 31
0.0
  0
LINE
  8
0
 62
     0
 10
89.6317
 20
5.90628
 30
0.0
 11
89.5463
 21
5.36469
 31
0.0
  0
LINE
  8
0
 62
     0
 10
89.5463
 20
5.36469
 30
0.0
 11
89.6317
 21
4.82452
 31
0.0
  0
LINE
  8
0
 62
     0
 10
89.6317
 20
4.82452
 30
0.0
 11
89.8811
 21
4.3367
 31
0.0
  0
LINE
  8
0
 62
     0
 10
89.8811
 20
4.3367
 30
0.0
 11
90.267
 21
3.94945
 31
0.0
  0
LINE
  8
0
 62
     0
 10
90.267
 20
3.94945
 30
0.0
 11
90.7549
 21
3.70004
 31
0.0
  0
LINE
  8
0
 62
     0
 10
90.7549
 20
3.70004
 30
0.0
 11
91.2964
 21
3.6146
 31
0.0
  0
LINE
  8
0
 62
     0
 10
91.2964
 20
3.6146
 30
0.0
 11
91.8365
 21
3.70004
 31
0.0
  0
LINE
  8
0
 62
     0
 10
91.8365
 20
3.70004
 30
0.0
 11
92.3244
 21
3.94945
 31
0.0
  0
LINE
  8
0
 62
     0
 10
92.3244
 20
3.94945
 30
0.0
 11
92.7118
 21
4.3367
 31
0.0
  0
LINE
  8
0
 62
     0
 10
92.7118
 20
4.3367
 30
0.0
 11
92.9612
 21
4.82452
 31
0.0
  0
LINE
  8
0
 62
     0
 10
92.9612
 20
4.82452
 30
0.0
 11
93.0465
 21
5.36469
 31
0.0
  0
LINE
  8
0
 62
     0
 10
93.0465
 20
5.36469
 30
0.0
 11
92.9612
 21
5.90628
 31
0.0
  0
LINE
  8
0
 62
     0
 10
92.9612
 20
5.90628
 30
0.0
 11
92.7118
 21
6.3941
 31
0.0
  0
LINE
  8
0
 62
     0
 10
92.7118
 20
6.3941
 30
0.0
 11
92.3244
 21
6.77997
 31
0.0
  0
LINE
  8
0
 62
     0
 10
92.3244
 20
6.77997
 30
0.0
 11
91.8365
 21
7.02938
 31
0.0
  0
LINE
  8
0
 62
     0
 10
91.8365
 20
7.02938
 30
0.0
 11
91.2964
 21
7.11482
 31
0.0
  0
LINE
  8
0
 62
     0
 10
91.2964
 20
7.11482
 30
0.0
 11
90.7549
 21
7.02938
 31
0.0
  0
LINE
  8
0
 62
     0
 10
4.55443
 20
112.281
 30
0.0
 11
4.06658
 21
112.032
 31
0.0
  0
LINE
  8
0
 62
     0
 10
4.06658
 20
112.032
 30
0.0
 11
3.67937
 21
111.645
 31
0.0
  0
LINE
  8
0
 62
     0
 10
3.67937
 20
111.645
 30
0.0
 11
3.42994
 21
111.157
 31
0.0
  0
LINE
  8
0
 62
     0
 10
3.42994
 20
111.157
 30
0.0
 11
3.34588
 21
110.615
 31
0.0
  0
LINE
  8
0
 62
     0
 10
3.34588
 20
110.615
 30
0.0
 11
3.42994
 21
110.075
 31
0.0
  0
LINE
  8
0
 62
     0
 10
3.42994
 20
110.075
 30
0.0
 11
3.67937
 21
109.587
 31
0.0
  0
LINE
  8
0
 62
     0
 10
3.67937
 20
109.587
 30
0.0
 11
4.06658
 21
109.201
 31
0.0
  0
LINE
  8
0
 62
     0
 10
4.06658
 20
109.201
 30
0.0
 11
4.55443
 21
108.952
 31
0.0
  0
LINE
  8
0
 62
     0
 10
4.55443
 20
108.952
 30
0.0
 11
5.09598
 21
108.865
 31
0.0
  0
LINE
  8
0
 62
     0
 10
5.09598
 20
108.865
 30
0.0
 11
5.63619
 21
108.952
 31
0.0
  0
LINE
  8
0
 62
     0
 10
5.63619
 20
108.952
 30
0.0
 11
6.12401
 21
109.201
 31
0.0
  0
LINE
  8
0
 62
     0
 10
6.12401
 20
109.201
 30
0.0
 11
6.50984
 21
109.587
 31
0.0
  0
LINE
  8
0
 62
     0
 10
6.50984
 20
109.587
 30
0.0
 11
6.75929
 21
110.075
 31
0.0
  0
LINE
  8
0
 62
     0
 10
6.75929
 20
110.075
 30
0.0
 11
6.84611
 21
110.615
 31
0.0
  0
LINE
  8
0
 62
     0
 10
6.84611
 20
110.615
 30
0.0
 11
6.75929
 21
111.157
 31
0.0
  0
LINE
  8
0
 62
     0
 10
6.75929
 20
111.157
 30
0.0
 11
6.50984
 21
111.645
 31
0.0
  0
LINE
  8
0
 62
     0
 10
6.50984
 20
111.645
 30
0.0
 11
6.12401
 21
112.032
 31
0.0
  0
LINE
  8
0
 62
     0
 10
6.12401
 20
112.032
 30
0.0
 11
5.63619
 21
112.281
 31
0.0
  0
LINE
  8
0
 62
     0
 10
5.63619
 20
112.281
 30
0.0
 11
5.09598
 21
112.365
 31
0.0
  0
LINE
  8
0
 62
     0
 10
5.09598
 20
112.365
 30
0.0
 11
4.55443
 21
112.281
 31
0.0
  0
LINE
  8
0
 62
     0
 10
90.7549
 20
112.281
 30
0.0
 11
90.267
 21
112.032
 31
0.0
  0
LINE
  8
0
 62
     0
 10
90.267
 20
112.032
 30
0.0
 11
89.8811
 21
111.645
 31
0.0
  0
LINE
  8
0
 62
     0
 10
89.8811
 20
111.645
 30
0.0
 11
89.6317
 21
111.157
 31
0.0
  0
LINE
  8
0
 62
     0
 10
89.6317
 20
111.157
 30
0.0
 11
89.5463
 21
110.615
 31
0.0
  0
LINE
  8
0
 62
     0
 10
89.5463
 20
110.615
 30
0.0
 11
89.6317
 21
110.075
 31
0.0
  0
LINE
  8
0
 62
     0
 10
89.6317
 20
110.075
 30
0.0
 11
89.8811
 21
109.587
 31
0.0
  0
LINE
  8
0
 62
     0
 10
89.8811
 20
109.587
 30
0.0
 11
90.267
 21
109.201
 31
0.0
  0
LINE
  8
0
 62
     0
 10
90.267
 20
109.201
 30
0.0
 11
90.7549
 21
108.952
 31
0.0
  0
LINE
  8
0
 62
     0
 10
90.7549
 20
108.952
 30
0.0
 11
91.2964
 21
108.865
 31
0.0
  0
LINE
  8
0
 62
     0
 10
91.2964
 20
108.865
 30
0.0
 11
91.8365
 21
108.952
 31
0.0
  0
LINE
  8
0
 62
     0
 10
91.8365
 20
108.952
 30
0.0
 11
92.3244
 21
109.201
 31
0.0
  0
LINE
  8
0
 62
     0
 10
92.3244
 20
109.201
 30
0.0
 11
92.7118
 21
109.587
 31
0.0
  0
LINE
  8
0
 62
     0
 10
92.7118
 20
109.587
 30
0.0
 11
92.9612
 21
110.075
 31
0.0
  0
LINE
  8
0
 62
     0
 10
92.9612
 20
110.075
 30
0.0
 11
93.0465
 21
110.615
 31
0.0
  0
LINE
  8
0
 62
     0
 10
93.0465
 20
110.615
 30
0.0
 11
92.9612
 21
111.157
 31
0.0
  0
LINE
  8
0
 62
     0
 10
92.9612
 20
111.157
 30
0.0
 11
92.7118
 21
111.645
 31
0.0
  0
LINE
  8
0
 62
     0
 10
92.7118
 20
111.645
 30
0.0
 11
92.3244
 21
112.032
 31
0.0
  0
LINE
  8
0
 62
     0
 10
92.3244
 20
112.032
 30
0.0
 11
91.8365
 21
112.281
 31
0.0
  0
LINE
  8
0
 62
     0
 10
91.8365
 20
112.281
 30
0.0
 11
91.2964
 21
112.365
 31
0.0
  0
LINE
  8
0
 62
     0
 10
91.2964
 20
112.365
 30
0.0
 11
90.7549
 21
112.281
 31
0.0
  0
ENDSEC
  0
EOF
