  0
SECTION
  2
HEADER
  9
$ACADVER
  1
AC1009
  9
$EXTMIN
 10
0.0
 20
0.0
 30
0.0
  9
$EXTMAX
 10
1000.0
 20
1000.0
 30
0.0
  9
$FILLMODE
 70
 0
  9
$SPLFRAME
 70
 1
  0
ENDSEC
  0
SECTION
  2
TABLES
  0
TABLE
  2
LAYER
 70
1
  0
LAYER
  2
0
 70
     0
 62
     7
  6
CONTINUOUS
  0
ENDTAB
  0
ENDSEC
  0
SECTION
  2
ENTITIES
  0
LINE
  8
0
 62
     0
 10
91.2964
 20
115.616
 30
0.0
 11
91.6891
 21
115.601
 31
0.0
  0
LINE
  8
0
 62
     0
 10
91.6891
 20
115.601
 30
0.0
 11
92.0792
 21
115.554
 31
0.0
  0
LINE
  8
0
 62
     0
 10
92.0792
 20
115.554
 30
0.0
 11
92.4638
 21
115.478
 31
0.0
  0
LINE
  8
0
 62
     0
 10
92.4638
 20
115.478
 30
0.0
 11
92.8412
 21
115.372
 31
0.0
  0
LINE
  8
0
 62
     0
 10
92.8412
 20
115.372
 30
0.0
 11
93.2092
 21
115.236
 31
0.0
  0
LINE
  8
0
 62
     0
 10
93.2092
 20
115.236
 30
0.0
 11
93.5662
 21
115.072
 31
0.0
  0
LINE
  8
0
 62
     0
 10
93.5662
 20
115.072
 30
0.0
 11
93.9091
 21
114.88
 31
0.0
  0
LINE
  8
0
 62
     0
 10
93.9091
 20
114.88
 30
0.0
 11
94.2344
 21
114.661
 31
0.0
  0
LINE
  8
0
 62
     0
 10
94.2344
 20
114.661
 30
0.0
 11
94.543
 21
114.419
 31
0.0
  0
LINE
  8
0
 62
     0
 10
94.543
 20
114.419
 30
0.0
 11
94.8312
 21
114.151
 31
0.0
  0
LINE
  8
0
 62
     0
 10
94.8312
 20
114.151
 30
0.0
 11
95.0983
 21
113.863
 31
0.0
  0
LINE
  8
0
 62
     0
 10
95.0983
 20
113.863
 30
0.0
 11
95.341
 21
113.555
 31
0.0
  0
LINE
  8
0
 62
     0
 10
95.341
 20
113.555
 30
0.0
 11
95.5601
 21
113.229
 31
0.0
  0
LINE
  8
0
 62
     0
 10
95.5601
 20
113.229
 30
0.0
 11
95.7516
 21
112.886
 31
0.0
  0
LINE
  8
0
 62
     0
 10
95.7516
 20
112.886
 30
0.0
 11
95.9157
 21
112.529
 31
0.0
  0
LINE
  8
0
 62
     0
 10
95.9157
 20
112.529
 30
0.0
 11
96.0519
 21
112.161
 31
0.0
  0
LINE
  8
0
 62
     0
 10
96.0519
 20
112.161
 30
0.0
 11
96.1581
 21
111.784
 31
0.0
  0
LINE
  8
0
 62
     0
 10
96.1581
 20
111.784
 30
0.0
 11
96.2339
 21
111.399
 31
0.0
  0
LINE
  8
0
 62
     0
 10
96.2339
 20
111.399
 30
0.0
 11
96.2808
 21
111.009
 31
0.0
  0
LINE
  8
0
 62
     0
 10
96.2808
 20
111.009
 30
0.0
 11
96.296
 21
110.615
 31
0.0
  0
LINE
  8
0
 62
     0
 10
96.296
 20
110.615
 30
0.0
 11
96.296
 21
5.36469
 31
0.0
  0
LINE
  8
0
 62
     0
 10
96.296
 20
5.36469
 30
0.0
 11
96.2808
 21
4.97198
 31
0.0
  0
LINE
  8
0
 62
     0
 10
96.2808
 20
4.97198
 30
0.0
 11
96.2339
 21
4.58198
 31
0.0
  0
LINE
  8
0
 62
     0
 10
96.2339
 20
4.58198
 30
0.0
 11
96.1581
 21
4.19749
 31
0.0
  0
LINE
  8
0
 62
     0
 10
96.1581
 20
4.19749
 30
0.0
 11
96.0519
 21
3.81991
 31
0.0
  0
LINE
  8
0
 62
     0
 10
96.0519
 20
3.81991
 30
0.0
 11
95.9157
 21
3.45199
 31
0.0
  0
LINE
  8
0
 62
     0
 10
95.9157
 20
3.45199
 30
0.0
 11
95.7516
 21
3.09507
 31
0.0
  0
LINE
  8
0
 62
     0
 10
95.7516
 20
3.09507
 30
0.0
 11
95.5601
 21
2.75194
 31
0.0
  0
LINE
  8
0
 62
     0
 10
95.5601
 20
2.75194
 30
0.0
 11
95.341
 21
2.42673
 31
0.0
  0
LINE
  8
0
 62
     0
 10
95.341
 20
2.42673
 30
0.0
 11
95.0983
 21
2.11805
 31
0.0
  0
LINE
  8
0
 62
     0
 10
95.0983
 20
2.11805
 30
0.0
 11
94.8312
 21
1.83003
 31
0.0
  0
LINE
  8
0
 62
     0
 10
94.8312
 20
1.83003
 30
0.0
 11
94.543
 21
1.5627
 31
0.0
  0
LINE
  8
0
 62
     0
 10
94.543
 20
1.5627
 30
0.0
 11
94.2344
 21
1.32016
 31
0.0
  0
LINE
  8
0
 62
     0
 10
94.2344
 20
1.32016
 30
0.0
 11
93.9091
 21
1.10105
 31
0.0
  0
LINE
  8
0
 62
     0
 10
93.9091
 20
1.10105
 30
0.0
 11
93.5662
 21
0.909507
 31
0.0
  0
LINE
  8
0
 62
     0
 10
93.5662
 20
0.909507
 30
0.0
 11
93.2092
 21
0.745518
 31
0.0
  0
LINE
  8
0
 62
     0
 10
93.2092
 20
0.745518
 30
0.0
 11
92.8412
 21
0.609092
 31
0.0
  0
LINE
  8
0
 62
     0
 10
92.8412
 20
0.609092
 30
0.0
 11
92.4638
 21
0.502984
 31
0.0
  0
LINE
  8
0
 62
     0
 10
92.4638
 20
0.502984
 30
0.0
 11
92.0792
 21
0.427193
 31
0.0
  0
LINE
  8
0
 62
     0
 10
92.0792
 20
0.427193
 30
0.0
 11
91.6891
 21
0.38034
 31
0.0
  0
LINE
  8
0
 62
     0
 10
91.6891
 20
0.38034
 30
0.0
 11
91.295
 21
0.365181
 31
0.0
  0
LINE
  8
0
 62
     0
 10
91.295
 20
0.365181
 30
0.0
 11
5.09598
 21
0.365181
 31
0.0
  0
LINE
  8
0
 62
     0
 10
5.09598
 20
0.365181
 30
0.0
 11
4.70186
 21
0.38034
 31
0.0
  0
LINE
  8
0
 62
     0
 10
4.70186
 20
0.38034
 30
0.0
 11
4.3119
 21
0.427193
 31
0.0
  0
LINE
  8
0
 62
     0
 10
4.3119
 20
0.427193
 30
0.0
 11
3.9274
 21
0.502984
 31
0.0
  0
LINE
  8
0
 62
     0
 10
3.9274
 20
0.502984
 30
0.0
 11
3.54983
 21
0.609092
 31
0.0
  0
LINE
  8
0
 62
     0
 10
3.54983
 20
0.609092
 30
0.0
 11
3.18189
 21
0.745518
 31
0.0
  0
LINE
  8
0
 62
     0
 10
3.18189
 20
0.745518
 30
0.0
 11
2.82498
 21
0.909507
 31
0.0
  0
LINE
  8
0
 62
     0
 10
2.82498
 20
0.909507
 30
0.0
 11
2.48185
 21
1.10105
 31
0.0
  0
LINE
  8
0
 62
     0
 10
2.48185
 20
1.10105
 30
0.0
 11
2.15663
 21
1.32016
 31
0.0
  0
LINE
  8
0
 62
     0
 10
2.15663
 20
1.32016
 30
0.0
 11
1.84795
 21
1.5627
 31
0.0
  0
LINE
  8
0
 62
     0
 10
1.84795
 20
1.5627
 30
0.0
 11
1.55994
 21
1.83003
 31
0.0
  0
LINE
  8
0
 62
     0
 10
1.55994
 20
1.83003
 30
0.0
 11
1.2926
 21
2.11805
 31
0.0
  0
LINE
  8
0
 62
     0
 10
1.2926
 20
2.11805
 30
0.0
 11
1.05006
 21
2.42673
 31
0.0
  0
LINE
  8
0
 62
     0
 10
1.05006
 20
2.42673
 30
0.0
 11
0.830957
 21
2.75194
 31
0.0
  0
LINE
  8
0
 62
     0
 10
0.830957
 20
2.75194
 30
0.0
 11
0.63941
 21
3.09507
 31
0.0
  0
LINE
  8
0
 62
     0
 10
0.63941
 20
3.09507
 30
0.0
 11
0.475424
 21
3.45199
 31
0.0
  0
LINE
  8
0
 62
     0
 10
0.475424
 20
3.45199
 30
0.0
 11
0.338998
 21
3.81991
 31
0.0
  0
LINE
  8
0
 62
     0
 10
0.338998
 20
3.81991
 30
0.0
 11
0.232888
 21
4.19749
 31
0.0
  0
LINE
  8
0
 62
     0
 10
0.232888
 20
4.19749
 30
0.0
 11
0.157097
 21
4.58198
 31
0.0
  0
LINE
  8
0
 62
     0
 10
0.157097
 20
4.58198
 30
0.0
 11
0.110243
 21
4.97198
 31
0.0
  0
LINE
  8
0
 62
     0
 10
0.110243
 20
4.97198
 30
0.0
 11
0.0950846
 21
5.36607
 31
0.0
  0
LINE
  8
0
 62
     0
 10
0.0950846
 20
5.36607
 30
0.0
 11
0.0950846
 21
110.615
 31
0.0
  0
LINE
  8
0
 62
     0
 10
0.0950846
 20
110.615
 30
0.0
 11
0.110243
 21
111.009
 31
0.0
  0
LINE
  8
0
 62
     0
 10
0.110243
 20
111.009
 30
0.0
 11
0.157097
 21
111.399
 31
0.0
  0
LINE
  8
0
 62
     0
 10
0.157097
 20
111.399
 30
0.0
 11
0.232888
 21
111.784
 31
0.0
  0
LINE
  8
0
 62
     0
 10
0.232888
 20
111.784
 30
0.0
 11
0.338998
 21
112.161
 31
0.0
  0
LINE
  8
0
 62
     0
 10
0.338998
 20
112.161
 30
0.0
 11
0.475424
 21
112.529
 31
0.0
  0
LINE
  8
0
 62
     0
 10
0.475424
 20
112.529
 30
0.0
 11
0.63941
 21
112.886
 31
0.0
  0
LINE
  8
0
 62
     0
 10
0.63941
 20
112.886
 30
0.0
 11
0.830957
 21
113.229
 31
0.0
  0
LINE
  8
0
 62
     0
 10
0.830957
 20
113.229
 30
0.0
 11
1.05006
 21
113.555
 31
0.0
  0
LINE
  8
0
 62
     0
 10
1.05006
 20
113.555
 30
0.0
 11
1.2926
 21
113.863
 31
0.0
  0
LINE
  8
0
 62
     0
 10
1.2926
 20
113.863
 30
0.0
 11
1.55994
 21
114.151
 31
0.0
  0
LINE
  8
0
 62
     0
 10
1.55994
 20
114.151
 30
0.0
 11
1.84795
 21
114.419
 31
0.0
  0
LINE
  8
0
 62
     0
 10
1.84795
 20
114.419
 30
0.0
 11
2.15663
 21
114.661
 31
0.0
  0
LINE
  8
0
 62
     0
 10
2.15663
 20
114.661
 30
0.0
 11
2.48185
 21
114.88
 31
0.0
  0
LINE
  8
0
 62
     0
 10
2.48185
 20
114.88
 30
0.0
 11
2.82498
 21
115.072
 31
0.0
  0
LINE
  8
0
 62
     0
 10
2.82498
 20
115.072
 30
0.0
 11
3.18189
 21
115.236
 31
0.0
  0
LINE
  8
0
 62
     0
 10
3.18189
 20
115.236
 30
0.0
 11
3.54983
 21
115.372
 31
0.0
  0
LINE
  8
0
 62
     0
 10
3.54983
 20
115.372
 30
0.0
 11
3.9274
 21
115.478
 31
0.0
  0
LINE
  8
0
 62
     0
 10
3.9274
 20
115.478
 30
0.0
 11
4.3119
 21
115.554
 31
0.0
  0
LINE
  8
0
 62
     0
 10
4.3119
 20
115.554
 30
0.0
 11
4.70186
 21
115.601
 31
0.0
  0
LINE
  8
0
 62
     0
 10
4.70186
 20
115.601
 30
0.0
 11
5.09598
 21
115.616
 31
0.0
  0
LINE
  8
0
 62
     0
 10
5.09598
 20
115.616
 30
0.0
 11
91.2964
 21
115.616
 31
0.0
  0
LINE
  8
0
 62
     0
 10
4.55443
 20
7.02938
 30
0.0
 11
4.06658
 21
6.77997
 31
0.0
  0
LINE
  8
0
 62
     0
 10
4.06658
 20
6.77997
 30
0.0
 11
3.67937
 21
6.3941
 31
0.0
  0
LINE
  8
0
 62
     0
 10
3.67937
 20
6.3941
 30
0.0
 11
3.42994
 21
5.90628
 31
0.0
  0
LINE
  8
0
 62
     0
 10
3.42994
 20
5.90628
 30
0.0
 11
3.34588
 21
5.36469
 31
0.0
  0
LINE
  8
0
 62
     0
 10
3.34588
 20
5.36469
 30
0.0
 11
3.42994
 21
4.82452
 31
0.0
  0
LINE
  8
0
 62
     0
 10
3.42994
 20
4.82452
 30
0.0
 11
3.67937
 21
4.3367
 31
0.0
  0
LINE
  8
0
 62
     0
 10
3.67937
 20
4.3367
 30
0.0
 11
4.06658
 21
3.94945
 31
0.0
  0
LINE
  8
0
 62
     0
 10
4.06658
 20
3.94945
 30
0.0
 11
4.55443
 21
3.70004
 31
0.0
  0
LINE
  8
0
 62
     0
 10
4.55443
 20
3.70004
 30
0.0
 11
5.09598
 21
3.6146
 31
0.0
  0
LINE
  8
0
 62
     0
 10
5.09598
 20
3.6146
 30
0.0
 11
5.63619
 21
3.70004
 31
0.0
  0
LINE
  8
0
 62
     0
 10
5.63619
 20
3.70004
 30
0.0
 11
6.12401
 21
3.94945
 31
0.0
  0
LINE
  8
0
 62
     0
 10
6.12401
 20
3.94945
 30
0.0
 11
6.50984
 21
4.3367
 31
0.0
  0
LINE
  8
0
 62
     0
 10
6.50984
 20
4.3367
 30
0.0
 11
6.75929
 21
4.82452
 31
0.0
  0
LINE
  8
0
 62
     0
 10
6.75929
 20
4.82452
 30
0.0
 11
6.84611
 21
5.36469
 31
0.0
  0
LINE
  8
0
 62
     0
 10
6.84611
 20
5.36469
 30
0.0
 11
6.75929
 21
5.90628
 31
0.0
  0
LINE
  8
0
 62
     0
 10
6.75929
 20
5.90628
 30
0.0
 11
6.50984
 21
6.3941
 31
0.0
  0
LINE
  8
0
 62
     0
 10
6.50984
 20
6.3941
 30
0.0
 11
6.12401
 21
6.77997
 31
0.0
  0
LINE
  8
0
 62
     0
 10
6.12401
 20
6.77997
 30
0.0
 11
5.63619
 21
7.02938
 31
0.0
  0
LINE
  8
0
 62
     0
 10
5.63619
 20
7.02938
 30
0.0
 11
5.09598
 21
7.11482
 31
0.0
  0
LINE
  8
0
 62
     0
 10
5.09598
 20
7.11482
 30
0.0
 11
4.55443
 21
7.02938
 31
0.0
  0
LINE
  8
0
 62
     0
 10
90.7549
 20
7.02938
 30
0.0
 11
90.267
 21
6.77997
 31
0.0
  0
LINE
  8
0
 62
     0
 10
90.267
 20
6.77997
 30
0.0
 11
89.8811
 21
6.3941
 31
0.0
  0
LINE
  8
0
 62
     0
 10
89.8811
 20
6.3941
 30
0.0
 11
89.6317
 21
5.90628
 31
0.0
  0
LINE
  8
0
 62
     0
 10
89.6317
 20
5.90628
 30
0.0
 11
89.5463
 21
5.36469
 31
0.0
  0
LINE
  8
0
 62
     0
 10
89.5463
 20
5.36469
 30
0.0
 11
89.6317
 21
4.82452
 31
0.0
  0
LINE
  8
0
 62
     0
 10
89.6317
 20
4.82452
 30
0.0
 11
89.8811
 21
4.3367
 31
0.0
  0
LINE
  8
0
 62
     0
 10
89.8811
 20
4.3367
 30
0.0
 11
90.267
 21
3.94945
 31
0.0
  0
LINE
  8
0
 62
     0
 10
90.267
 20
3.94945
 30
0.0
 11
90.7549
 21
3.70004
 31
0.0
  0
LINE
  8
0
 62
     0
 10
90.7549
 20
3.70004
 30
0.0
 11
91.2964
 21
3.6146
 31
0.0
  0
LINE
  8
0
 62
     0
 10
91.2964
 20
3.6146
 30
0.0
 11
91.8365
 21
3.70004
 31
0.0
  0
LINE
  8
0
 62
     0
 10
91.8365
 20
3.70004
 30
0.0
 11
92.3244
 21
3.94945
 31
0.0
  0
LINE
  8
0
 62
     0
 10
92.3244
 20
3.94945
 30
0.0
 11
92.7118
 21
4.3367
 31
0.0
  0
LINE
  8
0
 62
     0
 10
92.7118
 20
4.3367
 30
0.0
 11
92.9612
 21
4.82452
 31
0.0
  0
LINE
  8
0
 62
     0
 10
92.9612
 20
4.82452
 30
0.0
 11
93.0465
 21
5.36469
 31
0.0
  0
LINE
  8
0
 62
     0
 10
93.0465
 20
5.36469
 30
0.0
 11
92.9612
 21
5.90628
 31
0.0
  0
LINE
  8
0
 62
     0
 10
92.9612
 20
5.90628
 30
0.0
 11
92.7118
 21
6.3941
 31
0.0
  0
LINE
  8
0
 62
     0
 10
92.7118
 20
6.3941
 30
0.0
 11
92.3244
 21
6.77997
 31
0.0
  0
LINE
  8
0
 62
     0
 10
92.3244
 20
6.77997
 30
0.0
 11
91.8365
 21
7.02938
 31
0.0
  0
LINE
  8
0
 62
     0
 10
91.8365
 20
7.02938
 30
0.0
 11
91.2964
 21
7.11482
 31
0.0
  0
LINE
  8
0
 62
     0
 10
91.2964
 20
7.11482
 30
0.0
 11
90.7549
 21
7.02938
 31
0.0
  0
LINE
  8
0
 62
     0
 10
22.1451
 20
26.8911
 30
0.0
 11
22.1451
 21
25.8906
 31
0.0
  0
LINE
  8
0
 62
     0
 10
22.1451
 20
25.8906
 30
0.0
 11
21.3444
 21
25.8906
 31
0.0
  0
LINE
  8
0
 62
     0
 10
21.3444
 20
25.8906
 30
0.0
 11
21.3444
 21
22.79
 31
0.0
  0
LINE
  8
0
 62
     0
 10
21.3444
 20
22.79
 30
0.0
 11
22.1451
 21
22.79
 31
0.0
  0
LINE
  8
0
 62
     0
 10
22.1451
 20
22.79
 30
0.0
 11
22.1451
 21
22.1905
 31
0.0
  0
LINE
  8
0
 62
     0
 10
22.1451
 20
22.1905
 30
0.0
 11
20.621
 21
22.1905
 31
0.0
  0
LINE
  8
0
 62
     0
 10
20.621
 20
22.1905
 30
0.0
 11
20.621
 21
25.4207
 31
0.0
  0
LINE
  8
0
 62
     0
 10
20.621
 20
25.4207
 30
0.0
 11
18.8943
 21
25.4207
 31
0.0
  0
LINE
  8
0
 62
     0
 10
18.8943
 20
25.4207
 30
0.0
 11
18.8943
 21
26.3412
 31
0.0
  0
LINE
  8
0
 62
     0
 10
18.8943
 20
26.3412
 30
0.0
 11
15.5939
 21
26.3412
 31
0.0
  0
LINE
  8
0
 62
     0
 10
15.5939
 20
26.3412
 30
0.0
 11
15.5939
 21
25.4207
 31
0.0
  0
LINE
  8
0
 62
     0
 10
15.5939
 20
25.4207
 30
0.0
 11
13.87
 21
25.4207
 31
0.0
  0
LINE
  8
0
 62
     0
 10
13.87
 20
25.4207
 30
0.0
 11
13.87
 21
22.1905
 31
0.0
  0
LINE
  8
0
 62
     0
 10
13.87
 20
22.1905
 30
0.0
 11
13.0445
 21
22.1905
 31
0.0
  0
LINE
  8
0
 62
     0
 10
13.0445
 20
22.1905
 30
0.0
 11
13.0445
 21
19.3904
 31
0.0
  0
LINE
  8
0
 62
     0
 10
13.0445
 20
19.3904
 30
0.0
 11
13.87
 21
19.3904
 31
0.0
  0
LINE
  8
0
 62
     0
 10
13.87
 20
19.3904
 30
0.0
 11
13.87
 21
13.1203
 31
0.0
  0
LINE
  8
0
 62
     0
 10
13.87
 20
13.1203
 30
0.0
 11
15.5939
 21
13.1203
 31
0.0
  0
LINE
  8
0
 62
     0
 10
15.5939
 20
13.1203
 30
0.0
 11
15.5939
 21
12.1405
 31
0.0
  0
LINE
  8
0
 62
     0
 10
15.5939
 20
12.1405
 30
0.0
 11
18.8943
 21
12.1405
 31
0.0
  0
LINE
  8
0
 62
     0
 10
18.8943
 20
12.1405
 30
0.0
 11
18.8943
 21
13.1203
 31
0.0
  0
LINE
  8
0
 62
     0
 10
18.8943
 20
13.1203
 30
0.0
 11
20.621
 21
13.1203
 31
0.0
  0
LINE
  8
0
 62
     0
 10
20.621
 20
13.1203
 30
0.0
 11
20.621
 21
17.5907
 31
0.0
  0
LINE
  8
0
 62
     0
 10
20.621
 20
17.5907
 30
0.0
 11
22.1451
 21
17.5907
 31
0.0
  0
LINE
  8
0
 62
     0
 10
22.1451
 20
17.5907
 30
0.0
 11
22.1451
 21
16.9912
 31
0.0
  0
LINE
  8
0
 62
     0
 10
22.1451
 20
16.9912
 30
0.0
 11
21.3444
 21
16.9912
 31
0.0
  0
LINE
  8
0
 62
     0
 10
21.3444
 20
16.9912
 30
0.0
 11
21.3444
 21
13.8906
 31
0.0
  0
LINE
  8
0
 62
     0
 10
21.3444
 20
13.8906
 30
0.0
 11
22.1451
 21
13.8906
 31
0.0
  0
LINE
  8
0
 62
     0
 10
22.1451
 20
13.8906
 30
0.0
 11
22.1451
 21
12.8902
 31
0.0
  0
LINE
  8
0
 62
     0
 10
22.1451
 20
12.8902
 30
0.0
 11
36.146
 21
12.8902
 31
0.0
  0
LINE
  8
0
 62
     0
 10
36.146
 20
12.8902
 30
0.0
 11
36.146
 21
13.8906
 31
0.0
  0
LINE
  8
0
 62
     0
 10
36.146
 20
13.8906
 30
0.0
 11
36.9439
 21
13.8906
 31
0.0
  0
LINE
  8
0
 62
     0
 10
36.9439
 20
13.8906
 30
0.0
 11
36.9439
 21
16.9912
 31
0.0
  0
LINE
  8
0
 62
     0
 10
36.9439
 20
16.9912
 30
0.0
 11
36.146
 21
16.9912
 31
0.0
  0
LINE
  8
0
 62
     0
 10
36.146
 20
16.9912
 30
0.0
 11
36.146
 21
17.5907
 31
0.0
  0
LINE
  8
0
 62
     0
 10
36.146
 20
17.5907
 30
0.0
 11
37.67
 21
17.5907
 31
0.0
  0
LINE
  8
0
 62
     0
 10
37.67
 20
17.5907
 30
0.0
 11
37.67
 21
13.1203
 31
0.0
  0
LINE
  8
0
 62
     0
 10
37.67
 20
13.1203
 30
0.0
 11
39.3954
 21
13.1203
 31
0.0
  0
LINE
  8
0
 62
     0
 10
39.3954
 20
13.1203
 30
0.0
 11
39.3954
 21
12.1405
 31
0.0
  0
LINE
  8
0
 62
     0
 10
39.3954
 20
12.1405
 30
0.0
 11
42.6942
 21
12.1405
 31
0.0
  0
LINE
  8
0
 62
     0
 10
42.6942
 20
12.1405
 30
0.0
 11
42.6942
 21
13.1203
 31
0.0
  0
LINE
  8
0
 62
     0
 10
42.6942
 20
13.1203
 30
0.0
 11
44.4197
 21
13.1203
 31
0.0
  0
LINE
  8
0
 62
     0
 10
44.4197
 20
13.1203
 30
0.0
 11
44.4197
 21
19.3904
 31
0.0
  0
LINE
  8
0
 62
     0
 10
44.4197
 20
19.3904
 30
0.0
 11
45.2452
 21
19.3904
 31
0.0
  0
LINE
  8
0
 62
     0
 10
45.2452
 20
19.3904
 30
0.0
 11
45.2452
 21
22.1905
 31
0.0
  0
LINE
  8
0
 62
     0
 10
45.2452
 20
22.1905
 30
0.0
 11
44.4197
 21
22.1905
 31
0.0
  0
LINE
  8
0
 62
     0
 10
44.4197
 20
22.1905
 30
0.0
 11
44.4197
 21
25.4207
 31
0.0
  0
LINE
  8
0
 62
     0
 10
44.4197
 20
25.4207
 30
0.0
 11
42.6942
 21
25.4207
 31
0.0
  0
LINE
  8
0
 62
     0
 10
42.6942
 20
25.4207
 30
0.0
 11
42.6942
 21
26.3412
 31
0.0
  0
LINE
  8
0
 62
     0
 10
42.6942
 20
26.3412
 30
0.0
 11
39.3954
 21
26.3412
 31
0.0
  0
LINE
  8
0
 62
     0
 10
39.3954
 20
26.3412
 30
0.0
 11
39.3954
 21
25.4207
 31
0.0
  0
LINE
  8
0
 62
     0
 10
39.3954
 20
25.4207
 30
0.0
 11
37.67
 21
25.4207
 31
0.0
  0
LINE
  8
0
 62
     0
 10
37.67
 20
25.4207
 30
0.0
 11
37.67
 21
22.1905
 31
0.0
  0
LINE
  8
0
 62
     0
 10
37.67
 20
22.1905
 30
0.0
 11
36.146
 21
22.1905
 31
0.0
  0
LINE
  8
0
 62
     0
 10
36.146
 20
22.1905
 30
0.0
 11
36.146
 21
22.79
 31
0.0
  0
LINE
  8
0
 62
     0
 10
36.146
 20
22.79
 30
0.0
 11
36.9439
 21
22.79
 31
0.0
  0
LINE
  8
0
 62
     0
 10
36.9439
 20
22.79
 30
0.0
 11
36.9439
 21
25.8906
 31
0.0
  0
LINE
  8
0
 62
     0
 10
36.9439
 20
25.8906
 30
0.0
 11
36.146
 21
25.8906
 31
0.0
  0
LINE
  8
0
 62
     0
 10
36.146
 20
25.8906
 30
0.0
 11
36.146
 21
26.8911
 31
0.0
  0
LINE
  8
0
 62
     0
 10
36.146
 20
26.8911
 30
0.0
 11
22.1451
 21
26.8911
 31
0.0
  0
LINE
  8
0
 62
     0
 10
50.7199
 20
26.8911
 30
0.0
 11
50.7199
 21
25.8906
 31
0.0
  0
LINE
  8
0
 62
     0
 10
50.7199
 20
25.8906
 30
0.0
 11
49.9209
 21
25.8906
 31
0.0
  0
LINE
  8
0
 62
     0
 10
49.9209
 20
25.8906
 30
0.0
 11
49.9209
 21
22.79
 31
0.0
  0
LINE
  8
0
 62
     0
 10
49.9209
 20
22.79
 30
0.0
 11
50.7199
 21
22.79
 31
0.0
  0
LINE
  8
0
 62
     0
 10
50.7199
 20
22.79
 30
0.0
 11
50.7199
 21
16.9912
 31
0.0
  0
LINE
  8
0
 62
     0
 10
50.7199
 20
16.9912
 30
0.0
 11
49.9209
 21
16.9912
 31
0.0
  0
LINE
  8
0
 62
     0
 10
49.9209
 20
16.9912
 30
0.0
 11
49.9209
 21
13.8906
 31
0.0
  0
LINE
  8
0
 62
     0
 10
49.9209
 20
13.8906
 30
0.0
 11
50.7199
 21
13.8906
 31
0.0
  0
LINE
  8
0
 62
     0
 10
50.7199
 20
13.8906
 30
0.0
 11
50.7199
 21
12.8902
 31
0.0
  0
LINE
  8
0
 62
     0
 10
50.7199
 20
12.8902
 30
0.0
 11
64.721
 21
12.8902
 31
0.0
  0
LINE
  8
0
 62
     0
 10
64.721
 20
12.8902
 30
0.0
 11
64.721
 21
13.8906
 31
0.0
  0
LINE
  8
0
 62
     0
 10
64.721
 20
13.8906
 30
0.0
 11
65.5204
 21
13.8906
 31
0.0
  0
LINE
  8
0
 62
     0
 10
65.5204
 20
13.8906
 30
0.0
 11
65.5204
 21
16.9912
 31
0.0
  0
LINE
  8
0
 62
     0
 10
65.5204
 20
16.9912
 30
0.0
 11
64.721
 21
16.9912
 31
0.0
  0
LINE
  8
0
 62
     0
 10
64.721
 20
16.9912
 30
0.0
 11
64.721
 21
22.79
 31
0.0
  0
LINE
  8
0
 62
     0
 10
64.721
 20
22.79
 30
0.0
 11
65.5204
 21
22.79
 31
0.0
  0
LINE
  8
0
 62
     0
 10
65.5204
 20
22.79
 30
0.0
 11
65.5204
 21
25.8906
 31
0.0
  0
LINE
  8
0
 62
     0
 10
65.5204
 20
25.8906
 30
0.0
 11
64.721
 21
25.8906
 31
0.0
  0
LINE
  8
0
 62
     0
 10
64.721
 20
25.8906
 30
0.0
 11
64.721
 21
26.8911
 31
0.0
  0
LINE
  8
0
 62
     0
 10
64.721
 20
26.8911
 30
0.0
 11
50.7199
 21
26.8911
 31
0.0
  0
LINE
  8
0
 62
     0
 10
76.2702
 20
45.5154
 30
0.0
 11
76.2702
 21
44.6913
 31
0.0
  0
LINE
  8
0
 62
     0
 10
76.2702
 20
44.6913
 30
0.0
 11
70.0003
 21
44.6913
 31
0.0
  0
LINE
  8
0
 62
     0
 10
70.0003
 20
44.6913
 30
0.0
 11
70.0003
 21
42.9659
 31
0.0
  0
LINE
  8
0
 62
     0
 10
70.0003
 20
42.9659
 30
0.0
 11
69.0203
 21
42.9659
 31
0.0
  0
LINE
  8
0
 62
     0
 10
69.0203
 20
42.9659
 30
0.0
 11
69.0203
 21
39.6656
 31
0.0
  0
LINE
  8
0
 62
     0
 10
69.0203
 20
39.6656
 30
0.0
 11
70.0003
 21
39.6656
 31
0.0
  0
LINE
  8
0
 62
     0
 10
70.0003
 20
39.6656
 30
0.0
 11
70.0003
 21
37.9402
 31
0.0
  0
LINE
  8
0
 62
     0
 10
70.0003
 20
37.9402
 30
0.0
 11
74.4707
 21
37.9402
 31
0.0
  0
LINE
  8
0
 62
     0
 10
74.4707
 20
37.9402
 30
0.0
 11
74.4707
 21
36.4162
 31
0.0
  0
LINE
  8
0
 62
     0
 10
74.4707
 20
36.4162
 30
0.0
 11
73.8699
 21
36.4162
 31
0.0
  0
LINE
  8
0
 62
     0
 10
73.8699
 20
36.4162
 30
0.0
 11
73.8699
 21
37.2152
 31
0.0
  0
LINE
  8
0
 62
     0
 10
73.8699
 20
37.2152
 30
0.0
 11
70.7704
 21
37.2152
 31
0.0
  0
LINE
  8
0
 62
     0
 10
70.7704
 20
37.2152
 30
0.0
 11
70.7704
 21
36.4162
 31
0.0
  0
LINE
  8
0
 62
     0
 10
70.7704
 20
36.4162
 30
0.0
 11
69.7699
 21
36.4162
 31
0.0
  0
LINE
  8
0
 62
     0
 10
69.7699
 20
36.4162
 30
0.0
 11
69.7699
 21
22.4152
 31
0.0
  0
LINE
  8
0
 62
     0
 10
69.7699
 20
22.4152
 30
0.0
 11
70.7704
 21
22.4152
 31
0.0
  0
LINE
  8
0
 62
     0
 10
70.7704
 20
22.4152
 30
0.0
 11
70.7704
 21
21.6159
 31
0.0
  0
LINE
  8
0
 62
     0
 10
70.7704
 20
21.6159
 30
0.0
 11
73.8699
 21
21.6159
 31
0.0
  0
LINE
  8
0
 62
     0
 10
73.8699
 20
21.6159
 30
0.0
 11
73.8699
 21
22.4152
 31
0.0
  0
LINE
  8
0
 62
     0
 10
73.8699
 20
22.4152
 30
0.0
 11
74.4707
 21
22.4152
 31
0.0
  0
LINE
  8
0
 62
     0
 10
74.4707
 20
22.4152
 30
0.0
 11
74.4707
 21
20.8911
 31
0.0
  0
LINE
  8
0
 62
     0
 10
74.4707
 20
20.8911
 30
0.0
 11
70.0003
 21
20.8911
 31
0.0
  0
LINE
  8
0
 62
     0
 10
70.0003
 20
20.8911
 30
0.0
 11
70.0003
 21
19.1657
 31
0.0
  0
LINE
  8
0
 62
     0
 10
70.0003
 20
19.1657
 30
0.0
 11
69.0203
 21
19.1657
 31
0.0
  0
LINE
  8
0
 62
     0
 10
69.0203
 20
19.1657
 30
0.0
 11
69.0203
 21
15.8654
 31
0.0
  0
LINE
  8
0
 62
     0
 10
69.0203
 20
15.8654
 30
0.0
 11
70.0003
 21
15.8654
 31
0.0
  0
LINE
  8
0
 62
     0
 10
70.0003
 20
15.8654
 30
0.0
 11
70.0003
 21
14.14
 31
0.0
  0
LINE
  8
0
 62
     0
 10
70.0003
 20
14.14
 30
0.0
 11
76.2702
 21
14.14
 31
0.0
  0
LINE
  8
0
 62
     0
 10
76.2702
 20
14.14
 30
0.0
 11
76.2702
 21
13.316
 31
0.0
  0
LINE
  8
0
 62
     0
 10
76.2702
 20
13.316
 30
0.0
 11
79.0706
 21
13.316
 31
0.0
  0
LINE
  8
0
 62
     0
 10
79.0706
 20
13.316
 30
0.0
 11
79.0706
 21
14.14
 31
0.0
  0
LINE
  8
0
 62
     0
 10
79.0706
 20
14.14
 30
0.0
 11
82.3006
 21
14.14
 31
0.0
  0
LINE
  8
0
 62
     0
 10
82.3006
 20
14.14
 30
0.0
 11
82.3006
 21
15.8654
 31
0.0
  0
LINE
  8
0
 62
     0
 10
82.3006
 20
15.8654
 30
0.0
 11
83.221
 21
15.8654
 31
0.0
  0
LINE
  8
0
 62
     0
 10
83.221
 20
15.8654
 30
0.0
 11
83.221
 21
19.1657
 31
0.0
  0
LINE
  8
0
 62
     0
 10
83.221
 20
19.1657
 30
0.0
 11
82.3006
 21
19.1657
 31
0.0
  0
LINE
  8
0
 62
     0
 10
82.3006
 20
19.1657
 30
0.0
 11
82.3006
 21
20.8911
 31
0.0
  0
LINE
  8
0
 62
     0
 10
82.3006
 20
20.8911
 30
0.0
 11
79.0706
 21
20.8911
 31
0.0
  0
LINE
  8
0
 62
     0
 10
79.0706
 20
20.8911
 30
0.0
 11
79.0706
 21
22.4152
 31
0.0
  0
LINE
  8
0
 62
     0
 10
79.0706
 20
22.4152
 30
0.0
 11
79.6699
 21
22.4152
 31
0.0
  0
LINE
  8
0
 62
     0
 10
79.6699
 20
22.4152
 30
0.0
 11
79.6699
 21
21.6159
 31
0.0
  0
LINE
  8
0
 62
     0
 10
79.6699
 20
21.6159
 30
0.0
 11
82.7705
 21
21.6159
 31
0.0
  0
LINE
  8
0
 62
     0
 10
82.7705
 20
21.6159
 30
0.0
 11
82.7705
 21
22.4152
 31
0.0
  0
LINE
  8
0
 62
     0
 10
82.7705
 20
22.4152
 30
0.0
 11
83.771
 21
22.4152
 31
0.0
  0
LINE
  8
0
 62
     0
 10
83.771
 20
22.4152
 30
0.0
 11
83.771
 21
36.4162
 31
0.0
  0
LINE
  8
0
 62
     0
 10
83.771
 20
36.4162
 30
0.0
 11
82.7705
 21
36.4162
 31
0.0
  0
LINE
  8
0
 62
     0
 10
82.7705
 20
36.4162
 30
0.0
 11
82.7705
 21
37.2152
 31
0.0
  0
LINE
  8
0
 62
     0
 10
82.7705
 20
37.2152
 30
0.0
 11
79.6699
 21
37.2152
 31
0.0
  0
LINE
  8
0
 62
     0
 10
79.6699
 20
37.2152
 30
0.0
 11
79.6699
 21
36.4162
 31
0.0
  0
LINE
  8
0
 62
     0
 10
79.6699
 20
36.4162
 30
0.0
 11
79.0706
 21
36.4162
 31
0.0
  0
LINE
  8
0
 62
     0
 10
79.0706
 20
36.4162
 30
0.0
 11
79.0706
 21
37.9402
 31
0.0
  0
LINE
  8
0
 62
     0
 10
79.0706
 20
37.9402
 30
0.0
 11
82.3006
 21
37.9402
 31
0.0
  0
LINE
  8
0
 62
     0
 10
82.3006
 20
37.9402
 30
0.0
 11
82.3006
 21
39.6656
 31
0.0
  0
LINE
  8
0
 62
     0
 10
82.3006
 20
39.6656
 30
0.0
 11
83.221
 21
39.6656
 31
0.0
  0
LINE
  8
0
 62
     0
 10
83.221
 20
39.6656
 30
0.0
 11
83.221
 21
42.9659
 31
0.0
  0
LINE
  8
0
 62
     0
 10
83.221
 20
42.9659
 30
0.0
 11
82.3006
 21
42.9659
 31
0.0
  0
LINE
  8
0
 62
     0
 10
82.3006
 20
42.9659
 30
0.0
 11
82.3006
 21
44.6913
 31
0.0
  0
LINE
  8
0
 62
     0
 10
82.3006
 20
44.6913
 30
0.0
 11
79.0706
 21
44.6913
 31
0.0
  0
LINE
  8
0
 62
     0
 10
79.0706
 20
44.6913
 30
0.0
 11
79.0706
 21
45.5154
 31
0.0
  0
LINE
  8
0
 62
     0
 10
79.0706
 20
45.5154
 30
0.0
 11
76.2702
 21
45.5154
 31
0.0
  0
LINE
  8
0
 62
     0
 10
50.7199
 20
45.9412
 30
0.0
 11
50.7199
 21
44.9407
 31
0.0
  0
LINE
  8
0
 62
     0
 10
50.7199
 20
44.9407
 30
0.0
 11
49.9209
 21
44.9407
 31
0.0
  0
LINE
  8
0
 62
     0
 10
49.9209
 20
44.9407
 30
0.0
 11
49.9209
 21
41.8401
 31
0.0
  0
LINE
  8
0
 62
     0
 10
49.9209
 20
41.8401
 30
0.0
 11
50.7199
 21
41.8401
 31
0.0
  0
LINE
  8
0
 62
     0
 10
50.7199
 20
41.8401
 30
0.0
 11
50.7199
 21
36.0412
 31
0.0
  0
LINE
  8
0
 62
     0
 10
50.7199
 20
36.0412
 30
0.0
 11
49.9209
 21
36.0412
 31
0.0
  0
LINE
  8
0
 62
     0
 10
49.9209
 20
36.0412
 30
0.0
 11
49.9209
 21
32.9406
 31
0.0
  0
LINE
  8
0
 62
     0
 10
49.9209
 20
32.9406
 30
0.0
 11
50.7199
 21
32.9406
 31
0.0
  0
LINE
  8
0
 62
     0
 10
50.7199
 20
32.9406
 30
0.0
 11
50.7199
 21
31.9402
 31
0.0
  0
LINE
  8
0
 62
     0
 10
50.7199
 20
31.9402
 30
0.0
 11
64.721
 21
31.9402
 31
0.0
  0
LINE
  8
0
 62
     0
 10
64.721
 20
31.9402
 30
0.0
 11
64.721
 21
32.9406
 31
0.0
  0
LINE
  8
0
 62
     0
 10
64.721
 20
32.9406
 30
0.0
 11
65.5204
 21
32.9406
 31
0.0
  0
LINE
  8
0
 62
     0
 10
65.5204
 20
32.9406
 30
0.0
 11
65.5204
 21
36.0412
 31
0.0
  0
LINE
  8
0
 62
     0
 10
65.5204
 20
36.0412
 30
0.0
 11
64.721
 21
36.0412
 31
0.0
  0
LINE
  8
0
 62
     0
 10
64.721
 20
36.0412
 30
0.0
 11
64.721
 21
41.8401
 31
0.0
  0
LINE
  8
0
 62
     0
 10
64.721
 20
41.8401
 30
0.0
 11
65.5204
 21
41.8401
 31
0.0
  0
LINE
  8
0
 62
     0
 10
65.5204
 20
41.8401
 30
0.0
 11
65.5204
 21
44.9407
 31
0.0
  0
LINE
  8
0
 62
     0
 10
65.5204
 20
44.9407
 30
0.0
 11
64.721
 21
44.9407
 31
0.0
  0
LINE
  8
0
 62
     0
 10
64.721
 20
44.9407
 30
0.0
 11
64.721
 21
45.9412
 31
0.0
  0
LINE
  8
0
 62
     0
 10
64.721
 20
45.9412
 30
0.0
 11
50.7199
 21
45.9412
 31
0.0
  0
LINE
  8
0
 62
     0
 10
31.6701
 20
45.9412
 30
0.0
 11
31.6701
 21
44.9407
 31
0.0
  0
LINE
  8
0
 62
     0
 10
31.6701
 20
44.9407
 30
0.0
 11
30.8708
 21
44.9407
 31
0.0
  0
LINE
  8
0
 62
     0
 10
30.8708
 20
44.9407
 30
0.0
 11
30.8708
 21
41.8401
 31
0.0
  0
LINE
  8
0
 62
     0
 10
30.8708
 20
41.8401
 30
0.0
 11
31.6701
 21
41.8401
 31
0.0
  0
LINE
  8
0
 62
     0
 10
31.6701
 20
41.8401
 30
0.0
 11
31.6701
 21
36.0412
 31
0.0
  0
LINE
  8
0
 62
     0
 10
31.6701
 20
36.0412
 30
0.0
 11
30.8708
 21
36.0412
 31
0.0
  0
LINE
  8
0
 62
     0
 10
30.8708
 20
36.0412
 30
0.0
 11
30.8708
 21
32.9406
 31
0.0
  0
LINE
  8
0
 62
     0
 10
30.8708
 20
32.9406
 30
0.0
 11
31.6701
 21
32.9406
 31
0.0
  0
LINE
  8
0
 62
     0
 10
31.6701
 20
32.9406
 30
0.0
 11
31.6701
 21
31.9402
 31
0.0
  0
LINE
  8
0
 62
     0
 10
31.6701
 20
31.9402
 30
0.0
 11
45.671
 21
31.9402
 31
0.0
  0
LINE
  8
0
 62
     0
 10
45.671
 20
31.9402
 30
0.0
 11
45.671
 21
32.9406
 31
0.0
  0
LINE
  8
0
 62
     0
 10
45.671
 20
32.9406
 30
0.0
 11
46.4704
 21
32.9406
 31
0.0
  0
LINE
  8
0
 62
     0
 10
46.4704
 20
32.9406
 30
0.0
 11
46.4704
 21
36.0412
 31
0.0
  0
LINE
  8
0
 62
     0
 10
46.4704
 20
36.0412
 30
0.0
 11
45.671
 21
36.0412
 31
0.0
  0
LINE
  8
0
 62
     0
 10
45.671
 20
36.0412
 30
0.0
 11
45.671
 21
41.8401
 31
0.0
  0
LINE
  8
0
 62
     0
 10
45.671
 20
41.8401
 30
0.0
 11
46.4704
 21
41.8401
 31
0.0
  0
LINE
  8
0
 62
     0
 10
46.4704
 20
41.8401
 30
0.0
 11
46.4704
 21
44.9407
 31
0.0
  0
LINE
  8
0
 62
     0
 10
46.4704
 20
44.9407
 30
0.0
 11
45.671
 21
44.9407
 31
0.0
  0
LINE
  8
0
 62
     0
 10
45.671
 20
44.9407
 30
0.0
 11
45.671
 21
45.9412
 31
0.0
  0
LINE
  8
0
 62
     0
 10
45.671
 20
45.9412
 30
0.0
 11
31.6701
 21
45.9412
 31
0.0
  0
LINE
  8
0
 62
     0
 10
12.6201
 20
45.9412
 30
0.0
 11
12.6201
 21
44.9407
 31
0.0
  0
LINE
  8
0
 62
     0
 10
12.6201
 20
44.9407
 30
0.0
 11
11.8194
 21
44.9407
 31
0.0
  0
LINE
  8
0
 62
     0
 10
11.8194
 20
44.9407
 30
0.0
 11
11.8194
 21
41.8401
 31
0.0
  0
LINE
  8
0
 62
     0
 10
11.8194
 20
41.8401
 30
0.0
 11
12.6201
 21
41.8401
 31
0.0
  0
LINE
  8
0
 62
     0
 10
12.6201
 20
41.8401
 30
0.0
 11
12.6201
 21
36.0412
 31
0.0
  0
LINE
  8
0
 62
     0
 10
12.6201
 20
36.0412
 30
0.0
 11
11.8194
 21
36.0412
 31
0.0
  0
LINE
  8
0
 62
     0
 10
11.8194
 20
36.0412
 30
0.0
 11
11.8194
 21
32.9406
 31
0.0
  0
LINE
  8
0
 62
     0
 10
11.8194
 20
32.9406
 30
0.0
 11
12.6201
 21
32.9406
 31
0.0
  0
LINE
  8
0
 62
     0
 10
12.6201
 20
32.9406
 30
0.0
 11
12.6201
 21
31.9402
 31
0.0
  0
LINE
  8
0
 62
     0
 10
12.6201
 20
31.9402
 30
0.0
 11
26.6209
 21
31.9402
 31
0.0
  0
LINE
  8
0
 62
     0
 10
26.6209
 20
31.9402
 30
0.0
 11
26.6209
 21
32.9406
 31
0.0
  0
LINE
  8
0
 62
     0
 10
26.6209
 20
32.9406
 30
0.0
 11
27.4188
 21
32.9406
 31
0.0
  0
LINE
  8
0
 62
     0
 10
27.4188
 20
32.9406
 30
0.0
 11
27.4188
 21
36.0412
 31
0.0
  0
LINE
  8
0
 62
     0
 10
27.4188
 20
36.0412
 30
0.0
 11
26.6209
 21
36.0412
 31
0.0
  0
LINE
  8
0
 62
     0
 10
26.6209
 20
36.0412
 30
0.0
 11
26.6209
 21
41.8401
 31
0.0
  0
LINE
  8
0
 62
     0
 10
26.6209
 20
41.8401
 30
0.0
 11
27.4188
 21
41.8401
 31
0.0
  0
LINE
  8
0
 62
     0
 10
27.4188
 20
41.8401
 30
0.0
 11
27.4188
 21
44.9407
 31
0.0
  0
LINE
  8
0
 62
     0
 10
27.4188
 20
44.9407
 30
0.0
 11
26.6209
 21
44.9407
 31
0.0
  0
LINE
  8
0
 62
     0
 10
26.6209
 20
44.9407
 30
0.0
 11
26.6209
 21
45.9412
 31
0.0
  0
LINE
  8
0
 62
     0
 10
26.6209
 20
45.9412
 30
0.0
 11
12.6201
 21
45.9412
 31
0.0
  0
LINE
  8
0
 62
     0
 10
50.7199
 20
64.9912
 30
0.0
 11
50.7199
 21
63.9907
 31
0.0
  0
LINE
  8
0
 62
     0
 10
50.7199
 20
63.9907
 30
0.0
 11
49.9209
 21
63.9907
 31
0.0
  0
LINE
  8
0
 62
     0
 10
49.9209
 20
63.9907
 30
0.0
 11
49.9209
 21
60.8902
 31
0.0
  0
LINE
  8
0
 62
     0
 10
49.9209
 20
60.8902
 30
0.0
 11
50.7199
 21
60.8902
 31
0.0
  0
LINE
  8
0
 62
     0
 10
50.7199
 20
60.8902
 30
0.0
 11
50.7199
 21
55.0912
 31
0.0
  0
LINE
  8
0
 62
     0
 10
50.7199
 20
55.0912
 30
0.0
 11
49.9209
 21
55.0912
 31
0.0
  0
LINE
  8
0
 62
     0
 10
49.9209
 20
55.0912
 30
0.0
 11
49.9209
 21
51.9906
 31
0.0
  0
LINE
  8
0
 62
     0
 10
49.9209
 20
51.9906
 30
0.0
 11
50.7199
 21
51.9906
 31
0.0
  0
LINE
  8
0
 62
     0
 10
50.7199
 20
51.9906
 30
0.0
 11
50.7199
 21
50.9901
 31
0.0
  0
LINE
  8
0
 62
     0
 10
50.7199
 20
50.9901
 30
0.0
 11
64.721
 21
50.9901
 31
0.0
  0
LINE
  8
0
 62
     0
 10
64.721
 20
50.9901
 30
0.0
 11
64.721
 21
51.9906
 31
0.0
  0
LINE
  8
0
 62
     0
 10
64.721
 20
51.9906
 30
0.0
 11
65.5204
 21
51.9906
 31
0.0
  0
LINE
  8
0
 62
     0
 10
65.5204
 20
51.9906
 30
0.0
 11
65.5204
 21
55.0912
 31
0.0
  0
LINE
  8
0
 62
     0
 10
65.5204
 20
55.0912
 30
0.0
 11
64.721
 21
55.0912
 31
0.0
  0
LINE
  8
0
 62
     0
 10
64.721
 20
55.0912
 30
0.0
 11
64.721
 21
60.8902
 31
0.0
  0
LINE
  8
0
 62
     0
 10
64.721
 20
60.8902
 30
0.0
 11
65.5204
 21
60.8902
 31
0.0
  0
LINE
  8
0
 62
     0
 10
65.5204
 20
60.8902
 30
0.0
 11
65.5204
 21
63.9907
 31
0.0
  0
LINE
  8
0
 62
     0
 10
65.5204
 20
63.9907
 30
0.0
 11
64.721
 21
63.9907
 31
0.0
  0
LINE
  8
0
 62
     0
 10
64.721
 20
63.9907
 30
0.0
 11
64.721
 21
64.9912
 31
0.0
  0
LINE
  8
0
 62
     0
 10
64.721
 20
64.9912
 30
0.0
 11
50.7199
 21
64.9912
 31
0.0
  0
LINE
  8
0
 62
     0
 10
31.6701
 20
64.9912
 30
0.0
 11
31.6701
 21
63.9907
 31
0.0
  0
LINE
  8
0
 62
     0
 10
31.6701
 20
63.9907
 30
0.0
 11
30.8708
 21
63.9907
 31
0.0
  0
LINE
  8
0
 62
     0
 10
30.8708
 20
63.9907
 30
0.0
 11
30.8708
 21
60.8902
 31
0.0
  0
LINE
  8
0
 62
     0
 10
30.8708
 20
60.8902
 30
0.0
 11
31.6701
 21
60.8902
 31
0.0
  0
LINE
  8
0
 62
     0
 10
31.6701
 20
60.8902
 30
0.0
 11
31.6701
 21
55.0912
 31
0.0
  0
LINE
  8
0
 62
     0
 10
31.6701
 20
55.0912
 30
0.0
 11
30.8708
 21
55.0912
 31
0.0
  0
LINE
  8
0
 62
     0
 10
30.8708
 20
55.0912
 30
0.0
 11
30.8708
 21
51.9906
 31
0.0
  0
LINE
  8
0
 62
     0
 10
30.8708
 20
51.9906
 30
0.0
 11
31.6701
 21
51.9906
 31
0.0
  0
LINE
  8
0
 62
     0
 10
31.6701
 20
51.9906
 30
0.0
 11
31.6701
 21
50.9901
 31
0.0
  0
LINE
  8
0
 62
     0
 10
31.6701
 20
50.9901
 30
0.0
 11
45.671
 21
50.9901
 31
0.0
  0
LINE
  8
0
 62
     0
 10
45.671
 20
50.9901
 30
0.0
 11
45.671
 21
51.9906
 31
0.0
  0
LINE
  8
0
 62
     0
 10
45.671
 20
51.9906
 30
0.0
 11
46.4704
 21
51.9906
 31
0.0
  0
LINE
  8
0
 62
     0
 10
46.4704
 20
51.9906
 30
0.0
 11
46.4704
 21
55.0912
 31
0.0
  0
LINE
  8
0
 62
     0
 10
46.4704
 20
55.0912
 30
0.0
 11
45.671
 21
55.0912
 31
0.0
  0
LINE
  8
0
 62
     0
 10
45.671
 20
55.0912
 30
0.0
 11
45.671
 21
60.8902
 31
0.0
  0
LINE
  8
0
 62
     0
 10
45.671
 20
60.8902
 30
0.0
 11
46.4704
 21
60.8902
 31
0.0
  0
LINE
  8
0
 62
     0
 10
46.4704
 20
60.8902
 30
0.0
 11
46.4704
 21
63.9907
 31
0.0
  0
LINE
  8
0
 62
     0
 10
46.4704
 20
63.9907
 30
0.0
 11
45.671
 21
63.9907
 31
0.0
  0
LINE
  8
0
 62
     0
 10
45.671
 20
63.9907
 30
0.0
 11
45.671
 21
64.9912
 31
0.0
  0
LINE
  8
0
 62
     0
 10
45.671
 20
64.9912
 30
0.0
 11
31.6701
 21
64.9912
 31
0.0
  0
LINE
  8
0
 62
     0
 10
12.6201
 20
64.9912
 30
0.0
 11
12.6201
 21
63.9907
 31
0.0
  0
LINE
  8
0
 62
     0
 10
12.6201
 20
63.9907
 30
0.0
 11
11.8194
 21
63.9907
 31
0.0
  0
LINE
  8
0
 62
     0
 10
11.8194
 20
63.9907
 30
0.0
 11
11.8194
 21
60.8902
 31
0.0
  0
LINE
  8
0
 62
     0
 10
11.8194
 20
60.8902
 30
0.0
 11
12.6201
 21
60.8902
 31
0.0
  0
LINE
  8
0
 62
     0
 10
12.6201
 20
60.8902
 30
0.0
 11
12.6201
 21
55.0912
 31
0.0
  0
LINE
  8
0
 62
     0
 10
12.6201
 20
55.0912
 30
0.0
 11
11.8194
 21
55.0912
 31
0.0
  0
LINE
  8
0
 62
     0
 10
11.8194
 20
55.0912
 30
0.0
 11
11.8194
 21
51.9906
 31
0.0
  0
LINE
  8
0
 62
     0
 10
11.8194
 20
51.9906
 30
0.0
 11
12.6201
 21
51.9906
 31
0.0
  0
LINE
  8
0
 62
     0
 10
12.6201
 20
51.9906
 30
0.0
 11
12.6201
 21
50.9901
 31
0.0
  0
LINE
  8
0
 62
     0
 10
12.6201
 20
50.9901
 30
0.0
 11
26.6209
 21
50.9901
 31
0.0
  0
LINE
  8
0
 62
     0
 10
26.6209
 20
50.9901
 30
0.0
 11
26.6209
 21
51.9906
 31
0.0
  0
LINE
  8
0
 62
     0
 10
26.6209
 20
51.9906
 30
0.0
 11
27.4188
 21
51.9906
 31
0.0
  0
LINE
  8
0
 62
     0
 10
27.4188
 20
51.9906
 30
0.0
 11
27.4188
 21
55.0912
 31
0.0
  0
LINE
  8
0
 62
     0
 10
27.4188
 20
55.0912
 30
0.0
 11
26.6209
 21
55.0912
 31
0.0
  0
LINE
  8
0
 62
     0
 10
26.6209
 20
55.0912
 30
0.0
 11
26.6209
 21
60.8902
 31
0.0
  0
LINE
  8
0
 62
     0
 10
26.6209
 20
60.8902
 30
0.0
 11
27.4188
 21
60.8902
 31
0.0
  0
LINE
  8
0
 62
     0
 10
27.4188
 20
60.8902
 30
0.0
 11
27.4188
 21
63.9907
 31
0.0
  0
LINE
  8
0
 62
     0
 10
27.4188
 20
63.9907
 30
0.0
 11
26.6209
 21
63.9907
 31
0.0
  0
LINE
  8
0
 62
     0
 10
26.6209
 20
63.9907
 30
0.0
 11
26.6209
 21
64.9912
 31
0.0
  0
LINE
  8
0
 62
     0
 10
26.6209
 20
64.9912
 30
0.0
 11
12.6201
 21
64.9912
 31
0.0
  0
LINE
  8
0
 62
     0
 10
76.2702
 20
83.6154
 30
0.0
 11
76.2702
 21
82.7913
 31
0.0
  0
LINE
  8
0
 62
     0
 10
76.2702
 20
82.7913
 30
0.0
 11
70.0003
 21
82.7913
 31
0.0
  0
LINE
  8
0
 62
     0
 10
70.0003
 20
82.7913
 30
0.0
 11
70.0003
 21
81.0659
 31
0.0
  0
LINE
  8
0
 62
     0
 10
70.0003
 20
81.0659
 30
0.0
 11
69.0203
 21
81.0659
 31
0.0
  0
LINE
  8
0
 62
     0
 10
69.0203
 20
81.0659
 30
0.0
 11
69.0203
 21
77.7656
 31
0.0
  0
LINE
  8
0
 62
     0
 10
69.0203
 20
77.7656
 30
0.0
 11
70.0003
 21
77.7656
 31
0.0
  0
LINE
  8
0
 62
     0
 10
70.0003
 20
77.7656
 30
0.0
 11
70.0003
 21
76.0402
 31
0.0
  0
LINE
  8
0
 62
     0
 10
70.0003
 20
76.0402
 30
0.0
 11
74.4707
 21
76.0402
 31
0.0
  0
LINE
  8
0
 62
     0
 10
74.4707
 20
76.0402
 30
0.0
 11
74.4707
 21
74.5162
 31
0.0
  0
LINE
  8
0
 62
     0
 10
74.4707
 20
74.5162
 30
0.0
 11
73.8699
 21
74.5162
 31
0.0
  0
LINE
  8
0
 62
     0
 10
73.8699
 20
74.5162
 30
0.0
 11
73.8699
 21
75.3152
 31
0.0
  0
LINE
  8
0
 62
     0
 10
73.8699
 20
75.3152
 30
0.0
 11
70.7704
 21
75.3152
 31
0.0
  0
LINE
  8
0
 62
     0
 10
70.7704
 20
75.3152
 30
0.0
 11
70.7704
 21
74.5162
 31
0.0
  0
LINE
  8
0
 62
     0
 10
70.7704
 20
74.5162
 30
0.0
 11
69.7699
 21
74.5162
 31
0.0
  0
LINE
  8
0
 62
     0
 10
69.7699
 20
74.5162
 30
0.0
 11
69.7699
 21
60.5151
 31
0.0
  0
LINE
  8
0
 62
     0
 10
69.7699
 20
60.5151
 30
0.0
 11
70.7704
 21
60.5151
 31
0.0
  0
LINE
  8
0
 62
     0
 10
70.7704
 20
60.5151
 30
0.0
 11
70.7704
 21
59.7158
 31
0.0
  0
LINE
  8
0
 62
     0
 10
70.7704
 20
59.7158
 30
0.0
 11
73.8699
 21
59.7158
 31
0.0
  0
LINE
  8
0
 62
     0
 10
73.8699
 20
59.7158
 30
0.0
 11
73.8699
 21
60.5151
 31
0.0
  0
LINE
  8
0
 62
     0
 10
73.8699
 20
60.5151
 30
0.0
 11
74.4707
 21
60.5151
 31
0.0
  0
LINE
  8
0
 62
     0
 10
74.4707
 20
60.5151
 30
0.0
 11
74.4707
 21
58.9911
 31
0.0
  0
LINE
  8
0
 62
     0
 10
74.4707
 20
58.9911
 30
0.0
 11
70.0003
 21
58.9911
 31
0.0
  0
LINE
  8
0
 62
     0
 10
70.0003
 20
58.9911
 30
0.0
 11
70.0003
 21
57.2657
 31
0.0
  0
LINE
  8
0
 62
     0
 10
70.0003
 20
57.2657
 30
0.0
 11
69.0203
 21
57.2657
 31
0.0
  0
LINE
  8
0
 62
     0
 10
69.0203
 20
57.2657
 30
0.0
 11
69.0203
 21
53.9655
 31
0.0
  0
LINE
  8
0
 62
     0
 10
69.0203
 20
53.9655
 30
0.0
 11
70.0003
 21
53.9655
 31
0.0
  0
LINE
  8
0
 62
     0
 10
70.0003
 20
53.9655
 30
0.0
 11
70.0003
 21
52.24
 31
0.0
  0
LINE
  8
0
 62
     0
 10
70.0003
 20
52.24
 30
0.0
 11
76.2702
 21
52.24
 31
0.0
  0
LINE
  8
0
 62
     0
 10
76.2702
 20
52.24
 30
0.0
 11
76.2702
 21
51.416
 31
0.0
  0
LINE
  8
0
 62
     0
 10
76.2702
 20
51.416
 30
0.0
 11
79.0706
 21
51.416
 31
0.0
  0
LINE
  8
0
 62
     0
 10
79.0706
 20
51.416
 30
0.0
 11
79.0706
 21
52.24
 31
0.0
  0
LINE
  8
0
 62
     0
 10
79.0706
 20
52.24
 30
0.0
 11
82.3006
 21
52.24
 31
0.0
  0
LINE
  8
0
 62
     0
 10
82.3006
 20
52.24
 30
0.0
 11
82.3006
 21
53.9655
 31
0.0
  0
LINE
  8
0
 62
     0
 10
82.3006
 20
53.9655
 30
0.0
 11
83.221
 21
53.9655
 31
0.0
  0
LINE
  8
0
 62
     0
 10
83.221
 20
53.9655
 30
0.0
 11
83.221
 21
57.2657
 31
0.0
  0
LINE
  8
0
 62
     0
 10
83.221
 20
57.2657
 30
0.0
 11
82.3006
 21
57.2657
 31
0.0
  0
LINE
  8
0
 62
     0
 10
82.3006
 20
57.2657
 30
0.0
 11
82.3006
 21
58.9911
 31
0.0
  0
LINE
  8
0
 62
     0
 10
82.3006
 20
58.9911
 30
0.0
 11
79.0706
 21
58.9911
 31
0.0
  0
LINE
  8
0
 62
     0
 10
79.0706
 20
58.9911
 30
0.0
 11
79.0706
 21
60.5151
 31
0.0
  0
LINE
  8
0
 62
     0
 10
79.0706
 20
60.5151
 30
0.0
 11
79.6699
 21
60.5151
 31
0.0
  0
LINE
  8
0
 62
     0
 10
79.6699
 20
60.5151
 30
0.0
 11
79.6699
 21
59.7158
 31
0.0
  0
LINE
  8
0
 62
     0
 10
79.6699
 20
59.7158
 30
0.0
 11
82.7705
 21
59.7158
 31
0.0
  0
LINE
  8
0
 62
     0
 10
82.7705
 20
59.7158
 30
0.0
 11
82.7705
 21
60.5151
 31
0.0
  0
LINE
  8
0
 62
     0
 10
82.7705
 20
60.5151
 30
0.0
 11
83.771
 21
60.5151
 31
0.0
  0
LINE
  8
0
 62
     0
 10
83.771
 20
60.5151
 30
0.0
 11
83.771
 21
74.5162
 31
0.0
  0
LINE
  8
0
 62
     0
 10
83.771
 20
74.5162
 30
0.0
 11
82.7705
 21
74.5162
 31
0.0
  0
LINE
  8
0
 62
     0
 10
82.7705
 20
74.5162
 30
0.0
 11
82.7705
 21
75.3152
 31
0.0
  0
LINE
  8
0
 62
     0
 10
82.7705
 20
75.3152
 30
0.0
 11
79.6699
 21
75.3152
 31
0.0
  0
LINE
  8
0
 62
     0
 10
79.6699
 20
75.3152
 30
0.0
 11
79.6699
 21
74.5162
 31
0.0
  0
LINE
  8
0
 62
     0
 10
79.6699
 20
74.5162
 30
0.0
 11
79.0706
 21
74.5162
 31
0.0
  0
LINE
  8
0
 62
     0
 10
79.0706
 20
74.5162
 30
0.0
 11
79.0706
 21
76.0402
 31
0.0
  0
LINE
  8
0
 62
     0
 10
79.0706
 20
76.0402
 30
0.0
 11
82.3006
 21
76.0402
 31
0.0
  0
LINE
  8
0
 62
     0
 10
82.3006
 20
76.0402
 30
0.0
 11
82.3006
 21
77.7656
 31
0.0
  0
LINE
  8
0
 62
     0
 10
82.3006
 20
77.7656
 30
0.0
 11
83.221
 21
77.7656
 31
0.0
  0
LINE
  8
0
 62
     0
 10
83.221
 20
77.7656
 30
0.0
 11
83.221
 21
81.0659
 31
0.0
  0
LINE
  8
0
 62
     0
 10
83.221
 20
81.0659
 30
0.0
 11
82.3006
 21
81.0659
 31
0.0
  0
LINE
  8
0
 62
     0
 10
82.3006
 20
81.0659
 30
0.0
 11
82.3006
 21
82.7913
 31
0.0
  0
LINE
  8
0
 62
     0
 10
82.3006
 20
82.7913
 30
0.0
 11
79.0706
 21
82.7913
 31
0.0
  0
LINE
  8
0
 62
     0
 10
79.0706
 20
82.7913
 30
0.0
 11
79.0706
 21
83.6154
 31
0.0
  0
LINE
  8
0
 62
     0
 10
79.0706
 20
83.6154
 30
0.0
 11
76.2702
 21
83.6154
 31
0.0
  0
LINE
  8
0
 62
     0
 10
50.7199
 20
84.0412
 30
0.0
 11
50.7199
 21
83.0407
 31
0.0
  0
LINE
  8
0
 62
     0
 10
50.7199
 20
83.0407
 30
0.0
 11
49.9209
 21
83.0407
 31
0.0
  0
LINE
  8
0
 62
     0
 10
49.9209
 20
83.0407
 30
0.0
 11
49.9209
 21
79.9402
 31
0.0
  0
LINE
  8
0
 62
     0
 10
49.9209
 20
79.9402
 30
0.0
 11
50.7199
 21
79.9402
 31
0.0
  0
LINE
  8
0
 62
     0
 10
50.7199
 20
79.9402
 30
0.0
 11
50.7199
 21
74.1412
 31
0.0
  0
LINE
  8
0
 62
     0
 10
50.7199
 20
74.1412
 30
0.0
 11
49.9209
 21
74.1412
 31
0.0
  0
LINE
  8
0
 62
     0
 10
49.9209
 20
74.1412
 30
0.0
 11
49.9209
 21
71.0406
 31
0.0
  0
LINE
  8
0
 62
     0
 10
49.9209
 20
71.0406
 30
0.0
 11
50.7199
 21
71.0406
 31
0.0
  0
LINE
  8
0
 62
     0
 10
50.7199
 20
71.0406
 30
0.0
 11
50.7199
 21
70.0401
 31
0.0
  0
LINE
  8
0
 62
     0
 10
50.7199
 20
70.0401
 30
0.0
 11
64.721
 21
70.0401
 31
0.0
  0
LINE
  8
0
 62
     0
 10
64.721
 20
70.0401
 30
0.0
 11
64.721
 21
71.0406
 31
0.0
  0
LINE
  8
0
 62
     0
 10
64.721
 20
71.0406
 30
0.0
 11
65.5204
 21
71.0406
 31
0.0
  0
LINE
  8
0
 62
     0
 10
65.5204
 20
71.0406
 30
0.0
 11
65.5204
 21
74.1412
 31
0.0
  0
LINE
  8
0
 62
     0
 10
65.5204
 20
74.1412
 30
0.0
 11
64.721
 21
74.1412
 31
0.0
  0
LINE
  8
0
 62
     0
 10
64.721
 20
74.1412
 30
0.0
 11
64.721
 21
79.9402
 31
0.0
  0
LINE
  8
0
 62
     0
 10
64.721
 20
79.9402
 30
0.0
 11
65.5204
 21
79.9402
 31
0.0
  0
LINE
  8
0
 62
     0
 10
65.5204
 20
79.9402
 30
0.0
 11
65.5204
 21
83.0407
 31
0.0
  0
LINE
  8
0
 62
     0
 10
65.5204
 20
83.0407
 30
0.0
 11
64.721
 21
83.0407
 31
0.0
  0
LINE
  8
0
 62
     0
 10
64.721
 20
83.0407
 30
0.0
 11
64.721
 21
84.0412
 31
0.0
  0
LINE
  8
0
 62
     0
 10
64.721
 20
84.0412
 30
0.0
 11
50.7199
 21
84.0412
 31
0.0
  0
LINE
  8
0
 62
     0
 10
31.6701
 20
84.0412
 30
0.0
 11
31.6701
 21
83.0407
 31
0.0
  0
LINE
  8
0
 62
     0
 10
31.6701
 20
83.0407
 30
0.0
 11
30.8708
 21
83.0407
 31
0.0
  0
LINE
  8
0
 62
     0
 10
30.8708
 20
83.0407
 30
0.0
 11
30.8708
 21
79.9402
 31
0.0
  0
LINE
  8
0
 62
     0
 10
30.8708
 20
79.9402
 30
0.0
 11
31.6701
 21
79.9402
 31
0.0
  0
LINE
  8
0
 62
     0
 10
31.6701
 20
79.9402
 30
0.0
 11
31.6701
 21
74.1412
 31
0.0
  0
LINE
  8
0
 62
     0
 10
31.6701
 20
74.1412
 30
0.0
 11
30.8708
 21
74.1412
 31
0.0
  0
LINE
  8
0
 62
     0
 10
30.8708
 20
74.1412
 30
0.0
 11
30.8708
 21
71.0406
 31
0.0
  0
LINE
  8
0
 62
     0
 10
30.8708
 20
71.0406
 30
0.0
 11
31.6701
 21
71.0406
 31
0.0
  0
LINE
  8
0
 62
     0
 10
31.6701
 20
71.0406
 30
0.0
 11
31.6701
 21
70.0401
 31
0.0
  0
LINE
  8
0
 62
     0
 10
31.6701
 20
70.0401
 30
0.0
 11
45.671
 21
70.0401
 31
0.0
  0
LINE
  8
0
 62
     0
 10
45.671
 20
70.0401
 30
0.0
 11
45.671
 21
71.0406
 31
0.0
  0
LINE
  8
0
 62
     0
 10
45.671
 20
71.0406
 30
0.0
 11
46.4704
 21
71.0406
 31
0.0
  0
LINE
  8
0
 62
     0
 10
46.4704
 20
71.0406
 30
0.0
 11
46.4704
 21
74.1412
 31
0.0
  0
LINE
  8
0
 62
     0
 10
46.4704
 20
74.1412
 30
0.0
 11
45.671
 21
74.1412
 31
0.0
  0
LINE
  8
0
 62
     0
 10
45.671
 20
74.1412
 30
0.0
 11
45.671
 21
79.9402
 31
0.0
  0
LINE
  8
0
 62
     0
 10
45.671
 20
79.9402
 30
0.0
 11
46.4704
 21
79.9402
 31
0.0
  0
LINE
  8
0
 62
     0
 10
46.4704
 20
79.9402
 30
0.0
 11
46.4704
 21
83.0407
 31
0.0
  0
LINE
  8
0
 62
     0
 10
46.4704
 20
83.0407
 30
0.0
 11
45.671
 21
83.0407
 31
0.0
  0
LINE
  8
0
 62
     0
 10
45.671
 20
83.0407
 30
0.0
 11
45.671
 21
84.0412
 31
0.0
  0
LINE
  8
0
 62
     0
 10
45.671
 20
84.0412
 30
0.0
 11
31.6701
 21
84.0412
 31
0.0
  0
LINE
  8
0
 62
     0
 10
12.6201
 20
84.0412
 30
0.0
 11
12.6201
 21
83.0407
 31
0.0
  0
LINE
  8
0
 62
     0
 10
12.6201
 20
83.0407
 30
0.0
 11
11.8194
 21
83.0407
 31
0.0
  0
LINE
  8
0
 62
     0
 10
11.8194
 20
83.0407
 30
0.0
 11
11.8194
 21
79.9402
 31
0.0
  0
LINE
  8
0
 62
     0
 10
11.8194
 20
79.9402
 30
0.0
 11
12.6201
 21
79.9402
 31
0.0
  0
LINE
  8
0
 62
     0
 10
12.6201
 20
79.9402
 30
0.0
 11
12.6201
 21
74.1412
 31
0.0
  0
LINE
  8
0
 62
     0
 10
12.6201
 20
74.1412
 30
0.0
 11
11.8194
 21
74.1412
 31
0.0
  0
LINE
  8
0
 62
     0
 10
11.8194
 20
74.1412
 30
0.0
 11
11.8194
 21
71.0406
 31
0.0
  0
LINE
  8
0
 62
     0
 10
11.8194
 20
71.0406
 30
0.0
 11
12.6201
 21
71.0406
 31
0.0
  0
LINE
  8
0
 62
     0
 10
12.6201
 20
71.0406
 30
0.0
 11
12.6201
 21
70.0401
 31
0.0
  0
LINE
  8
0
 62
     0
 10
12.6201
 20
70.0401
 30
0.0
 11
26.6209
 21
70.0401
 31
0.0
  0
LINE
  8
0
 62
     0
 10
26.6209
 20
70.0401
 30
0.0
 11
26.6209
 21
71.0406
 31
0.0
  0
LINE
  8
0
 62
     0
 10
26.6209
 20
71.0406
 30
0.0
 11
27.4188
 21
71.0406
 31
0.0
  0
LINE
  8
0
 62
     0
 10
27.4188
 20
71.0406
 30
0.0
 11
27.4188
 21
74.1412
 31
0.0
  0
LINE
  8
0
 62
     0
 10
27.4188
 20
74.1412
 30
0.0
 11
26.6209
 21
74.1412
 31
0.0
  0
LINE
  8
0
 62
     0
 10
26.6209
 20
74.1412
 30
0.0
 11
26.6209
 21
79.9402
 31
0.0
  0
LINE
  8
0
 62
     0
 10
26.6209
 20
79.9402
 30
0.0
 11
27.4188
 21
79.9402
 31
0.0
  0
LINE
  8
0
 62
     0
 10
27.4188
 20
79.9402
 30
0.0
 11
27.4188
 21
83.0407
 31
0.0
  0
LINE
  8
0
 62
     0
 10
27.4188
 20
83.0407
 30
0.0
 11
26.6209
 21
83.0407
 31
0.0
  0
LINE
  8
0
 62
     0
 10
26.6209
 20
83.0407
 30
0.0
 11
26.6209
 21
84.0412
 31
0.0
  0
LINE
  8
0
 62
     0
 10
26.6209
 20
84.0412
 30
0.0
 11
12.6201
 21
84.0412
 31
0.0
  0
LINE
  8
0
 62
     0
 10
69.7699
 20
103.091
 30
0.0
 11
69.7699
 21
102.091
 31
0.0
  0
LINE
  8
0
 62
     0
 10
69.7699
 20
102.091
 30
0.0
 11
68.9709
 21
102.091
 31
0.0
  0
LINE
  8
0
 62
     0
 10
68.9709
 20
102.091
 30
0.0
 11
68.9709
 21
98.9901
 31
0.0
  0
LINE
  8
0
 62
     0
 10
68.9709
 20
98.9901
 30
0.0
 11
69.7699
 21
98.9901
 31
0.0
  0
LINE
  8
0
 62
     0
 10
69.7699
 20
98.9901
 30
0.0
 11
69.7699
 21
93.1912
 31
0.0
  0
LINE
  8
0
 62
     0
 10
69.7699
 20
93.1912
 30
0.0
 11
68.9709
 21
93.1912
 31
0.0
  0
LINE
  8
0
 62
     0
 10
68.9709
 20
93.1912
 30
0.0
 11
68.9709
 21
90.0906
 31
0.0
  0
LINE
  8
0
 62
     0
 10
68.9709
 20
90.0906
 30
0.0
 11
69.7699
 21
90.0906
 31
0.0
  0
LINE
  8
0
 62
     0
 10
69.7699
 20
90.0906
 30
0.0
 11
69.7699
 21
89.0901
 31
0.0
  0
LINE
  8
0
 62
     0
 10
69.7699
 20
89.0901
 30
0.0
 11
83.771
 21
89.0901
 31
0.0
  0
LINE
  8
0
 62
     0
 10
83.771
 20
89.0901
 30
0.0
 11
83.771
 21
90.0906
 31
0.0
  0
LINE
  8
0
 62
     0
 10
83.771
 20
90.0906
 30
0.0
 11
84.5704
 21
90.0906
 31
0.0
  0
LINE
  8
0
 62
     0
 10
84.5704
 20
90.0906
 30
0.0
 11
84.5704
 21
93.1912
 31
0.0
  0
LINE
  8
0
 62
     0
 10
84.5704
 20
93.1912
 30
0.0
 11
83.771
 21
93.1912
 31
0.0
  0
LINE
  8
0
 62
     0
 10
83.771
 20
93.1912
 30
0.0
 11
83.771
 21
98.9901
 31
0.0
  0
LINE
  8
0
 62
     0
 10
83.771
 20
98.9901
 30
0.0
 11
84.5704
 21
98.9901
 31
0.0
  0
LINE
  8
0
 62
     0
 10
84.5704
 20
98.9901
 30
0.0
 11
84.5704
 21
102.091
 31
0.0
  0
LINE
  8
0
 62
     0
 10
84.5704
 20
102.091
 30
0.0
 11
83.771
 21
102.091
 31
0.0
  0
LINE
  8
0
 62
     0
 10
83.771
 20
102.091
 30
0.0
 11
83.771
 21
103.091
 31
0.0
  0
LINE
  8
0
 62
     0
 10
83.771
 20
103.091
 30
0.0
 11
69.7699
 21
103.091
 31
0.0
  0
LINE
  8
0
 62
     0
 10
50.7199
 20
103.091
 30
0.0
 11
50.7199
 21
102.091
 31
0.0
  0
LINE
  8
0
 62
     0
 10
50.7199
 20
102.091
 30
0.0
 11
49.9209
 21
102.091
 31
0.0
  0
LINE
  8
0
 62
     0
 10
49.9209
 20
102.091
 30
0.0
 11
49.9209
 21
98.9901
 31
0.0
  0
LINE
  8
0
 62
     0
 10
49.9209
 20
98.9901
 30
0.0
 11
50.7199
 21
98.9901
 31
0.0
  0
LINE
  8
0
 62
     0
 10
50.7199
 20
98.9901
 30
0.0
 11
50.7199
 21
93.1912
 31
0.0
  0
LINE
  8
0
 62
     0
 10
50.7199
 20
93.1912
 30
0.0
 11
49.9209
 21
93.1912
 31
0.0
  0
LINE
  8
0
 62
     0
 10
49.9209
 20
93.1912
 30
0.0
 11
49.9209
 21
90.0906
 31
0.0
  0
LINE
  8
0
 62
     0
 10
49.9209
 20
90.0906
 30
0.0
 11
50.7199
 21
90.0906
 31
0.0
  0
LINE
  8
0
 62
     0
 10
50.7199
 20
90.0906
 30
0.0
 11
50.7199
 21
89.0901
 31
0.0
  0
LINE
  8
0
 62
     0
 10
50.7199
 20
89.0901
 30
0.0
 11
64.721
 21
89.0901
 31
0.0
  0
LINE
  8
0
 62
     0
 10
64.721
 20
89.0901
 30
0.0
 11
64.721
 21
90.0906
 31
0.0
  0
LINE
  8
0
 62
     0
 10
64.721
 20
90.0906
 30
0.0
 11
65.5204
 21
90.0906
 31
0.0
  0
LINE
  8
0
 62
     0
 10
65.5204
 20
90.0906
 30
0.0
 11
65.5204
 21
93.1912
 31
0.0
  0
LINE
  8
0
 62
     0
 10
65.5204
 20
93.1912
 30
0.0
 11
64.721
 21
93.1912
 31
0.0
  0
LINE
  8
0
 62
     0
 10
64.721
 20
93.1912
 30
0.0
 11
64.721
 21
98.9901
 31
0.0
  0
LINE
  8
0
 62
     0
 10
64.721
 20
98.9901
 30
0.0
 11
65.5204
 21
98.9901
 31
0.0
  0
LINE
  8
0
 62
     0
 10
65.5204
 20
98.9901
 30
0.0
 11
65.5204
 21
102.091
 31
0.0
  0
LINE
  8
0
 62
     0
 10
65.5204
 20
102.091
 30
0.0
 11
64.721
 21
102.091
 31
0.0
  0
LINE
  8
0
 62
     0
 10
64.721
 20
102.091
 30
0.0
 11
64.721
 21
103.091
 31
0.0
  0
LINE
  8
0
 62
     0
 10
64.721
 20
103.091
 30
0.0
 11
50.7199
 21
103.091
 31
0.0
  0
LINE
  8
0
 62
     0
 10
31.6701
 20
103.091
 30
0.0
 11
31.6701
 21
102.091
 31
0.0
  0
LINE
  8
0
 62
     0
 10
31.6701
 20
102.091
 30
0.0
 11
30.8708
 21
102.091
 31
0.0
  0
LINE
  8
0
 62
     0
 10
30.8708
 20
102.091
 30
0.0
 11
30.8708
 21
98.9901
 31
0.0
  0
LINE
  8
0
 62
     0
 10
30.8708
 20
98.9901
 30
0.0
 11
31.6701
 21
98.9901
 31
0.0
  0
LINE
  8
0
 62
     0
 10
31.6701
 20
98.9901
 30
0.0
 11
31.6701
 21
93.1912
 31
0.0
  0
LINE
  8
0
 62
     0
 10
31.6701
 20
93.1912
 30
0.0
 11
30.8708
 21
93.1912
 31
0.0
  0
LINE
  8
0
 62
     0
 10
30.8708
 20
93.1912
 30
0.0
 11
30.8708
 21
90.0906
 31
0.0
  0
LINE
  8
0
 62
     0
 10
30.8708
 20
90.0906
 30
0.0
 11
31.6701
 21
90.0906
 31
0.0
  0
LINE
  8
0
 62
     0
 10
31.6701
 20
90.0906
 30
0.0
 11
31.6701
 21
89.0901
 31
0.0
  0
LINE
  8
0
 62
     0
 10
31.6701
 20
89.0901
 30
0.0
 11
45.671
 21
89.0901
 31
0.0
  0
LINE
  8
0
 62
     0
 10
45.671
 20
89.0901
 30
0.0
 11
45.671
 21
90.0906
 31
0.0
  0
LINE
  8
0
 62
     0
 10
45.671
 20
90.0906
 30
0.0
 11
46.4704
 21
90.0906
 31
0.0
  0
LINE
  8
0
 62
     0
 10
46.4704
 20
90.0906
 30
0.0
 11
46.4704
 21
93.1912
 31
0.0
  0
LINE
  8
0
 62
     0
 10
46.4704
 20
93.1912
 30
0.0
 11
45.671
 21
93.1912
 31
0.0
  0
LINE
  8
0
 62
     0
 10
45.671
 20
93.1912
 30
0.0
 11
45.671
 21
98.9901
 31
0.0
  0
LINE
  8
0
 62
     0
 10
45.671
 20
98.9901
 30
0.0
 11
46.4704
 21
98.9901
 31
0.0
  0
LINE
  8
0
 62
     0
 10
46.4704
 20
98.9901
 30
0.0
 11
46.4704
 21
102.091
 31
0.0
  0
LINE
  8
0
 62
     0
 10
46.4704
 20
102.091
 30
0.0
 11
45.671
 21
102.091
 31
0.0
  0
LINE
  8
0
 62
     0
 10
45.671
 20
102.091
 30
0.0
 11
45.671
 21
103.091
 31
0.0
  0
LINE
  8
0
 62
     0
 10
45.671
 20
103.091
 30
0.0
 11
31.6701
 21
103.091
 31
0.0
  0
LINE
  8
0
 62
     0
 10
12.6201
 20
103.091
 30
0.0
 11
12.6201
 21
102.091
 31
0.0
  0
LINE
  8
0
 62
     0
 10
12.6201
 20
102.091
 30
0.0
 11
11.8194
 21
102.091
 31
0.0
  0
LINE
  8
0
 62
     0
 10
11.8194
 20
102.091
 30
0.0
 11
11.8194
 21
98.9901
 31
0.0
  0
LINE
  8
0
 62
     0
 10
11.8194
 20
98.9901
 30
0.0
 11
12.6201
 21
98.9901
 31
0.0
  0
LINE
  8
0
 62
     0
 10
12.6201
 20
98.9901
 30
0.0
 11
12.6201
 21
93.1912
 31
0.0
  0
LINE
  8
0
 62
     0
 10
12.6201
 20
93.1912
 30
0.0
 11
11.8194
 21
93.1912
 31
0.0
  0
LINE
  8
0
 62
     0
 10
11.8194
 20
93.1912
 30
0.0
 11
11.8194
 21
90.0906
 31
0.0
  0
LINE
  8
0
 62
     0
 10
11.8194
 20
90.0906
 30
0.0
 11
12.6201
 21
90.0906
 31
0.0
  0
LINE
  8
0
 62
     0
 10
12.6201
 20
90.0906
 30
0.0
 11
12.6201
 21
89.0901
 31
0.0
  0
LINE
  8
0
 62
     0
 10
12.6201
 20
89.0901
 30
0.0
 11
26.6209
 21
89.0901
 31
0.0
  0
LINE
  8
0
 62
     0
 10
26.6209
 20
89.0901
 30
0.0
 11
26.6209
 21
90.0906
 31
0.0
  0
LINE
  8
0
 62
     0
 10
26.6209
 20
90.0906
 30
0.0
 11
27.4188
 21
90.0906
 31
0.0
  0
LINE
  8
0
 62
     0
 10
27.4188
 20
90.0906
 30
0.0
 11
27.4188
 21
93.1912
 31
0.0
  0
LINE
  8
0
 62
     0
 10
27.4188
 20
93.1912
 30
0.0
 11
26.6209
 21
93.1912
 31
0.0
  0
LINE
  8
0
 62
     0
 10
26.6209
 20
93.1912
 30
0.0
 11
26.6209
 21
98.9901
 31
0.0
  0
LINE
  8
0
 62
     0
 10
26.6209
 20
98.9901
 30
0.0
 11
27.4188
 21
98.9901
 31
0.0
  0
LINE
  8
0
 62
     0
 10
27.4188
 20
98.9901
 30
0.0
 11
27.4188
 21
102.091
 31
0.0
  0
LINE
  8
0
 62
     0
 10
27.4188
 20
102.091
 30
0.0
 11
26.6209
 21
102.091
 31
0.0
  0
LINE
  8
0
 62
     0
 10
26.6209
 20
102.091
 30
0.0
 11
26.6209
 21
103.091
 31
0.0
  0
LINE
  8
0
 62
     0
 10
26.6209
 20
103.091
 30
0.0
 11
12.6201
 21
103.091
 31
0.0
  0
LINE
  8
0
 62
     0
 10
4.55443
 20
112.281
 30
0.0
 11
4.06658
 21
112.032
 31
0.0
  0
LINE
  8
0
 62
     0
 10
4.06658
 20
112.032
 30
0.0
 11
3.67937
 21
111.645
 31
0.0
  0
LINE
  8
0
 62
     0
 10
3.67937
 20
111.645
 30
0.0
 11
3.42994
 21
111.157
 31
0.0
  0
LINE
  8
0
 62
     0
 10
3.42994
 20
111.157
 30
0.0
 11
3.34588
 21
110.615
 31
0.0
  0
LINE
  8
0
 62
     0
 10
3.34588
 20
110.615
 30
0.0
 11
3.42994
 21
110.075
 31
0.0
  0
LINE
  8
0
 62
     0
 10
3.42994
 20
110.075
 30
0.0
 11
3.67937
 21
109.587
 31
0.0
  0
LINE
  8
0
 62
     0
 10
3.67937
 20
109.587
 30
0.0
 11
4.06658
 21
109.201
 31
0.0
  0
LINE
  8
0
 62
     0
 10
4.06658
 20
109.201
 30
0.0
 11
4.55443
 21
108.952
 31
0.0
  0
LINE
  8
0
 62
     0
 10
4.55443
 20
108.952
 30
0.0
 11
5.09598
 21
108.865
 31
0.0
  0
LINE
  8
0
 62
     0
 10
5.09598
 20
108.865
 30
0.0
 11
5.63619
 21
108.952
 31
0.0
  0
LINE
  8
0
 62
     0
 10
5.63619
 20
108.952
 30
0.0
 11
6.12401
 21
109.201
 31
0.0
  0
LINE
  8
0
 62
     0
 10
6.12401
 20
109.201
 30
0.0
 11
6.50984
 21
109.587
 31
0.0
  0
LINE
  8
0
 62
     0
 10
6.50984
 20
109.587
 30
0.0
 11
6.75929
 21
110.075
 31
0.0
  0
LINE
  8
0
 62
     0
 10
6.75929
 20
110.075
 30
0.0
 11
6.84611
 21
110.615
 31
0.0
  0
LINE
  8
0
 62
     0
 10
6.84611
 20
110.615
 30
0.0
 11
6.75929
 21
111.157
 31
0.0
  0
LINE
  8
0
 62
     0
 10
6.75929
 20
111.157
 30
0.0
 11
6.50984
 21
111.645
 31
0.0
  0
LINE
  8
0
 62
     0
 10
6.50984
 20
111.645
 30
0.0
 11
6.12401
 21
112.032
 31
0.0
  0
LINE
  8
0
 62
     0
 10
6.12401
 20
112.032
 30
0.0
 11
5.63619
 21
112.281
 31
0.0
  0
LINE
  8
0
 62
     0
 10
5.63619
 20
112.281
 30
0.0
 11
5.09598
 21
112.365
 31
0.0
  0
LINE
  8
0
 62
     0
 10
5.09598
 20
112.365
 30
0.0
 11
4.55443
 21
112.281
 31
0.0
  0
LINE
  8
0
 62
     0
 10
90.7549
 20
112.281
 30
0.0
 11
90.267
 21
112.032
 31
0.0
  0
LINE
  8
0
 62
     0
 10
90.267
 20
112.032
 30
0.0
 11
89.8811
 21
111.645
 31
0.0
  0
LINE
  8
0
 62
     0
 10
89.8811
 20
111.645
 30
0.0
 11
89.6317
 21
111.157
 31
0.0
  0
LINE
  8
0
 62
     0
 10
89.6317
 20
111.157
 30
0.0
 11
89.5463
 21
110.615
 31
0.0
  0
LINE
  8
0
 62
     0
 10
89.5463
 20
110.615
 30
0.0
 11
89.6317
 21
110.075
 31
0.0
  0
LINE
  8
0
 62
     0
 10
89.6317
 20
110.075
 30
0.0
 11
89.8811
 21
109.587
 31
0.0
  0
LINE
  8
0
 62
     0
 10
89.8811
 20
109.587
 30
0.0
 11
90.267
 21
109.201
 31
0.0
  0
LINE
  8
0
 62
     0
 10
90.267
 20
109.201
 30
0.0
 11
90.7549
 21
108.952
 31
0.0
  0
LINE
  8
0
 62
     0
 10
90.7549
 20
108.952
 30
0.0
 11
91.2964
 21
108.865
 31
0.0
  0
LINE
  8
0
 62
     0
 10
91.2964
 20
108.865
 30
0.0
 11
91.8365
 21
108.952
 31
0.0
  0
LINE
  8
0
 62
     0
 10
91.8365
 20
108.952
 30
0.0
 11
92.3244
 21
109.201
 31
0.0
  0
LINE
  8
0
 62
     0
 10
92.3244
 20
109.201
 30
0.0
 11
92.7118
 21
109.587
 31
0.0
  0
LINE
  8
0
 62
     0
 10
92.7118
 20
109.587
 30
0.0
 11
92.9612
 21
110.075
 31
0.0
  0
LINE
  8
0
 62
     0
 10
92.9612
 20
110.075
 30
0.0
 11
93.0465
 21
110.615
 31
0.0
  0
LINE
  8
0
 62
     0
 10
93.0465
 20
110.615
 30
0.0
 11
92.9612
 21
111.157
 31
0.0
  0
LINE
  8
0
 62
     0
 10
92.9612
 20
111.157
 30
0.0
 11
92.7118
 21
111.645
 31
0.0
  0
LINE
  8
0
 62
     0
 10
92.7118
 20
111.645
 30
0.0
 11
92.3244
 21
112.032
 31
0.0
  0
LINE
  8
0
 62
     0
 10
92.3244
 20
112.032
 30
0.0
 11
91.8365
 21
112.281
 31
0.0
  0
LINE
  8
0
 62
     0
 10
91.8365
 20
112.281
 30
0.0
 11
91.2964
 21
112.365
 31
0.0
  0
LINE
  8
0
 62
     0
 10
91.2964
 20
112.365
 30
0.0
 11
90.7549
 21
112.281
 31
0.0
  0
ENDSEC
  0
EOF
