  0
SECTION
  2
HEADER
  9
$ACADVER
  1
AC1009
  9
$EXTMIN
 10
0.0
 20
0.0
 30
0.0
  9
$EXTMAX
 10
1000.0
 20
1000.0
 30
0.0
  9
$FILLMODE
 70
 0
  9
$SPLFRAME
 70
 1
  0
ENDSEC
  0
SECTION
  2
TABLES
  0
TABLE
  2
LAYER
 70
1
  0
LAYER
  2
0
 70
     0
 62
     7
  6
CONTINUOUS
  0
ENDTAB
  0
ENDSEC
  0
SECTION
  2
ENTITIES
  0
LINE
  8
0
 62
     0
 10
72.2464
 20
77.5159
 30
0.0
 11
72.6391
 21
77.501
 31
0.0
  0
LINE
  8
0
 62
     0
 10
72.6391
 20
77.501
 30
0.0
 11
73.0292
 21
77.4541
 31
0.0
  0
LINE
  8
0
 62
     0
 10
73.0292
 20
77.4541
 30
0.0
 11
73.4138
 21
77.3783
 31
0.0
  0
LINE
  8
0
 62
     0
 10
73.4138
 20
77.3783
 30
0.0
 11
73.7912
 21
77.2721
 31
0.0
  0
LINE
  8
0
 62
     0
 10
73.7912
 20
77.2721
 30
0.0
 11
74.1592
 21
77.1356
 31
0.0
  0
LINE
  8
0
 62
     0
 10
74.1592
 20
77.1356
 30
0.0
 11
74.5162
 21
76.9719
 31
0.0
  0
LINE
  8
0
 62
     0
 10
74.5162
 20
76.9719
 30
0.0
 11
74.8591
 21
76.7803
 31
0.0
  0
LINE
  8
0
 62
     0
 10
74.8591
 20
76.7803
 30
0.0
 11
75.1844
 21
76.5609
 31
0.0
  0
LINE
  8
0
 62
     0
 10
75.1844
 20
76.5609
 30
0.0
 11
75.493
 21
76.3185
 31
0.0
  0
LINE
  8
0
 62
     0
 10
75.493
 20
76.3185
 30
0.0
 11
75.7813
 21
76.0511
 31
0.0
  0
LINE
  8
0
 62
     0
 10
75.7813
 20
76.0511
 30
0.0
 11
76.0483
 21
75.7633
 31
0.0
  0
LINE
  8
0
 62
     0
 10
76.0483
 20
75.7633
 30
0.0
 11
76.291
 21
75.4546
 31
0.0
  0
LINE
  8
0
 62
     0
 10
76.291
 20
75.4546
 30
0.0
 11
76.5101
 21
75.1293
 31
0.0
  0
LINE
  8
0
 62
     0
 10
76.5101
 20
75.1293
 30
0.0
 11
76.7016
 21
74.7861
 31
0.0
  0
LINE
  8
0
 62
     0
 10
76.7016
 20
74.7861
 30
0.0
 11
76.8657
 21
74.4291
 31
0.0
  0
LINE
  8
0
 62
     0
 10
76.8657
 20
74.4291
 30
0.0
 11
77.0019
 21
74.0615
 31
0.0
  0
LINE
  8
0
 62
     0
 10
77.0019
 20
74.0615
 30
0.0
 11
77.1081
 21
73.6836
 31
0.0
  0
LINE
  8
0
 62
     0
 10
77.1081
 20
73.6836
 30
0.0
 11
77.1839
 21
73.2991
 31
0.0
  0
LINE
  8
0
 62
     0
 10
77.1839
 20
73.2991
 30
0.0
 11
77.2308
 21
72.9093
 31
0.0
  0
LINE
  8
0
 62
     0
 10
77.2308
 20
72.9093
 30
0.0
 11
77.246
 21
72.5152
 31
0.0
  0
LINE
  8
0
 62
     0
 10
77.246
 20
72.5152
 30
0.0
 11
77.246
 21
5.36469
 31
0.0
  0
LINE
  8
0
 62
     0
 10
77.246
 20
5.36469
 30
0.0
 11
77.2308
 21
4.97198
 31
0.0
  0
LINE
  8
0
 62
     0
 10
77.2308
 20
4.97198
 30
0.0
 11
77.1839
 21
4.58198
 31
0.0
  0
LINE
  8
0
 62
     0
 10
77.1839
 20
4.58198
 30
0.0
 11
77.1081
 21
4.19749
 31
0.0
  0
LINE
  8
0
 62
     0
 10
77.1081
 20
4.19749
 30
0.0
 11
77.0019
 21
3.81991
 31
0.0
  0
LINE
  8
0
 62
     0
 10
77.0019
 20
3.81991
 30
0.0
 11
76.8657
 21
3.45199
 31
0.0
  0
LINE
  8
0
 62
     0
 10
76.8657
 20
3.45199
 30
0.0
 11
76.7016
 21
3.09507
 31
0.0
  0
LINE
  8
0
 62
     0
 10
76.7016
 20
3.09507
 30
0.0
 11
76.5101
 21
2.75194
 31
0.0
  0
LINE
  8
0
 62
     0
 10
76.5101
 20
2.75194
 30
0.0
 11
76.291
 21
2.42673
 31
0.0
  0
LINE
  8
0
 62
     0
 10
76.291
 20
2.42673
 30
0.0
 11
76.0483
 21
2.11805
 31
0.0
  0
LINE
  8
0
 62
     0
 10
76.0483
 20
2.11805
 30
0.0
 11
75.7813
 21
1.83003
 31
0.0
  0
LINE
  8
0
 62
     0
 10
75.7813
 20
1.83003
 30
0.0
 11
75.493
 21
1.5627
 31
0.0
  0
LINE
  8
0
 62
     0
 10
75.493
 20
1.5627
 30
0.0
 11
75.1844
 21
1.32016
 31
0.0
  0
LINE
  8
0
 62
     0
 10
75.1844
 20
1.32016
 30
0.0
 11
74.8591
 21
1.10105
 31
0.0
  0
LINE
  8
0
 62
     0
 10
74.8591
 20
1.10105
 30
0.0
 11
74.5162
 21
0.909507
 31
0.0
  0
LINE
  8
0
 62
     0
 10
74.5162
 20
0.909507
 30
0.0
 11
74.1592
 21
0.745518
 31
0.0
  0
LINE
  8
0
 62
     0
 10
74.1592
 20
0.745518
 30
0.0
 11
73.7912
 21
0.609092
 31
0.0
  0
LINE
  8
0
 62
     0
 10
73.7912
 20
0.609092
 30
0.0
 11
73.4138
 21
0.502984
 31
0.0
  0
LINE
  8
0
 62
     0
 10
73.4138
 20
0.502984
 30
0.0
 11
73.0292
 21
0.427193
 31
0.0
  0
LINE
  8
0
 62
     0
 10
73.0292
 20
0.427193
 30
0.0
 11
72.6391
 21
0.38034
 31
0.0
  0
LINE
  8
0
 62
     0
 10
72.6391
 20
0.38034
 30
0.0
 11
72.245
 21
0.365181
 31
0.0
  0
LINE
  8
0
 62
     0
 10
72.245
 20
0.365181
 30
0.0
 11
5.09598
 21
0.365181
 31
0.0
  0
LINE
  8
0
 62
     0
 10
5.09598
 20
0.365181
 30
0.0
 11
4.70186
 21
0.38034
 31
0.0
  0
LINE
  8
0
 62
     0
 10
4.70186
 20
0.38034
 30
0.0
 11
4.3119
 21
0.427193
 31
0.0
  0
LINE
  8
0
 62
     0
 10
4.3119
 20
0.427193
 30
0.0
 11
3.9274
 21
0.502984
 31
0.0
  0
LINE
  8
0
 62
     0
 10
3.9274
 20
0.502984
 30
0.0
 11
3.54983
 21
0.609092
 31
0.0
  0
LINE
  8
0
 62
     0
 10
3.54983
 20
0.609092
 30
0.0
 11
3.18189
 21
0.745518
 31
0.0
  0
LINE
  8
0
 62
     0
 10
3.18189
 20
0.745518
 30
0.0
 11
2.82498
 21
0.909507
 31
0.0
  0
LINE
  8
0
 62
     0
 10
2.82498
 20
0.909507
 30
0.0
 11
2.48185
 21
1.10105
 31
0.0
  0
LINE
  8
0
 62
     0
 10
2.48185
 20
1.10105
 30
0.0
 11
2.15663
 21
1.32016
 31
0.0
  0
LINE
  8
0
 62
     0
 10
2.15663
 20
1.32016
 30
0.0
 11
1.84795
 21
1.5627
 31
0.0
  0
LINE
  8
0
 62
     0
 10
1.84795
 20
1.5627
 30
0.0
 11
1.55994
 21
1.83003
 31
0.0
  0
LINE
  8
0
 62
     0
 10
1.55994
 20
1.83003
 30
0.0
 11
1.2926
 21
2.11805
 31
0.0
  0
LINE
  8
0
 62
     0
 10
1.2926
 20
2.11805
 30
0.0
 11
1.05006
 21
2.42673
 31
0.0
  0
LINE
  8
0
 62
     0
 10
1.05006
 20
2.42673
 30
0.0
 11
0.830957
 21
2.75194
 31
0.0
  0
LINE
  8
0
 62
     0
 10
0.830957
 20
2.75194
 30
0.0
 11
0.63941
 21
3.09507
 31
0.0
  0
LINE
  8
0
 62
     0
 10
0.63941
 20
3.09507
 30
0.0
 11
0.475424
 21
3.45199
 31
0.0
  0
LINE
  8
0
 62
     0
 10
0.475424
 20
3.45199
 30
0.0
 11
0.338998
 21
3.81991
 31
0.0
  0
LINE
  8
0
 62
     0
 10
0.338998
 20
3.81991
 30
0.0
 11
0.232888
 21
4.19749
 31
0.0
  0
LINE
  8
0
 62
     0
 10
0.232888
 20
4.19749
 30
0.0
 11
0.157097
 21
4.58198
 31
0.0
  0
LINE
  8
0
 62
     0
 10
0.157097
 20
4.58198
 30
0.0
 11
0.110243
 21
4.97198
 31
0.0
  0
LINE
  8
0
 62
     0
 10
0.110243
 20
4.97198
 30
0.0
 11
0.0950846
 21
5.36607
 31
0.0
  0
LINE
  8
0
 62
     0
 10
0.0950846
 20
5.36607
 30
0.0
 11
0.0950846
 21
72.5152
 31
0.0
  0
LINE
  8
0
 62
     0
 10
0.0950846
 20
72.5152
 30
0.0
 11
0.110243
 21
72.9093
 31
0.0
  0
LINE
  8
0
 62
     0
 10
0.110243
 20
72.9093
 30
0.0
 11
0.157097
 21
73.2991
 31
0.0
  0
LINE
  8
0
 62
     0
 10
0.157097
 20
73.2991
 30
0.0
 11
0.232888
 21
73.6836
 31
0.0
  0
LINE
  8
0
 62
     0
 10
0.232888
 20
73.6836
 30
0.0
 11
0.338998
 21
74.0615
 31
0.0
  0
LINE
  8
0
 62
     0
 10
0.338998
 20
74.0615
 30
0.0
 11
0.475424
 21
74.4291
 31
0.0
  0
LINE
  8
0
 62
     0
 10
0.475424
 20
74.4291
 30
0.0
 11
0.63941
 21
74.7861
 31
0.0
  0
LINE
  8
0
 62
     0
 10
0.63941
 20
74.7861
 30
0.0
 11
0.830957
 21
75.1293
 31
0.0
  0
LINE
  8
0
 62
     0
 10
0.830957
 20
75.1293
 30
0.0
 11
1.05006
 21
75.4546
 31
0.0
  0
LINE
  8
0
 62
     0
 10
1.05006
 20
75.4546
 30
0.0
 11
1.2926
 21
75.7633
 31
0.0
  0
LINE
  8
0
 62
     0
 10
1.2926
 20
75.7633
 30
0.0
 11
1.55994
 21
76.0511
 31
0.0
  0
LINE
  8
0
 62
     0
 10
1.55994
 20
76.0511
 30
0.0
 11
1.84795
 21
76.3185
 31
0.0
  0
LINE
  8
0
 62
     0
 10
1.84795
 20
76.3185
 30
0.0
 11
2.15663
 21
76.5609
 31
0.0
  0
LINE
  8
0
 62
     0
 10
2.15663
 20
76.5609
 30
0.0
 11
2.48185
 21
76.7803
 31
0.0
  0
LINE
  8
0
 62
     0
 10
2.48185
 20
76.7803
 30
0.0
 11
2.82498
 21
76.9719
 31
0.0
  0
LINE
  8
0
 62
     0
 10
2.82498
 20
76.9719
 30
0.0
 11
3.18189
 21
77.1356
 31
0.0
  0
LINE
  8
0
 62
     0
 10
3.18189
 20
77.1356
 30
0.0
 11
3.54983
 21
77.2721
 31
0.0
  0
LINE
  8
0
 62
     0
 10
3.54983
 20
77.2721
 30
0.0
 11
3.9274
 21
77.3783
 31
0.0
  0
LINE
  8
0
 62
     0
 10
3.9274
 20
77.3783
 30
0.0
 11
4.3119
 21
77.4541
 31
0.0
  0
LINE
  8
0
 62
     0
 10
4.3119
 20
77.4541
 30
0.0
 11
4.70186
 21
77.501
 31
0.0
  0
LINE
  8
0
 62
     0
 10
4.70186
 20
77.501
 30
0.0
 11
5.09598
 21
77.5159
 31
0.0
  0
LINE
  8
0
 62
     0
 10
5.09598
 20
77.5159
 30
0.0
 11
72.2464
 21
77.5159
 31
0.0
  0
LINE
  8
0
 62
     0
 10
4.55443
 20
7.02938
 30
0.0
 11
4.06658
 21
6.77997
 31
0.0
  0
LINE
  8
0
 62
     0
 10
4.06658
 20
6.77997
 30
0.0
 11
3.67937
 21
6.3941
 31
0.0
  0
LINE
  8
0
 62
     0
 10
3.67937
 20
6.3941
 30
0.0
 11
3.42994
 21
5.90628
 31
0.0
  0
LINE
  8
0
 62
     0
 10
3.42994
 20
5.90628
 30
0.0
 11
3.34588
 21
5.36469
 31
0.0
  0
LINE
  8
0
 62
     0
 10
3.34588
 20
5.36469
 30
0.0
 11
3.42994
 21
4.82452
 31
0.0
  0
LINE
  8
0
 62
     0
 10
3.42994
 20
4.82452
 30
0.0
 11
3.67937
 21
4.3367
 31
0.0
  0
LINE
  8
0
 62
     0
 10
3.67937
 20
4.3367
 30
0.0
 11
4.06658
 21
3.94945
 31
0.0
  0
LINE
  8
0
 62
     0
 10
4.06658
 20
3.94945
 30
0.0
 11
4.55443
 21
3.70004
 31
0.0
  0
LINE
  8
0
 62
     0
 10
4.55443
 20
3.70004
 30
0.0
 11
5.09598
 21
3.6146
 31
0.0
  0
LINE
  8
0
 62
     0
 10
5.09598
 20
3.6146
 30
0.0
 11
5.63619
 21
3.70004
 31
0.0
  0
LINE
  8
0
 62
     0
 10
5.63619
 20
3.70004
 30
0.0
 11
6.12401
 21
3.94945
 31
0.0
  0
LINE
  8
0
 62
     0
 10
6.12401
 20
3.94945
 30
0.0
 11
6.50984
 21
4.3367
 31
0.0
  0
LINE
  8
0
 62
     0
 10
6.50984
 20
4.3367
 30
0.0
 11
6.75929
 21
4.82452
 31
0.0
  0
LINE
  8
0
 62
     0
 10
6.75929
 20
4.82452
 30
0.0
 11
6.84611
 21
5.36469
 31
0.0
  0
LINE
  8
0
 62
     0
 10
6.84611
 20
5.36469
 30
0.0
 11
6.75929
 21
5.90628
 31
0.0
  0
LINE
  8
0
 62
     0
 10
6.75929
 20
5.90628
 30
0.0
 11
6.50984
 21
6.3941
 31
0.0
  0
LINE
  8
0
 62
     0
 10
6.50984
 20
6.3941
 30
0.0
 11
6.12401
 21
6.77997
 31
0.0
  0
LINE
  8
0
 62
     0
 10
6.12401
 20
6.77997
 30
0.0
 11
5.63619
 21
7.02938
 31
0.0
  0
LINE
  8
0
 62
     0
 10
5.63619
 20
7.02938
 30
0.0
 11
5.09598
 21
7.11482
 31
0.0
  0
LINE
  8
0
 62
     0
 10
5.09598
 20
7.11482
 30
0.0
 11
4.55443
 21
7.02938
 31
0.0
  0
LINE
  8
0
 62
     0
 10
71.7049
 20
7.02938
 30
0.0
 11
71.217
 21
6.77997
 31
0.0
  0
LINE
  8
0
 62
     0
 10
71.217
 20
6.77997
 30
0.0
 11
70.8311
 21
6.3941
 31
0.0
  0
LINE
  8
0
 62
     0
 10
70.8311
 20
6.3941
 30
0.0
 11
70.5817
 21
5.90628
 31
0.0
  0
LINE
  8
0
 62
     0
 10
70.5817
 20
5.90628
 30
0.0
 11
70.4963
 21
5.36469
 31
0.0
  0
LINE
  8
0
 62
     0
 10
70.4963
 20
5.36469
 30
0.0
 11
70.5817
 21
4.82452
 31
0.0
  0
LINE
  8
0
 62
     0
 10
70.5817
 20
4.82452
 30
0.0
 11
70.8311
 21
4.3367
 31
0.0
  0
LINE
  8
0
 62
     0
 10
70.8311
 20
4.3367
 30
0.0
 11
71.217
 21
3.94945
 31
0.0
  0
LINE
  8
0
 62
     0
 10
71.217
 20
3.94945
 30
0.0
 11
71.7049
 21
3.70004
 31
0.0
  0
LINE
  8
0
 62
     0
 10
71.7049
 20
3.70004
 30
0.0
 11
72.2464
 21
3.6146
 31
0.0
  0
LINE
  8
0
 62
     0
 10
72.2464
 20
3.6146
 30
0.0
 11
72.7865
 21
3.70004
 31
0.0
  0
LINE
  8
0
 62
     0
 10
72.7865
 20
3.70004
 30
0.0
 11
73.2744
 21
3.94945
 31
0.0
  0
LINE
  8
0
 62
     0
 10
73.2744
 20
3.94945
 30
0.0
 11
73.6618
 21
4.3367
 31
0.0
  0
LINE
  8
0
 62
     0
 10
73.6618
 20
4.3367
 30
0.0
 11
73.9112
 21
4.82452
 31
0.0
  0
LINE
  8
0
 62
     0
 10
73.9112
 20
4.82452
 30
0.0
 11
73.9965
 21
5.36469
 31
0.0
  0
LINE
  8
0
 62
     0
 10
73.9965
 20
5.36469
 30
0.0
 11
73.9112
 21
5.90628
 31
0.0
  0
LINE
  8
0
 62
     0
 10
73.9112
 20
5.90628
 30
0.0
 11
73.6618
 21
6.3941
 31
0.0
  0
LINE
  8
0
 62
     0
 10
73.6618
 20
6.3941
 30
0.0
 11
73.2744
 21
6.77997
 31
0.0
  0
LINE
  8
0
 62
     0
 10
73.2744
 20
6.77997
 30
0.0
 11
72.7865
 21
7.02938
 31
0.0
  0
LINE
  8
0
 62
     0
 10
72.7865
 20
7.02938
 30
0.0
 11
72.2464
 21
7.11482
 31
0.0
  0
LINE
  8
0
 62
     0
 10
72.2464
 20
7.11482
 30
0.0
 11
71.7049
 21
7.02938
 31
0.0
  0
LINE
  8
0
 62
     0
 10
4.55443
 20
74.1811
 30
0.0
 11
4.06658
 21
73.9316
 31
0.0
  0
LINE
  8
0
 62
     0
 10
4.06658
 20
73.9316
 30
0.0
 11
3.67937
 21
73.5446
 31
0.0
  0
LINE
  8
0
 62
     0
 10
3.67937
 20
73.5446
 30
0.0
 11
3.42994
 21
73.0567
 31
0.0
  0
LINE
  8
0
 62
     0
 10
3.42994
 20
73.0567
 30
0.0
 11
3.34588
 21
72.5152
 31
0.0
  0
LINE
  8
0
 62
     0
 10
3.34588
 20
72.5152
 30
0.0
 11
3.42994
 21
71.9748
 31
0.0
  0
LINE
  8
0
 62
     0
 10
3.42994
 20
71.9748
 30
0.0
 11
3.67937
 21
71.4872
 31
0.0
  0
LINE
  8
0
 62
     0
 10
3.67937
 20
71.4872
 30
0.0
 11
4.06658
 21
71.1013
 31
0.0
  0
LINE
  8
0
 62
     0
 10
4.06658
 20
71.1013
 30
0.0
 11
4.55443
 21
70.8519
 31
0.0
  0
LINE
  8
0
 62
     0
 10
4.55443
 20
70.8519
 30
0.0
 11
5.09598
 21
70.7651
 31
0.0
  0
LINE
  8
0
 62
     0
 10
5.09598
 20
70.7651
 30
0.0
 11
5.63619
 21
70.8519
 31
0.0
  0
LINE
  8
0
 62
     0
 10
5.63619
 20
70.8519
 30
0.0
 11
6.12401
 21
71.1013
 31
0.0
  0
LINE
  8
0
 62
     0
 10
6.12401
 20
71.1013
 30
0.0
 11
6.50984
 21
71.4872
 31
0.0
  0
LINE
  8
0
 62
     0
 10
6.50984
 20
71.4872
 30
0.0
 11
6.75929
 21
71.9748
 31
0.0
  0
LINE
  8
0
 62
     0
 10
6.75929
 20
71.9748
 30
0.0
 11
6.84611
 21
72.5152
 31
0.0
  0
LINE
  8
0
 62
     0
 10
6.84611
 20
72.5152
 30
0.0
 11
6.75929
 21
73.0567
 31
0.0
  0
LINE
  8
0
 62
     0
 10
6.75929
 20
73.0567
 30
0.0
 11
6.50984
 21
73.5446
 31
0.0
  0
LINE
  8
0
 62
     0
 10
6.50984
 20
73.5446
 30
0.0
 11
6.12401
 21
73.9316
 31
0.0
  0
LINE
  8
0
 62
     0
 10
6.12401
 20
73.9316
 30
0.0
 11
5.63619
 21
74.1811
 31
0.0
  0
LINE
  8
0
 62
     0
 10
5.63619
 20
74.1811
 30
0.0
 11
5.09598
 21
74.2654
 31
0.0
  0
LINE
  8
0
 62
     0
 10
5.09598
 20
74.2654
 30
0.0
 11
4.55443
 21
74.1811
 31
0.0
  0
LINE
  8
0
 62
     0
 10
71.7049
 20
74.1811
 30
0.0
 11
71.217
 21
73.9316
 31
0.0
  0
LINE
  8
0
 62
     0
 10
71.217
 20
73.9316
 30
0.0
 11
70.8311
 21
73.5446
 31
0.0
  0
LINE
  8
0
 62
     0
 10
70.8311
 20
73.5446
 30
0.0
 11
70.5817
 21
73.0567
 31
0.0
  0
LINE
  8
0
 62
     0
 10
70.5817
 20
73.0567
 30
0.0
 11
70.4963
 21
72.5152
 31
0.0
  0
LINE
  8
0
 62
     0
 10
70.4963
 20
72.5152
 30
0.0
 11
70.5817
 21
71.9748
 31
0.0
  0
LINE
  8
0
 62
     0
 10
70.5817
 20
71.9748
 30
0.0
 11
70.8311
 21
71.4872
 31
0.0
  0
LINE
  8
0
 62
     0
 10
70.8311
 20
71.4872
 30
0.0
 11
71.217
 21
71.1013
 31
0.0
  0
LINE
  8
0
 62
     0
 10
71.217
 20
71.1013
 30
0.0
 11
71.7049
 21
70.8519
 31
0.0
  0
LINE
  8
0
 62
     0
 10
71.7049
 20
70.8519
 30
0.0
 11
72.2464
 21
70.7651
 31
0.0
  0
LINE
  8
0
 62
     0
 10
72.2464
 20
70.7651
 30
0.0
 11
72.7865
 21
70.8519
 31
0.0
  0
LINE
  8
0
 62
     0
 10
72.7865
 20
70.8519
 30
0.0
 11
73.2744
 21
71.1013
 31
0.0
  0
LINE
  8
0
 62
     0
 10
73.2744
 20
71.1013
 30
0.0
 11
73.6618
 21
71.4872
 31
0.0
  0
LINE
  8
0
 62
     0
 10
73.6618
 20
71.4872
 30
0.0
 11
73.9112
 21
71.9748
 31
0.0
  0
LINE
  8
0
 62
     0
 10
73.9112
 20
71.9748
 30
0.0
 11
73.9965
 21
72.5152
 31
0.0
  0
LINE
  8
0
 62
     0
 10
73.9965
 20
72.5152
 30
0.0
 11
73.9112
 21
73.0567
 31
0.0
  0
LINE
  8
0
 62
     0
 10
73.9112
 20
73.0567
 30
0.0
 11
73.6618
 21
73.5446
 31
0.0
  0
LINE
  8
0
 62
     0
 10
73.6618
 20
73.5446
 30
0.0
 11
73.2744
 21
73.9316
 31
0.0
  0
LINE
  8
0
 62
     0
 10
73.2744
 20
73.9316
 30
0.0
 11
72.7865
 21
74.1811
 31
0.0
  0
LINE
  8
0
 62
     0
 10
72.7865
 20
74.1811
 30
0.0
 11
72.2464
 21
74.2654
 31
0.0
  0
LINE
  8
0
 62
     0
 10
72.2464
 20
74.2654
 30
0.0
 11
71.7049
 21
74.1811
 31
0.0
  0
ENDSEC
  0
EOF
