  0
SECTION
  2
HEADER
  9
$ACADVER
  1
AC1009
  9
$EXTMIN
 10
0.0
 20
0.0
 30
0.0
  9
$EXTMAX
 10
1000.0
 20
1000.0
 30
0.0
  9
$FILLMODE
 70
 0
  9
$SPLFRAME
 70
 1
  0
ENDSEC
  0
SECTION
  2
TABLES
  0
TABLE
  2
LAYER
 70
1
  0
LAYER
  2
0
 70
     0
 62
     7
  6
CONTINUOUS
  0
ENDTAB
  0
ENDSEC
  0
SECTION
  2
ENTITIES
  0
LINE
  8
0
 62
     0
 10
343.709
 20
115.616
 30
0.0
 11
344.1
 21
115.601
 31
0.0
  0
LINE
  8
0
 62
     0
 10
344.1
 20
115.601
 30
0.0
 11
344.49
 21
115.554
 31
0.0
  0
LINE
  8
0
 62
     0
 10
344.49
 20
115.554
 30
0.0
 11
344.876
 21
115.478
 31
0.0
  0
LINE
  8
0
 62
     0
 10
344.876
 20
115.478
 30
0.0
 11
345.254
 21
115.372
 31
0.0
  0
LINE
  8
0
 62
     0
 10
345.254
 20
115.372
 30
0.0
 11
345.622
 21
115.236
 31
0.0
  0
LINE
  8
0
 62
     0
 10
345.622
 20
115.236
 30
0.0
 11
345.979
 21
115.072
 31
0.0
  0
LINE
  8
0
 62
     0
 10
345.979
 20
115.072
 30
0.0
 11
346.32
 21
114.88
 31
0.0
  0
LINE
  8
0
 62
     0
 10
346.32
 20
114.88
 30
0.0
 11
346.647
 21
114.661
 31
0.0
  0
LINE
  8
0
 62
     0
 10
346.647
 20
114.661
 30
0.0
 11
346.956
 21
114.419
 31
0.0
  0
LINE
  8
0
 62
     0
 10
346.956
 20
114.419
 30
0.0
 11
347.245
 21
114.151
 31
0.0
  0
LINE
  8
0
 62
     0
 10
347.245
 20
114.151
 30
0.0
 11
347.511
 21
113.863
 31
0.0
  0
LINE
  8
0
 62
     0
 10
347.511
 20
113.863
 30
0.0
 11
347.754
 21
113.555
 31
0.0
  0
LINE
  8
0
 62
     0
 10
347.754
 20
113.555
 30
0.0
 11
347.971
 21
113.229
 31
0.0
  0
LINE
  8
0
 62
     0
 10
347.971
 20
113.229
 30
0.0
 11
348.164
 21
112.886
 31
0.0
  0
LINE
  8
0
 62
     0
 10
348.164
 20
112.886
 30
0.0
 11
348.328
 21
112.529
 31
0.0
  0
LINE
  8
0
 62
     0
 10
348.328
 20
112.529
 30
0.0
 11
348.463
 21
112.161
 31
0.0
  0
LINE
  8
0
 62
     0
 10
348.463
 20
112.161
 30
0.0
 11
348.571
 21
111.784
 31
0.0
  0
LINE
  8
0
 62
     0
 10
348.571
 20
111.784
 30
0.0
 11
348.646
 21
111.399
 31
0.0
  0
LINE
  8
0
 62
     0
 10
348.646
 20
111.399
 30
0.0
 11
348.693
 21
111.009
 31
0.0
  0
LINE
  8
0
 62
     0
 10
348.693
 20
111.009
 30
0.0
 11
348.708
 21
110.615
 31
0.0
  0
LINE
  8
0
 62
     0
 10
348.708
 20
110.615
 30
0.0
 11
348.708
 21
5.36607
 31
0.0
  0
LINE
  8
0
 62
     0
 10
348.708
 20
5.36607
 30
0.0
 11
348.693
 21
4.97198
 31
0.0
  0
LINE
  8
0
 62
     0
 10
348.693
 20
4.97198
 30
0.0
 11
348.646
 21
4.58198
 31
0.0
  0
LINE
  8
0
 62
     0
 10
348.646
 20
4.58198
 30
0.0
 11
348.571
 21
4.19749
 31
0.0
  0
LINE
  8
0
 62
     0
 10
348.571
 20
4.19749
 30
0.0
 11
348.463
 21
3.81991
 31
0.0
  0
LINE
  8
0
 62
     0
 10
348.463
 20
3.81991
 30
0.0
 11
348.328
 21
3.45199
 31
0.0
  0
LINE
  8
0
 62
     0
 10
348.328
 20
3.45199
 30
0.0
 11
348.164
 21
3.09507
 31
0.0
  0
LINE
  8
0
 62
     0
 10
348.164
 20
3.09507
 30
0.0
 11
347.971
 21
2.75194
 31
0.0
  0
LINE
  8
0
 62
     0
 10
347.971
 20
2.75194
 30
0.0
 11
347.754
 21
2.42673
 31
0.0
  0
LINE
  8
0
 62
     0
 10
347.754
 20
2.42673
 30
0.0
 11
347.511
 21
2.11805
 31
0.0
  0
LINE
  8
0
 62
     0
 10
347.511
 20
2.11805
 30
0.0
 11
347.245
 21
1.83003
 31
0.0
  0
LINE
  8
0
 62
     0
 10
347.245
 20
1.83003
 30
0.0
 11
346.956
 21
1.5627
 31
0.0
  0
LINE
  8
0
 62
     0
 10
346.956
 20
1.5627
 30
0.0
 11
346.647
 21
1.32016
 31
0.0
  0
LINE
  8
0
 62
     0
 10
346.647
 20
1.32016
 30
0.0
 11
346.32
 21
1.10105
 31
0.0
  0
LINE
  8
0
 62
     0
 10
346.32
 20
1.10105
 30
0.0
 11
345.979
 21
0.909507
 31
0.0
  0
LINE
  8
0
 62
     0
 10
345.979
 20
0.909507
 30
0.0
 11
345.622
 21
0.745518
 31
0.0
  0
LINE
  8
0
 62
     0
 10
345.622
 20
0.745518
 30
0.0
 11
345.254
 21
0.609092
 31
0.0
  0
LINE
  8
0
 62
     0
 10
345.254
 20
0.609092
 30
0.0
 11
344.876
 21
0.502984
 31
0.0
  0
LINE
  8
0
 62
     0
 10
344.876
 20
0.502984
 30
0.0
 11
344.49
 21
0.427193
 31
0.0
  0
LINE
  8
0
 62
     0
 10
344.49
 20
0.427193
 30
0.0
 11
344.1
 21
0.38034
 31
0.0
  0
LINE
  8
0
 62
     0
 10
344.1
 20
0.38034
 30
0.0
 11
343.709
 21
0.365181
 31
0.0
  0
LINE
  8
0
 62
     0
 10
343.709
 20
0.365181
 30
0.0
 11
5.09598
 21
0.365181
 31
0.0
  0
LINE
  8
0
 62
     0
 10
5.09598
 20
0.365181
 30
0.0
 11
4.70186
 21
0.38034
 31
0.0
  0
LINE
  8
0
 62
     0
 10
4.70186
 20
0.38034
 30
0.0
 11
4.3119
 21
0.427193
 31
0.0
  0
LINE
  8
0
 62
     0
 10
4.3119
 20
0.427193
 30
0.0
 11
3.9274
 21
0.502984
 31
0.0
  0
LINE
  8
0
 62
     0
 10
3.9274
 20
0.502984
 30
0.0
 11
3.54983
 21
0.609092
 31
0.0
  0
LINE
  8
0
 62
     0
 10
3.54983
 20
0.609092
 30
0.0
 11
3.18189
 21
0.745518
 31
0.0
  0
LINE
  8
0
 62
     0
 10
3.18189
 20
0.745518
 30
0.0
 11
2.82498
 21
0.909507
 31
0.0
  0
LINE
  8
0
 62
     0
 10
2.82498
 20
0.909507
 30
0.0
 11
2.48185
 21
1.10105
 31
0.0
  0
LINE
  8
0
 62
     0
 10
2.48185
 20
1.10105
 30
0.0
 11
2.15663
 21
1.32016
 31
0.0
  0
LINE
  8
0
 62
     0
 10
2.15663
 20
1.32016
 30
0.0
 11
1.84795
 21
1.5627
 31
0.0
  0
LINE
  8
0
 62
     0
 10
1.84795
 20
1.5627
 30
0.0
 11
1.55994
 21
1.83003
 31
0.0
  0
LINE
  8
0
 62
     0
 10
1.55994
 20
1.83003
 30
0.0
 11
1.2926
 21
2.11805
 31
0.0
  0
LINE
  8
0
 62
     0
 10
1.2926
 20
2.11805
 30
0.0
 11
1.05006
 21
2.42673
 31
0.0
  0
LINE
  8
0
 62
     0
 10
1.05006
 20
2.42673
 30
0.0
 11
0.830957
 21
2.75194
 31
0.0
  0
LINE
  8
0
 62
     0
 10
0.830957
 20
2.75194
 30
0.0
 11
0.63941
 21
3.09507
 31
0.0
  0
LINE
  8
0
 62
     0
 10
0.63941
 20
3.09507
 30
0.0
 11
0.475424
 21
3.45199
 31
0.0
  0
LINE
  8
0
 62
     0
 10
0.475424
 20
3.45199
 30
0.0
 11
0.338998
 21
3.81991
 31
0.0
  0
LINE
  8
0
 62
     0
 10
0.338998
 20
3.81991
 30
0.0
 11
0.232888
 21
4.19749
 31
0.0
  0
LINE
  8
0
 62
     0
 10
0.232888
 20
4.19749
 30
0.0
 11
0.157097
 21
4.58198
 31
0.0
  0
LINE
  8
0
 62
     0
 10
0.157097
 20
4.58198
 30
0.0
 11
0.110243
 21
4.97198
 31
0.0
  0
LINE
  8
0
 62
     0
 10
0.110243
 20
4.97198
 30
0.0
 11
0.0950846
 21
5.36607
 31
0.0
  0
LINE
  8
0
 62
     0
 10
0.0950846
 20
5.36607
 30
0.0
 11
0.0950846
 21
110.615
 31
0.0
  0
LINE
  8
0
 62
     0
 10
0.0950846
 20
110.615
 30
0.0
 11
0.110243
 21
111.009
 31
0.0
  0
LINE
  8
0
 62
     0
 10
0.110243
 20
111.009
 30
0.0
 11
0.157097
 21
111.399
 31
0.0
  0
LINE
  8
0
 62
     0
 10
0.157097
 20
111.399
 30
0.0
 11
0.232888
 21
111.784
 31
0.0
  0
LINE
  8
0
 62
     0
 10
0.232888
 20
111.784
 30
0.0
 11
0.338998
 21
112.161
 31
0.0
  0
LINE
  8
0
 62
     0
 10
0.338998
 20
112.161
 30
0.0
 11
0.475424
 21
112.529
 31
0.0
  0
LINE
  8
0
 62
     0
 10
0.475424
 20
112.529
 30
0.0
 11
0.63941
 21
112.886
 31
0.0
  0
LINE
  8
0
 62
     0
 10
0.63941
 20
112.886
 30
0.0
 11
0.830957
 21
113.229
 31
0.0
  0
LINE
  8
0
 62
     0
 10
0.830957
 20
113.229
 30
0.0
 11
1.05006
 21
113.555
 31
0.0
  0
LINE
  8
0
 62
     0
 10
1.05006
 20
113.555
 30
0.0
 11
1.2926
 21
113.863
 31
0.0
  0
LINE
  8
0
 62
     0
 10
1.2926
 20
113.863
 30
0.0
 11
1.55994
 21
114.151
 31
0.0
  0
LINE
  8
0
 62
     0
 10
1.55994
 20
114.151
 30
0.0
 11
1.84795
 21
114.419
 31
0.0
  0
LINE
  8
0
 62
     0
 10
1.84795
 20
114.419
 30
0.0
 11
2.15663
 21
114.661
 31
0.0
  0
LINE
  8
0
 62
     0
 10
2.15663
 20
114.661
 30
0.0
 11
2.48185
 21
114.88
 31
0.0
  0
LINE
  8
0
 62
     0
 10
2.48185
 20
114.88
 30
0.0
 11
2.82498
 21
115.072
 31
0.0
  0
LINE
  8
0
 62
     0
 10
2.82498
 20
115.072
 30
0.0
 11
3.18189
 21
115.236
 31
0.0
  0
LINE
  8
0
 62
     0
 10
3.18189
 20
115.236
 30
0.0
 11
3.54983
 21
115.372
 31
0.0
  0
LINE
  8
0
 62
     0
 10
3.54983
 20
115.372
 30
0.0
 11
3.9274
 21
115.478
 31
0.0
  0
LINE
  8
0
 62
     0
 10
3.9274
 20
115.478
 30
0.0
 11
4.3119
 21
115.554
 31
0.0
  0
LINE
  8
0
 62
     0
 10
4.3119
 20
115.554
 30
0.0
 11
4.70186
 21
115.601
 31
0.0
  0
LINE
  8
0
 62
     0
 10
4.70186
 20
115.601
 30
0.0
 11
5.09598
 21
115.616
 31
0.0
  0
LINE
  8
0
 62
     0
 10
5.09598
 20
115.616
 30
0.0
 11
343.709
 21
115.616
 31
0.0
  0
LINE
  8
0
 62
     0
 10
4.55443
 20
7.02938
 30
0.0
 11
4.06658
 21
6.77997
 31
0.0
  0
LINE
  8
0
 62
     0
 10
4.06658
 20
6.77997
 30
0.0
 11
3.67937
 21
6.3941
 31
0.0
  0
LINE
  8
0
 62
     0
 10
3.67937
 20
6.3941
 30
0.0
 11
3.42994
 21
5.90628
 31
0.0
  0
LINE
  8
0
 62
     0
 10
3.42994
 20
5.90628
 30
0.0
 11
3.3445
 21
5.36607
 31
0.0
  0
LINE
  8
0
 62
     0
 10
3.3445
 20
5.36607
 30
0.0
 11
3.42994
 21
4.82452
 31
0.0
  0
LINE
  8
0
 62
     0
 10
3.42994
 20
4.82452
 30
0.0
 11
3.67937
 21
4.3367
 31
0.0
  0
LINE
  8
0
 62
     0
 10
3.67937
 20
4.3367
 30
0.0
 11
4.06658
 21
3.94945
 31
0.0
  0
LINE
  8
0
 62
     0
 10
4.06658
 20
3.94945
 30
0.0
 11
4.55443
 21
3.70004
 31
0.0
  0
LINE
  8
0
 62
     0
 10
4.55443
 20
3.70004
 30
0.0
 11
5.0946
 21
3.61597
 31
0.0
  0
LINE
  8
0
 62
     0
 10
5.0946
 20
3.61597
 30
0.0
 11
5.63619
 21
3.70004
 31
0.0
  0
LINE
  8
0
 62
     0
 10
5.63619
 20
3.70004
 30
0.0
 11
6.12401
 21
3.94945
 31
0.0
  0
LINE
  8
0
 62
     0
 10
6.12401
 20
3.94945
 30
0.0
 11
6.50984
 21
4.3367
 31
0.0
  0
LINE
  8
0
 62
     0
 10
6.50984
 20
4.3367
 30
0.0
 11
6.75929
 21
4.82452
 31
0.0
  0
LINE
  8
0
 62
     0
 10
6.75929
 20
4.82452
 30
0.0
 11
6.8447
 21
5.36607
 31
0.0
  0
LINE
  8
0
 62
     0
 10
6.8447
 20
5.36607
 30
0.0
 11
6.75929
 21
5.90628
 31
0.0
  0
LINE
  8
0
 62
     0
 10
6.75929
 20
5.90628
 30
0.0
 11
6.50984
 21
6.3941
 31
0.0
  0
LINE
  8
0
 62
     0
 10
6.50984
 20
6.3941
 30
0.0
 11
6.12401
 21
6.77997
 31
0.0
  0
LINE
  8
0
 62
     0
 10
6.12401
 20
6.77997
 30
0.0
 11
5.63619
 21
7.02938
 31
0.0
  0
LINE
  8
0
 62
     0
 10
5.63619
 20
7.02938
 30
0.0
 11
5.0946
 21
7.1162
 31
0.0
  0
LINE
  8
0
 62
     0
 10
5.0946
 20
7.1162
 30
0.0
 11
4.55443
 21
7.02938
 31
0.0
  0
LINE
  8
0
 62
     0
 10
89.2073
 20
7.02938
 30
0.0
 11
88.7194
 21
6.77997
 31
0.0
  0
LINE
  8
0
 62
     0
 10
88.7194
 20
6.77997
 30
0.0
 11
88.3324
 21
6.3941
 31
0.0
  0
LINE
  8
0
 62
     0
 10
88.3324
 20
6.3941
 30
0.0
 11
88.0844
 21
5.90628
 31
0.0
  0
LINE
  8
0
 62
     0
 10
88.0844
 20
5.90628
 30
0.0
 11
87.9987
 21
5.36607
 31
0.0
  0
LINE
  8
0
 62
     0
 10
87.9987
 20
5.36607
 30
0.0
 11
88.0844
 21
4.82452
 31
0.0
  0
LINE
  8
0
 62
     0
 10
88.0844
 20
4.82452
 30
0.0
 11
88.3324
 21
4.3367
 31
0.0
  0
LINE
  8
0
 62
     0
 10
88.3324
 20
4.3367
 30
0.0
 11
88.7194
 21
3.94945
 31
0.0
  0
LINE
  8
0
 62
     0
 10
88.7194
 20
3.94945
 30
0.0
 11
89.2073
 21
3.70004
 31
0.0
  0
LINE
  8
0
 62
     0
 10
89.2073
 20
3.70004
 30
0.0
 11
89.7488
 21
3.61597
 31
0.0
  0
LINE
  8
0
 62
     0
 10
89.7488
 20
3.61597
 30
0.0
 11
90.2892
 21
3.70004
 31
0.0
  0
LINE
  8
0
 62
     0
 10
90.2892
 20
3.70004
 30
0.0
 11
90.7768
 21
3.94945
 31
0.0
  0
LINE
  8
0
 62
     0
 10
90.7768
 20
3.94945
 30
0.0
 11
91.1641
 21
4.3367
 31
0.0
  0
LINE
  8
0
 62
     0
 10
91.1641
 20
4.3367
 30
0.0
 11
91.4121
 21
4.82452
 31
0.0
  0
LINE
  8
0
 62
     0
 10
91.4121
 20
4.82452
 30
0.0
 11
91.4989
 21
5.36607
 31
0.0
  0
LINE
  8
0
 62
     0
 10
91.4989
 20
5.36607
 30
0.0
 11
91.4121
 21
5.90628
 31
0.0
  0
LINE
  8
0
 62
     0
 10
91.4121
 20
5.90628
 30
0.0
 11
91.1641
 21
6.3941
 31
0.0
  0
LINE
  8
0
 62
     0
 10
91.1641
 20
6.3941
 30
0.0
 11
90.7768
 21
6.77997
 31
0.0
  0
LINE
  8
0
 62
     0
 10
90.7768
 20
6.77997
 30
0.0
 11
90.2892
 21
7.02938
 31
0.0
  0
LINE
  8
0
 62
     0
 10
90.2892
 20
7.02938
 30
0.0
 11
89.7488
 21
7.1162
 31
0.0
  0
LINE
  8
0
 62
     0
 10
89.7488
 20
7.1162
 30
0.0
 11
89.2073
 21
7.02938
 31
0.0
  0
LINE
  8
0
 62
     0
 10
173.86
 20
7.02938
 30
0.0
 11
173.374
 21
6.77997
 31
0.0
  0
LINE
  8
0
 62
     0
 10
173.374
 20
6.77997
 30
0.0
 11
172.985
 21
6.3941
 31
0.0
  0
LINE
  8
0
 62
     0
 10
172.985
 20
6.3941
 30
0.0
 11
172.737
 21
5.90628
 31
0.0
  0
LINE
  8
0
 62
     0
 10
172.737
 20
5.90628
 30
0.0
 11
172.652
 21
5.36607
 31
0.0
  0
LINE
  8
0
 62
     0
 10
172.652
 20
5.36607
 30
0.0
 11
172.737
 21
4.82452
 31
0.0
  0
LINE
  8
0
 62
     0
 10
172.737
 20
4.82452
 30
0.0
 11
172.985
 21
4.3367
 31
0.0
  0
LINE
  8
0
 62
     0
 10
172.985
 20
4.3367
 30
0.0
 11
173.374
 21
3.94945
 31
0.0
  0
LINE
  8
0
 62
     0
 10
173.374
 20
3.94945
 30
0.0
 11
173.86
 21
3.70004
 31
0.0
  0
LINE
  8
0
 62
     0
 10
173.86
 20
3.70004
 30
0.0
 11
174.402
 21
3.61597
 31
0.0
  0
LINE
  8
0
 62
     0
 10
174.402
 20
3.61597
 30
0.0
 11
174.942
 21
3.70004
 31
0.0
  0
LINE
  8
0
 62
     0
 10
174.942
 20
3.70004
 30
0.0
 11
175.431
 21
3.94945
 31
0.0
  0
LINE
  8
0
 62
     0
 10
175.431
 20
3.94945
 30
0.0
 11
175.817
 21
4.3367
 31
0.0
  0
LINE
  8
0
 62
     0
 10
175.817
 20
4.3367
 30
0.0
 11
176.066
 21
4.82452
 31
0.0
  0
LINE
  8
0
 62
     0
 10
176.066
 20
4.82452
 30
0.0
 11
176.152
 21
5.36607
 31
0.0
  0
LINE
  8
0
 62
     0
 10
176.152
 20
5.36607
 30
0.0
 11
176.066
 21
5.90628
 31
0.0
  0
LINE
  8
0
 62
     0
 10
176.066
 20
5.90628
 30
0.0
 11
175.817
 21
6.3941
 31
0.0
  0
LINE
  8
0
 62
     0
 10
175.817
 20
6.3941
 30
0.0
 11
175.431
 21
6.77997
 31
0.0
  0
LINE
  8
0
 62
     0
 10
175.431
 20
6.77997
 30
0.0
 11
174.942
 21
7.02938
 31
0.0
  0
LINE
  8
0
 62
     0
 10
174.942
 20
7.02938
 30
0.0
 11
174.402
 21
7.1162
 31
0.0
  0
LINE
  8
0
 62
     0
 10
174.402
 20
7.1162
 30
0.0
 11
173.86
 21
7.02938
 31
0.0
  0
LINE
  8
0
 62
     0
 10
258.514
 20
7.02938
 30
0.0
 11
258.027
 21
6.77997
 31
0.0
  0
LINE
  8
0
 62
     0
 10
258.027
 20
6.77997
 30
0.0
 11
257.639
 21
6.3941
 31
0.0
  0
LINE
  8
0
 62
     0
 10
257.639
 20
6.3941
 30
0.0
 11
257.39
 21
5.90628
 31
0.0
  0
LINE
  8
0
 62
     0
 10
257.39
 20
5.90628
 30
0.0
 11
257.306
 21
5.36607
 31
0.0
  0
LINE
  8
0
 62
     0
 10
257.306
 20
5.36607
 30
0.0
 11
257.39
 21
4.82452
 31
0.0
  0
LINE
  8
0
 62
     0
 10
257.39
 20
4.82452
 30
0.0
 11
257.639
 21
4.3367
 31
0.0
  0
LINE
  8
0
 62
     0
 10
257.639
 20
4.3367
 30
0.0
 11
258.027
 21
3.94945
 31
0.0
  0
LINE
  8
0
 62
     0
 10
258.027
 20
3.94945
 30
0.0
 11
258.514
 21
3.70004
 31
0.0
  0
LINE
  8
0
 62
     0
 10
258.514
 20
3.70004
 30
0.0
 11
259.056
 21
3.61597
 31
0.0
  0
LINE
  8
0
 62
     0
 10
259.056
 20
3.61597
 30
0.0
 11
259.595
 21
3.70004
 31
0.0
  0
LINE
  8
0
 62
     0
 10
259.595
 20
3.70004
 30
0.0
 11
260.084
 21
3.94945
 31
0.0
  0
LINE
  8
0
 62
     0
 10
260.084
 20
3.94945
 30
0.0
 11
260.47
 21
4.3367
 31
0.0
  0
LINE
  8
0
 62
     0
 10
260.47
 20
4.3367
 30
0.0
 11
260.719
 21
4.82452
 31
0.0
  0
LINE
  8
0
 62
     0
 10
260.719
 20
4.82452
 30
0.0
 11
260.806
 21
5.36607
 31
0.0
  0
LINE
  8
0
 62
     0
 10
260.806
 20
5.36607
 30
0.0
 11
260.719
 21
5.90628
 31
0.0
  0
LINE
  8
0
 62
     0
 10
260.719
 20
5.90628
 30
0.0
 11
260.47
 21
6.3941
 31
0.0
  0
LINE
  8
0
 62
     0
 10
260.47
 20
6.3941
 30
0.0
 11
260.084
 21
6.77997
 31
0.0
  0
LINE
  8
0
 62
     0
 10
260.084
 20
6.77997
 30
0.0
 11
259.595
 21
7.02938
 31
0.0
  0
LINE
  8
0
 62
     0
 10
259.595
 20
7.02938
 30
0.0
 11
259.056
 21
7.1162
 31
0.0
  0
LINE
  8
0
 62
     0
 10
259.056
 20
7.1162
 30
0.0
 11
258.514
 21
7.02938
 31
0.0
  0
LINE
  8
0
 62
     0
 10
343.167
 20
7.02938
 30
0.0
 11
342.68
 21
6.77997
 31
0.0
  0
LINE
  8
0
 62
     0
 10
342.68
 20
6.77997
 30
0.0
 11
342.292
 21
6.3941
 31
0.0
  0
LINE
  8
0
 62
     0
 10
342.292
 20
6.3941
 30
0.0
 11
342.044
 21
5.90628
 31
0.0
  0
LINE
  8
0
 62
     0
 10
342.044
 20
5.90628
 30
0.0
 11
341.959
 21
5.36607
 31
0.0
  0
LINE
  8
0
 62
     0
 10
341.959
 20
5.36607
 30
0.0
 11
342.044
 21
4.82452
 31
0.0
  0
LINE
  8
0
 62
     0
 10
342.044
 20
4.82452
 30
0.0
 11
342.292
 21
4.3367
 31
0.0
  0
LINE
  8
0
 62
     0
 10
342.292
 20
4.3367
 30
0.0
 11
342.68
 21
3.94945
 31
0.0
  0
LINE
  8
0
 62
     0
 10
342.68
 20
3.94945
 30
0.0
 11
343.167
 21
3.70004
 31
0.0
  0
LINE
  8
0
 62
     0
 10
343.167
 20
3.70004
 30
0.0
 11
343.709
 21
3.61597
 31
0.0
  0
LINE
  8
0
 62
     0
 10
343.709
 20
3.61597
 30
0.0
 11
344.249
 21
3.70004
 31
0.0
  0
LINE
  8
0
 62
     0
 10
344.249
 20
3.70004
 30
0.0
 11
344.737
 21
3.94945
 31
0.0
  0
LINE
  8
0
 62
     0
 10
344.737
 20
3.94945
 30
0.0
 11
345.124
 21
4.3367
 31
0.0
  0
LINE
  8
0
 62
     0
 10
345.124
 20
4.3367
 30
0.0
 11
345.372
 21
4.82452
 31
0.0
  0
LINE
  8
0
 62
     0
 10
345.372
 20
4.82452
 30
0.0
 11
345.459
 21
5.36607
 31
0.0
  0
LINE
  8
0
 62
     0
 10
345.459
 20
5.36607
 30
0.0
 11
345.372
 21
5.90628
 31
0.0
  0
LINE
  8
0
 62
     0
 10
345.372
 20
5.90628
 30
0.0
 11
345.124
 21
6.3941
 31
0.0
  0
LINE
  8
0
 62
     0
 10
345.124
 20
6.3941
 30
0.0
 11
344.737
 21
6.77997
 31
0.0
  0
LINE
  8
0
 62
     0
 10
344.737
 20
6.77997
 30
0.0
 11
344.249
 21
7.02938
 31
0.0
  0
LINE
  8
0
 62
     0
 10
344.249
 20
7.02938
 30
0.0
 11
343.709
 21
7.1162
 31
0.0
  0
LINE
  8
0
 62
     0
 10
343.709
 20
7.1162
 30
0.0
 11
343.167
 21
7.02938
 31
0.0
  0
LINE
  8
0
 62
     0
 10
10.0955
 20
105.616
 30
0.0
 11
338.708
 21
105.616
 31
0.0
  0
LINE
  8
0
 62
     0
 10
338.708
 20
105.616
 30
0.0
 11
338.708
 21
10.3656
 31
0.0
  0
LINE
  8
0
 62
     0
 10
338.708
 20
10.3656
 30
0.0
 11
10.0955
 21
10.3656
 31
0.0
  0
LINE
  8
0
 62
     0
 10
10.0955
 20
10.3656
 30
0.0
 11
10.0955
 21
105.616
 31
0.0
  0
LINE
  8
0
 62
     0
 10
4.55443
 20
112.281
 30
0.0
 11
4.06658
 21
112.032
 31
0.0
  0
LINE
  8
0
 62
     0
 10
4.06658
 20
112.032
 30
0.0
 11
3.67937
 21
111.645
 31
0.0
  0
LINE
  8
0
 62
     0
 10
3.67937
 20
111.645
 30
0.0
 11
3.42994
 21
111.157
 31
0.0
  0
LINE
  8
0
 62
     0
 10
3.42994
 20
111.157
 30
0.0
 11
3.3445
 21
110.615
 31
0.0
  0
LINE
  8
0
 62
     0
 10
3.3445
 20
110.615
 30
0.0
 11
3.42994
 21
110.075
 31
0.0
  0
LINE
  8
0
 62
     0
 10
3.42994
 20
110.075
 30
0.0
 11
3.67937
 21
109.587
 31
0.0
  0
LINE
  8
0
 62
     0
 10
3.67937
 20
109.587
 30
0.0
 11
4.06658
 21
109.201
 31
0.0
  0
LINE
  8
0
 62
     0
 10
4.06658
 20
109.201
 30
0.0
 11
4.55443
 21
108.952
 31
0.0
  0
LINE
  8
0
 62
     0
 10
4.55443
 20
108.952
 30
0.0
 11
5.0946
 21
108.865
 31
0.0
  0
LINE
  8
0
 62
     0
 10
5.0946
 20
108.865
 30
0.0
 11
5.63619
 21
108.952
 31
0.0
  0
LINE
  8
0
 62
     0
 10
5.63619
 20
108.952
 30
0.0
 11
6.12401
 21
109.201
 31
0.0
  0
LINE
  8
0
 62
     0
 10
6.12401
 20
109.201
 30
0.0
 11
6.50984
 21
109.587
 31
0.0
  0
LINE
  8
0
 62
     0
 10
6.50984
 20
109.587
 30
0.0
 11
6.75929
 21
110.075
 31
0.0
  0
LINE
  8
0
 62
     0
 10
6.75929
 20
110.075
 30
0.0
 11
6.8447
 21
110.615
 31
0.0
  0
LINE
  8
0
 62
     0
 10
6.8447
 20
110.615
 30
0.0
 11
6.75929
 21
111.157
 31
0.0
  0
LINE
  8
0
 62
     0
 10
6.75929
 20
111.157
 30
0.0
 11
6.50984
 21
111.645
 31
0.0
  0
LINE
  8
0
 62
     0
 10
6.50984
 20
111.645
 30
0.0
 11
6.12401
 21
112.032
 31
0.0
  0
LINE
  8
0
 62
     0
 10
6.12401
 20
112.032
 30
0.0
 11
5.63619
 21
112.281
 31
0.0
  0
LINE
  8
0
 62
     0
 10
5.63619
 20
112.281
 30
0.0
 11
5.0946
 21
112.365
 31
0.0
  0
LINE
  8
0
 62
     0
 10
5.0946
 20
112.365
 30
0.0
 11
4.55443
 21
112.281
 31
0.0
  0
LINE
  8
0
 62
     0
 10
343.167
 20
112.281
 30
0.0
 11
342.68
 21
112.032
 31
0.0
  0
LINE
  8
0
 62
     0
 10
342.68
 20
112.032
 30
0.0
 11
342.292
 21
111.645
 31
0.0
  0
LINE
  8
0
 62
     0
 10
342.292
 20
111.645
 30
0.0
 11
342.044
 21
111.157
 31
0.0
  0
LINE
  8
0
 62
     0
 10
342.044
 20
111.157
 30
0.0
 11
341.959
 21
110.615
 31
0.0
  0
LINE
  8
0
 62
     0
 10
341.959
 20
110.615
 30
0.0
 11
342.044
 21
110.075
 31
0.0
  0
LINE
  8
0
 62
     0
 10
342.044
 20
110.075
 30
0.0
 11
342.292
 21
109.587
 31
0.0
  0
LINE
  8
0
 62
     0
 10
342.292
 20
109.587
 30
0.0
 11
342.68
 21
109.201
 31
0.0
  0
LINE
  8
0
 62
     0
 10
342.68
 20
109.201
 30
0.0
 11
343.167
 21
108.952
 31
0.0
  0
LINE
  8
0
 62
     0
 10
343.167
 20
108.952
 30
0.0
 11
343.709
 21
108.865
 31
0.0
  0
LINE
  8
0
 62
     0
 10
343.709
 20
108.865
 30
0.0
 11
344.249
 21
108.952
 31
0.0
  0
LINE
  8
0
 62
     0
 10
344.249
 20
108.952
 30
0.0
 11
344.737
 21
109.201
 31
0.0
  0
LINE
  8
0
 62
     0
 10
344.737
 20
109.201
 30
0.0
 11
345.124
 21
109.587
 31
0.0
  0
LINE
  8
0
 62
     0
 10
345.124
 20
109.587
 30
0.0
 11
345.372
 21
110.075
 31
0.0
  0
LINE
  8
0
 62
     0
 10
345.372
 20
110.075
 30
0.0
 11
345.459
 21
110.615
 31
0.0
  0
LINE
  8
0
 62
     0
 10
345.459
 20
110.615
 30
0.0
 11
345.372
 21
111.157
 31
0.0
  0
LINE
  8
0
 62
     0
 10
345.372
 20
111.157
 30
0.0
 11
345.124
 21
111.645
 31
0.0
  0
LINE
  8
0
 62
     0
 10
345.124
 20
111.645
 30
0.0
 11
344.737
 21
112.032
 31
0.0
  0
LINE
  8
0
 62
     0
 10
344.737
 20
112.032
 30
0.0
 11
344.249
 21
112.281
 31
0.0
  0
LINE
  8
0
 62
     0
 10
344.249
 20
112.281
 30
0.0
 11
343.709
 21
112.365
 31
0.0
  0
LINE
  8
0
 62
     0
 10
343.709
 20
112.365
 30
0.0
 11
343.167
 21
112.281
 31
0.0
  0
LINE
  8
0
 62
     0
 10
258.514
 20
112.281
 30
0.0
 11
258.027
 21
112.032
 31
0.0
  0
LINE
  8
0
 62
     0
 10
258.027
 20
112.032
 30
0.0
 11
257.639
 21
111.645
 31
0.0
  0
LINE
  8
0
 62
     0
 10
257.639
 20
111.645
 30
0.0
 11
257.39
 21
111.157
 31
0.0
  0
LINE
  8
0
 62
     0
 10
257.39
 20
111.157
 30
0.0
 11
257.306
 21
110.615
 31
0.0
  0
LINE
  8
0
 62
     0
 10
257.306
 20
110.615
 30
0.0
 11
257.39
 21
110.075
 31
0.0
  0
LINE
  8
0
 62
     0
 10
257.39
 20
110.075
 30
0.0
 11
257.639
 21
109.587
 31
0.0
  0
LINE
  8
0
 62
     0
 10
257.639
 20
109.587
 30
0.0
 11
258.027
 21
109.201
 31
0.0
  0
LINE
  8
0
 62
     0
 10
258.027
 20
109.201
 30
0.0
 11
258.514
 21
108.952
 31
0.0
  0
LINE
  8
0
 62
     0
 10
258.514
 20
108.952
 30
0.0
 11
259.056
 21
108.865
 31
0.0
  0
LINE
  8
0
 62
     0
 10
259.056
 20
108.865
 30
0.0
 11
259.595
 21
108.952
 31
0.0
  0
LINE
  8
0
 62
     0
 10
259.595
 20
108.952
 30
0.0
 11
260.084
 21
109.201
 31
0.0
  0
LINE
  8
0
 62
     0
 10
260.084
 20
109.201
 30
0.0
 11
260.47
 21
109.587
 31
0.0
  0
LINE
  8
0
 62
     0
 10
260.47
 20
109.587
 30
0.0
 11
260.719
 21
110.075
 31
0.0
  0
LINE
  8
0
 62
     0
 10
260.719
 20
110.075
 30
0.0
 11
260.806
 21
110.615
 31
0.0
  0
LINE
  8
0
 62
     0
 10
260.806
 20
110.615
 30
0.0
 11
260.719
 21
111.157
 31
0.0
  0
LINE
  8
0
 62
     0
 10
260.719
 20
111.157
 30
0.0
 11
260.47
 21
111.645
 31
0.0
  0
LINE
  8
0
 62
     0
 10
260.47
 20
111.645
 30
0.0
 11
260.084
 21
112.032
 31
0.0
  0
LINE
  8
0
 62
     0
 10
260.084
 20
112.032
 30
0.0
 11
259.595
 21
112.281
 31
0.0
  0
LINE
  8
0
 62
     0
 10
259.595
 20
112.281
 30
0.0
 11
259.056
 21
112.365
 31
0.0
  0
LINE
  8
0
 62
     0
 10
259.056
 20
112.365
 30
0.0
 11
258.514
 21
112.281
 31
0.0
  0
LINE
  8
0
 62
     0
 10
173.86
 20
112.281
 30
0.0
 11
173.374
 21
112.032
 31
0.0
  0
LINE
  8
0
 62
     0
 10
173.374
 20
112.032
 30
0.0
 11
172.985
 21
111.645
 31
0.0
  0
LINE
  8
0
 62
     0
 10
172.985
 20
111.645
 30
0.0
 11
172.737
 21
111.157
 31
0.0
  0
LINE
  8
0
 62
     0
 10
172.737
 20
111.157
 30
0.0
 11
172.652
 21
110.615
 31
0.0
  0
LINE
  8
0
 62
     0
 10
172.652
 20
110.615
 30
0.0
 11
172.737
 21
110.075
 31
0.0
  0
LINE
  8
0
 62
     0
 10
172.737
 20
110.075
 30
0.0
 11
172.985
 21
109.587
 31
0.0
  0
LINE
  8
0
 62
     0
 10
172.985
 20
109.587
 30
0.0
 11
173.374
 21
109.201
 31
0.0
  0
LINE
  8
0
 62
     0
 10
173.374
 20
109.201
 30
0.0
 11
173.86
 21
108.952
 31
0.0
  0
LINE
  8
0
 62
     0
 10
173.86
 20
108.952
 30
0.0
 11
174.402
 21
108.865
 31
0.0
  0
LINE
  8
0
 62
     0
 10
174.402
 20
108.865
 30
0.0
 11
174.942
 21
108.952
 31
0.0
  0
LINE
  8
0
 62
     0
 10
174.942
 20
108.952
 30
0.0
 11
175.431
 21
109.201
 31
0.0
  0
LINE
  8
0
 62
     0
 10
175.431
 20
109.201
 30
0.0
 11
175.817
 21
109.587
 31
0.0
  0
LINE
  8
0
 62
     0
 10
175.817
 20
109.587
 30
0.0
 11
176.066
 21
110.075
 31
0.0
  0
LINE
  8
0
 62
     0
 10
176.066
 20
110.075
 30
0.0
 11
176.152
 21
110.615
 31
0.0
  0
LINE
  8
0
 62
     0
 10
176.152
 20
110.615
 30
0.0
 11
176.066
 21
111.157
 31
0.0
  0
LINE
  8
0
 62
     0
 10
176.066
 20
111.157
 30
0.0
 11
175.817
 21
111.645
 31
0.0
  0
LINE
  8
0
 62
     0
 10
175.817
 20
111.645
 30
0.0
 11
175.431
 21
112.032
 31
0.0
  0
LINE
  8
0
 62
     0
 10
175.431
 20
112.032
 30
0.0
 11
174.942
 21
112.281
 31
0.0
  0
LINE
  8
0
 62
     0
 10
174.942
 20
112.281
 30
0.0
 11
174.402
 21
112.365
 31
0.0
  0
LINE
  8
0
 62
     0
 10
174.402
 20
112.365
 30
0.0
 11
173.86
 21
112.281
 31
0.0
  0
LINE
  8
0
 62
     0
 10
89.2073
 20
112.281
 30
0.0
 11
88.7194
 21
112.032
 31
0.0
  0
LINE
  8
0
 62
     0
 10
88.7194
 20
112.032
 30
0.0
 11
88.3324
 21
111.645
 31
0.0
  0
LINE
  8
0
 62
     0
 10
88.3324
 20
111.645
 30
0.0
 11
88.0844
 21
111.157
 31
0.0
  0
LINE
  8
0
 62
     0
 10
88.0844
 20
111.157
 30
0.0
 11
87.9987
 21
110.615
 31
0.0
  0
LINE
  8
0
 62
     0
 10
87.9987
 20
110.615
 30
0.0
 11
88.0844
 21
110.075
 31
0.0
  0
LINE
  8
0
 62
     0
 10
88.0844
 20
110.075
 30
0.0
 11
88.3324
 21
109.587
 31
0.0
  0
LINE
  8
0
 62
     0
 10
88.3324
 20
109.587
 30
0.0
 11
88.7194
 21
109.201
 31
0.0
  0
LINE
  8
0
 62
     0
 10
88.7194
 20
109.201
 30
0.0
 11
89.2073
 21
108.952
 31
0.0
  0
LINE
  8
0
 62
     0
 10
89.2073
 20
108.952
 30
0.0
 11
89.7488
 21
108.865
 31
0.0
  0
LINE
  8
0
 62
     0
 10
89.7488
 20
108.865
 30
0.0
 11
90.2892
 21
108.952
 31
0.0
  0
LINE
  8
0
 62
     0
 10
90.2892
 20
108.952
 30
0.0
 11
90.7768
 21
109.201
 31
0.0
  0
LINE
  8
0
 62
     0
 10
90.7768
 20
109.201
 30
0.0
 11
91.1641
 21
109.587
 31
0.0
  0
LINE
  8
0
 62
     0
 10
91.1641
 20
109.587
 30
0.0
 11
91.4121
 21
110.075
 31
0.0
  0
LINE
  8
0
 62
     0
 10
91.4121
 20
110.075
 30
0.0
 11
91.4989
 21
110.615
 31
0.0
  0
LINE
  8
0
 62
     0
 10
91.4989
 20
110.615
 30
0.0
 11
91.4121
 21
111.157
 31
0.0
  0
LINE
  8
0
 62
     0
 10
91.4121
 20
111.157
 30
0.0
 11
91.1641
 21
111.645
 31
0.0
  0
LINE
  8
0
 62
     0
 10
91.1641
 20
111.645
 30
0.0
 11
90.7768
 21
112.032
 31
0.0
  0
LINE
  8
0
 62
     0
 10
90.7768
 20
112.032
 30
0.0
 11
90.2892
 21
112.281
 31
0.0
  0
LINE
  8
0
 62
     0
 10
90.2892
 20
112.281
 30
0.0
 11
89.7488
 21
112.365
 31
0.0
  0
LINE
  8
0
 62
     0
 10
89.7488
 20
112.365
 30
0.0
 11
89.2073
 21
112.281
 31
0.0
  0
ENDSEC
  0
EOF
