  0
SECTION
  2
BLOCKS
  0
ENDSEC
  0
SECTION
  2
ENTITIES
  0
LINE
  8
0
 10
50
 20
10
 11
0
 21
10
  0
LINE
  8
0
 10
0
 20
10
 11
0
 21
0
  0
LINE
  8
0
 10
0
 20
0
 11
50
 21
0
  0
LINE
  8
0
 10
50
 20
0
 11
50
 21
10
  0
LINE
  8
0
 10
41.175
 20
2.70503
 11
40.0098
 21
4.09364
  0
LINE
  8
0
 10
40.0098
 20
4.09364
 11
40.0098
 21
5.90634
  0
LINE
  8
0
 10
40.0098
 20
5.90634
 11
41.175
 21
7.29495
  0
LINE
  8
0
 10
41.175
 20
7.29495
 11
42.9602
 21
7.60973
  0
LINE
  8
0
 10
42.9602
 20
7.60973
 11
44.53
 21
6.70338
  0
LINE
  8
0
 10
44.53
 20
6.70338
 11
45.15
 21
5
  0
LINE
  8
0
 10
45.15
 20
5
 11
44.53
 21
3.2966
  0
LINE
  8
0
 10
44.53
 20
3.2966
 11
42.9602
 21
2.39026
  0
LINE
  8
0
 10
42.9602
 20
2.39026
 11
41.175
 21
2.70503
  0
LINE
  8
0
 10
33.7
 20
2.74832
 11
32.5568
 21
4.11073
  0
LINE
  8
0
 10
32.5568
 20
4.11073
 11
32.5568
 21
5.88925
  0
LINE
  8
0
 10
32.5568
 20
5.88925
 11
33.7
 21
7.25166
  0
LINE
  8
0
 10
33.7
 20
7.25166
 11
35.4515
 21
7.56049
  0
LINE
  8
0
 10
35.4515
 20
7.56049
 11
36.9917
 21
6.67123
  0
LINE
  8
0
 10
36.9917
 20
6.67123
 11
37.6
 21
5
  0
LINE
  8
0
 10
37.6
 20
5
 11
36.9917
 21
3.32875
  0
LINE
  8
0
 10
36.9917
 20
3.32875
 11
35.4515
 21
2.4395
  0
LINE
  8
0
 10
35.4515
 20
2.4395
 11
33.7
 21
2.74832
  0
LINE
  8
0
 10
26.225
 20
2.79163
 11
25.1038
 21
4.12784
  0
LINE
  8
0
 10
25.1038
 20
4.12784
 11
25.1038
 21
5.87215
  0
LINE
  8
0
 10
25.1038
 20
5.87215
 11
26.225
 21
7.20836
  0
LINE
  8
0
 10
26.225
 20
7.20836
 11
27.9428
 21
7.51125
  0
LINE
  8
0
 10
27.9428
 20
7.51125
 11
29.4534
 21
6.6391
  0
LINE
  8
0
 10
29.4534
 20
6.6391
 11
30.05
 21
5
  0
LINE
  8
0
 10
30.05
 20
5
 11
29.4534
 21
3.36089
  0
LINE
  8
0
 10
29.4534
 20
3.36089
 11
27.9428
 21
2.48874
  0
LINE
  8
0
 10
27.9428
 20
2.48874
 11
26.225
 21
2.79163
  0
LINE
  8
0
 10
18.2322
 20
3.23222
 11
17.5
 21
5
  0
LINE
  8
0
 10
17.5
 20
5
 11
18.2322
 21
6.76776
  0
LINE
  8
0
 10
18.2322
 20
6.76776
 11
20
 21
7.5
  0
LINE
  8
0
 10
20
 20
7.5
 11
21.7678
 21
6.76776
  0
LINE
  8
0
 10
21.7678
 20
6.76776
 11
22.5
 21
5
  0
LINE
  8
0
 10
22.5
 20
5
 11
21.7678
 21
3.23222
  0
LINE
  8
0
 10
21.7678
 20
3.23222
 11
20
 21
2.5
  0
LINE
  8
0
 10
20
 20
2.5
 11
18.2322
 21
3.23222
  0
LINE
  8
0
 10
10.7676
 20
3.26758
 11
10.05
 21
5
  0
LINE
  8
0
 10
10.05
 20
5
 11
10.7676
 21
6.73241
  0
LINE
  8
0
 10
10.7676
 20
6.73241
 11
12.5
 21
7.45
  0
LINE
  8
0
 10
12.5
 20
7.45
 11
14.2324
 21
6.73241
  0
LINE
  8
0
 10
14.2324
 20
6.73241
 11
14.95
 21
5
  0
LINE
  8
0
 10
14.95
 20
5
 11
14.2324
 21
3.26758
  0
LINE
  8
0
 10
14.2324
 20
3.26758
 11
12.5
 21
2.54999
  0
LINE
  8
0
 10
12.5
 20
2.54999
 11
10.7676
 21
3.26758
  0
LINE
  8
0
 10
3.30293
 20
3.30293
 11
2.59999
 21
5
  0
LINE
  8
0
 10
2.59999
 20
5
 11
3.30293
 21
6.69705
  0
LINE
  8
0
 10
3.30293
 20
6.69705
 11
5
 21
7.39999
  0
LINE
  8
0
 10
5
 20
7.39999
 11
6.69705
 21
6.69705
  0
LINE
  8
0
 10
6.69705
 20
6.69705
 11
7.39999
 21
5
  0
LINE
  8
0
 10
7.39999
 20
5
 11
6.69705
 21
3.30293
  0
LINE
  8
0
 10
6.69705
 20
3.30293
 11
5
 21
2.59999
  0
LINE
  8
0
 10
5
 20
2.59999
 11
3.30293
 21
3.30293
  0
ENDSEC
  0
SECTION
  2
OBJECTS
  0
DICTIONARY
  0
ENDSEC
  0
EOF
