  0
SECTION
  2
BLOCKS
  0
ENDSEC
  0
SECTION
  2
ENTITIES
  0
LINE
  8
0
 10
81.2
 20
-68.7461
 11
81.2
 21
2.07108
  0
LINE
  8
0
 10
81.2
 20
2.07108
 11
78.2711
 21
5
  0
LINE
  8
0
 10
78.2711
 20
5
 11
-2.07108
 21
5
  0
LINE
  8
0
 10
-2.07108
 20
5
 11
-5
 21
2.07108
  0
LINE
  8
0
 10
-5
 20
2.07108
 11
-5
 21
-68.7461
  0
LINE
  8
0
 10
-5
 20
-68.7461
 11
-2.07108
 21
-71.675
  0
LINE
  8
0
 10
-2.07108
 20
-71.675
 11
78.2711
 21
-71.675
  0
LINE
  8
0
 10
78.2711
 20
-71.675
 11
81.2
 21
-68.7461
  0
LINE
  8
0
 10
-0.923752
 20
-1.59999
 11
-1.84752
 21
0
  0
LINE
  8
0
 10
-1.84752
 20
0
 11
-0.923752
 21
1.59999
  0
LINE
  8
0
 10
-0.923752
 20
1.59999
 11
0.923752
 21
1.59999
  0
LINE
  8
0
 10
0.923752
 20
1.59999
 11
1.84752
 21
0
  0
LINE
  8
0
 10
1.84752
 20
0
 11
0.923752
 21
-1.59999
  0
LINE
  8
0
 10
0.923752
 20
-1.59999
 11
-0.923752
 21
-1.59999
  0
LINE
  8
0
 10
75.2762
 20
-1.59999
 11
74.3525
 21
0
  0
LINE
  8
0
 10
74.3525
 20
0
 11
75.2762
 21
1.59999
  0
LINE
  8
0
 10
75.2762
 20
1.59999
 11
77.1238
 21
1.59999
  0
LINE
  8
0
 10
77.1238
 20
1.59999
 11
78.0475
 21
0
  0
LINE
  8
0
 10
78.0475
 20
0
 11
77.1238
 21
-1.59999
  0
LINE
  8
0
 10
77.1238
 20
-1.59999
 11
75.2762
 21
-1.59999
  0
LINE
  8
0
 10
38.1
 20
-11.6
 11
38.1
 21
0
  0
LINE
  8
0
 10
38.1
 20
0
 11
67.8
 21
0
  0
LINE
  8
0
 10
67.8
 20
0
 11
67.8
 21
-11.6
  0
LINE
  8
0
 10
67.8
 20
-11.6
 11
38.1
 21
-11.6
  0
LINE
  8
0
 10
2.52499
 20
-16.525
 11
2.52499
 21
-2.52499
  0
LINE
  8
0
 10
2.52499
 20
-2.52499
 11
16.525
 21
-2.52499
  0
LINE
  8
0
 10
16.525
 20
-2.52499
 11
16.525
 21
-16.525
  0
LINE
  8
0
 10
16.525
 20
-16.525
 11
2.52499
 21
-16.525
  0
LINE
  8
0
 10
59.675
 20
-45.1
 11
59.675
 21
-31.1
  0
LINE
  8
0
 10
59.675
 20
-31.1
 11
73.675
 21
-31.1
  0
LINE
  8
0
 10
73.675
 20
-31.1
 11
73.675
 21
-45.1
  0
LINE
  8
0
 10
73.675
 20
-45.1
 11
59.675
 21
-45.1
  0
LINE
  8
0
 10
2.52499
 20
-45.1
 11
2.52499
 21
-31.1
  0
LINE
  8
0
 10
2.52499
 20
-31.1
 11
16.525
 21
-31.1
  0
LINE
  8
0
 10
16.525
 20
-31.1
 11
16.525
 21
-45.1
  0
LINE
  8
0
 10
16.525
 20
-45.1
 11
2.52499
 21
-45.1
  0
LINE
  8
0
 10
21.575
 20
-45.1
 11
21.575
 21
-31.1
  0
LINE
  8
0
 10
21.575
 20
-31.1
 11
35.575
 21
-31.1
  0
LINE
  8
0
 10
35.575
 20
-31.1
 11
35.575
 21
-45.1
  0
LINE
  8
0
 10
35.575
 20
-45.1
 11
21.575
 21
-45.1
  0
LINE
  8
0
 10
40.625
 20
-45.1
 11
40.625
 21
-31.1
  0
LINE
  8
0
 10
40.625
 20
-31.1
 11
54.625
 21
-31.1
  0
LINE
  8
0
 10
54.625
 20
-31.1
 11
54.625
 21
-45.1
  0
LINE
  8
0
 10
54.625
 20
-45.1
 11
40.625
 21
-45.1
  0
LINE
  8
0
 10
59.675
 20
-64.15
 11
59.675
 21
-50.15
  0
LINE
  8
0
 10
59.675
 20
-50.15
 11
73.675
 21
-50.15
  0
LINE
  8
0
 10
73.675
 20
-50.15
 11
73.675
 21
-64.15
  0
LINE
  8
0
 10
73.675
 20
-64.15
 11
59.675
 21
-64.15
  0
LINE
  8
0
 10
2.52499
 20
-64.15
 11
2.52499
 21
-50.15
  0
LINE
  8
0
 10
2.52499
 20
-50.15
 11
16.525
 21
-50.15
  0
LINE
  8
0
 10
16.525
 20
-50.15
 11
16.525
 21
-64.15
  0
LINE
  8
0
 10
16.525
 20
-64.15
 11
2.52499
 21
-64.15
  0
LINE
  8
0
 10
40.625
 20
-64.15
 11
40.625
 21
-50.15
  0
LINE
  8
0
 10
40.625
 20
-50.15
 11
54.625
 21
-50.15
  0
LINE
  8
0
 10
54.625
 20
-50.15
 11
54.625
 21
-64.15
  0
LINE
  8
0
 10
54.625
 20
-64.15
 11
40.625
 21
-64.15
  0
LINE
  8
0
 10
21.575
 20
-64.15
 11
21.575
 21
-50.15
  0
LINE
  8
0
 10
21.575
 20
-50.15
 11
35.575
 21
-50.15
  0
LINE
  8
0
 10
35.575
 20
-50.15
 11
35.575
 21
-64.15
  0
LINE
  8
0
 10
35.575
 20
-64.15
 11
21.575
 21
-64.15
  0
LINE
  8
0
 10
-0.923752
 20
-68.275
 11
-1.84752
 21
-66.675
  0
LINE
  8
0
 10
-1.84752
 20
-66.675
 11
-0.923752
 21
-65.075
  0
LINE
  8
0
 10
-0.923752
 20
-65.075
 11
0.923752
 21
-65.075
  0
LINE
  8
0
 10
0.923752
 20
-65.075
 11
1.84752
 21
-66.675
  0
LINE
  8
0
 10
1.84752
 20
-66.675
 11
0.923752
 21
-68.275
  0
LINE
  8
0
 10
0.923752
 20
-68.275
 11
-0.923752
 21
-68.275
  0
LINE
  8
0
 10
75.2762
 20
-68.275
 11
74.3525
 21
-66.675
  0
LINE
  8
0
 10
74.3525
 20
-66.675
 11
75.2762
 21
-65.075
  0
LINE
  8
0
 10
75.2762
 20
-65.075
 11
77.1238
 21
-65.075
  0
LINE
  8
0
 10
77.1238
 20
-65.075
 11
78.0475
 21
-66.675
  0
LINE
  8
0
 10
78.0475
 20
-66.675
 11
77.1238
 21
-68.275
  0
LINE
  8
0
 10
77.1238
 20
-68.275
 11
75.2762
 21
-68.275
  0
ENDSEC
  0
SECTION
  2
OBJECTS
  0
DICTIONARY
  0
ENDSEC
  0
EOF
