  0
SECTION
  2
HEADER
  9
$ACADVER
  1
AC1009
  9
$EXTMIN
 10
0.0
 20
0.0
 30
0.0
  9
$EXTMAX
 10
1000.0
 20
1000.0
 30
0.0
  9
$FILLMODE
 70
 0
  9
$SPLFRAME
 70
 1
  0
ENDSEC
  0
SECTION
  2
TABLES
  0
TABLE
  2
LAYER
 70
1
  0
LAYER
  2
0
 70
     0
 62
     7
  6
CONTINUOUS
  0
ENDTAB
  0
ENDSEC
  0
SECTION
  2
ENTITIES
  0
LINE
  8
0
 62
     0
 10
343.709
 20
115.616
 30
0.0
 11
344.1
 21
115.601
 31
0.0
  0
LINE
  8
0
 62
     0
 10
344.1
 20
115.601
 30
0.0
 11
344.49
 21
115.554
 31
0.0
  0
LINE
  8
0
 62
     0
 10
344.49
 20
115.554
 30
0.0
 11
344.876
 21
115.478
 31
0.0
  0
LINE
  8
0
 62
     0
 10
344.876
 20
115.478
 30
0.0
 11
345.254
 21
115.372
 31
0.0
  0
LINE
  8
0
 62
     0
 10
345.254
 20
115.372
 30
0.0
 11
345.622
 21
115.236
 31
0.0
  0
LINE
  8
0
 62
     0
 10
345.622
 20
115.236
 30
0.0
 11
345.979
 21
115.072
 31
0.0
  0
LINE
  8
0
 62
     0
 10
345.979
 20
115.072
 30
0.0
 11
346.32
 21
114.88
 31
0.0
  0
LINE
  8
0
 62
     0
 10
346.32
 20
114.88
 30
0.0
 11
346.647
 21
114.661
 31
0.0
  0
LINE
  8
0
 62
     0
 10
346.647
 20
114.661
 30
0.0
 11
346.956
 21
114.419
 31
0.0
  0
LINE
  8
0
 62
     0
 10
346.956
 20
114.419
 30
0.0
 11
347.245
 21
114.151
 31
0.0
  0
LINE
  8
0
 62
     0
 10
347.245
 20
114.151
 30
0.0
 11
347.511
 21
113.863
 31
0.0
  0
LINE
  8
0
 62
     0
 10
347.511
 20
113.863
 30
0.0
 11
347.754
 21
113.555
 31
0.0
  0
LINE
  8
0
 62
     0
 10
347.754
 20
113.555
 30
0.0
 11
347.971
 21
113.229
 31
0.0
  0
LINE
  8
0
 62
     0
 10
347.971
 20
113.229
 30
0.0
 11
348.164
 21
112.886
 31
0.0
  0
LINE
  8
0
 62
     0
 10
348.164
 20
112.886
 30
0.0
 11
348.328
 21
112.529
 31
0.0
  0
LINE
  8
0
 62
     0
 10
348.328
 20
112.529
 30
0.0
 11
348.463
 21
112.161
 31
0.0
  0
LINE
  8
0
 62
     0
 10
348.463
 20
112.161
 30
0.0
 11
348.571
 21
111.784
 31
0.0
  0
LINE
  8
0
 62
     0
 10
348.571
 20
111.784
 30
0.0
 11
348.646
 21
111.399
 31
0.0
  0
LINE
  8
0
 62
     0
 10
348.646
 20
111.399
 30
0.0
 11
348.693
 21
111.009
 31
0.0
  0
LINE
  8
0
 62
     0
 10
348.693
 20
111.009
 30
0.0
 11
348.708
 21
110.615
 31
0.0
  0
LINE
  8
0
 62
     0
 10
348.708
 20
110.615
 30
0.0
 11
348.708
 21
5.36607
 31
0.0
  0
LINE
  8
0
 62
     0
 10
348.708
 20
5.36607
 30
0.0
 11
348.693
 21
4.97198
 31
0.0
  0
LINE
  8
0
 62
     0
 10
348.693
 20
4.97198
 30
0.0
 11
348.646
 21
4.58198
 31
0.0
  0
LINE
  8
0
 62
     0
 10
348.646
 20
4.58198
 30
0.0
 11
348.571
 21
4.19749
 31
0.0
  0
LINE
  8
0
 62
     0
 10
348.571
 20
4.19749
 30
0.0
 11
348.463
 21
3.81991
 31
0.0
  0
LINE
  8
0
 62
     0
 10
348.463
 20
3.81991
 30
0.0
 11
348.328
 21
3.45199
 31
0.0
  0
LINE
  8
0
 62
     0
 10
348.328
 20
3.45199
 30
0.0
 11
348.164
 21
3.09507
 31
0.0
  0
LINE
  8
0
 62
     0
 10
348.164
 20
3.09507
 30
0.0
 11
347.971
 21
2.75194
 31
0.0
  0
LINE
  8
0
 62
     0
 10
347.971
 20
2.75194
 30
0.0
 11
347.754
 21
2.42673
 31
0.0
  0
LINE
  8
0
 62
     0
 10
347.754
 20
2.42673
 30
0.0
 11
347.511
 21
2.11805
 31
0.0
  0
LINE
  8
0
 62
     0
 10
347.511
 20
2.11805
 30
0.0
 11
347.245
 21
1.83003
 31
0.0
  0
LINE
  8
0
 62
     0
 10
347.245
 20
1.83003
 30
0.0
 11
346.956
 21
1.5627
 31
0.0
  0
LINE
  8
0
 62
     0
 10
346.956
 20
1.5627
 30
0.0
 11
346.647
 21
1.32016
 31
0.0
  0
LINE
  8
0
 62
     0
 10
346.647
 20
1.32016
 30
0.0
 11
346.32
 21
1.10105
 31
0.0
  0
LINE
  8
0
 62
     0
 10
346.32
 20
1.10105
 30
0.0
 11
345.979
 21
0.909507
 31
0.0
  0
LINE
  8
0
 62
     0
 10
345.979
 20
0.909507
 30
0.0
 11
345.622
 21
0.745518
 31
0.0
  0
LINE
  8
0
 62
     0
 10
345.622
 20
0.745518
 30
0.0
 11
345.254
 21
0.609092
 31
0.0
  0
LINE
  8
0
 62
     0
 10
345.254
 20
0.609092
 30
0.0
 11
344.876
 21
0.502984
 31
0.0
  0
LINE
  8
0
 62
     0
 10
344.876
 20
0.502984
 30
0.0
 11
344.49
 21
0.427193
 31
0.0
  0
LINE
  8
0
 62
     0
 10
344.49
 20
0.427193
 30
0.0
 11
344.1
 21
0.38034
 31
0.0
  0
LINE
  8
0
 62
     0
 10
344.1
 20
0.38034
 30
0.0
 11
343.709
 21
0.365181
 31
0.0
  0
LINE
  8
0
 62
     0
 10
343.709
 20
0.365181
 30
0.0
 11
5.09598
 21
0.365181
 31
0.0
  0
LINE
  8
0
 62
     0
 10
5.09598
 20
0.365181
 30
0.0
 11
4.70186
 21
0.38034
 31
0.0
  0
LINE
  8
0
 62
     0
 10
4.70186
 20
0.38034
 30
0.0
 11
4.3119
 21
0.427193
 31
0.0
  0
LINE
  8
0
 62
     0
 10
4.3119
 20
0.427193
 30
0.0
 11
3.9274
 21
0.502984
 31
0.0
  0
LINE
  8
0
 62
     0
 10
3.9274
 20
0.502984
 30
0.0
 11
3.54983
 21
0.609092
 31
0.0
  0
LINE
  8
0
 62
     0
 10
3.54983
 20
0.609092
 30
0.0
 11
3.18189
 21
0.745518
 31
0.0
  0
LINE
  8
0
 62
     0
 10
3.18189
 20
0.745518
 30
0.0
 11
2.82498
 21
0.909507
 31
0.0
  0
LINE
  8
0
 62
     0
 10
2.82498
 20
0.909507
 30
0.0
 11
2.48185
 21
1.10105
 31
0.0
  0
LINE
  8
0
 62
     0
 10
2.48185
 20
1.10105
 30
0.0
 11
2.15663
 21
1.32016
 31
0.0
  0
LINE
  8
0
 62
     0
 10
2.15663
 20
1.32016
 30
0.0
 11
1.84795
 21
1.5627
 31
0.0
  0
LINE
  8
0
 62
     0
 10
1.84795
 20
1.5627
 30
0.0
 11
1.55994
 21
1.83003
 31
0.0
  0
LINE
  8
0
 62
     0
 10
1.55994
 20
1.83003
 30
0.0
 11
1.2926
 21
2.11805
 31
0.0
  0
LINE
  8
0
 62
     0
 10
1.2926
 20
2.11805
 30
0.0
 11
1.05006
 21
2.42673
 31
0.0
  0
LINE
  8
0
 62
     0
 10
1.05006
 20
2.42673
 30
0.0
 11
0.830957
 21
2.75194
 31
0.0
  0
LINE
  8
0
 62
     0
 10
0.830957
 20
2.75194
 30
0.0
 11
0.63941
 21
3.09507
 31
0.0
  0
LINE
  8
0
 62
     0
 10
0.63941
 20
3.09507
 30
0.0
 11
0.475424
 21
3.45199
 31
0.0
  0
LINE
  8
0
 62
     0
 10
0.475424
 20
3.45199
 30
0.0
 11
0.338998
 21
3.81991
 31
0.0
  0
LINE
  8
0
 62
     0
 10
0.338998
 20
3.81991
 30
0.0
 11
0.232888
 21
4.19749
 31
0.0
  0
LINE
  8
0
 62
     0
 10
0.232888
 20
4.19749
 30
0.0
 11
0.157097
 21
4.58198
 31
0.0
  0
LINE
  8
0
 62
     0
 10
0.157097
 20
4.58198
 30
0.0
 11
0.110243
 21
4.97198
 31
0.0
  0
LINE
  8
0
 62
     0
 10
0.110243
 20
4.97198
 30
0.0
 11
0.0950846
 21
5.36607
 31
0.0
  0
LINE
  8
0
 62
     0
 10
0.0950846
 20
5.36607
 30
0.0
 11
0.0950846
 21
110.615
 31
0.0
  0
LINE
  8
0
 62
     0
 10
0.0950846
 20
110.615
 30
0.0
 11
0.110243
 21
111.009
 31
0.0
  0
LINE
  8
0
 62
     0
 10
0.110243
 20
111.009
 30
0.0
 11
0.157097
 21
111.399
 31
0.0
  0
LINE
  8
0
 62
     0
 10
0.157097
 20
111.399
 30
0.0
 11
0.232888
 21
111.784
 31
0.0
  0
LINE
  8
0
 62
     0
 10
0.232888
 20
111.784
 30
0.0
 11
0.338998
 21
112.161
 31
0.0
  0
LINE
  8
0
 62
     0
 10
0.338998
 20
112.161
 30
0.0
 11
0.475424
 21
112.529
 31
0.0
  0
LINE
  8
0
 62
     0
 10
0.475424
 20
112.529
 30
0.0
 11
0.63941
 21
112.886
 31
0.0
  0
LINE
  8
0
 62
     0
 10
0.63941
 20
112.886
 30
0.0
 11
0.830957
 21
113.229
 31
0.0
  0
LINE
  8
0
 62
     0
 10
0.830957
 20
113.229
 30
0.0
 11
1.05006
 21
113.555
 31
0.0
  0
LINE
  8
0
 62
     0
 10
1.05006
 20
113.555
 30
0.0
 11
1.2926
 21
113.863
 31
0.0
  0
LINE
  8
0
 62
     0
 10
1.2926
 20
113.863
 30
0.0
 11
1.55994
 21
114.151
 31
0.0
  0
LINE
  8
0
 62
     0
 10
1.55994
 20
114.151
 30
0.0
 11
1.84795
 21
114.419
 31
0.0
  0
LINE
  8
0
 62
     0
 10
1.84795
 20
114.419
 30
0.0
 11
2.15663
 21
114.661
 31
0.0
  0
LINE
  8
0
 62
     0
 10
2.15663
 20
114.661
 30
0.0
 11
2.48185
 21
114.88
 31
0.0
  0
LINE
  8
0
 62
     0
 10
2.48185
 20
114.88
 30
0.0
 11
2.82498
 21
115.072
 31
0.0
  0
LINE
  8
0
 62
     0
 10
2.82498
 20
115.072
 30
0.0
 11
3.18189
 21
115.236
 31
0.0
  0
LINE
  8
0
 62
     0
 10
3.18189
 20
115.236
 30
0.0
 11
3.54983
 21
115.372
 31
0.0
  0
LINE
  8
0
 62
     0
 10
3.54983
 20
115.372
 30
0.0
 11
3.9274
 21
115.478
 31
0.0
  0
LINE
  8
0
 62
     0
 10
3.9274
 20
115.478
 30
0.0
 11
4.3119
 21
115.554
 31
0.0
  0
LINE
  8
0
 62
     0
 10
4.3119
 20
115.554
 30
0.0
 11
4.70186
 21
115.601
 31
0.0
  0
LINE
  8
0
 62
     0
 10
4.70186
 20
115.601
 30
0.0
 11
5.09598
 21
115.616
 31
0.0
  0
LINE
  8
0
 62
     0
 10
5.09598
 20
115.616
 30
0.0
 11
343.709
 21
115.616
 31
0.0
  0
LINE
  8
0
 62
     0
 10
4.33807
 20
7.69497
 30
0.0
 11
3.65457
 21
7.34769
 31
0.0
  0
LINE
  8
0
 62
     0
 10
3.65457
 20
7.34769
 30
0.0
 11
3.11161
 21
6.80614
 31
0.0
  0
LINE
  8
0
 62
     0
 10
3.11161
 20
6.80614
 30
0.0
 11
2.76435
 21
6.12263
 31
0.0
  0
LINE
  8
0
 62
     0
 10
2.76435
 20
6.12263
 30
0.0
 11
2.64445
 21
5.36607
 31
0.0
  0
LINE
  8
0
 62
     0
 10
2.64445
 20
5.36607
 30
0.0
 11
2.76435
 21
4.60816
 31
0.0
  0
LINE
  8
0
 62
     0
 10
2.76435
 20
4.60816
 30
0.0
 11
3.11161
 21
3.92465
 31
0.0
  0
LINE
  8
0
 62
     0
 10
3.11161
 20
3.92465
 30
0.0
 11
3.65457
 21
3.38308
 31
0.0
  0
LINE
  8
0
 62
     0
 10
3.65457
 20
3.38308
 30
0.0
 11
4.33807
 21
3.03444
 31
0.0
  0
LINE
  8
0
 62
     0
 10
4.33807
 20
3.03444
 30
0.0
 11
5.0946
 21
2.91455
 31
0.0
  0
LINE
  8
0
 62
     0
 10
5.0946
 20
2.91455
 30
0.0
 11
5.85251
 21
3.03444
 31
0.0
  0
LINE
  8
0
 62
     0
 10
5.85251
 20
3.03444
 30
0.0
 11
6.53602
 21
3.38308
 31
0.0
  0
LINE
  8
0
 62
     0
 10
6.53602
 20
3.38308
 30
0.0
 11
7.0776
 21
3.92465
 31
0.0
  0
LINE
  8
0
 62
     0
 10
7.0776
 20
3.92465
 30
0.0
 11
7.42488
 21
4.60816
 31
0.0
  0
LINE
  8
0
 62
     0
 10
7.42488
 20
4.60816
 30
0.0
 11
7.54475
 21
5.36607
 31
0.0
  0
LINE
  8
0
 62
     0
 10
7.54475
 20
5.36607
 30
0.0
 11
7.42488
 21
6.12263
 31
0.0
  0
LINE
  8
0
 62
     0
 10
7.42488
 20
6.12263
 30
0.0
 11
7.0776
 21
6.80614
 31
0.0
  0
LINE
  8
0
 62
     0
 10
7.0776
 20
6.80614
 30
0.0
 11
6.53602
 21
7.34769
 31
0.0
  0
LINE
  8
0
 62
     0
 10
6.53602
 20
7.34769
 30
0.0
 11
5.85251
 21
7.69497
 31
0.0
  0
LINE
  8
0
 62
     0
 10
5.85251
 20
7.69497
 30
0.0
 11
5.0946
 21
7.81625
 31
0.0
  0
LINE
  8
0
 62
     0
 10
5.0946
 20
7.81625
 30
0.0
 11
4.33807
 21
7.69497
 31
0.0
  0
LINE
  8
0
 62
     0
 10
88.991
 20
7.69497
 30
0.0
 11
88.3087
 21
7.34769
 31
0.0
  0
LINE
  8
0
 62
     0
 10
88.3087
 20
7.34769
 30
0.0
 11
87.7658
 21
6.80614
 31
0.0
  0
LINE
  8
0
 62
     0
 10
87.7658
 20
6.80614
 30
0.0
 11
87.4187
 21
6.12263
 31
0.0
  0
LINE
  8
0
 62
     0
 10
87.4187
 20
6.12263
 30
0.0
 11
87.2987
 21
5.36607
 31
0.0
  0
LINE
  8
0
 62
     0
 10
87.2987
 20
5.36607
 30
0.0
 11
87.4187
 21
4.60816
 31
0.0
  0
LINE
  8
0
 62
     0
 10
87.4187
 20
4.60816
 30
0.0
 11
87.7658
 21
3.92465
 31
0.0
  0
LINE
  8
0
 62
     0
 10
87.7658
 20
3.92465
 30
0.0
 11
88.3087
 21
3.38308
 31
0.0
  0
LINE
  8
0
 62
     0
 10
88.3087
 20
3.38308
 30
0.0
 11
88.991
 21
3.03444
 31
0.0
  0
LINE
  8
0
 62
     0
 10
88.991
 20
3.03444
 30
0.0
 11
89.7488
 21
2.91455
 31
0.0
  0
LINE
  8
0
 62
     0
 10
89.7488
 20
2.91455
 30
0.0
 11
90.5055
 21
3.03444
 31
0.0
  0
LINE
  8
0
 62
     0
 10
90.5055
 20
3.03444
 30
0.0
 11
91.1888
 21
3.38308
 31
0.0
  0
LINE
  8
0
 62
     0
 10
91.1888
 20
3.38308
 30
0.0
 11
91.7303
 21
3.92465
 31
0.0
  0
LINE
  8
0
 62
     0
 10
91.7303
 20
3.92465
 30
0.0
 11
92.0792
 21
4.60816
 31
0.0
  0
LINE
  8
0
 62
     0
 10
92.0792
 20
4.60816
 30
0.0
 11
92.1992
 21
5.36607
 31
0.0
  0
LINE
  8
0
 62
     0
 10
92.1992
 20
5.36607
 30
0.0
 11
92.0792
 21
6.12263
 31
0.0
  0
LINE
  8
0
 62
     0
 10
92.0792
 20
6.12263
 30
0.0
 11
91.7303
 21
6.80614
 31
0.0
  0
LINE
  8
0
 62
     0
 10
91.7303
 20
6.80614
 30
0.0
 11
91.1888
 21
7.34769
 31
0.0
  0
LINE
  8
0
 62
     0
 10
91.1888
 20
7.34769
 30
0.0
 11
90.5055
 21
7.69497
 31
0.0
  0
LINE
  8
0
 62
     0
 10
90.5055
 20
7.69497
 30
0.0
 11
89.7488
 21
7.81625
 31
0.0
  0
LINE
  8
0
 62
     0
 10
89.7488
 20
7.81625
 30
0.0
 11
88.991
 21
7.69497
 31
0.0
  0
LINE
  8
0
 62
     0
 10
173.644
 20
7.69497
 30
0.0
 11
172.962
 21
7.34769
 31
0.0
  0
LINE
  8
0
 62
     0
 10
172.962
 20
7.34769
 30
0.0
 11
172.42
 21
6.80614
 31
0.0
  0
LINE
  8
0
 62
     0
 10
172.42
 20
6.80614
 30
0.0
 11
172.072
 21
6.12263
 31
0.0
  0
LINE
  8
0
 62
     0
 10
172.072
 20
6.12263
 30
0.0
 11
171.952
 21
5.36607
 31
0.0
  0
LINE
  8
0
 62
     0
 10
171.952
 20
5.36607
 30
0.0
 11
172.072
 21
4.60816
 31
0.0
  0
LINE
  8
0
 62
     0
 10
172.072
 20
4.60816
 30
0.0
 11
172.42
 21
3.92465
 31
0.0
  0
LINE
  8
0
 62
     0
 10
172.42
 20
3.92465
 30
0.0
 11
172.962
 21
3.38308
 31
0.0
  0
LINE
  8
0
 62
     0
 10
172.962
 20
3.38308
 30
0.0
 11
173.644
 21
3.03444
 31
0.0
  0
LINE
  8
0
 62
     0
 10
173.644
 20
3.03444
 30
0.0
 11
174.402
 21
2.91455
 31
0.0
  0
LINE
  8
0
 62
     0
 10
174.402
 20
2.91455
 30
0.0
 11
175.158
 21
3.03444
 31
0.0
  0
LINE
  8
0
 62
     0
 10
175.158
 20
3.03444
 30
0.0
 11
175.842
 21
3.38308
 31
0.0
  0
LINE
  8
0
 62
     0
 10
175.842
 20
3.38308
 30
0.0
 11
176.383
 21
3.92465
 31
0.0
  0
LINE
  8
0
 62
     0
 10
176.383
 20
3.92465
 30
0.0
 11
176.732
 21
4.60816
 31
0.0
  0
LINE
  8
0
 62
     0
 10
176.732
 20
4.60816
 30
0.0
 11
176.852
 21
5.36607
 31
0.0
  0
LINE
  8
0
 62
     0
 10
176.852
 20
5.36607
 30
0.0
 11
176.732
 21
6.12263
 31
0.0
  0
LINE
  8
0
 62
     0
 10
176.732
 20
6.12263
 30
0.0
 11
176.383
 21
6.80614
 31
0.0
  0
LINE
  8
0
 62
     0
 10
176.383
 20
6.80614
 30
0.0
 11
175.842
 21
7.34769
 31
0.0
  0
LINE
  8
0
 62
     0
 10
175.842
 20
7.34769
 30
0.0
 11
175.158
 21
7.69497
 31
0.0
  0
LINE
  8
0
 62
     0
 10
175.158
 20
7.69497
 30
0.0
 11
174.402
 21
7.81625
 31
0.0
  0
LINE
  8
0
 62
     0
 10
174.402
 20
7.81625
 30
0.0
 11
173.644
 21
7.69497
 31
0.0
  0
LINE
  8
0
 62
     0
 10
258.298
 20
7.69497
 30
0.0
 11
257.616
 21
7.34769
 31
0.0
  0
LINE
  8
0
 62
     0
 10
257.616
 20
7.34769
 30
0.0
 11
257.073
 21
6.80614
 31
0.0
  0
LINE
  8
0
 62
     0
 10
257.073
 20
6.80614
 30
0.0
 11
256.726
 21
6.12263
 31
0.0
  0
LINE
  8
0
 62
     0
 10
256.726
 20
6.12263
 30
0.0
 11
256.606
 21
5.36607
 31
0.0
  0
LINE
  8
0
 62
     0
 10
256.606
 20
5.36607
 30
0.0
 11
256.726
 21
4.60816
 31
0.0
  0
LINE
  8
0
 62
     0
 10
256.726
 20
4.60816
 30
0.0
 11
257.073
 21
3.92465
 31
0.0
  0
LINE
  8
0
 62
     0
 10
257.073
 20
3.92465
 30
0.0
 11
257.616
 21
3.38308
 31
0.0
  0
LINE
  8
0
 62
     0
 10
257.616
 20
3.38308
 30
0.0
 11
258.298
 21
3.03444
 31
0.0
  0
LINE
  8
0
 62
     0
 10
258.298
 20
3.03444
 30
0.0
 11
259.056
 21
2.91455
 31
0.0
  0
LINE
  8
0
 62
     0
 10
259.056
 20
2.91455
 30
0.0
 11
259.813
 21
3.03444
 31
0.0
  0
LINE
  8
0
 62
     0
 10
259.813
 20
3.03444
 30
0.0
 11
260.496
 21
3.38308
 31
0.0
  0
LINE
  8
0
 62
     0
 10
260.496
 20
3.38308
 30
0.0
 11
261.038
 21
3.92465
 31
0.0
  0
LINE
  8
0
 62
     0
 10
261.038
 20
3.92465
 30
0.0
 11
261.385
 21
4.60816
 31
0.0
  0
LINE
  8
0
 62
     0
 10
261.385
 20
4.60816
 30
0.0
 11
261.506
 21
5.36607
 31
0.0
  0
LINE
  8
0
 62
     0
 10
261.506
 20
5.36607
 30
0.0
 11
261.385
 21
6.12263
 31
0.0
  0
LINE
  8
0
 62
     0
 10
261.385
 20
6.12263
 30
0.0
 11
261.038
 21
6.80614
 31
0.0
  0
LINE
  8
0
 62
     0
 10
261.038
 20
6.80614
 30
0.0
 11
260.496
 21
7.34769
 31
0.0
  0
LINE
  8
0
 62
     0
 10
260.496
 20
7.34769
 30
0.0
 11
259.813
 21
7.69497
 31
0.0
  0
LINE
  8
0
 62
     0
 10
259.813
 20
7.69497
 30
0.0
 11
259.056
 21
7.81625
 31
0.0
  0
LINE
  8
0
 62
     0
 10
259.056
 20
7.81625
 30
0.0
 11
258.298
 21
7.69497
 31
0.0
  0
LINE
  8
0
 62
     0
 10
342.951
 20
7.69497
 30
0.0
 11
342.269
 21
7.34769
 31
0.0
  0
LINE
  8
0
 62
     0
 10
342.269
 20
7.34769
 30
0.0
 11
341.726
 21
6.80614
 31
0.0
  0
LINE
  8
0
 62
     0
 10
341.726
 20
6.80614
 30
0.0
 11
341.379
 21
6.12263
 31
0.0
  0
LINE
  8
0
 62
     0
 10
341.379
 20
6.12263
 30
0.0
 11
341.259
 21
5.36607
 31
0.0
  0
LINE
  8
0
 62
     0
 10
341.259
 20
5.36607
 30
0.0
 11
341.379
 21
4.60816
 31
0.0
  0
LINE
  8
0
 62
     0
 10
341.379
 20
4.60816
 30
0.0
 11
341.726
 21
3.92465
 31
0.0
  0
LINE
  8
0
 62
     0
 10
341.726
 20
3.92465
 30
0.0
 11
342.269
 21
3.38308
 31
0.0
  0
LINE
  8
0
 62
     0
 10
342.269
 20
3.38308
 30
0.0
 11
342.951
 21
3.03444
 31
0.0
  0
LINE
  8
0
 62
     0
 10
342.951
 20
3.03444
 30
0.0
 11
343.709
 21
2.91455
 31
0.0
  0
LINE
  8
0
 62
     0
 10
343.709
 20
2.91455
 30
0.0
 11
344.466
 21
3.03444
 31
0.0
  0
LINE
  8
0
 62
     0
 10
344.466
 20
3.03444
 30
0.0
 11
345.149
 21
3.38308
 31
0.0
  0
LINE
  8
0
 62
     0
 10
345.149
 20
3.38308
 30
0.0
 11
345.69
 21
3.92465
 31
0.0
  0
LINE
  8
0
 62
     0
 10
345.69
 20
3.92465
 30
0.0
 11
346.039
 21
4.60816
 31
0.0
  0
LINE
  8
0
 62
     0
 10
346.039
 20
4.60816
 30
0.0
 11
346.159
 21
5.36607
 31
0.0
  0
LINE
  8
0
 62
     0
 10
346.159
 20
5.36607
 30
0.0
 11
346.039
 21
6.12263
 31
0.0
  0
LINE
  8
0
 62
     0
 10
346.039
 20
6.12263
 30
0.0
 11
345.69
 21
6.80614
 31
0.0
  0
LINE
  8
0
 62
     0
 10
345.69
 20
6.80614
 30
0.0
 11
345.149
 21
7.34769
 31
0.0
  0
LINE
  8
0
 62
     0
 10
345.149
 20
7.34769
 30
0.0
 11
344.466
 21
7.69497
 31
0.0
  0
LINE
  8
0
 62
     0
 10
344.466
 20
7.69497
 30
0.0
 11
343.709
 21
7.81625
 31
0.0
  0
LINE
  8
0
 62
     0
 10
343.709
 20
7.81625
 30
0.0
 11
342.951
 21
7.69497
 31
0.0
  0
LINE
  8
0
 62
     0
 10
10.0955
 20
105.616
 30
0.0
 11
338.708
 21
105.616
 31
0.0
  0
LINE
  8
0
 62
     0
 10
338.708
 20
105.616
 30
0.0
 11
338.708
 21
10.3656
 31
0.0
  0
LINE
  8
0
 62
     0
 10
338.708
 20
10.3656
 30
0.0
 11
10.0955
 21
10.3656
 31
0.0
  0
LINE
  8
0
 62
     0
 10
10.0955
 20
10.3656
 30
0.0
 11
10.0955
 21
105.616
 31
0.0
  0
LINE
  8
0
 62
     0
 10
4.33807
 20
112.947
 30
0.0
 11
3.65457
 21
112.6
 31
0.0
  0
LINE
  8
0
 62
     0
 10
3.65457
 20
112.6
 30
0.0
 11
3.11161
 21
112.057
 31
0.0
  0
LINE
  8
0
 62
     0
 10
3.11161
 20
112.057
 30
0.0
 11
2.76435
 21
111.373
 31
0.0
  0
LINE
  8
0
 62
     0
 10
2.76435
 20
111.373
 30
0.0
 11
2.64445
 21
110.617
 31
0.0
  0
LINE
  8
0
 62
     0
 10
2.64445
 20
110.617
 30
0.0
 11
2.76435
 21
109.859
 31
0.0
  0
LINE
  8
0
 62
     0
 10
2.76435
 20
109.859
 30
0.0
 11
3.11161
 21
109.175
 31
0.0
  0
LINE
  8
0
 62
     0
 10
3.11161
 20
109.175
 30
0.0
 11
3.65457
 21
108.634
 31
0.0
  0
LINE
  8
0
 62
     0
 10
3.65457
 20
108.634
 30
0.0
 11
4.33807
 21
108.286
 31
0.0
  0
LINE
  8
0
 62
     0
 10
4.33807
 20
108.286
 30
0.0
 11
5.0946
 21
108.165
 31
0.0
  0
LINE
  8
0
 62
     0
 10
5.0946
 20
108.165
 30
0.0
 11
5.85251
 21
108.286
 31
0.0
  0
LINE
  8
0
 62
     0
 10
5.85251
 20
108.286
 30
0.0
 11
6.53602
 21
108.634
 31
0.0
  0
LINE
  8
0
 62
     0
 10
6.53602
 20
108.634
 30
0.0
 11
7.0776
 21
109.175
 31
0.0
  0
LINE
  8
0
 62
     0
 10
7.0776
 20
109.175
 30
0.0
 11
7.42488
 21
109.859
 31
0.0
  0
LINE
  8
0
 62
     0
 10
7.42488
 20
109.859
 30
0.0
 11
7.54475
 21
110.615
 31
0.0
  0
LINE
  8
0
 62
     0
 10
7.54475
 20
110.615
 30
0.0
 11
7.42488
 21
111.373
 31
0.0
  0
LINE
  8
0
 62
     0
 10
7.42488
 20
111.373
 30
0.0
 11
7.0776
 21
112.057
 31
0.0
  0
LINE
  8
0
 62
     0
 10
7.0776
 20
112.057
 30
0.0
 11
6.53602
 21
112.6
 31
0.0
  0
LINE
  8
0
 62
     0
 10
6.53602
 20
112.6
 30
0.0
 11
5.85251
 21
112.947
 31
0.0
  0
LINE
  8
0
 62
     0
 10
5.85251
 20
112.947
 30
0.0
 11
5.0946
 21
113.065
 31
0.0
  0
LINE
  8
0
 62
     0
 10
5.0946
 20
113.065
 30
0.0
 11
4.33807
 21
112.947
 31
0.0
  0
LINE
  8
0
 62
     0
 10
342.951
 20
112.947
 30
0.0
 11
342.269
 21
112.6
 31
0.0
  0
LINE
  8
0
 62
     0
 10
342.269
 20
112.6
 30
0.0
 11
341.726
 21
112.057
 31
0.0
  0
LINE
  8
0
 62
     0
 10
341.726
 20
112.057
 30
0.0
 11
341.379
 21
111.373
 31
0.0
  0
LINE
  8
0
 62
     0
 10
341.379
 20
111.373
 30
0.0
 11
341.259
 21
110.617
 31
0.0
  0
LINE
  8
0
 62
     0
 10
341.259
 20
110.617
 30
0.0
 11
341.379
 21
109.859
 31
0.0
  0
LINE
  8
0
 62
     0
 10
341.379
 20
109.859
 30
0.0
 11
341.726
 21
109.175
 31
0.0
  0
LINE
  8
0
 62
     0
 10
341.726
 20
109.175
 30
0.0
 11
342.269
 21
108.634
 31
0.0
  0
LINE
  8
0
 62
     0
 10
342.269
 20
108.634
 30
0.0
 11
342.951
 21
108.286
 31
0.0
  0
LINE
  8
0
 62
     0
 10
342.951
 20
108.286
 30
0.0
 11
343.709
 21
108.165
 31
0.0
  0
LINE
  8
0
 62
     0
 10
343.709
 20
108.165
 30
0.0
 11
344.466
 21
108.286
 31
0.0
  0
LINE
  8
0
 62
     0
 10
344.466
 20
108.286
 30
0.0
 11
345.149
 21
108.634
 31
0.0
  0
LINE
  8
0
 62
     0
 10
345.149
 20
108.634
 30
0.0
 11
345.69
 21
109.175
 31
0.0
  0
LINE
  8
0
 62
     0
 10
345.69
 20
109.175
 30
0.0
 11
346.039
 21
109.859
 31
0.0
  0
LINE
  8
0
 62
     0
 10
346.039
 20
109.859
 30
0.0
 11
346.159
 21
110.615
 31
0.0
  0
LINE
  8
0
 62
     0
 10
346.159
 20
110.615
 30
0.0
 11
346.039
 21
111.373
 31
0.0
  0
LINE
  8
0
 62
     0
 10
346.039
 20
111.373
 30
0.0
 11
345.69
 21
112.057
 31
0.0
  0
LINE
  8
0
 62
     0
 10
345.69
 20
112.057
 30
0.0
 11
345.149
 21
112.6
 31
0.0
  0
LINE
  8
0
 62
     0
 10
345.149
 20
112.6
 30
0.0
 11
344.466
 21
112.947
 31
0.0
  0
LINE
  8
0
 62
     0
 10
344.466
 20
112.947
 30
0.0
 11
343.709
 21
113.065
 31
0.0
  0
LINE
  8
0
 62
     0
 10
343.709
 20
113.065
 30
0.0
 11
342.951
 21
112.947
 31
0.0
  0
LINE
  8
0
 62
     0
 10
258.298
 20
112.947
 30
0.0
 11
257.616
 21
112.6
 31
0.0
  0
LINE
  8
0
 62
     0
 10
257.616
 20
112.6
 30
0.0
 11
257.073
 21
112.057
 31
0.0
  0
LINE
  8
0
 62
     0
 10
257.073
 20
112.057
 30
0.0
 11
256.726
 21
111.373
 31
0.0
  0
LINE
  8
0
 62
     0
 10
256.726
 20
111.373
 30
0.0
 11
256.606
 21
110.617
 31
0.0
  0
LINE
  8
0
 62
     0
 10
256.606
 20
110.617
 30
0.0
 11
256.726
 21
109.859
 31
0.0
  0
LINE
  8
0
 62
     0
 10
256.726
 20
109.859
 30
0.0
 11
257.073
 21
109.175
 31
0.0
  0
LINE
  8
0
 62
     0
 10
257.073
 20
109.175
 30
0.0
 11
257.616
 21
108.634
 31
0.0
  0
LINE
  8
0
 62
     0
 10
257.616
 20
108.634
 30
0.0
 11
258.298
 21
108.286
 31
0.0
  0
LINE
  8
0
 62
     0
 10
258.298
 20
108.286
 30
0.0
 11
259.056
 21
108.165
 31
0.0
  0
LINE
  8
0
 62
     0
 10
259.056
 20
108.165
 30
0.0
 11
259.813
 21
108.286
 31
0.0
  0
LINE
  8
0
 62
     0
 10
259.813
 20
108.286
 30
0.0
 11
260.496
 21
108.634
 31
0.0
  0
LINE
  8
0
 62
     0
 10
260.496
 20
108.634
 30
0.0
 11
261.038
 21
109.175
 31
0.0
  0
LINE
  8
0
 62
     0
 10
261.038
 20
109.175
 30
0.0
 11
261.385
 21
109.859
 31
0.0
  0
LINE
  8
0
 62
     0
 10
261.385
 20
109.859
 30
0.0
 11
261.506
 21
110.615
 31
0.0
  0
LINE
  8
0
 62
     0
 10
261.506
 20
110.615
 30
0.0
 11
261.385
 21
111.373
 31
0.0
  0
LINE
  8
0
 62
     0
 10
261.385
 20
111.373
 30
0.0
 11
261.038
 21
112.057
 31
0.0
  0
LINE
  8
0
 62
     0
 10
261.038
 20
112.057
 30
0.0
 11
260.496
 21
112.6
 31
0.0
  0
LINE
  8
0
 62
     0
 10
260.496
 20
112.6
 30
0.0
 11
259.813
 21
112.947
 31
0.0
  0
LINE
  8
0
 62
     0
 10
259.813
 20
112.947
 30
0.0
 11
259.056
 21
113.065
 31
0.0
  0
LINE
  8
0
 62
     0
 10
259.056
 20
113.065
 30
0.0
 11
258.298
 21
112.947
 31
0.0
  0
LINE
  8
0
 62
     0
 10
173.644
 20
112.947
 30
0.0
 11
172.962
 21
112.6
 31
0.0
  0
LINE
  8
0
 62
     0
 10
172.962
 20
112.6
 30
0.0
 11
172.42
 21
112.057
 31
0.0
  0
LINE
  8
0
 62
     0
 10
172.42
 20
112.057
 30
0.0
 11
172.072
 21
111.373
 31
0.0
  0
LINE
  8
0
 62
     0
 10
172.072
 20
111.373
 30
0.0
 11
171.952
 21
110.617
 31
0.0
  0
LINE
  8
0
 62
     0
 10
171.952
 20
110.617
 30
0.0
 11
172.072
 21
109.859
 31
0.0
  0
LINE
  8
0
 62
     0
 10
172.072
 20
109.859
 30
0.0
 11
172.42
 21
109.175
 31
0.0
  0
LINE
  8
0
 62
     0
 10
172.42
 20
109.175
 30
0.0
 11
172.962
 21
108.634
 31
0.0
  0
LINE
  8
0
 62
     0
 10
172.962
 20
108.634
 30
0.0
 11
173.644
 21
108.286
 31
0.0
  0
LINE
  8
0
 62
     0
 10
173.644
 20
108.286
 30
0.0
 11
174.402
 21
108.165
 31
0.0
  0
LINE
  8
0
 62
     0
 10
174.402
 20
108.165
 30
0.0
 11
175.158
 21
108.286
 31
0.0
  0
LINE
  8
0
 62
     0
 10
175.158
 20
108.286
 30
0.0
 11
175.842
 21
108.634
 31
0.0
  0
LINE
  8
0
 62
     0
 10
175.842
 20
108.634
 30
0.0
 11
176.383
 21
109.175
 31
0.0
  0
LINE
  8
0
 62
     0
 10
176.383
 20
109.175
 30
0.0
 11
176.732
 21
109.859
 31
0.0
  0
LINE
  8
0
 62
     0
 10
176.732
 20
109.859
 30
0.0
 11
176.852
 21
110.615
 31
0.0
  0
LINE
  8
0
 62
     0
 10
176.852
 20
110.615
 30
0.0
 11
176.732
 21
111.373
 31
0.0
  0
LINE
  8
0
 62
     0
 10
176.732
 20
111.373
 30
0.0
 11
176.383
 21
112.057
 31
0.0
  0
LINE
  8
0
 62
     0
 10
176.383
 20
112.057
 30
0.0
 11
175.842
 21
112.6
 31
0.0
  0
LINE
  8
0
 62
     0
 10
175.842
 20
112.6
 30
0.0
 11
175.158
 21
112.947
 31
0.0
  0
LINE
  8
0
 62
     0
 10
175.158
 20
112.947
 30
0.0
 11
174.402
 21
113.065
 31
0.0
  0
LINE
  8
0
 62
     0
 10
174.402
 20
113.065
 30
0.0
 11
173.644
 21
112.947
 31
0.0
  0
LINE
  8
0
 62
     0
 10
88.991
 20
112.947
 30
0.0
 11
88.3087
 21
112.6
 31
0.0
  0
LINE
  8
0
 62
     0
 10
88.3087
 20
112.6
 30
0.0
 11
87.7658
 21
112.057
 31
0.0
  0
LINE
  8
0
 62
     0
 10
87.7658
 20
112.057
 30
0.0
 11
87.4187
 21
111.373
 31
0.0
  0
LINE
  8
0
 62
     0
 10
87.4187
 20
111.373
 30
0.0
 11
87.2987
 21
110.617
 31
0.0
  0
LINE
  8
0
 62
     0
 10
87.2987
 20
110.617
 30
0.0
 11
87.4187
 21
109.859
 31
0.0
  0
LINE
  8
0
 62
     0
 10
87.4187
 20
109.859
 30
0.0
 11
87.7658
 21
109.175
 31
0.0
  0
LINE
  8
0
 62
     0
 10
87.7658
 20
109.175
 30
0.0
 11
88.3087
 21
108.634
 31
0.0
  0
LINE
  8
0
 62
     0
 10
88.3087
 20
108.634
 30
0.0
 11
88.991
 21
108.286
 31
0.0
  0
LINE
  8
0
 62
     0
 10
88.991
 20
108.286
 30
0.0
 11
89.7488
 21
108.165
 31
0.0
  0
LINE
  8
0
 62
     0
 10
89.7488
 20
108.165
 30
0.0
 11
90.5055
 21
108.286
 31
0.0
  0
LINE
  8
0
 62
     0
 10
90.5055
 20
108.286
 30
0.0
 11
91.1888
 21
108.634
 31
0.0
  0
LINE
  8
0
 62
     0
 10
91.1888
 20
108.634
 30
0.0
 11
91.7303
 21
109.175
 31
0.0
  0
LINE
  8
0
 62
     0
 10
91.7303
 20
109.175
 30
0.0
 11
92.0792
 21
109.859
 31
0.0
  0
LINE
  8
0
 62
     0
 10
92.0792
 20
109.859
 30
0.0
 11
92.1992
 21
110.615
 31
0.0
  0
LINE
  8
0
 62
     0
 10
92.1992
 20
110.615
 30
0.0
 11
92.0792
 21
111.373
 31
0.0
  0
LINE
  8
0
 62
     0
 10
92.0792
 20
111.373
 30
0.0
 11
91.7303
 21
112.057
 31
0.0
  0
LINE
  8
0
 62
     0
 10
91.7303
 20
112.057
 30
0.0
 11
91.1888
 21
112.6
 31
0.0
  0
LINE
  8
0
 62
     0
 10
91.1888
 20
112.6
 30
0.0
 11
90.5055
 21
112.947
 31
0.0
  0
LINE
  8
0
 62
     0
 10
90.5055
 20
112.947
 30
0.0
 11
89.7488
 21
113.065
 31
0.0
  0
LINE
  8
0
 62
     0
 10
89.7488
 20
113.065
 30
0.0
 11
88.991
 21
112.947
 31
0.0
  0
ENDSEC
  0
EOF
