  0
SECTION
  2
HEADER
  9
$ACADVER
  1
AC1009
  9
$EXTMIN
 10
0.0
 20
0.0
 30
0.0
  9
$EXTMAX
 10
1000.0
 20
1000.0
 30
0.0
  9
$FILLMODE
 70
 0
  9
$SPLFRAME
 70
 1
  0
ENDSEC
  0
SECTION
  2
TABLES
  0
TABLE
  2
LAYER
 70
1
  0
LAYER
  2
0
 70
     0
 62
     7
  6
CONTINUOUS
  0
ENDTAB
  0
ENDSEC
  0
SECTION
  2
ENTITIES
  0
LINE
  8
0
 62
     0
 10
343.709
 20
115.616
 30
0.0
 11
344.1
 21
115.601
 31
0.0
  0
LINE
  8
0
 62
     0
 10
344.1
 20
115.601
 30
0.0
 11
344.49
 21
115.554
 31
0.0
  0
LINE
  8
0
 62
     0
 10
344.49
 20
115.554
 30
0.0
 11
344.876
 21
115.478
 31
0.0
  0
LINE
  8
0
 62
     0
 10
344.876
 20
115.478
 30
0.0
 11
345.254
 21
115.372
 31
0.0
  0
LINE
  8
0
 62
     0
 10
345.254
 20
115.372
 30
0.0
 11
345.622
 21
115.236
 31
0.0
  0
LINE
  8
0
 62
     0
 10
345.622
 20
115.236
 30
0.0
 11
345.979
 21
115.072
 31
0.0
  0
LINE
  8
0
 62
     0
 10
345.979
 20
115.072
 30
0.0
 11
346.32
 21
114.88
 31
0.0
  0
LINE
  8
0
 62
     0
 10
346.32
 20
114.88
 30
0.0
 11
346.647
 21
114.661
 31
0.0
  0
LINE
  8
0
 62
     0
 10
346.647
 20
114.661
 30
0.0
 11
346.956
 21
114.419
 31
0.0
  0
LINE
  8
0
 62
     0
 10
346.956
 20
114.419
 30
0.0
 11
347.245
 21
114.151
 31
0.0
  0
LINE
  8
0
 62
     0
 10
347.245
 20
114.151
 30
0.0
 11
347.511
 21
113.863
 31
0.0
  0
LINE
  8
0
 62
     0
 10
347.511
 20
113.863
 30
0.0
 11
347.754
 21
113.555
 31
0.0
  0
LINE
  8
0
 62
     0
 10
347.754
 20
113.555
 30
0.0
 11
347.971
 21
113.229
 31
0.0
  0
LINE
  8
0
 62
     0
 10
347.971
 20
113.229
 30
0.0
 11
348.164
 21
112.886
 31
0.0
  0
LINE
  8
0
 62
     0
 10
348.164
 20
112.886
 30
0.0
 11
348.328
 21
112.529
 31
0.0
  0
LINE
  8
0
 62
     0
 10
348.328
 20
112.529
 30
0.0
 11
348.463
 21
112.161
 31
0.0
  0
LINE
  8
0
 62
     0
 10
348.463
 20
112.161
 30
0.0
 11
348.571
 21
111.784
 31
0.0
  0
LINE
  8
0
 62
     0
 10
348.571
 20
111.784
 30
0.0
 11
348.646
 21
111.399
 31
0.0
  0
LINE
  8
0
 62
     0
 10
348.646
 20
111.399
 30
0.0
 11
348.693
 21
111.009
 31
0.0
  0
LINE
  8
0
 62
     0
 10
348.693
 20
111.009
 30
0.0
 11
348.708
 21
110.615
 31
0.0
  0
LINE
  8
0
 62
     0
 10
348.708
 20
110.615
 30
0.0
 11
348.708
 21
5.36607
 31
0.0
  0
LINE
  8
0
 62
     0
 10
348.708
 20
5.36607
 30
0.0
 11
348.693
 21
4.97198
 31
0.0
  0
LINE
  8
0
 62
     0
 10
348.693
 20
4.97198
 30
0.0
 11
348.646
 21
4.58198
 31
0.0
  0
LINE
  8
0
 62
     0
 10
348.646
 20
4.58198
 30
0.0
 11
348.571
 21
4.19749
 31
0.0
  0
LINE
  8
0
 62
     0
 10
348.571
 20
4.19749
 30
0.0
 11
348.463
 21
3.81991
 31
0.0
  0
LINE
  8
0
 62
     0
 10
348.463
 20
3.81991
 30
0.0
 11
348.328
 21
3.45199
 31
0.0
  0
LINE
  8
0
 62
     0
 10
348.328
 20
3.45199
 30
0.0
 11
348.164
 21
3.09507
 31
0.0
  0
LINE
  8
0
 62
     0
 10
348.164
 20
3.09507
 30
0.0
 11
347.971
 21
2.75194
 31
0.0
  0
LINE
  8
0
 62
     0
 10
347.971
 20
2.75194
 30
0.0
 11
347.754
 21
2.42673
 31
0.0
  0
LINE
  8
0
 62
     0
 10
347.754
 20
2.42673
 30
0.0
 11
347.511
 21
2.11805
 31
0.0
  0
LINE
  8
0
 62
     0
 10
347.511
 20
2.11805
 30
0.0
 11
347.245
 21
1.83003
 31
0.0
  0
LINE
  8
0
 62
     0
 10
347.245
 20
1.83003
 30
0.0
 11
346.956
 21
1.5627
 31
0.0
  0
LINE
  8
0
 62
     0
 10
346.956
 20
1.5627
 30
0.0
 11
346.647
 21
1.32016
 31
0.0
  0
LINE
  8
0
 62
     0
 10
346.647
 20
1.32016
 30
0.0
 11
346.32
 21
1.10105
 31
0.0
  0
LINE
  8
0
 62
     0
 10
346.32
 20
1.10105
 30
0.0
 11
345.979
 21
0.909507
 31
0.0
  0
LINE
  8
0
 62
     0
 10
345.979
 20
0.909507
 30
0.0
 11
345.622
 21
0.745518
 31
0.0
  0
LINE
  8
0
 62
     0
 10
345.622
 20
0.745518
 30
0.0
 11
345.254
 21
0.609092
 31
0.0
  0
LINE
  8
0
 62
     0
 10
345.254
 20
0.609092
 30
0.0
 11
344.876
 21
0.502984
 31
0.0
  0
LINE
  8
0
 62
     0
 10
344.876
 20
0.502984
 30
0.0
 11
344.49
 21
0.427193
 31
0.0
  0
LINE
  8
0
 62
     0
 10
344.49
 20
0.427193
 30
0.0
 11
344.1
 21
0.38034
 31
0.0
  0
LINE
  8
0
 62
     0
 10
344.1
 20
0.38034
 30
0.0
 11
343.709
 21
0.365181
 31
0.0
  0
LINE
  8
0
 62
     0
 10
343.709
 20
0.365181
 30
0.0
 11
5.09598
 21
0.365181
 31
0.0
  0
LINE
  8
0
 62
     0
 10
5.09598
 20
0.365181
 30
0.0
 11
4.70186
 21
0.38034
 31
0.0
  0
LINE
  8
0
 62
     0
 10
4.70186
 20
0.38034
 30
0.0
 11
4.3119
 21
0.427193
 31
0.0
  0
LINE
  8
0
 62
     0
 10
4.3119
 20
0.427193
 30
0.0
 11
3.9274
 21
0.502984
 31
0.0
  0
LINE
  8
0
 62
     0
 10
3.9274
 20
0.502984
 30
0.0
 11
3.54983
 21
0.609092
 31
0.0
  0
LINE
  8
0
 62
     0
 10
3.54983
 20
0.609092
 30
0.0
 11
3.18189
 21
0.745518
 31
0.0
  0
LINE
  8
0
 62
     0
 10
3.18189
 20
0.745518
 30
0.0
 11
2.82498
 21
0.909507
 31
0.0
  0
LINE
  8
0
 62
     0
 10
2.82498
 20
0.909507
 30
0.0
 11
2.48185
 21
1.10105
 31
0.0
  0
LINE
  8
0
 62
     0
 10
2.48185
 20
1.10105
 30
0.0
 11
2.15663
 21
1.32016
 31
0.0
  0
LINE
  8
0
 62
     0
 10
2.15663
 20
1.32016
 30
0.0
 11
1.84795
 21
1.5627
 31
0.0
  0
LINE
  8
0
 62
     0
 10
1.84795
 20
1.5627
 30
0.0
 11
1.55994
 21
1.83003
 31
0.0
  0
LINE
  8
0
 62
     0
 10
1.55994
 20
1.83003
 30
0.0
 11
1.2926
 21
2.11805
 31
0.0
  0
LINE
  8
0
 62
     0
 10
1.2926
 20
2.11805
 30
0.0
 11
1.05006
 21
2.42673
 31
0.0
  0
LINE
  8
0
 62
     0
 10
1.05006
 20
2.42673
 30
0.0
 11
0.830957
 21
2.75194
 31
0.0
  0
LINE
  8
0
 62
     0
 10
0.830957
 20
2.75194
 30
0.0
 11
0.63941
 21
3.09507
 31
0.0
  0
LINE
  8
0
 62
     0
 10
0.63941
 20
3.09507
 30
0.0
 11
0.475424
 21
3.45199
 31
0.0
  0
LINE
  8
0
 62
     0
 10
0.475424
 20
3.45199
 30
0.0
 11
0.338998
 21
3.81991
 31
0.0
  0
LINE
  8
0
 62
     0
 10
0.338998
 20
3.81991
 30
0.0
 11
0.232888
 21
4.19749
 31
0.0
  0
LINE
  8
0
 62
     0
 10
0.232888
 20
4.19749
 30
0.0
 11
0.157097
 21
4.58198
 31
0.0
  0
LINE
  8
0
 62
     0
 10
0.157097
 20
4.58198
 30
0.0
 11
0.110243
 21
4.97198
 31
0.0
  0
LINE
  8
0
 62
     0
 10
0.110243
 20
4.97198
 30
0.0
 11
0.0950846
 21
5.36607
 31
0.0
  0
LINE
  8
0
 62
     0
 10
0.0950846
 20
5.36607
 30
0.0
 11
0.0950846
 21
110.615
 31
0.0
  0
LINE
  8
0
 62
     0
 10
0.0950846
 20
110.615
 30
0.0
 11
0.110243
 21
111.009
 31
0.0
  0
LINE
  8
0
 62
     0
 10
0.110243
 20
111.009
 30
0.0
 11
0.157097
 21
111.399
 31
0.0
  0
LINE
  8
0
 62
     0
 10
0.157097
 20
111.399
 30
0.0
 11
0.232888
 21
111.784
 31
0.0
  0
LINE
  8
0
 62
     0
 10
0.232888
 20
111.784
 30
0.0
 11
0.338998
 21
112.161
 31
0.0
  0
LINE
  8
0
 62
     0
 10
0.338998
 20
112.161
 30
0.0
 11
0.475424
 21
112.529
 31
0.0
  0
LINE
  8
0
 62
     0
 10
0.475424
 20
112.529
 30
0.0
 11
0.63941
 21
112.886
 31
0.0
  0
LINE
  8
0
 62
     0
 10
0.63941
 20
112.886
 30
0.0
 11
0.830957
 21
113.229
 31
0.0
  0
LINE
  8
0
 62
     0
 10
0.830957
 20
113.229
 30
0.0
 11
1.05006
 21
113.555
 31
0.0
  0
LINE
  8
0
 62
     0
 10
1.05006
 20
113.555
 30
0.0
 11
1.2926
 21
113.863
 31
0.0
  0
LINE
  8
0
 62
     0
 10
1.2926
 20
113.863
 30
0.0
 11
1.55994
 21
114.151
 31
0.0
  0
LINE
  8
0
 62
     0
 10
1.55994
 20
114.151
 30
0.0
 11
1.84795
 21
114.419
 31
0.0
  0
LINE
  8
0
 62
     0
 10
1.84795
 20
114.419
 30
0.0
 11
2.15663
 21
114.661
 31
0.0
  0
LINE
  8
0
 62
     0
 10
2.15663
 20
114.661
 30
0.0
 11
2.48185
 21
114.88
 31
0.0
  0
LINE
  8
0
 62
     0
 10
2.48185
 20
114.88
 30
0.0
 11
2.82498
 21
115.072
 31
0.0
  0
LINE
  8
0
 62
     0
 10
2.82498
 20
115.072
 30
0.0
 11
3.18189
 21
115.236
 31
0.0
  0
LINE
  8
0
 62
     0
 10
3.18189
 20
115.236
 30
0.0
 11
3.54983
 21
115.372
 31
0.0
  0
LINE
  8
0
 62
     0
 10
3.54983
 20
115.372
 30
0.0
 11
3.9274
 21
115.478
 31
0.0
  0
LINE
  8
0
 62
     0
 10
3.9274
 20
115.478
 30
0.0
 11
4.3119
 21
115.554
 31
0.0
  0
LINE
  8
0
 62
     0
 10
4.3119
 20
115.554
 30
0.0
 11
4.70186
 21
115.601
 31
0.0
  0
LINE
  8
0
 62
     0
 10
4.70186
 20
115.601
 30
0.0
 11
5.09598
 21
115.616
 31
0.0
  0
LINE
  8
0
 62
     0
 10
5.09598
 20
115.616
 30
0.0
 11
343.709
 21
115.616
 31
0.0
  0
LINE
  8
0
 62
     0
 10
4.55443
 20
7.02938
 30
0.0
 11
4.06658
 21
6.77997
 31
0.0
  0
LINE
  8
0
 62
     0
 10
4.06658
 20
6.77997
 30
0.0
 11
3.67937
 21
6.3941
 31
0.0
  0
LINE
  8
0
 62
     0
 10
3.67937
 20
6.3941
 30
0.0
 11
3.42994
 21
5.90628
 31
0.0
  0
LINE
  8
0
 62
     0
 10
3.42994
 20
5.90628
 30
0.0
 11
3.3445
 21
5.36607
 31
0.0
  0
LINE
  8
0
 62
     0
 10
3.3445
 20
5.36607
 30
0.0
 11
3.42994
 21
4.82452
 31
0.0
  0
LINE
  8
0
 62
     0
 10
3.42994
 20
4.82452
 30
0.0
 11
3.67937
 21
4.3367
 31
0.0
  0
LINE
  8
0
 62
     0
 10
3.67937
 20
4.3367
 30
0.0
 11
4.06658
 21
3.94945
 31
0.0
  0
LINE
  8
0
 62
     0
 10
4.06658
 20
3.94945
 30
0.0
 11
4.55443
 21
3.70004
 31
0.0
  0
LINE
  8
0
 62
     0
 10
4.55443
 20
3.70004
 30
0.0
 11
5.0946
 21
3.61597
 31
0.0
  0
LINE
  8
0
 62
     0
 10
5.0946
 20
3.61597
 30
0.0
 11
5.63619
 21
3.70004
 31
0.0
  0
LINE
  8
0
 62
     0
 10
5.63619
 20
3.70004
 30
0.0
 11
6.12401
 21
3.94945
 31
0.0
  0
LINE
  8
0
 62
     0
 10
6.12401
 20
3.94945
 30
0.0
 11
6.50984
 21
4.3367
 31
0.0
  0
LINE
  8
0
 62
     0
 10
6.50984
 20
4.3367
 30
0.0
 11
6.75929
 21
4.82452
 31
0.0
  0
LINE
  8
0
 62
     0
 10
6.75929
 20
4.82452
 30
0.0
 11
6.8447
 21
5.36607
 31
0.0
  0
LINE
  8
0
 62
     0
 10
6.8447
 20
5.36607
 30
0.0
 11
6.75929
 21
5.90628
 31
0.0
  0
LINE
  8
0
 62
     0
 10
6.75929
 20
5.90628
 30
0.0
 11
6.50984
 21
6.3941
 31
0.0
  0
LINE
  8
0
 62
     0
 10
6.50984
 20
6.3941
 30
0.0
 11
6.12401
 21
6.77997
 31
0.0
  0
LINE
  8
0
 62
     0
 10
6.12401
 20
6.77997
 30
0.0
 11
5.63619
 21
7.02938
 31
0.0
  0
LINE
  8
0
 62
     0
 10
5.63619
 20
7.02938
 30
0.0
 11
5.0946
 21
7.1162
 31
0.0
  0
LINE
  8
0
 62
     0
 10
5.0946
 20
7.1162
 30
0.0
 11
4.55443
 21
7.02938
 31
0.0
  0
LINE
  8
0
 62
     0
 10
89.2073
 20
7.02938
 30
0.0
 11
88.7194
 21
6.77997
 31
0.0
  0
LINE
  8
0
 62
     0
 10
88.7194
 20
6.77997
 30
0.0
 11
88.3324
 21
6.3941
 31
0.0
  0
LINE
  8
0
 62
     0
 10
88.3324
 20
6.3941
 30
0.0
 11
88.0844
 21
5.90628
 31
0.0
  0
LINE
  8
0
 62
     0
 10
88.0844
 20
5.90628
 30
0.0
 11
87.9987
 21
5.36607
 31
0.0
  0
LINE
  8
0
 62
     0
 10
87.9987
 20
5.36607
 30
0.0
 11
88.0844
 21
4.82452
 31
0.0
  0
LINE
  8
0
 62
     0
 10
88.0844
 20
4.82452
 30
0.0
 11
88.3324
 21
4.3367
 31
0.0
  0
LINE
  8
0
 62
     0
 10
88.3324
 20
4.3367
 30
0.0
 11
88.7194
 21
3.94945
 31
0.0
  0
LINE
  8
0
 62
     0
 10
88.7194
 20
3.94945
 30
0.0
 11
89.2073
 21
3.70004
 31
0.0
  0
LINE
  8
0
 62
     0
 10
89.2073
 20
3.70004
 30
0.0
 11
89.7488
 21
3.61597
 31
0.0
  0
LINE
  8
0
 62
     0
 10
89.7488
 20
3.61597
 30
0.0
 11
90.2892
 21
3.70004
 31
0.0
  0
LINE
  8
0
 62
     0
 10
90.2892
 20
3.70004
 30
0.0
 11
90.7768
 21
3.94945
 31
0.0
  0
LINE
  8
0
 62
     0
 10
90.7768
 20
3.94945
 30
0.0
 11
91.1641
 21
4.3367
 31
0.0
  0
LINE
  8
0
 62
     0
 10
91.1641
 20
4.3367
 30
0.0
 11
91.4121
 21
4.82452
 31
0.0
  0
LINE
  8
0
 62
     0
 10
91.4121
 20
4.82452
 30
0.0
 11
91.4989
 21
5.36607
 31
0.0
  0
LINE
  8
0
 62
     0
 10
91.4989
 20
5.36607
 30
0.0
 11
91.4121
 21
5.90628
 31
0.0
  0
LINE
  8
0
 62
     0
 10
91.4121
 20
5.90628
 30
0.0
 11
91.1641
 21
6.3941
 31
0.0
  0
LINE
  8
0
 62
     0
 10
91.1641
 20
6.3941
 30
0.0
 11
90.7768
 21
6.77997
 31
0.0
  0
LINE
  8
0
 62
     0
 10
90.7768
 20
6.77997
 30
0.0
 11
90.2892
 21
7.02938
 31
0.0
  0
LINE
  8
0
 62
     0
 10
90.2892
 20
7.02938
 30
0.0
 11
89.7488
 21
7.1162
 31
0.0
  0
LINE
  8
0
 62
     0
 10
89.7488
 20
7.1162
 30
0.0
 11
89.2073
 21
7.02938
 31
0.0
  0
LINE
  8
0
 62
     0
 10
173.86
 20
7.02938
 30
0.0
 11
173.374
 21
6.77997
 31
0.0
  0
LINE
  8
0
 62
     0
 10
173.374
 20
6.77997
 30
0.0
 11
172.985
 21
6.3941
 31
0.0
  0
LINE
  8
0
 62
     0
 10
172.985
 20
6.3941
 30
0.0
 11
172.737
 21
5.90628
 31
0.0
  0
LINE
  8
0
 62
     0
 10
172.737
 20
5.90628
 30
0.0
 11
172.652
 21
5.36607
 31
0.0
  0
LINE
  8
0
 62
     0
 10
172.652
 20
5.36607
 30
0.0
 11
172.737
 21
4.82452
 31
0.0
  0
LINE
  8
0
 62
     0
 10
172.737
 20
4.82452
 30
0.0
 11
172.985
 21
4.3367
 31
0.0
  0
LINE
  8
0
 62
     0
 10
172.985
 20
4.3367
 30
0.0
 11
173.374
 21
3.94945
 31
0.0
  0
LINE
  8
0
 62
     0
 10
173.374
 20
3.94945
 30
0.0
 11
173.86
 21
3.70004
 31
0.0
  0
LINE
  8
0
 62
     0
 10
173.86
 20
3.70004
 30
0.0
 11
174.402
 21
3.61597
 31
0.0
  0
LINE
  8
0
 62
     0
 10
174.402
 20
3.61597
 30
0.0
 11
174.942
 21
3.70004
 31
0.0
  0
LINE
  8
0
 62
     0
 10
174.942
 20
3.70004
 30
0.0
 11
175.431
 21
3.94945
 31
0.0
  0
LINE
  8
0
 62
     0
 10
175.431
 20
3.94945
 30
0.0
 11
175.817
 21
4.3367
 31
0.0
  0
LINE
  8
0
 62
     0
 10
175.817
 20
4.3367
 30
0.0
 11
176.066
 21
4.82452
 31
0.0
  0
LINE
  8
0
 62
     0
 10
176.066
 20
4.82452
 30
0.0
 11
176.152
 21
5.36607
 31
0.0
  0
LINE
  8
0
 62
     0
 10
176.152
 20
5.36607
 30
0.0
 11
176.066
 21
5.90628
 31
0.0
  0
LINE
  8
0
 62
     0
 10
176.066
 20
5.90628
 30
0.0
 11
175.817
 21
6.3941
 31
0.0
  0
LINE
  8
0
 62
     0
 10
175.817
 20
6.3941
 30
0.0
 11
175.431
 21
6.77997
 31
0.0
  0
LINE
  8
0
 62
     0
 10
175.431
 20
6.77997
 30
0.0
 11
174.942
 21
7.02938
 31
0.0
  0
LINE
  8
0
 62
     0
 10
174.942
 20
7.02938
 30
0.0
 11
174.402
 21
7.1162
 31
0.0
  0
LINE
  8
0
 62
     0
 10
174.402
 20
7.1162
 30
0.0
 11
173.86
 21
7.02938
 31
0.0
  0
LINE
  8
0
 62
     0
 10
258.514
 20
7.02938
 30
0.0
 11
258.027
 21
6.77997
 31
0.0
  0
LINE
  8
0
 62
     0
 10
258.027
 20
6.77997
 30
0.0
 11
257.639
 21
6.3941
 31
0.0
  0
LINE
  8
0
 62
     0
 10
257.639
 20
6.3941
 30
0.0
 11
257.39
 21
5.90628
 31
0.0
  0
LINE
  8
0
 62
     0
 10
257.39
 20
5.90628
 30
0.0
 11
257.306
 21
5.36607
 31
0.0
  0
LINE
  8
0
 62
     0
 10
257.306
 20
5.36607
 30
0.0
 11
257.39
 21
4.82452
 31
0.0
  0
LINE
  8
0
 62
     0
 10
257.39
 20
4.82452
 30
0.0
 11
257.639
 21
4.3367
 31
0.0
  0
LINE
  8
0
 62
     0
 10
257.639
 20
4.3367
 30
0.0
 11
258.027
 21
3.94945
 31
0.0
  0
LINE
  8
0
 62
     0
 10
258.027
 20
3.94945
 30
0.0
 11
258.514
 21
3.70004
 31
0.0
  0
LINE
  8
0
 62
     0
 10
258.514
 20
3.70004
 30
0.0
 11
259.056
 21
3.61597
 31
0.0
  0
LINE
  8
0
 62
     0
 10
259.056
 20
3.61597
 30
0.0
 11
259.595
 21
3.70004
 31
0.0
  0
LINE
  8
0
 62
     0
 10
259.595
 20
3.70004
 30
0.0
 11
260.084
 21
3.94945
 31
0.0
  0
LINE
  8
0
 62
     0
 10
260.084
 20
3.94945
 30
0.0
 11
260.47
 21
4.3367
 31
0.0
  0
LINE
  8
0
 62
     0
 10
260.47
 20
4.3367
 30
0.0
 11
260.719
 21
4.82452
 31
0.0
  0
LINE
  8
0
 62
     0
 10
260.719
 20
4.82452
 30
0.0
 11
260.806
 21
5.36607
 31
0.0
  0
LINE
  8
0
 62
     0
 10
260.806
 20
5.36607
 30
0.0
 11
260.719
 21
5.90628
 31
0.0
  0
LINE
  8
0
 62
     0
 10
260.719
 20
5.90628
 30
0.0
 11
260.47
 21
6.3941
 31
0.0
  0
LINE
  8
0
 62
     0
 10
260.47
 20
6.3941
 30
0.0
 11
260.084
 21
6.77997
 31
0.0
  0
LINE
  8
0
 62
     0
 10
260.084
 20
6.77997
 30
0.0
 11
259.595
 21
7.02938
 31
0.0
  0
LINE
  8
0
 62
     0
 10
259.595
 20
7.02938
 30
0.0
 11
259.056
 21
7.1162
 31
0.0
  0
LINE
  8
0
 62
     0
 10
259.056
 20
7.1162
 30
0.0
 11
258.514
 21
7.02938
 31
0.0
  0
LINE
  8
0
 62
     0
 10
343.167
 20
7.02938
 30
0.0
 11
342.68
 21
6.77997
 31
0.0
  0
LINE
  8
0
 62
     0
 10
342.68
 20
6.77997
 30
0.0
 11
342.292
 21
6.3941
 31
0.0
  0
LINE
  8
0
 62
     0
 10
342.292
 20
6.3941
 30
0.0
 11
342.044
 21
5.90628
 31
0.0
  0
LINE
  8
0
 62
     0
 10
342.044
 20
5.90628
 30
0.0
 11
341.959
 21
5.36607
 31
0.0
  0
LINE
  8
0
 62
     0
 10
341.959
 20
5.36607
 30
0.0
 11
342.044
 21
4.82452
 31
0.0
  0
LINE
  8
0
 62
     0
 10
342.044
 20
4.82452
 30
0.0
 11
342.292
 21
4.3367
 31
0.0
  0
LINE
  8
0
 62
     0
 10
342.292
 20
4.3367
 30
0.0
 11
342.68
 21
3.94945
 31
0.0
  0
LINE
  8
0
 62
     0
 10
342.68
 20
3.94945
 30
0.0
 11
343.167
 21
3.70004
 31
0.0
  0
LINE
  8
0
 62
     0
 10
343.167
 20
3.70004
 30
0.0
 11
343.709
 21
3.61597
 31
0.0
  0
LINE
  8
0
 62
     0
 10
343.709
 20
3.61597
 30
0.0
 11
344.249
 21
3.70004
 31
0.0
  0
LINE
  8
0
 62
     0
 10
344.249
 20
3.70004
 30
0.0
 11
344.737
 21
3.94945
 31
0.0
  0
LINE
  8
0
 62
     0
 10
344.737
 20
3.94945
 30
0.0
 11
345.124
 21
4.3367
 31
0.0
  0
LINE
  8
0
 62
     0
 10
345.124
 20
4.3367
 30
0.0
 11
345.372
 21
4.82452
 31
0.0
  0
LINE
  8
0
 62
     0
 10
345.372
 20
4.82452
 30
0.0
 11
345.459
 21
5.36607
 31
0.0
  0
LINE
  8
0
 62
     0
 10
345.459
 20
5.36607
 30
0.0
 11
345.372
 21
5.90628
 31
0.0
  0
LINE
  8
0
 62
     0
 10
345.372
 20
5.90628
 30
0.0
 11
345.124
 21
6.3941
 31
0.0
  0
LINE
  8
0
 62
     0
 10
345.124
 20
6.3941
 30
0.0
 11
344.737
 21
6.77997
 31
0.0
  0
LINE
  8
0
 62
     0
 10
344.737
 20
6.77997
 30
0.0
 11
344.249
 21
7.02938
 31
0.0
  0
LINE
  8
0
 62
     0
 10
344.249
 20
7.02938
 30
0.0
 11
343.709
 21
7.1162
 31
0.0
  0
LINE
  8
0
 62
     0
 10
343.709
 20
7.1162
 30
0.0
 11
343.167
 21
7.02938
 31
0.0
  0
LINE
  8
0
 62
     0
 10
134.064
 20
26.8911
 30
0.0
 11
134.064
 21
25.8906
 31
0.0
  0
LINE
  8
0
 62
     0
 10
134.064
 20
25.8906
 30
0.0
 11
133.263
 21
25.8906
 31
0.0
  0
LINE
  8
0
 62
     0
 10
133.263
 20
25.8906
 30
0.0
 11
133.263
 21
22.7914
 31
0.0
  0
LINE
  8
0
 62
     0
 10
133.263
 20
22.7914
 30
0.0
 11
134.064
 21
22.7914
 31
0.0
  0
LINE
  8
0
 62
     0
 10
134.064
 20
22.7914
 30
0.0
 11
134.064
 21
22.1905
 31
0.0
  0
LINE
  8
0
 62
     0
 10
134.064
 20
22.1905
 30
0.0
 11
94.4383
 21
22.1905
 31
0.0
  0
LINE
  8
0
 62
     0
 10
94.4383
 20
22.1905
 30
0.0
 11
94.4383
 21
25.4207
 31
0.0
  0
LINE
  8
0
 62
     0
 10
94.4383
 20
25.4207
 30
0.0
 11
92.7132
 21
25.4207
 31
0.0
  0
LINE
  8
0
 62
     0
 10
92.7132
 20
25.4207
 30
0.0
 11
92.7132
 21
26.3412
 31
0.0
  0
LINE
  8
0
 62
     0
 10
92.7132
 20
26.3412
 30
0.0
 11
89.414
 21
26.3412
 31
0.0
  0
LINE
  8
0
 62
     0
 10
89.414
 20
26.3412
 30
0.0
 11
89.414
 21
25.4207
 31
0.0
  0
LINE
  8
0
 62
     0
 10
89.414
 20
25.4207
 30
0.0
 11
87.6886
 21
25.4207
 31
0.0
  0
LINE
  8
0
 62
     0
 10
87.6886
 20
25.4207
 30
0.0
 11
87.6886
 21
22.1905
 31
0.0
  0
LINE
  8
0
 62
     0
 10
87.6886
 20
22.1905
 30
0.0
 11
86.8634
 21
22.1905
 31
0.0
  0
LINE
  8
0
 62
     0
 10
86.8634
 20
22.1905
 30
0.0
 11
86.8634
 21
19.3904
 31
0.0
  0
LINE
  8
0
 62
     0
 10
86.8634
 20
19.3904
 30
0.0
 11
87.6886
 21
19.3904
 31
0.0
  0
LINE
  8
0
 62
     0
 10
87.6886
 20
19.3904
 30
0.0
 11
87.6886
 21
13.1217
 31
0.0
  0
LINE
  8
0
 62
     0
 10
87.6886
 20
13.1217
 30
0.0
 11
89.414
 21
13.1217
 31
0.0
  0
LINE
  8
0
 62
     0
 10
89.414
 20
13.1217
 30
0.0
 11
89.414
 21
12.1405
 31
0.0
  0
LINE
  8
0
 62
     0
 10
89.414
 20
12.1405
 30
0.0
 11
92.7132
 21
12.1405
 31
0.0
  0
LINE
  8
0
 62
     0
 10
92.7132
 20
12.1405
 30
0.0
 11
92.7132
 21
13.1217
 31
0.0
  0
LINE
  8
0
 62
     0
 10
92.7132
 20
13.1217
 30
0.0
 11
94.4383
 21
13.1217
 31
0.0
  0
LINE
  8
0
 62
     0
 10
94.4383
 20
13.1217
 30
0.0
 11
94.4383
 21
17.592
 31
0.0
  0
LINE
  8
0
 62
     0
 10
94.4383
 20
17.592
 30
0.0
 11
134.064
 21
17.592
 31
0.0
  0
LINE
  8
0
 62
     0
 10
134.064
 20
17.592
 30
0.0
 11
134.064
 21
16.9912
 31
0.0
  0
LINE
  8
0
 62
     0
 10
134.064
 20
16.9912
 30
0.0
 11
133.263
 21
16.9912
 31
0.0
  0
LINE
  8
0
 62
     0
 10
133.263
 20
16.9912
 30
0.0
 11
133.263
 21
13.8906
 31
0.0
  0
LINE
  8
0
 62
     0
 10
133.263
 20
13.8906
 30
0.0
 11
134.064
 21
13.8906
 31
0.0
  0
LINE
  8
0
 62
     0
 10
134.064
 20
13.8906
 30
0.0
 11
134.064
 21
12.8902
 31
0.0
  0
LINE
  8
0
 62
     0
 10
134.064
 20
12.8902
 30
0.0
 11
148.063
 21
12.8902
 31
0.0
  0
LINE
  8
0
 62
     0
 10
148.063
 20
12.8902
 30
0.0
 11
148.063
 21
13.8906
 31
0.0
  0
LINE
  8
0
 62
     0
 10
148.063
 20
13.8906
 30
0.0
 11
148.864
 21
13.8906
 31
0.0
  0
LINE
  8
0
 62
     0
 10
148.864
 20
13.8906
 30
0.0
 11
148.864
 21
16.9912
 31
0.0
  0
LINE
  8
0
 62
     0
 10
148.864
 20
16.9912
 30
0.0
 11
148.063
 21
16.9912
 31
0.0
  0
LINE
  8
0
 62
     0
 10
148.063
 20
16.9912
 30
0.0
 11
148.063
 21
17.592
 31
0.0
  0
LINE
  8
0
 62
     0
 10
148.063
 20
17.592
 30
0.0
 11
187.689
 21
17.592
 31
0.0
  0
LINE
  8
0
 62
     0
 10
187.689
 20
17.592
 30
0.0
 11
187.689
 21
13.1217
 31
0.0
  0
LINE
  8
0
 62
     0
 10
187.689
 20
13.1217
 30
0.0
 11
189.414
 21
13.1217
 31
0.0
  0
LINE
  8
0
 62
     0
 10
189.414
 20
13.1217
 30
0.0
 11
189.414
 21
12.1405
 31
0.0
  0
LINE
  8
0
 62
     0
 10
189.414
 20
12.1405
 30
0.0
 11
192.713
 21
12.1405
 31
0.0
  0
LINE
  8
0
 62
     0
 10
192.713
 20
12.1405
 30
0.0
 11
192.713
 21
13.1217
 31
0.0
  0
LINE
  8
0
 62
     0
 10
192.713
 20
13.1217
 30
0.0
 11
194.438
 21
13.1217
 31
0.0
  0
LINE
  8
0
 62
     0
 10
194.438
 20
13.1217
 30
0.0
 11
194.438
 21
19.3904
 31
0.0
  0
LINE
  8
0
 62
     0
 10
194.438
 20
19.3904
 30
0.0
 11
195.264
 21
19.3904
 31
0.0
  0
LINE
  8
0
 62
     0
 10
195.264
 20
19.3904
 30
0.0
 11
195.264
 21
22.1905
 31
0.0
  0
LINE
  8
0
 62
     0
 10
195.264
 20
22.1905
 30
0.0
 11
194.438
 21
22.1905
 31
0.0
  0
LINE
  8
0
 62
     0
 10
194.438
 20
22.1905
 30
0.0
 11
194.438
 21
25.4207
 31
0.0
  0
LINE
  8
0
 62
     0
 10
194.438
 20
25.4207
 30
0.0
 11
192.713
 21
25.4207
 31
0.0
  0
LINE
  8
0
 62
     0
 10
192.713
 20
25.4207
 30
0.0
 11
192.713
 21
26.3412
 31
0.0
  0
LINE
  8
0
 62
     0
 10
192.713
 20
26.3412
 30
0.0
 11
189.414
 21
26.3412
 31
0.0
  0
LINE
  8
0
 62
     0
 10
189.414
 20
26.3412
 30
0.0
 11
189.414
 21
25.4207
 31
0.0
  0
LINE
  8
0
 62
     0
 10
189.414
 20
25.4207
 30
0.0
 11
187.689
 21
25.4207
 31
0.0
  0
LINE
  8
0
 62
     0
 10
187.689
 20
25.4207
 30
0.0
 11
187.689
 21
22.1905
 31
0.0
  0
LINE
  8
0
 62
     0
 10
187.689
 20
22.1905
 30
0.0
 11
148.063
 21
22.1905
 31
0.0
  0
LINE
  8
0
 62
     0
 10
148.063
 20
22.1905
 30
0.0
 11
148.063
 21
22.7914
 31
0.0
  0
LINE
  8
0
 62
     0
 10
148.063
 20
22.7914
 30
0.0
 11
148.864
 21
22.7914
 31
0.0
  0
LINE
  8
0
 62
     0
 10
148.864
 20
22.7914
 30
0.0
 11
148.864
 21
25.8906
 31
0.0
  0
LINE
  8
0
 62
     0
 10
148.864
 20
25.8906
 30
0.0
 11
148.063
 21
25.8906
 31
0.0
  0
LINE
  8
0
 62
     0
 10
148.063
 20
25.8906
 30
0.0
 11
148.063
 21
26.8911
 31
0.0
  0
LINE
  8
0
 62
     0
 10
148.063
 20
26.8911
 30
0.0
 11
134.064
 21
26.8911
 31
0.0
  0
LINE
  8
0
 62
     0
 10
322.182
 20
26.8911
 30
0.0
 11
322.182
 21
25.8906
 31
0.0
  0
LINE
  8
0
 62
     0
 10
322.182
 20
25.8906
 30
0.0
 11
321.382
 21
25.8906
 31
0.0
  0
LINE
  8
0
 62
     0
 10
321.382
 20
25.8906
 30
0.0
 11
321.382
 21
22.7914
 31
0.0
  0
LINE
  8
0
 62
     0
 10
321.382
 20
22.7914
 30
0.0
 11
322.182
 21
22.7914
 31
0.0
  0
LINE
  8
0
 62
     0
 10
322.182
 20
22.7914
 30
0.0
 11
322.182
 21
16.9912
 31
0.0
  0
LINE
  8
0
 62
     0
 10
322.182
 20
16.9912
 30
0.0
 11
321.382
 21
16.9912
 31
0.0
  0
LINE
  8
0
 62
     0
 10
321.382
 20
16.9912
 30
0.0
 11
321.382
 21
13.8906
 31
0.0
  0
LINE
  8
0
 62
     0
 10
321.382
 20
13.8906
 30
0.0
 11
322.182
 21
13.8906
 31
0.0
  0
LINE
  8
0
 62
     0
 10
322.182
 20
13.8906
 30
0.0
 11
322.182
 21
12.8902
 31
0.0
  0
LINE
  8
0
 62
     0
 10
322.182
 20
12.8902
 30
0.0
 11
336.182
 21
12.8902
 31
0.0
  0
LINE
  8
0
 62
     0
 10
336.182
 20
12.8902
 30
0.0
 11
336.182
 21
13.8906
 31
0.0
  0
LINE
  8
0
 62
     0
 10
336.182
 20
13.8906
 30
0.0
 11
336.983
 21
13.8906
 31
0.0
  0
LINE
  8
0
 62
     0
 10
336.983
 20
13.8906
 30
0.0
 11
336.983
 21
16.9912
 31
0.0
  0
LINE
  8
0
 62
     0
 10
336.983
 20
16.9912
 30
0.0
 11
336.182
 21
16.9912
 31
0.0
  0
LINE
  8
0
 62
     0
 10
336.182
 20
16.9912
 30
0.0
 11
336.182
 21
22.7914
 31
0.0
  0
LINE
  8
0
 62
     0
 10
336.182
 20
22.7914
 30
0.0
 11
336.983
 21
22.7914
 31
0.0
  0
LINE
  8
0
 62
     0
 10
336.983
 20
22.7914
 30
0.0
 11
336.983
 21
25.8906
 31
0.0
  0
LINE
  8
0
 62
     0
 10
336.983
 20
25.8906
 30
0.0
 11
336.182
 21
25.8906
 31
0.0
  0
LINE
  8
0
 62
     0
 10
336.182
 20
25.8906
 30
0.0
 11
336.182
 21
26.8911
 31
0.0
  0
LINE
  8
0
 62
     0
 10
336.182
 20
26.8911
 30
0.0
 11
322.182
 21
26.8911
 31
0.0
  0
LINE
  8
0
 62
     0
 10
303.132
 20
26.8911
 30
0.0
 11
303.132
 21
25.8906
 31
0.0
  0
LINE
  8
0
 62
     0
 10
303.132
 20
25.8906
 30
0.0
 11
302.332
 21
25.8906
 31
0.0
  0
LINE
  8
0
 62
     0
 10
302.332
 20
25.8906
 30
0.0
 11
302.332
 21
22.7914
 31
0.0
  0
LINE
  8
0
 62
     0
 10
302.332
 20
22.7914
 30
0.0
 11
303.132
 21
22.7914
 31
0.0
  0
LINE
  8
0
 62
     0
 10
303.132
 20
22.7914
 30
0.0
 11
303.132
 21
16.9912
 31
0.0
  0
LINE
  8
0
 62
     0
 10
303.132
 20
16.9912
 30
0.0
 11
302.332
 21
16.9912
 31
0.0
  0
LINE
  8
0
 62
     0
 10
302.332
 20
16.9912
 30
0.0
 11
302.332
 21
13.8906
 31
0.0
  0
LINE
  8
0
 62
     0
 10
302.332
 20
13.8906
 30
0.0
 11
303.132
 21
13.8906
 31
0.0
  0
LINE
  8
0
 62
     0
 10
303.132
 20
13.8906
 30
0.0
 11
303.132
 21
12.8902
 31
0.0
  0
LINE
  8
0
 62
     0
 10
303.132
 20
12.8902
 30
0.0
 11
317.132
 21
12.8902
 31
0.0
  0
LINE
  8
0
 62
     0
 10
317.132
 20
12.8902
 30
0.0
 11
317.132
 21
13.8906
 31
0.0
  0
LINE
  8
0
 62
     0
 10
317.132
 20
13.8906
 30
0.0
 11
317.933
 21
13.8906
 31
0.0
  0
LINE
  8
0
 62
     0
 10
317.933
 20
13.8906
 30
0.0
 11
317.933
 21
16.9912
 31
0.0
  0
LINE
  8
0
 62
     0
 10
317.933
 20
16.9912
 30
0.0
 11
317.132
 21
16.9912
 31
0.0
  0
LINE
  8
0
 62
     0
 10
317.132
 20
16.9912
 30
0.0
 11
317.132
 21
22.7914
 31
0.0
  0
LINE
  8
0
 62
     0
 10
317.132
 20
22.7914
 30
0.0
 11
317.933
 21
22.7914
 31
0.0
  0
LINE
  8
0
 62
     0
 10
317.933
 20
22.7914
 30
0.0
 11
317.933
 21
25.8906
 31
0.0
  0
LINE
  8
0
 62
     0
 10
317.933
 20
25.8906
 30
0.0
 11
317.132
 21
25.8906
 31
0.0
  0
LINE
  8
0
 62
     0
 10
317.132
 20
25.8906
 30
0.0
 11
317.132
 21
26.8911
 31
0.0
  0
LINE
  8
0
 62
     0
 10
317.132
 20
26.8911
 30
0.0
 11
303.132
 21
26.8911
 31
0.0
  0
LINE
  8
0
 62
     0
 10
284.082
 20
26.8911
 30
0.0
 11
284.082
 21
25.8906
 31
0.0
  0
LINE
  8
0
 62
     0
 10
284.082
 20
25.8906
 30
0.0
 11
283.282
 21
25.8906
 31
0.0
  0
LINE
  8
0
 62
     0
 10
283.282
 20
25.8906
 30
0.0
 11
283.282
 21
22.7914
 31
0.0
  0
LINE
  8
0
 62
     0
 10
283.282
 20
22.7914
 30
0.0
 11
284.082
 21
22.7914
 31
0.0
  0
LINE
  8
0
 62
     0
 10
284.082
 20
22.7914
 30
0.0
 11
284.082
 21
16.9912
 31
0.0
  0
LINE
  8
0
 62
     0
 10
284.082
 20
16.9912
 30
0.0
 11
283.282
 21
16.9912
 31
0.0
  0
LINE
  8
0
 62
     0
 10
283.282
 20
16.9912
 30
0.0
 11
283.282
 21
13.8906
 31
0.0
  0
LINE
  8
0
 62
     0
 10
283.282
 20
13.8906
 30
0.0
 11
284.082
 21
13.8906
 31
0.0
  0
LINE
  8
0
 62
     0
 10
284.082
 20
13.8906
 30
0.0
 11
284.082
 21
12.8902
 31
0.0
  0
LINE
  8
0
 62
     0
 10
284.082
 20
12.8902
 30
0.0
 11
298.082
 21
12.8902
 31
0.0
  0
LINE
  8
0
 62
     0
 10
298.082
 20
12.8902
 30
0.0
 11
298.082
 21
13.8906
 31
0.0
  0
LINE
  8
0
 62
     0
 10
298.082
 20
13.8906
 30
0.0
 11
298.883
 21
13.8906
 31
0.0
  0
LINE
  8
0
 62
     0
 10
298.883
 20
13.8906
 30
0.0
 11
298.883
 21
16.9912
 31
0.0
  0
LINE
  8
0
 62
     0
 10
298.883
 20
16.9912
 30
0.0
 11
298.082
 21
16.9912
 31
0.0
  0
LINE
  8
0
 62
     0
 10
298.082
 20
16.9912
 30
0.0
 11
298.082
 21
22.7914
 31
0.0
  0
LINE
  8
0
 62
     0
 10
298.082
 20
22.7914
 30
0.0
 11
298.883
 21
22.7914
 31
0.0
  0
LINE
  8
0
 62
     0
 10
298.883
 20
22.7914
 30
0.0
 11
298.883
 21
25.8906
 31
0.0
  0
LINE
  8
0
 62
     0
 10
298.883
 20
25.8906
 30
0.0
 11
298.082
 21
25.8906
 31
0.0
  0
LINE
  8
0
 62
     0
 10
298.082
 20
25.8906
 30
0.0
 11
298.082
 21
26.8911
 31
0.0
  0
LINE
  8
0
 62
     0
 10
298.082
 20
26.8911
 30
0.0
 11
284.082
 21
26.8911
 31
0.0
  0
LINE
  8
0
 62
     0
 10
253.126
 20
26.8911
 30
0.0
 11
253.126
 21
25.8906
 31
0.0
  0
LINE
  8
0
 62
     0
 10
253.126
 20
25.8906
 30
0.0
 11
252.327
 21
25.8906
 31
0.0
  0
LINE
  8
0
 62
     0
 10
252.327
 20
25.8906
 30
0.0
 11
252.327
 21
22.7914
 31
0.0
  0
LINE
  8
0
 62
     0
 10
252.327
 20
22.7914
 30
0.0
 11
253.126
 21
22.7914
 31
0.0
  0
LINE
  8
0
 62
     0
 10
253.126
 20
22.7914
 30
0.0
 11
253.126
 21
16.9912
 31
0.0
  0
LINE
  8
0
 62
     0
 10
253.126
 20
16.9912
 30
0.0
 11
252.327
 21
16.9912
 31
0.0
  0
LINE
  8
0
 62
     0
 10
252.327
 20
16.9912
 30
0.0
 11
252.327
 21
13.8906
 31
0.0
  0
LINE
  8
0
 62
     0
 10
252.327
 20
13.8906
 30
0.0
 11
253.126
 21
13.8906
 31
0.0
  0
LINE
  8
0
 62
     0
 10
253.126
 20
13.8906
 30
0.0
 11
253.126
 21
12.8902
 31
0.0
  0
LINE
  8
0
 62
     0
 10
253.126
 20
12.8902
 30
0.0
 11
267.126
 21
12.8902
 31
0.0
  0
LINE
  8
0
 62
     0
 10
267.126
 20
12.8902
 30
0.0
 11
267.126
 21
13.8906
 31
0.0
  0
LINE
  8
0
 62
     0
 10
267.126
 20
13.8906
 30
0.0
 11
267.927
 21
13.8906
 31
0.0
  0
LINE
  8
0
 62
     0
 10
267.927
 20
13.8906
 30
0.0
 11
267.927
 21
16.9912
 31
0.0
  0
LINE
  8
0
 62
     0
 10
267.927
 20
16.9912
 30
0.0
 11
267.126
 21
16.9912
 31
0.0
  0
LINE
  8
0
 62
     0
 10
267.126
 20
16.9912
 30
0.0
 11
267.126
 21
22.7914
 31
0.0
  0
LINE
  8
0
 62
     0
 10
267.126
 20
22.7914
 30
0.0
 11
267.927
 21
22.7914
 31
0.0
  0
LINE
  8
0
 62
     0
 10
267.927
 20
22.7914
 30
0.0
 11
267.927
 21
25.8906
 31
0.0
  0
LINE
  8
0
 62
     0
 10
267.927
 20
25.8906
 30
0.0
 11
267.126
 21
25.8906
 31
0.0
  0
LINE
  8
0
 62
     0
 10
267.126
 20
25.8906
 30
0.0
 11
267.126
 21
26.8911
 31
0.0
  0
LINE
  8
0
 62
     0
 10
267.126
 20
26.8911
 30
0.0
 11
253.126
 21
26.8911
 31
0.0
  0
LINE
  8
0
 62
     0
 10
229.314
 20
26.8911
 30
0.0
 11
229.314
 21
25.8906
 31
0.0
  0
LINE
  8
0
 62
     0
 10
229.314
 20
25.8906
 30
0.0
 11
228.513
 21
25.8906
 31
0.0
  0
LINE
  8
0
 62
     0
 10
228.513
 20
25.8906
 30
0.0
 11
228.513
 21
22.7914
 31
0.0
  0
LINE
  8
0
 62
     0
 10
228.513
 20
22.7914
 30
0.0
 11
229.314
 21
22.7914
 31
0.0
  0
LINE
  8
0
 62
     0
 10
229.314
 20
22.7914
 30
0.0
 11
229.314
 21
16.9912
 31
0.0
  0
LINE
  8
0
 62
     0
 10
229.314
 20
16.9912
 30
0.0
 11
228.513
 21
16.9912
 31
0.0
  0
LINE
  8
0
 62
     0
 10
228.513
 20
16.9912
 30
0.0
 11
228.513
 21
13.8906
 31
0.0
  0
LINE
  8
0
 62
     0
 10
228.513
 20
13.8906
 30
0.0
 11
229.314
 21
13.8906
 31
0.0
  0
LINE
  8
0
 62
     0
 10
229.314
 20
13.8906
 30
0.0
 11
229.314
 21
12.8902
 31
0.0
  0
LINE
  8
0
 62
     0
 10
229.314
 20
12.8902
 30
0.0
 11
243.313
 21
12.8902
 31
0.0
  0
LINE
  8
0
 62
     0
 10
243.313
 20
12.8902
 30
0.0
 11
243.313
 21
13.8906
 31
0.0
  0
LINE
  8
0
 62
     0
 10
243.313
 20
13.8906
 30
0.0
 11
244.114
 21
13.8906
 31
0.0
  0
LINE
  8
0
 62
     0
 10
244.114
 20
13.8906
 30
0.0
 11
244.114
 21
16.9912
 31
0.0
  0
LINE
  8
0
 62
     0
 10
244.114
 20
16.9912
 30
0.0
 11
243.313
 21
16.9912
 31
0.0
  0
LINE
  8
0
 62
     0
 10
243.313
 20
16.9912
 30
0.0
 11
243.313
 21
22.7914
 31
0.0
  0
LINE
  8
0
 62
     0
 10
243.313
 20
22.7914
 30
0.0
 11
244.114
 21
22.7914
 31
0.0
  0
LINE
  8
0
 62
     0
 10
244.114
 20
22.7914
 30
0.0
 11
244.114
 21
25.8906
 31
0.0
  0
LINE
  8
0
 62
     0
 10
244.114
 20
25.8906
 30
0.0
 11
243.313
 21
25.8906
 31
0.0
  0
LINE
  8
0
 62
     0
 10
243.313
 20
25.8906
 30
0.0
 11
243.313
 21
26.8911
 31
0.0
  0
LINE
  8
0
 62
     0
 10
243.313
 20
26.8911
 30
0.0
 11
229.314
 21
26.8911
 31
0.0
  0
LINE
  8
0
 62
     0
 10
205.501
 20
26.8911
 30
0.0
 11
205.501
 21
25.8906
 31
0.0
  0
LINE
  8
0
 62
     0
 10
205.501
 20
25.8906
 30
0.0
 11
204.702
 21
25.8906
 31
0.0
  0
LINE
  8
0
 62
     0
 10
204.702
 20
25.8906
 30
0.0
 11
204.702
 21
22.7914
 31
0.0
  0
LINE
  8
0
 62
     0
 10
204.702
 20
22.7914
 30
0.0
 11
205.501
 21
22.7914
 31
0.0
  0
LINE
  8
0
 62
     0
 10
205.501
 20
22.7914
 30
0.0
 11
205.501
 21
16.9912
 31
0.0
  0
LINE
  8
0
 62
     0
 10
205.501
 20
16.9912
 30
0.0
 11
204.702
 21
16.9912
 31
0.0
  0
LINE
  8
0
 62
     0
 10
204.702
 20
16.9912
 30
0.0
 11
204.702
 21
13.8906
 31
0.0
  0
LINE
  8
0
 62
     0
 10
204.702
 20
13.8906
 30
0.0
 11
205.501
 21
13.8906
 31
0.0
  0
LINE
  8
0
 62
     0
 10
205.501
 20
13.8906
 30
0.0
 11
205.501
 21
12.8902
 31
0.0
  0
LINE
  8
0
 62
     0
 10
205.501
 20
12.8902
 30
0.0
 11
219.501
 21
12.8902
 31
0.0
  0
LINE
  8
0
 62
     0
 10
219.501
 20
12.8902
 30
0.0
 11
219.501
 21
13.8906
 31
0.0
  0
LINE
  8
0
 62
     0
 10
219.501
 20
13.8906
 30
0.0
 11
220.302
 21
13.8906
 31
0.0
  0
LINE
  8
0
 62
     0
 10
220.302
 20
13.8906
 30
0.0
 11
220.302
 21
16.9912
 31
0.0
  0
LINE
  8
0
 62
     0
 10
220.302
 20
16.9912
 30
0.0
 11
219.501
 21
16.9912
 31
0.0
  0
LINE
  8
0
 62
     0
 10
219.501
 20
16.9912
 30
0.0
 11
219.501
 21
22.7914
 31
0.0
  0
LINE
  8
0
 62
     0
 10
219.501
 20
22.7914
 30
0.0
 11
220.302
 21
22.7914
 31
0.0
  0
LINE
  8
0
 62
     0
 10
220.302
 20
22.7914
 30
0.0
 11
220.302
 21
25.8906
 31
0.0
  0
LINE
  8
0
 62
     0
 10
220.302
 20
25.8906
 30
0.0
 11
219.501
 21
25.8906
 31
0.0
  0
LINE
  8
0
 62
     0
 10
219.501
 20
25.8906
 30
0.0
 11
219.501
 21
26.8911
 31
0.0
  0
LINE
  8
0
 62
     0
 10
219.501
 20
26.8911
 30
0.0
 11
205.501
 21
26.8911
 31
0.0
  0
LINE
  8
0
 62
     0
 10
62.6262
 20
26.8911
 30
0.0
 11
62.6262
 21
25.8906
 31
0.0
  0
LINE
  8
0
 62
     0
 10
62.6262
 20
25.8906
 30
0.0
 11
61.8271
 21
25.8906
 31
0.0
  0
LINE
  8
0
 62
     0
 10
61.8271
 20
25.8906
 30
0.0
 11
61.8271
 21
22.7914
 31
0.0
  0
LINE
  8
0
 62
     0
 10
61.8271
 20
22.7914
 30
0.0
 11
62.6262
 21
22.7914
 31
0.0
  0
LINE
  8
0
 62
     0
 10
62.6262
 20
22.7914
 30
0.0
 11
62.6262
 21
16.9912
 31
0.0
  0
LINE
  8
0
 62
     0
 10
62.6262
 20
16.9912
 30
0.0
 11
61.8271
 21
16.9912
 31
0.0
  0
LINE
  8
0
 62
     0
 10
61.8271
 20
16.9912
 30
0.0
 11
61.8271
 21
13.8906
 31
0.0
  0
LINE
  8
0
 62
     0
 10
61.8271
 20
13.8906
 30
0.0
 11
62.6262
 21
13.8906
 31
0.0
  0
LINE
  8
0
 62
     0
 10
62.6262
 20
13.8906
 30
0.0
 11
62.6262
 21
12.8902
 31
0.0
  0
LINE
  8
0
 62
     0
 10
62.6262
 20
12.8902
 30
0.0
 11
76.6258
 21
12.8902
 31
0.0
  0
LINE
  8
0
 62
     0
 10
76.6258
 20
12.8902
 30
0.0
 11
76.6258
 21
13.8906
 31
0.0
  0
LINE
  8
0
 62
     0
 10
76.6258
 20
13.8906
 30
0.0
 11
77.4266
 21
13.8906
 31
0.0
  0
LINE
  8
0
 62
     0
 10
77.4266
 20
13.8906
 30
0.0
 11
77.4266
 21
16.9912
 31
0.0
  0
LINE
  8
0
 62
     0
 10
77.4266
 20
16.9912
 30
0.0
 11
76.6258
 21
16.9912
 31
0.0
  0
LINE
  8
0
 62
     0
 10
76.6258
 20
16.9912
 30
0.0
 11
76.6258
 21
22.7914
 31
0.0
  0
LINE
  8
0
 62
     0
 10
76.6258
 20
22.7914
 30
0.0
 11
77.4266
 21
22.7914
 31
0.0
  0
LINE
  8
0
 62
     0
 10
77.4266
 20
22.7914
 30
0.0
 11
77.4266
 21
25.8906
 31
0.0
  0
LINE
  8
0
 62
     0
 10
77.4266
 20
25.8906
 30
0.0
 11
76.6258
 21
25.8906
 31
0.0
  0
LINE
  8
0
 62
     0
 10
76.6258
 20
25.8906
 30
0.0
 11
76.6258
 21
26.8911
 31
0.0
  0
LINE
  8
0
 62
     0
 10
76.6258
 20
26.8911
 30
0.0
 11
62.6262
 21
26.8911
 31
0.0
  0
LINE
  8
0
 62
     0
 10
38.8137
 20
26.8911
 30
0.0
 11
38.8137
 21
25.8906
 31
0.0
  0
LINE
  8
0
 62
     0
 10
38.8137
 20
25.8906
 30
0.0
 11
38.0132
 21
25.8906
 31
0.0
  0
LINE
  8
0
 62
     0
 10
38.0132
 20
25.8906
 30
0.0
 11
38.0132
 21
22.7914
 31
0.0
  0
LINE
  8
0
 62
     0
 10
38.0132
 20
22.7914
 30
0.0
 11
38.8137
 21
22.7914
 31
0.0
  0
LINE
  8
0
 62
     0
 10
38.8137
 20
22.7914
 30
0.0
 11
38.8137
 21
16.9912
 31
0.0
  0
LINE
  8
0
 62
     0
 10
38.8137
 20
16.9912
 30
0.0
 11
38.0132
 21
16.9912
 31
0.0
  0
LINE
  8
0
 62
     0
 10
38.0132
 20
16.9912
 30
0.0
 11
38.0132
 21
13.8906
 31
0.0
  0
LINE
  8
0
 62
     0
 10
38.0132
 20
13.8906
 30
0.0
 11
38.8137
 21
13.8906
 31
0.0
  0
LINE
  8
0
 62
     0
 10
38.8137
 20
13.8906
 30
0.0
 11
38.8137
 21
12.8902
 31
0.0
  0
LINE
  8
0
 62
     0
 10
38.8137
 20
12.8902
 30
0.0
 11
52.8133
 21
12.8902
 31
0.0
  0
LINE
  8
0
 62
     0
 10
52.8133
 20
12.8902
 30
0.0
 11
52.8133
 21
13.8906
 31
0.0
  0
LINE
  8
0
 62
     0
 10
52.8133
 20
13.8906
 30
0.0
 11
53.6141
 21
13.8906
 31
0.0
  0
LINE
  8
0
 62
     0
 10
53.6141
 20
13.8906
 30
0.0
 11
53.6141
 21
16.9912
 31
0.0
  0
LINE
  8
0
 62
     0
 10
53.6141
 20
16.9912
 30
0.0
 11
52.8133
 21
16.9912
 31
0.0
  0
LINE
  8
0
 62
     0
 10
52.8133
 20
16.9912
 30
0.0
 11
52.8133
 21
22.7914
 31
0.0
  0
LINE
  8
0
 62
     0
 10
52.8133
 20
22.7914
 30
0.0
 11
53.6141
 21
22.7914
 31
0.0
  0
LINE
  8
0
 62
     0
 10
53.6141
 20
22.7914
 30
0.0
 11
53.6141
 21
25.8906
 31
0.0
  0
LINE
  8
0
 62
     0
 10
53.6141
 20
25.8906
 30
0.0
 11
52.8133
 21
25.8906
 31
0.0
  0
LINE
  8
0
 62
     0
 10
52.8133
 20
25.8906
 30
0.0
 11
52.8133
 21
26.8911
 31
0.0
  0
LINE
  8
0
 62
     0
 10
52.8133
 20
26.8911
 30
0.0
 11
38.8137
 21
26.8911
 31
0.0
  0
LINE
  8
0
 62
     0
 10
15.0013
 20
26.8911
 30
0.0
 11
15.0013
 21
25.8906
 31
0.0
  0
LINE
  8
0
 62
     0
 10
15.0013
 20
25.8906
 30
0.0
 11
14.2021
 21
25.8906
 31
0.0
  0
LINE
  8
0
 62
     0
 10
14.2021
 20
25.8906
 30
0.0
 11
14.2021
 21
22.7914
 31
0.0
  0
LINE
  8
0
 62
     0
 10
14.2021
 20
22.7914
 30
0.0
 11
15.0013
 21
22.7914
 31
0.0
  0
LINE
  8
0
 62
     0
 10
15.0013
 20
22.7914
 30
0.0
 11
15.0013
 21
16.9912
 31
0.0
  0
LINE
  8
0
 62
     0
 10
15.0013
 20
16.9912
 30
0.0
 11
14.2021
 21
16.9912
 31
0.0
  0
LINE
  8
0
 62
     0
 10
14.2021
 20
16.9912
 30
0.0
 11
14.2021
 21
13.8906
 31
0.0
  0
LINE
  8
0
 62
     0
 10
14.2021
 20
13.8906
 30
0.0
 11
15.0013
 21
13.8906
 31
0.0
  0
LINE
  8
0
 62
     0
 10
15.0013
 20
13.8906
 30
0.0
 11
15.0013
 21
12.8902
 31
0.0
  0
LINE
  8
0
 62
     0
 10
15.0013
 20
12.8902
 30
0.0
 11
29.0008
 21
12.8902
 31
0.0
  0
LINE
  8
0
 62
     0
 10
29.0008
 20
12.8902
 30
0.0
 11
29.0008
 21
13.8906
 31
0.0
  0
LINE
  8
0
 62
     0
 10
29.0008
 20
13.8906
 30
0.0
 11
29.8015
 21
13.8906
 31
0.0
  0
LINE
  8
0
 62
     0
 10
29.8015
 20
13.8906
 30
0.0
 11
29.8015
 21
16.9912
 31
0.0
  0
LINE
  8
0
 62
     0
 10
29.8015
 20
16.9912
 30
0.0
 11
29.0008
 21
16.9912
 31
0.0
  0
LINE
  8
0
 62
     0
 10
29.0008
 20
16.9912
 30
0.0
 11
29.0008
 21
22.7914
 31
0.0
  0
LINE
  8
0
 62
     0
 10
29.0008
 20
22.7914
 30
0.0
 11
29.8015
 21
22.7914
 31
0.0
  0
LINE
  8
0
 62
     0
 10
29.8015
 20
22.7914
 30
0.0
 11
29.8015
 21
25.8906
 31
0.0
  0
LINE
  8
0
 62
     0
 10
29.8015
 20
25.8906
 30
0.0
 11
29.0008
 21
25.8906
 31
0.0
  0
LINE
  8
0
 62
     0
 10
29.0008
 20
25.8906
 30
0.0
 11
29.0008
 21
26.8911
 31
0.0
  0
LINE
  8
0
 62
     0
 10
29.0008
 20
26.8911
 30
0.0
 11
15.0013
 21
26.8911
 31
0.0
  0
LINE
  8
0
 62
     0
 10
262.651
 20
45.9412
 30
0.0
 11
262.651
 21
44.9407
 31
0.0
  0
LINE
  8
0
 62
     0
 10
262.651
 20
44.9407
 30
0.0
 11
261.852
 21
44.9407
 31
0.0
  0
LINE
  8
0
 62
     0
 10
261.852
 20
44.9407
 30
0.0
 11
261.852
 21
41.8412
 31
0.0
  0
LINE
  8
0
 62
     0
 10
261.852
 20
41.8412
 30
0.0
 11
262.651
 21
41.8412
 31
0.0
  0
LINE
  8
0
 62
     0
 10
262.651
 20
41.8412
 30
0.0
 11
262.651
 21
41.2404
 31
0.0
  0
LINE
  8
0
 62
     0
 10
262.651
 20
41.2404
 30
0.0
 11
261.126
 21
41.2404
 31
0.0
  0
LINE
  8
0
 62
     0
 10
261.126
 20
41.2404
 30
0.0
 11
261.126
 21
44.4708
 31
0.0
  0
LINE
  8
0
 62
     0
 10
261.126
 20
44.4708
 30
0.0
 11
259.402
 21
44.4708
 31
0.0
  0
LINE
  8
0
 62
     0
 10
259.402
 20
44.4708
 30
0.0
 11
259.402
 21
45.3912
 31
0.0
  0
LINE
  8
0
 62
     0
 10
259.402
 20
45.3912
 30
0.0
 11
256.1
 21
45.3912
 31
0.0
  0
LINE
  8
0
 62
     0
 10
256.1
 20
45.3912
 30
0.0
 11
256.1
 21
44.4708
 31
0.0
  0
LINE
  8
0
 62
     0
 10
256.1
 20
44.4708
 30
0.0
 11
254.376
 21
44.4708
 31
0.0
  0
LINE
  8
0
 62
     0
 10
254.376
 20
44.4708
 30
0.0
 11
254.376
 21
41.2404
 31
0.0
  0
LINE
  8
0
 62
     0
 10
254.376
 20
41.2404
 30
0.0
 11
253.552
 21
41.2404
 31
0.0
  0
LINE
  8
0
 62
     0
 10
253.552
 20
41.2404
 30
0.0
 11
253.552
 21
38.4404
 31
0.0
  0
LINE
  8
0
 62
     0
 10
253.552
 20
38.4404
 30
0.0
 11
254.376
 21
38.4404
 31
0.0
  0
LINE
  8
0
 62
     0
 10
254.376
 20
38.4404
 30
0.0
 11
254.376
 21
32.1703
 31
0.0
  0
LINE
  8
0
 62
     0
 10
254.376
 20
32.1703
 30
0.0
 11
256.1
 21
32.1703
 31
0.0
  0
LINE
  8
0
 62
     0
 10
256.1
 20
32.1703
 30
0.0
 11
256.1
 21
31.1905
 31
0.0
  0
LINE
  8
0
 62
     0
 10
256.1
 20
31.1905
 30
0.0
 11
259.402
 21
31.1905
 31
0.0
  0
LINE
  8
0
 62
     0
 10
259.402
 20
31.1905
 30
0.0
 11
259.402
 21
32.1703
 31
0.0
  0
LINE
  8
0
 62
     0
 10
259.402
 20
32.1703
 30
0.0
 11
261.126
 21
32.1703
 31
0.0
  0
LINE
  8
0
 62
     0
 10
261.126
 20
32.1703
 30
0.0
 11
261.126
 21
36.6406
 31
0.0
  0
LINE
  8
0
 62
     0
 10
261.126
 20
36.6406
 30
0.0
 11
262.651
 21
36.6406
 31
0.0
  0
LINE
  8
0
 62
     0
 10
262.651
 20
36.6406
 30
0.0
 11
262.651
 21
36.0412
 31
0.0
  0
LINE
  8
0
 62
     0
 10
262.651
 20
36.0412
 30
0.0
 11
261.852
 21
36.0412
 31
0.0
  0
LINE
  8
0
 62
     0
 10
261.852
 20
36.0412
 30
0.0
 11
261.852
 21
32.9406
 31
0.0
  0
LINE
  8
0
 62
     0
 10
261.852
 20
32.9406
 30
0.0
 11
262.651
 21
32.9406
 31
0.0
  0
LINE
  8
0
 62
     0
 10
262.651
 20
32.9406
 30
0.0
 11
262.651
 21
31.9402
 31
0.0
  0
LINE
  8
0
 62
     0
 10
262.651
 20
31.9402
 30
0.0
 11
276.651
 21
31.9402
 31
0.0
  0
LINE
  8
0
 62
     0
 10
276.651
 20
31.9402
 30
0.0
 11
276.651
 21
32.9406
 31
0.0
  0
LINE
  8
0
 62
     0
 10
276.651
 20
32.9406
 30
0.0
 11
277.452
 21
32.9406
 31
0.0
  0
LINE
  8
0
 62
     0
 10
277.452
 20
32.9406
 30
0.0
 11
277.452
 21
36.0412
 31
0.0
  0
LINE
  8
0
 62
     0
 10
277.452
 20
36.0412
 30
0.0
 11
276.651
 21
36.0412
 31
0.0
  0
LINE
  8
0
 62
     0
 10
276.651
 20
36.0412
 30
0.0
 11
276.651
 21
36.6406
 31
0.0
  0
LINE
  8
0
 62
     0
 10
276.651
 20
36.6406
 30
0.0
 11
278.176
 21
36.6406
 31
0.0
  0
LINE
  8
0
 62
     0
 10
278.176
 20
36.6406
 30
0.0
 11
278.176
 21
32.1703
 31
0.0
  0
LINE
  8
0
 62
     0
 10
278.176
 20
32.1703
 30
0.0
 11
279.902
 21
32.1703
 31
0.0
  0
LINE
  8
0
 62
     0
 10
279.902
 20
32.1703
 30
0.0
 11
279.902
 21
31.1905
 31
0.0
  0
LINE
  8
0
 62
     0
 10
279.902
 20
31.1905
 30
0.0
 11
283.202
 21
31.1905
 31
0.0
  0
LINE
  8
0
 62
     0
 10
283.202
 20
31.1905
 30
0.0
 11
283.202
 21
32.1703
 31
0.0
  0
LINE
  8
0
 62
     0
 10
283.202
 20
32.1703
 30
0.0
 11
284.926
 21
32.1703
 31
0.0
  0
LINE
  8
0
 62
     0
 10
284.926
 20
32.1703
 30
0.0
 11
284.926
 21
38.4404
 31
0.0
  0
LINE
  8
0
 62
     0
 10
284.926
 20
38.4404
 30
0.0
 11
285.751
 21
38.4404
 31
0.0
  0
LINE
  8
0
 62
     0
 10
285.751
 20
38.4404
 30
0.0
 11
285.751
 21
41.2404
 31
0.0
  0
LINE
  8
0
 62
     0
 10
285.751
 20
41.2404
 30
0.0
 11
284.926
 21
41.2404
 31
0.0
  0
LINE
  8
0
 62
     0
 10
284.926
 20
41.2404
 30
0.0
 11
284.926
 21
44.4708
 31
0.0
  0
LINE
  8
0
 62
     0
 10
284.926
 20
44.4708
 30
0.0
 11
283.202
 21
44.4708
 31
0.0
  0
LINE
  8
0
 62
     0
 10
283.202
 20
44.4708
 30
0.0
 11
283.202
 21
45.3912
 31
0.0
  0
LINE
  8
0
 62
     0
 10
283.202
 20
45.3912
 30
0.0
 11
279.902
 21
45.3912
 31
0.0
  0
LINE
  8
0
 62
     0
 10
279.902
 20
45.3912
 30
0.0
 11
279.902
 21
44.4708
 31
0.0
  0
LINE
  8
0
 62
     0
 10
279.902
 20
44.4708
 30
0.0
 11
278.176
 21
44.4708
 31
0.0
  0
LINE
  8
0
 62
     0
 10
278.176
 20
44.4708
 30
0.0
 11
278.176
 21
41.2404
 31
0.0
  0
LINE
  8
0
 62
     0
 10
278.176
 20
41.2404
 30
0.0
 11
276.651
 21
41.2404
 31
0.0
  0
LINE
  8
0
 62
     0
 10
276.651
 20
41.2404
 30
0.0
 11
276.651
 21
41.8412
 31
0.0
  0
LINE
  8
0
 62
     0
 10
276.651
 20
41.8412
 30
0.0
 11
277.452
 21
41.8412
 31
0.0
  0
LINE
  8
0
 62
     0
 10
277.452
 20
41.8412
 30
0.0
 11
277.452
 21
44.9407
 31
0.0
  0
LINE
  8
0
 62
     0
 10
277.452
 20
44.9407
 30
0.0
 11
276.651
 21
44.9407
 31
0.0
  0
LINE
  8
0
 62
     0
 10
276.651
 20
44.9407
 30
0.0
 11
276.651
 21
45.9412
 31
0.0
  0
LINE
  8
0
 62
     0
 10
276.651
 20
45.9412
 30
0.0
 11
262.651
 21
45.9412
 31
0.0
  0
LINE
  8
0
 62
     0
 10
24.5263
 20
45.9412
 30
0.0
 11
24.5263
 21
44.9407
 31
0.0
  0
LINE
  8
0
 62
     0
 10
24.5263
 20
44.9407
 30
0.0
 11
23.7271
 21
44.9407
 31
0.0
  0
LINE
  8
0
 62
     0
 10
23.7271
 20
44.9407
 30
0.0
 11
23.7271
 21
41.8412
 31
0.0
  0
LINE
  8
0
 62
     0
 10
23.7271
 20
41.8412
 30
0.0
 11
24.5263
 21
41.8412
 31
0.0
  0
LINE
  8
0
 62
     0
 10
24.5263
 20
41.8412
 30
0.0
 11
24.5263
 21
41.2404
 31
0.0
  0
LINE
  8
0
 62
     0
 10
24.5263
 20
41.2404
 30
0.0
 11
23.0008
 21
41.2404
 31
0.0
  0
LINE
  8
0
 62
     0
 10
23.0008
 20
41.2404
 30
0.0
 11
23.0008
 21
44.4708
 31
0.0
  0
LINE
  8
0
 62
     0
 10
23.0008
 20
44.4708
 30
0.0
 11
21.2769
 21
44.4708
 31
0.0
  0
LINE
  8
0
 62
     0
 10
21.2769
 20
44.4708
 30
0.0
 11
21.2769
 21
45.3912
 31
0.0
  0
LINE
  8
0
 62
     0
 10
21.2769
 20
45.3912
 30
0.0
 11
17.9765
 21
45.3912
 31
0.0
  0
LINE
  8
0
 62
     0
 10
17.9765
 20
45.3912
 30
0.0
 11
17.9765
 21
44.4708
 31
0.0
  0
LINE
  8
0
 62
     0
 10
17.9765
 20
44.4708
 30
0.0
 11
16.2512
 21
44.4708
 31
0.0
  0
LINE
  8
0
 62
     0
 10
16.2512
 20
44.4708
 30
0.0
 11
16.2512
 21
41.2404
 31
0.0
  0
LINE
  8
0
 62
     0
 10
16.2512
 20
41.2404
 30
0.0
 11
15.4271
 21
41.2404
 31
0.0
  0
LINE
  8
0
 62
     0
 10
15.4271
 20
41.2404
 30
0.0
 11
15.4271
 21
38.4404
 31
0.0
  0
LINE
  8
0
 62
     0
 10
15.4271
 20
38.4404
 30
0.0
 11
16.2512
 21
38.4404
 31
0.0
  0
LINE
  8
0
 62
     0
 10
16.2512
 20
38.4404
 30
0.0
 11
16.2512
 21
32.1703
 31
0.0
  0
LINE
  8
0
 62
     0
 10
16.2512
 20
32.1703
 30
0.0
 11
17.9765
 21
32.1703
 31
0.0
  0
LINE
  8
0
 62
     0
 10
17.9765
 20
32.1703
 30
0.0
 11
17.9765
 21
31.1905
 31
0.0
  0
LINE
  8
0
 62
     0
 10
17.9765
 20
31.1905
 30
0.0
 11
21.2769
 21
31.1905
 31
0.0
  0
LINE
  8
0
 62
     0
 10
21.2769
 20
31.1905
 30
0.0
 11
21.2769
 21
32.1703
 31
0.0
  0
LINE
  8
0
 62
     0
 10
21.2769
 20
32.1703
 30
0.0
 11
23.0008
 21
32.1703
 31
0.0
  0
LINE
  8
0
 62
     0
 10
23.0008
 20
32.1703
 30
0.0
 11
23.0008
 21
36.6406
 31
0.0
  0
LINE
  8
0
 62
     0
 10
23.0008
 20
36.6406
 30
0.0
 11
24.5263
 21
36.6406
 31
0.0
  0
LINE
  8
0
 62
     0
 10
24.5263
 20
36.6406
 30
0.0
 11
24.5263
 21
36.0412
 31
0.0
  0
LINE
  8
0
 62
     0
 10
24.5263
 20
36.0412
 30
0.0
 11
23.7271
 21
36.0412
 31
0.0
  0
LINE
  8
0
 62
     0
 10
23.7271
 20
36.0412
 30
0.0
 11
23.7271
 21
32.9406
 31
0.0
  0
LINE
  8
0
 62
     0
 10
23.7271
 20
32.9406
 30
0.0
 11
24.5263
 21
32.9406
 31
0.0
  0
LINE
  8
0
 62
     0
 10
24.5263
 20
32.9406
 30
0.0
 11
24.5263
 21
31.9402
 31
0.0
  0
LINE
  8
0
 62
     0
 10
24.5263
 20
31.9402
 30
0.0
 11
38.5258
 21
31.9402
 31
0.0
  0
LINE
  8
0
 62
     0
 10
38.5258
 20
31.9402
 30
0.0
 11
38.5258
 21
32.9406
 31
0.0
  0
LINE
  8
0
 62
     0
 10
38.5258
 20
32.9406
 30
0.0
 11
39.3266
 21
32.9406
 31
0.0
  0
LINE
  8
0
 62
     0
 10
39.3266
 20
32.9406
 30
0.0
 11
39.3266
 21
36.0412
 31
0.0
  0
LINE
  8
0
 62
     0
 10
39.3266
 20
36.0412
 30
0.0
 11
38.5258
 21
36.0412
 31
0.0
  0
LINE
  8
0
 62
     0
 10
38.5258
 20
36.0412
 30
0.0
 11
38.5258
 21
36.6406
 31
0.0
  0
LINE
  8
0
 62
     0
 10
38.5258
 20
36.6406
 30
0.0
 11
40.0512
 21
36.6406
 31
0.0
  0
LINE
  8
0
 62
     0
 10
40.0512
 20
36.6406
 30
0.0
 11
40.0512
 21
32.1703
 31
0.0
  0
LINE
  8
0
 62
     0
 10
40.0512
 20
32.1703
 30
0.0
 11
41.7766
 21
32.1703
 31
0.0
  0
LINE
  8
0
 62
     0
 10
41.7766
 20
32.1703
 30
0.0
 11
41.7766
 21
31.1905
 31
0.0
  0
LINE
  8
0
 62
     0
 10
41.7766
 20
31.1905
 30
0.0
 11
45.0769
 21
31.1905
 31
0.0
  0
LINE
  8
0
 62
     0
 10
45.0769
 20
31.1905
 30
0.0
 11
45.0769
 21
32.1703
 31
0.0
  0
LINE
  8
0
 62
     0
 10
45.0769
 20
32.1703
 30
0.0
 11
46.8009
 21
32.1703
 31
0.0
  0
LINE
  8
0
 62
     0
 10
46.8009
 20
32.1703
 30
0.0
 11
46.8009
 21
38.4404
 31
0.0
  0
LINE
  8
0
 62
     0
 10
46.8009
 20
38.4404
 30
0.0
 11
47.6264
 21
38.4404
 31
0.0
  0
LINE
  8
0
 62
     0
 10
47.6264
 20
38.4404
 30
0.0
 11
47.6264
 21
41.2404
 31
0.0
  0
LINE
  8
0
 62
     0
 10
47.6264
 20
41.2404
 30
0.0
 11
46.8009
 21
41.2404
 31
0.0
  0
LINE
  8
0
 62
     0
 10
46.8009
 20
41.2404
 30
0.0
 11
46.8009
 21
44.4708
 31
0.0
  0
LINE
  8
0
 62
     0
 10
46.8009
 20
44.4708
 30
0.0
 11
45.0769
 21
44.4708
 31
0.0
  0
LINE
  8
0
 62
     0
 10
45.0769
 20
44.4708
 30
0.0
 11
45.0769
 21
45.3912
 31
0.0
  0
LINE
  8
0
 62
     0
 10
45.0769
 20
45.3912
 30
0.0
 11
41.7766
 21
45.3912
 31
0.0
  0
LINE
  8
0
 62
     0
 10
41.7766
 20
45.3912
 30
0.0
 11
41.7766
 21
44.4708
 31
0.0
  0
LINE
  8
0
 62
     0
 10
41.7766
 20
44.4708
 30
0.0
 11
40.0512
 21
44.4708
 31
0.0
  0
LINE
  8
0
 62
     0
 10
40.0512
 20
44.4708
 30
0.0
 11
40.0512
 21
41.2404
 31
0.0
  0
LINE
  8
0
 62
     0
 10
40.0512
 20
41.2404
 30
0.0
 11
38.5258
 21
41.2404
 31
0.0
  0
LINE
  8
0
 62
     0
 10
38.5258
 20
41.2404
 30
0.0
 11
38.5258
 21
41.8412
 31
0.0
  0
LINE
  8
0
 62
     0
 10
38.5258
 20
41.8412
 30
0.0
 11
39.3266
 21
41.8412
 31
0.0
  0
LINE
  8
0
 62
     0
 10
39.3266
 20
41.8412
 30
0.0
 11
39.3266
 21
44.9407
 31
0.0
  0
LINE
  8
0
 62
     0
 10
39.3266
 20
44.9407
 30
0.0
 11
38.5258
 21
44.9407
 31
0.0
  0
LINE
  8
0
 62
     0
 10
38.5258
 20
44.9407
 30
0.0
 11
38.5258
 21
45.9412
 31
0.0
  0
LINE
  8
0
 62
     0
 10
38.5258
 20
45.9412
 30
0.0
 11
24.5263
 21
45.9412
 31
0.0
  0
LINE
  8
0
 62
     0
 10
303.132
 20
45.9412
 30
0.0
 11
303.132
 21
44.9407
 31
0.0
  0
LINE
  8
0
 62
     0
 10
303.132
 20
44.9407
 30
0.0
 11
302.332
 21
44.9407
 31
0.0
  0
LINE
  8
0
 62
     0
 10
302.332
 20
44.9407
 30
0.0
 11
302.332
 21
41.8412
 31
0.0
  0
LINE
  8
0
 62
     0
 10
302.332
 20
41.8412
 30
0.0
 11
303.132
 21
41.8412
 31
0.0
  0
LINE
  8
0
 62
     0
 10
303.132
 20
41.8412
 30
0.0
 11
303.132
 21
36.0412
 31
0.0
  0
LINE
  8
0
 62
     0
 10
303.132
 20
36.0412
 30
0.0
 11
302.332
 21
36.0412
 31
0.0
  0
LINE
  8
0
 62
     0
 10
302.332
 20
36.0412
 30
0.0
 11
302.332
 21
32.9406
 31
0.0
  0
LINE
  8
0
 62
     0
 10
302.332
 20
32.9406
 30
0.0
 11
303.132
 21
32.9406
 31
0.0
  0
LINE
  8
0
 62
     0
 10
303.132
 20
32.9406
 30
0.0
 11
303.132
 21
31.9402
 31
0.0
  0
LINE
  8
0
 62
     0
 10
303.132
 20
31.9402
 30
0.0
 11
317.132
 21
31.9402
 31
0.0
  0
LINE
  8
0
 62
     0
 10
317.132
 20
31.9402
 30
0.0
 11
317.132
 21
32.9406
 31
0.0
  0
LINE
  8
0
 62
     0
 10
317.132
 20
32.9406
 30
0.0
 11
317.933
 21
32.9406
 31
0.0
  0
LINE
  8
0
 62
     0
 10
317.933
 20
32.9406
 30
0.0
 11
317.933
 21
36.0412
 31
0.0
  0
LINE
  8
0
 62
     0
 10
317.933
 20
36.0412
 30
0.0
 11
317.132
 21
36.0412
 31
0.0
  0
LINE
  8
0
 62
     0
 10
317.132
 20
36.0412
 30
0.0
 11
317.132
 21
41.8412
 31
0.0
  0
LINE
  8
0
 62
     0
 10
317.132
 20
41.8412
 30
0.0
 11
317.933
 21
41.8412
 31
0.0
  0
LINE
  8
0
 62
     0
 10
317.933
 20
41.8412
 30
0.0
 11
317.933
 21
44.9407
 31
0.0
  0
LINE
  8
0
 62
     0
 10
317.933
 20
44.9407
 30
0.0
 11
317.132
 21
44.9407
 31
0.0
  0
LINE
  8
0
 62
     0
 10
317.132
 20
44.9407
 30
0.0
 11
317.132
 21
45.9412
 31
0.0
  0
LINE
  8
0
 62
     0
 10
317.132
 20
45.9412
 30
0.0
 11
303.132
 21
45.9412
 31
0.0
  0
LINE
  8
0
 62
     0
 10
226.932
 20
45.9412
 30
0.0
 11
226.932
 21
44.9407
 31
0.0
  0
LINE
  8
0
 62
     0
 10
226.932
 20
44.9407
 30
0.0
 11
226.132
 21
44.9407
 31
0.0
  0
LINE
  8
0
 62
     0
 10
226.132
 20
44.9407
 30
0.0
 11
226.132
 21
41.8412
 31
0.0
  0
LINE
  8
0
 62
     0
 10
226.132
 20
41.8412
 30
0.0
 11
226.932
 21
41.8412
 31
0.0
  0
LINE
  8
0
 62
     0
 10
226.932
 20
41.8412
 30
0.0
 11
226.932
 21
36.0412
 31
0.0
  0
LINE
  8
0
 62
     0
 10
226.932
 20
36.0412
 30
0.0
 11
226.132
 21
36.0412
 31
0.0
  0
LINE
  8
0
 62
     0
 10
226.132
 20
36.0412
 30
0.0
 11
226.132
 21
32.9406
 31
0.0
  0
LINE
  8
0
 62
     0
 10
226.132
 20
32.9406
 30
0.0
 11
226.932
 21
32.9406
 31
0.0
  0
LINE
  8
0
 62
     0
 10
226.932
 20
32.9406
 30
0.0
 11
226.932
 21
31.9402
 31
0.0
  0
LINE
  8
0
 62
     0
 10
226.932
 20
31.9402
 30
0.0
 11
240.932
 21
31.9402
 31
0.0
  0
LINE
  8
0
 62
     0
 10
240.932
 20
31.9402
 30
0.0
 11
240.932
 21
32.9406
 31
0.0
  0
LINE
  8
0
 62
     0
 10
240.932
 20
32.9406
 30
0.0
 11
241.733
 21
32.9406
 31
0.0
  0
LINE
  8
0
 62
     0
 10
241.733
 20
32.9406
 30
0.0
 11
241.733
 21
36.0412
 31
0.0
  0
LINE
  8
0
 62
     0
 10
241.733
 20
36.0412
 30
0.0
 11
240.932
 21
36.0412
 31
0.0
  0
LINE
  8
0
 62
     0
 10
240.932
 20
36.0412
 30
0.0
 11
240.932
 21
41.8412
 31
0.0
  0
LINE
  8
0
 62
     0
 10
240.932
 20
41.8412
 30
0.0
 11
241.733
 21
41.8412
 31
0.0
  0
LINE
  8
0
 62
     0
 10
241.733
 20
41.8412
 30
0.0
 11
241.733
 21
44.9407
 31
0.0
  0
LINE
  8
0
 62
     0
 10
241.733
 20
44.9407
 30
0.0
 11
240.932
 21
44.9407
 31
0.0
  0
LINE
  8
0
 62
     0
 10
240.932
 20
44.9407
 30
0.0
 11
240.932
 21
45.9412
 31
0.0
  0
LINE
  8
0
 62
     0
 10
240.932
 20
45.9412
 30
0.0
 11
226.932
 21
45.9412
 31
0.0
  0
LINE
  8
0
 62
     0
 10
207.882
 20
45.9412
 30
0.0
 11
207.882
 21
44.9407
 31
0.0
  0
LINE
  8
0
 62
     0
 10
207.882
 20
44.9407
 30
0.0
 11
207.082
 21
44.9407
 31
0.0
  0
LINE
  8
0
 62
     0
 10
207.082
 20
44.9407
 30
0.0
 11
207.082
 21
41.8412
 31
0.0
  0
LINE
  8
0
 62
     0
 10
207.082
 20
41.8412
 30
0.0
 11
207.882
 21
41.8412
 31
0.0
  0
LINE
  8
0
 62
     0
 10
207.882
 20
41.8412
 30
0.0
 11
207.882
 21
36.0412
 31
0.0
  0
LINE
  8
0
 62
     0
 10
207.882
 20
36.0412
 30
0.0
 11
207.082
 21
36.0412
 31
0.0
  0
LINE
  8
0
 62
     0
 10
207.082
 20
36.0412
 30
0.0
 11
207.082
 21
32.9406
 31
0.0
  0
LINE
  8
0
 62
     0
 10
207.082
 20
32.9406
 30
0.0
 11
207.882
 21
32.9406
 31
0.0
  0
LINE
  8
0
 62
     0
 10
207.882
 20
32.9406
 30
0.0
 11
207.882
 21
31.9402
 31
0.0
  0
LINE
  8
0
 62
     0
 10
207.882
 20
31.9402
 30
0.0
 11
221.882
 21
31.9402
 31
0.0
  0
LINE
  8
0
 62
     0
 10
221.882
 20
31.9402
 30
0.0
 11
221.882
 21
32.9406
 31
0.0
  0
LINE
  8
0
 62
     0
 10
221.882
 20
32.9406
 30
0.0
 11
222.683
 21
32.9406
 31
0.0
  0
LINE
  8
0
 62
     0
 10
222.683
 20
32.9406
 30
0.0
 11
222.683
 21
36.0412
 31
0.0
  0
LINE
  8
0
 62
     0
 10
222.683
 20
36.0412
 30
0.0
 11
221.882
 21
36.0412
 31
0.0
  0
LINE
  8
0
 62
     0
 10
221.882
 20
36.0412
 30
0.0
 11
221.882
 21
41.8412
 31
0.0
  0
LINE
  8
0
 62
     0
 10
221.882
 20
41.8412
 30
0.0
 11
222.683
 21
41.8412
 31
0.0
  0
LINE
  8
0
 62
     0
 10
222.683
 20
41.8412
 30
0.0
 11
222.683
 21
44.9407
 31
0.0
  0
LINE
  8
0
 62
     0
 10
222.683
 20
44.9407
 30
0.0
 11
221.882
 21
44.9407
 31
0.0
  0
LINE
  8
0
 62
     0
 10
221.882
 20
44.9407
 30
0.0
 11
221.882
 21
45.9412
 31
0.0
  0
LINE
  8
0
 62
     0
 10
221.882
 20
45.9412
 30
0.0
 11
207.882
 21
45.9412
 31
0.0
  0
LINE
  8
0
 62
     0
 10
188.832
 20
45.9412
 30
0.0
 11
188.832
 21
44.9407
 31
0.0
  0
LINE
  8
0
 62
     0
 10
188.832
 20
44.9407
 30
0.0
 11
188.032
 21
44.9407
 31
0.0
  0
LINE
  8
0
 62
     0
 10
188.032
 20
44.9407
 30
0.0
 11
188.032
 21
41.8412
 31
0.0
  0
LINE
  8
0
 62
     0
 10
188.032
 20
41.8412
 30
0.0
 11
188.832
 21
41.8412
 31
0.0
  0
LINE
  8
0
 62
     0
 10
188.832
 20
41.8412
 30
0.0
 11
188.832
 21
36.0412
 31
0.0
  0
LINE
  8
0
 62
     0
 10
188.832
 20
36.0412
 30
0.0
 11
188.032
 21
36.0412
 31
0.0
  0
LINE
  8
0
 62
     0
 10
188.032
 20
36.0412
 30
0.0
 11
188.032
 21
32.9406
 31
0.0
  0
LINE
  8
0
 62
     0
 10
188.032
 20
32.9406
 30
0.0
 11
188.832
 21
32.9406
 31
0.0
  0
LINE
  8
0
 62
     0
 10
188.832
 20
32.9406
 30
0.0
 11
188.832
 21
31.9402
 31
0.0
  0
LINE
  8
0
 62
     0
 10
188.832
 20
31.9402
 30
0.0
 11
202.832
 21
31.9402
 31
0.0
  0
LINE
  8
0
 62
     0
 10
202.832
 20
31.9402
 30
0.0
 11
202.832
 21
32.9406
 31
0.0
  0
LINE
  8
0
 62
     0
 10
202.832
 20
32.9406
 30
0.0
 11
203.633
 21
32.9406
 31
0.0
  0
LINE
  8
0
 62
     0
 10
203.633
 20
32.9406
 30
0.0
 11
203.633
 21
36.0412
 31
0.0
  0
LINE
  8
0
 62
     0
 10
203.633
 20
36.0412
 30
0.0
 11
202.832
 21
36.0412
 31
0.0
  0
LINE
  8
0
 62
     0
 10
202.832
 20
36.0412
 30
0.0
 11
202.832
 21
41.8412
 31
0.0
  0
LINE
  8
0
 62
     0
 10
202.832
 20
41.8412
 30
0.0
 11
203.633
 21
41.8412
 31
0.0
  0
LINE
  8
0
 62
     0
 10
203.633
 20
41.8412
 30
0.0
 11
203.633
 21
44.9407
 31
0.0
  0
LINE
  8
0
 62
     0
 10
203.633
 20
44.9407
 30
0.0
 11
202.832
 21
44.9407
 31
0.0
  0
LINE
  8
0
 62
     0
 10
202.832
 20
44.9407
 30
0.0
 11
202.832
 21
45.9412
 31
0.0
  0
LINE
  8
0
 62
     0
 10
202.832
 20
45.9412
 30
0.0
 11
188.832
 21
45.9412
 31
0.0
  0
LINE
  8
0
 62
     0
 10
169.782
 20
45.9412
 30
0.0
 11
169.782
 21
44.9407
 31
0.0
  0
LINE
  8
0
 62
     0
 10
169.782
 20
44.9407
 30
0.0
 11
168.982
 21
44.9407
 31
0.0
  0
LINE
  8
0
 62
     0
 10
168.982
 20
44.9407
 30
0.0
 11
168.982
 21
41.8412
 31
0.0
  0
LINE
  8
0
 62
     0
 10
168.982
 20
41.8412
 30
0.0
 11
169.782
 21
41.8412
 31
0.0
  0
LINE
  8
0
 62
     0
 10
169.782
 20
41.8412
 30
0.0
 11
169.782
 21
36.0412
 31
0.0
  0
LINE
  8
0
 62
     0
 10
169.782
 20
36.0412
 30
0.0
 11
168.982
 21
36.0412
 31
0.0
  0
LINE
  8
0
 62
     0
 10
168.982
 20
36.0412
 30
0.0
 11
168.982
 21
32.9406
 31
0.0
  0
LINE
  8
0
 62
     0
 10
168.982
 20
32.9406
 30
0.0
 11
169.782
 21
32.9406
 31
0.0
  0
LINE
  8
0
 62
     0
 10
169.782
 20
32.9406
 30
0.0
 11
169.782
 21
31.9402
 31
0.0
  0
LINE
  8
0
 62
     0
 10
169.782
 20
31.9402
 30
0.0
 11
183.782
 21
31.9402
 31
0.0
  0
LINE
  8
0
 62
     0
 10
183.782
 20
31.9402
 30
0.0
 11
183.782
 21
32.9406
 31
0.0
  0
LINE
  8
0
 62
     0
 10
183.782
 20
32.9406
 30
0.0
 11
184.583
 21
32.9406
 31
0.0
  0
LINE
  8
0
 62
     0
 10
184.583
 20
32.9406
 30
0.0
 11
184.583
 21
36.0412
 31
0.0
  0
LINE
  8
0
 62
     0
 10
184.583
 20
36.0412
 30
0.0
 11
183.782
 21
36.0412
 31
0.0
  0
LINE
  8
0
 62
     0
 10
183.782
 20
36.0412
 30
0.0
 11
183.782
 21
41.8412
 31
0.0
  0
LINE
  8
0
 62
     0
 10
183.782
 20
41.8412
 30
0.0
 11
184.583
 21
41.8412
 31
0.0
  0
LINE
  8
0
 62
     0
 10
184.583
 20
41.8412
 30
0.0
 11
184.583
 21
44.9407
 31
0.0
  0
LINE
  8
0
 62
     0
 10
184.583
 20
44.9407
 30
0.0
 11
183.782
 21
44.9407
 31
0.0
  0
LINE
  8
0
 62
     0
 10
183.782
 20
44.9407
 30
0.0
 11
183.782
 21
45.9412
 31
0.0
  0
LINE
  8
0
 62
     0
 10
183.782
 20
45.9412
 30
0.0
 11
169.782
 21
45.9412
 31
0.0
  0
LINE
  8
0
 62
     0
 10
150.732
 20
45.9412
 30
0.0
 11
150.732
 21
44.9407
 31
0.0
  0
LINE
  8
0
 62
     0
 10
150.732
 20
44.9407
 30
0.0
 11
149.932
 21
44.9407
 31
0.0
  0
LINE
  8
0
 62
     0
 10
149.932
 20
44.9407
 30
0.0
 11
149.932
 21
41.8412
 31
0.0
  0
LINE
  8
0
 62
     0
 10
149.932
 20
41.8412
 30
0.0
 11
150.732
 21
41.8412
 31
0.0
  0
LINE
  8
0
 62
     0
 10
150.732
 20
41.8412
 30
0.0
 11
150.732
 21
36.0412
 31
0.0
  0
LINE
  8
0
 62
     0
 10
150.732
 20
36.0412
 30
0.0
 11
149.932
 21
36.0412
 31
0.0
  0
LINE
  8
0
 62
     0
 10
149.932
 20
36.0412
 30
0.0
 11
149.932
 21
32.9406
 31
0.0
  0
LINE
  8
0
 62
     0
 10
149.932
 20
32.9406
 30
0.0
 11
150.732
 21
32.9406
 31
0.0
  0
LINE
  8
0
 62
     0
 10
150.732
 20
32.9406
 30
0.0
 11
150.732
 21
31.9402
 31
0.0
  0
LINE
  8
0
 62
     0
 10
150.732
 20
31.9402
 30
0.0
 11
164.732
 21
31.9402
 31
0.0
  0
LINE
  8
0
 62
     0
 10
164.732
 20
31.9402
 30
0.0
 11
164.732
 21
32.9406
 31
0.0
  0
LINE
  8
0
 62
     0
 10
164.732
 20
32.9406
 30
0.0
 11
165.533
 21
32.9406
 31
0.0
  0
LINE
  8
0
 62
     0
 10
165.533
 20
32.9406
 30
0.0
 11
165.533
 21
36.0412
 31
0.0
  0
LINE
  8
0
 62
     0
 10
165.533
 20
36.0412
 30
0.0
 11
164.732
 21
36.0412
 31
0.0
  0
LINE
  8
0
 62
     0
 10
164.732
 20
36.0412
 30
0.0
 11
164.732
 21
41.8412
 31
0.0
  0
LINE
  8
0
 62
     0
 10
164.732
 20
41.8412
 30
0.0
 11
165.533
 21
41.8412
 31
0.0
  0
LINE
  8
0
 62
     0
 10
165.533
 20
41.8412
 30
0.0
 11
165.533
 21
44.9407
 31
0.0
  0
LINE
  8
0
 62
     0
 10
165.533
 20
44.9407
 30
0.0
 11
164.732
 21
44.9407
 31
0.0
  0
LINE
  8
0
 62
     0
 10
164.732
 20
44.9407
 30
0.0
 11
164.732
 21
45.9412
 31
0.0
  0
LINE
  8
0
 62
     0
 10
164.732
 20
45.9412
 30
0.0
 11
150.732
 21
45.9412
 31
0.0
  0
LINE
  8
0
 62
     0
 10
131.682
 20
45.9412
 30
0.0
 11
131.682
 21
44.9407
 31
0.0
  0
LINE
  8
0
 62
     0
 10
131.682
 20
44.9407
 30
0.0
 11
130.882
 21
44.9407
 31
0.0
  0
LINE
  8
0
 62
     0
 10
130.882
 20
44.9407
 30
0.0
 11
130.882
 21
41.8412
 31
0.0
  0
LINE
  8
0
 62
     0
 10
130.882
 20
41.8412
 30
0.0
 11
131.682
 21
41.8412
 31
0.0
  0
LINE
  8
0
 62
     0
 10
131.682
 20
41.8412
 30
0.0
 11
131.682
 21
36.0412
 31
0.0
  0
LINE
  8
0
 62
     0
 10
131.682
 20
36.0412
 30
0.0
 11
130.882
 21
36.0412
 31
0.0
  0
LINE
  8
0
 62
     0
 10
130.882
 20
36.0412
 30
0.0
 11
130.882
 21
32.9406
 31
0.0
  0
LINE
  8
0
 62
     0
 10
130.882
 20
32.9406
 30
0.0
 11
131.682
 21
32.9406
 31
0.0
  0
LINE
  8
0
 62
     0
 10
131.682
 20
32.9406
 30
0.0
 11
131.682
 21
31.9402
 31
0.0
  0
LINE
  8
0
 62
     0
 10
131.682
 20
31.9402
 30
0.0
 11
145.682
 21
31.9402
 31
0.0
  0
LINE
  8
0
 62
     0
 10
145.682
 20
31.9402
 30
0.0
 11
145.682
 21
32.9406
 31
0.0
  0
LINE
  8
0
 62
     0
 10
145.682
 20
32.9406
 30
0.0
 11
146.483
 21
32.9406
 31
0.0
  0
LINE
  8
0
 62
     0
 10
146.483
 20
32.9406
 30
0.0
 11
146.483
 21
36.0412
 31
0.0
  0
LINE
  8
0
 62
     0
 10
146.483
 20
36.0412
 30
0.0
 11
145.682
 21
36.0412
 31
0.0
  0
LINE
  8
0
 62
     0
 10
145.682
 20
36.0412
 30
0.0
 11
145.682
 21
41.8412
 31
0.0
  0
LINE
  8
0
 62
     0
 10
145.682
 20
41.8412
 30
0.0
 11
146.483
 21
41.8412
 31
0.0
  0
LINE
  8
0
 62
     0
 10
146.483
 20
41.8412
 30
0.0
 11
146.483
 21
44.9407
 31
0.0
  0
LINE
  8
0
 62
     0
 10
146.483
 20
44.9407
 30
0.0
 11
145.682
 21
44.9407
 31
0.0
  0
LINE
  8
0
 62
     0
 10
145.682
 20
44.9407
 30
0.0
 11
145.682
 21
45.9412
 31
0.0
  0
LINE
  8
0
 62
     0
 10
145.682
 20
45.9412
 30
0.0
 11
131.682
 21
45.9412
 31
0.0
  0
LINE
  8
0
 62
     0
 10
112.632
 20
45.9412
 30
0.0
 11
112.632
 21
44.9407
 31
0.0
  0
LINE
  8
0
 62
     0
 10
112.632
 20
44.9407
 30
0.0
 11
111.832
 21
44.9407
 31
0.0
  0
LINE
  8
0
 62
     0
 10
111.832
 20
44.9407
 30
0.0
 11
111.832
 21
41.8412
 31
0.0
  0
LINE
  8
0
 62
     0
 10
111.832
 20
41.8412
 30
0.0
 11
112.632
 21
41.8412
 31
0.0
  0
LINE
  8
0
 62
     0
 10
112.632
 20
41.8412
 30
0.0
 11
112.632
 21
36.0412
 31
0.0
  0
LINE
  8
0
 62
     0
 10
112.632
 20
36.0412
 30
0.0
 11
111.832
 21
36.0412
 31
0.0
  0
LINE
  8
0
 62
     0
 10
111.832
 20
36.0412
 30
0.0
 11
111.832
 21
32.9406
 31
0.0
  0
LINE
  8
0
 62
     0
 10
111.832
 20
32.9406
 30
0.0
 11
112.632
 21
32.9406
 31
0.0
  0
LINE
  8
0
 62
     0
 10
112.632
 20
32.9406
 30
0.0
 11
112.632
 21
31.9402
 31
0.0
  0
LINE
  8
0
 62
     0
 10
112.632
 20
31.9402
 30
0.0
 11
126.632
 21
31.9402
 31
0.0
  0
LINE
  8
0
 62
     0
 10
126.632
 20
31.9402
 30
0.0
 11
126.632
 21
32.9406
 31
0.0
  0
LINE
  8
0
 62
     0
 10
126.632
 20
32.9406
 30
0.0
 11
127.433
 21
32.9406
 31
0.0
  0
LINE
  8
0
 62
     0
 10
127.433
 20
32.9406
 30
0.0
 11
127.433
 21
36.0412
 31
0.0
  0
LINE
  8
0
 62
     0
 10
127.433
 20
36.0412
 30
0.0
 11
126.632
 21
36.0412
 31
0.0
  0
LINE
  8
0
 62
     0
 10
126.632
 20
36.0412
 30
0.0
 11
126.632
 21
41.8412
 31
0.0
  0
LINE
  8
0
 62
     0
 10
126.632
 20
41.8412
 30
0.0
 11
127.433
 21
41.8412
 31
0.0
  0
LINE
  8
0
 62
     0
 10
127.433
 20
41.8412
 30
0.0
 11
127.433
 21
44.9407
 31
0.0
  0
LINE
  8
0
 62
     0
 10
127.433
 20
44.9407
 30
0.0
 11
126.632
 21
44.9407
 31
0.0
  0
LINE
  8
0
 62
     0
 10
126.632
 20
44.9407
 30
0.0
 11
126.632
 21
45.9412
 31
0.0
  0
LINE
  8
0
 62
     0
 10
126.632
 20
45.9412
 30
0.0
 11
112.632
 21
45.9412
 31
0.0
  0
LINE
  8
0
 62
     0
 10
93.5824
 20
45.9412
 30
0.0
 11
93.5824
 21
44.9407
 31
0.0
  0
LINE
  8
0
 62
     0
 10
93.5824
 20
44.9407
 30
0.0
 11
92.782
 21
44.9407
 31
0.0
  0
LINE
  8
0
 62
     0
 10
92.782
 20
44.9407
 30
0.0
 11
92.782
 21
41.8412
 31
0.0
  0
LINE
  8
0
 62
     0
 10
92.782
 20
41.8412
 30
0.0
 11
93.5824
 21
41.8412
 31
0.0
  0
LINE
  8
0
 62
     0
 10
93.5824
 20
41.8412
 30
0.0
 11
93.5824
 21
36.0412
 31
0.0
  0
LINE
  8
0
 62
     0
 10
93.5824
 20
36.0412
 30
0.0
 11
92.782
 21
36.0412
 31
0.0
  0
LINE
  8
0
 62
     0
 10
92.782
 20
36.0412
 30
0.0
 11
92.782
 21
32.9406
 31
0.0
  0
LINE
  8
0
 62
     0
 10
92.782
 20
32.9406
 30
0.0
 11
93.5824
 21
32.9406
 31
0.0
  0
LINE
  8
0
 62
     0
 10
93.5824
 20
32.9406
 30
0.0
 11
93.5824
 21
31.9402
 31
0.0
  0
LINE
  8
0
 62
     0
 10
93.5824
 20
31.9402
 30
0.0
 11
107.582
 21
31.9402
 31
0.0
  0
LINE
  8
0
 62
     0
 10
107.582
 20
31.9402
 30
0.0
 11
107.582
 21
32.9406
 31
0.0
  0
LINE
  8
0
 62
     0
 10
107.582
 20
32.9406
 30
0.0
 11
108.383
 21
32.9406
 31
0.0
  0
LINE
  8
0
 62
     0
 10
108.383
 20
32.9406
 30
0.0
 11
108.383
 21
36.0412
 31
0.0
  0
LINE
  8
0
 62
     0
 10
108.383
 20
36.0412
 30
0.0
 11
107.582
 21
36.0412
 31
0.0
  0
LINE
  8
0
 62
     0
 10
107.582
 20
36.0412
 30
0.0
 11
107.582
 21
41.8412
 31
0.0
  0
LINE
  8
0
 62
     0
 10
107.582
 20
41.8412
 30
0.0
 11
108.383
 21
41.8412
 31
0.0
  0
LINE
  8
0
 62
     0
 10
108.383
 20
41.8412
 30
0.0
 11
108.383
 21
44.9407
 31
0.0
  0
LINE
  8
0
 62
     0
 10
108.383
 20
44.9407
 30
0.0
 11
107.582
 21
44.9407
 31
0.0
  0
LINE
  8
0
 62
     0
 10
107.582
 20
44.9407
 30
0.0
 11
107.582
 21
45.9412
 31
0.0
  0
LINE
  8
0
 62
     0
 10
107.582
 20
45.9412
 30
0.0
 11
93.5824
 21
45.9412
 31
0.0
  0
LINE
  8
0
 62
     0
 10
74.5324
 20
45.9412
 30
0.0
 11
74.5324
 21
44.9407
 31
0.0
  0
LINE
  8
0
 62
     0
 10
74.5324
 20
44.9407
 30
0.0
 11
73.732
 21
44.9407
 31
0.0
  0
LINE
  8
0
 62
     0
 10
73.732
 20
44.9407
 30
0.0
 11
73.732
 21
41.8412
 31
0.0
  0
LINE
  8
0
 62
     0
 10
73.732
 20
41.8412
 30
0.0
 11
74.5324
 21
41.8412
 31
0.0
  0
LINE
  8
0
 62
     0
 10
74.5324
 20
41.8412
 30
0.0
 11
74.5324
 21
36.0412
 31
0.0
  0
LINE
  8
0
 62
     0
 10
74.5324
 20
36.0412
 30
0.0
 11
73.732
 21
36.0412
 31
0.0
  0
LINE
  8
0
 62
     0
 10
73.732
 20
36.0412
 30
0.0
 11
73.732
 21
32.9406
 31
0.0
  0
LINE
  8
0
 62
     0
 10
73.732
 20
32.9406
 30
0.0
 11
74.5324
 21
32.9406
 31
0.0
  0
LINE
  8
0
 62
     0
 10
74.5324
 20
32.9406
 30
0.0
 11
74.5324
 21
31.9402
 31
0.0
  0
LINE
  8
0
 62
     0
 10
74.5324
 20
31.9402
 30
0.0
 11
88.5321
 21
31.9402
 31
0.0
  0
LINE
  8
0
 62
     0
 10
88.5321
 20
31.9402
 30
0.0
 11
88.5321
 21
32.9406
 31
0.0
  0
LINE
  8
0
 62
     0
 10
88.5321
 20
32.9406
 30
0.0
 11
89.3329
 21
32.9406
 31
0.0
  0
LINE
  8
0
 62
     0
 10
89.3329
 20
32.9406
 30
0.0
 11
89.3329
 21
36.0412
 31
0.0
  0
LINE
  8
0
 62
     0
 10
89.3329
 20
36.0412
 30
0.0
 11
88.5321
 21
36.0412
 31
0.0
  0
LINE
  8
0
 62
     0
 10
88.5321
 20
36.0412
 30
0.0
 11
88.5321
 21
41.8412
 31
0.0
  0
LINE
  8
0
 62
     0
 10
88.5321
 20
41.8412
 30
0.0
 11
89.3329
 21
41.8412
 31
0.0
  0
LINE
  8
0
 62
     0
 10
89.3329
 20
41.8412
 30
0.0
 11
89.3329
 21
44.9407
 31
0.0
  0
LINE
  8
0
 62
     0
 10
89.3329
 20
44.9407
 30
0.0
 11
88.5321
 21
44.9407
 31
0.0
  0
LINE
  8
0
 62
     0
 10
88.5321
 20
44.9407
 30
0.0
 11
88.5321
 21
45.9412
 31
0.0
  0
LINE
  8
0
 62
     0
 10
88.5321
 20
45.9412
 30
0.0
 11
74.5324
 21
45.9412
 31
0.0
  0
LINE
  8
0
 62
     0
 10
55.4824
 20
45.9412
 30
0.0
 11
55.4824
 21
44.9407
 31
0.0
  0
LINE
  8
0
 62
     0
 10
55.4824
 20
44.9407
 30
0.0
 11
54.682
 21
44.9407
 31
0.0
  0
LINE
  8
0
 62
     0
 10
54.682
 20
44.9407
 30
0.0
 11
54.682
 21
41.8412
 31
0.0
  0
LINE
  8
0
 62
     0
 10
54.682
 20
41.8412
 30
0.0
 11
55.4824
 21
41.8412
 31
0.0
  0
LINE
  8
0
 62
     0
 10
55.4824
 20
41.8412
 30
0.0
 11
55.4824
 21
36.0412
 31
0.0
  0
LINE
  8
0
 62
     0
 10
55.4824
 20
36.0412
 30
0.0
 11
54.682
 21
36.0412
 31
0.0
  0
LINE
  8
0
 62
     0
 10
54.682
 20
36.0412
 30
0.0
 11
54.682
 21
32.9406
 31
0.0
  0
LINE
  8
0
 62
     0
 10
54.682
 20
32.9406
 30
0.0
 11
55.4824
 21
32.9406
 31
0.0
  0
LINE
  8
0
 62
     0
 10
55.4824
 20
32.9406
 30
0.0
 11
55.4824
 21
31.9402
 31
0.0
  0
LINE
  8
0
 62
     0
 10
55.4824
 20
31.9402
 30
0.0
 11
69.4821
 21
31.9402
 31
0.0
  0
LINE
  8
0
 62
     0
 10
69.4821
 20
31.9402
 30
0.0
 11
69.4821
 21
32.9406
 31
0.0
  0
LINE
  8
0
 62
     0
 10
69.4821
 20
32.9406
 30
0.0
 11
70.2829
 21
32.9406
 31
0.0
  0
LINE
  8
0
 62
     0
 10
70.2829
 20
32.9406
 30
0.0
 11
70.2829
 21
36.0412
 31
0.0
  0
LINE
  8
0
 62
     0
 10
70.2829
 20
36.0412
 30
0.0
 11
69.4821
 21
36.0412
 31
0.0
  0
LINE
  8
0
 62
     0
 10
69.4821
 20
36.0412
 30
0.0
 11
69.4821
 21
41.8412
 31
0.0
  0
LINE
  8
0
 62
     0
 10
69.4821
 20
41.8412
 30
0.0
 11
70.2829
 21
41.8412
 31
0.0
  0
LINE
  8
0
 62
     0
 10
70.2829
 20
41.8412
 30
0.0
 11
70.2829
 21
44.9407
 31
0.0
  0
LINE
  8
0
 62
     0
 10
70.2829
 20
44.9407
 30
0.0
 11
69.4821
 21
44.9407
 31
0.0
  0
LINE
  8
0
 62
     0
 10
69.4821
 20
44.9407
 30
0.0
 11
69.4821
 21
45.9412
 31
0.0
  0
LINE
  8
0
 62
     0
 10
69.4821
 20
45.9412
 30
0.0
 11
55.4824
 21
45.9412
 31
0.0
  0
LINE
  8
0
 62
     0
 10
267.414
 20
64.9912
 30
0.0
 11
267.414
 21
63.9907
 31
0.0
  0
LINE
  8
0
 62
     0
 10
267.414
 20
63.9907
 30
0.0
 11
266.613
 21
63.9907
 31
0.0
  0
LINE
  8
0
 62
     0
 10
266.613
 20
63.9907
 30
0.0
 11
266.613
 21
60.8902
 31
0.0
  0
LINE
  8
0
 62
     0
 10
266.613
 20
60.8902
 30
0.0
 11
267.414
 21
60.8902
 31
0.0
  0
LINE
  8
0
 62
     0
 10
267.414
 20
60.8902
 30
0.0
 11
267.414
 21
60.2904
 31
0.0
  0
LINE
  8
0
 62
     0
 10
267.414
 20
60.2904
 30
0.0
 11
265.888
 21
60.2904
 31
0.0
  0
LINE
  8
0
 62
     0
 10
265.888
 20
60.2904
 30
0.0
 11
265.888
 21
63.5208
 31
0.0
  0
LINE
  8
0
 62
     0
 10
265.888
 20
63.5208
 30
0.0
 11
264.163
 21
63.5208
 31
0.0
  0
LINE
  8
0
 62
     0
 10
264.163
 20
63.5208
 30
0.0
 11
264.163
 21
64.4412
 31
0.0
  0
LINE
  8
0
 62
     0
 10
264.163
 20
64.4412
 30
0.0
 11
260.864
 21
64.4412
 31
0.0
  0
LINE
  8
0
 62
     0
 10
260.864
 20
64.4412
 30
0.0
 11
260.864
 21
63.5208
 31
0.0
  0
LINE
  8
0
 62
     0
 10
260.864
 20
63.5208
 30
0.0
 11
259.139
 21
63.5208
 31
0.0
  0
LINE
  8
0
 62
     0
 10
259.139
 20
63.5208
 30
0.0
 11
259.139
 21
60.2904
 31
0.0
  0
LINE
  8
0
 62
     0
 10
259.139
 20
60.2904
 30
0.0
 11
258.313
 21
60.2904
 31
0.0
  0
LINE
  8
0
 62
     0
 10
258.313
 20
60.2904
 30
0.0
 11
258.313
 21
57.4904
 31
0.0
  0
LINE
  8
0
 62
     0
 10
258.313
 20
57.4904
 30
0.0
 11
259.139
 21
57.4904
 31
0.0
  0
LINE
  8
0
 62
     0
 10
259.139
 20
57.4904
 30
0.0
 11
259.139
 21
51.2202
 31
0.0
  0
LINE
  8
0
 62
     0
 10
259.139
 20
51.2202
 30
0.0
 11
260.864
 21
51.2202
 31
0.0
  0
LINE
  8
0
 62
     0
 10
260.864
 20
51.2202
 30
0.0
 11
260.864
 21
50.2405
 31
0.0
  0
LINE
  8
0
 62
     0
 10
260.864
 20
50.2405
 30
0.0
 11
264.163
 21
50.2405
 31
0.0
  0
LINE
  8
0
 62
     0
 10
264.163
 20
50.2405
 30
0.0
 11
264.163
 21
51.2202
 31
0.0
  0
LINE
  8
0
 62
     0
 10
264.163
 20
51.2202
 30
0.0
 11
265.888
 21
51.2202
 31
0.0
  0
LINE
  8
0
 62
     0
 10
265.888
 20
51.2202
 30
0.0
 11
265.888
 21
55.6906
 31
0.0
  0
LINE
  8
0
 62
     0
 10
265.888
 20
55.6906
 30
0.0
 11
267.414
 21
55.6906
 31
0.0
  0
LINE
  8
0
 62
     0
 10
267.414
 20
55.6906
 30
0.0
 11
267.414
 21
55.0912
 31
0.0
  0
LINE
  8
0
 62
     0
 10
267.414
 20
55.0912
 30
0.0
 11
266.613
 21
55.0912
 31
0.0
  0
LINE
  8
0
 62
     0
 10
266.613
 20
55.0912
 30
0.0
 11
266.613
 21
51.9906
 31
0.0
  0
LINE
  8
0
 62
     0
 10
266.613
 20
51.9906
 30
0.0
 11
267.414
 21
51.9906
 31
0.0
  0
LINE
  8
0
 62
     0
 10
267.414
 20
51.9906
 30
0.0
 11
267.414
 21
50.9901
 31
0.0
  0
LINE
  8
0
 62
     0
 10
267.414
 20
50.9901
 30
0.0
 11
281.413
 21
50.9901
 31
0.0
  0
LINE
  8
0
 62
     0
 10
281.413
 20
50.9901
 30
0.0
 11
281.413
 21
51.9906
 31
0.0
  0
LINE
  8
0
 62
     0
 10
281.413
 20
51.9906
 30
0.0
 11
282.214
 21
51.9906
 31
0.0
  0
LINE
  8
0
 62
     0
 10
282.214
 20
51.9906
 30
0.0
 11
282.214
 21
55.0912
 31
0.0
  0
LINE
  8
0
 62
     0
 10
282.214
 20
55.0912
 30
0.0
 11
281.413
 21
55.0912
 31
0.0
  0
LINE
  8
0
 62
     0
 10
281.413
 20
55.0912
 30
0.0
 11
281.413
 21
55.6906
 31
0.0
  0
LINE
  8
0
 62
     0
 10
281.413
 20
55.6906
 30
0.0
 11
282.939
 21
55.6906
 31
0.0
  0
LINE
  8
0
 62
     0
 10
282.939
 20
55.6906
 30
0.0
 11
282.939
 21
51.2202
 31
0.0
  0
LINE
  8
0
 62
     0
 10
282.939
 20
51.2202
 30
0.0
 11
284.664
 21
51.2202
 31
0.0
  0
LINE
  8
0
 62
     0
 10
284.664
 20
51.2202
 30
0.0
 11
284.664
 21
50.2405
 31
0.0
  0
LINE
  8
0
 62
     0
 10
284.664
 20
50.2405
 30
0.0
 11
287.963
 21
50.2405
 31
0.0
  0
LINE
  8
0
 62
     0
 10
287.963
 20
50.2405
 30
0.0
 11
287.963
 21
51.2202
 31
0.0
  0
LINE
  8
0
 62
     0
 10
287.963
 20
51.2202
 30
0.0
 11
289.688
 21
51.2202
 31
0.0
  0
LINE
  8
0
 62
     0
 10
289.688
 20
51.2202
 30
0.0
 11
289.688
 21
57.4904
 31
0.0
  0
LINE
  8
0
 62
     0
 10
289.688
 20
57.4904
 30
0.0
 11
290.514
 21
57.4904
 31
0.0
  0
LINE
  8
0
 62
     0
 10
290.514
 20
57.4904
 30
0.0
 11
290.514
 21
60.2904
 31
0.0
  0
LINE
  8
0
 62
     0
 10
290.514
 20
60.2904
 30
0.0
 11
289.688
 21
60.2904
 31
0.0
  0
LINE
  8
0
 62
     0
 10
289.688
 20
60.2904
 30
0.0
 11
289.688
 21
63.5208
 31
0.0
  0
LINE
  8
0
 62
     0
 10
289.688
 20
63.5208
 30
0.0
 11
287.963
 21
63.5208
 31
0.0
  0
LINE
  8
0
 62
     0
 10
287.963
 20
63.5208
 30
0.0
 11
287.963
 21
64.4412
 31
0.0
  0
LINE
  8
0
 62
     0
 10
287.963
 20
64.4412
 30
0.0
 11
284.664
 21
64.4412
 31
0.0
  0
LINE
  8
0
 62
     0
 10
284.664
 20
64.4412
 30
0.0
 11
284.664
 21
63.5208
 31
0.0
  0
LINE
  8
0
 62
     0
 10
284.664
 20
63.5208
 30
0.0
 11
282.939
 21
63.5208
 31
0.0
  0
LINE
  8
0
 62
     0
 10
282.939
 20
63.5208
 30
0.0
 11
282.939
 21
60.2904
 31
0.0
  0
LINE
  8
0
 62
     0
 10
282.939
 20
60.2904
 30
0.0
 11
281.413
 21
60.2904
 31
0.0
  0
LINE
  8
0
 62
     0
 10
281.413
 20
60.2904
 30
0.0
 11
281.413
 21
60.8902
 31
0.0
  0
LINE
  8
0
 62
     0
 10
281.413
 20
60.8902
 30
0.0
 11
282.214
 21
60.8902
 31
0.0
  0
LINE
  8
0
 62
     0
 10
282.214
 20
60.8902
 30
0.0
 11
282.214
 21
63.9907
 31
0.0
  0
LINE
  8
0
 62
     0
 10
282.214
 20
63.9907
 30
0.0
 11
281.413
 21
63.9907
 31
0.0
  0
LINE
  8
0
 62
     0
 10
281.413
 20
63.9907
 30
0.0
 11
281.413
 21
64.9912
 31
0.0
  0
LINE
  8
0
 62
     0
 10
281.413
 20
64.9912
 30
0.0
 11
267.414
 21
64.9912
 31
0.0
  0
LINE
  8
0
 62
     0
 10
236.457
 20
64.9912
 30
0.0
 11
236.457
 21
63.9907
 31
0.0
  0
LINE
  8
0
 62
     0
 10
236.457
 20
63.9907
 30
0.0
 11
235.657
 21
63.9907
 31
0.0
  0
LINE
  8
0
 62
     0
 10
235.657
 20
63.9907
 30
0.0
 11
235.657
 21
60.8902
 31
0.0
  0
LINE
  8
0
 62
     0
 10
235.657
 20
60.8902
 30
0.0
 11
236.457
 21
60.8902
 31
0.0
  0
LINE
  8
0
 62
     0
 10
236.457
 20
60.8902
 30
0.0
 11
236.457
 21
55.0912
 31
0.0
  0
LINE
  8
0
 62
     0
 10
236.457
 20
55.0912
 30
0.0
 11
235.657
 21
55.0912
 31
0.0
  0
LINE
  8
0
 62
     0
 10
235.657
 20
55.0912
 30
0.0
 11
235.657
 21
51.9906
 31
0.0
  0
LINE
  8
0
 62
     0
 10
235.657
 20
51.9906
 30
0.0
 11
236.457
 21
51.9906
 31
0.0
  0
LINE
  8
0
 62
     0
 10
236.457
 20
51.9906
 30
0.0
 11
236.457
 21
50.9901
 31
0.0
  0
LINE
  8
0
 62
     0
 10
236.457
 20
50.9901
 30
0.0
 11
250.457
 21
50.9901
 31
0.0
  0
LINE
  8
0
 62
     0
 10
250.457
 20
50.9901
 30
0.0
 11
250.457
 21
51.9906
 31
0.0
  0
LINE
  8
0
 62
     0
 10
250.457
 20
51.9906
 30
0.0
 11
251.256
 21
51.9906
 31
0.0
  0
LINE
  8
0
 62
     0
 10
251.256
 20
51.9906
 30
0.0
 11
251.256
 21
55.0912
 31
0.0
  0
LINE
  8
0
 62
     0
 10
251.256
 20
55.0912
 30
0.0
 11
250.457
 21
55.0912
 31
0.0
  0
LINE
  8
0
 62
     0
 10
250.457
 20
55.0912
 30
0.0
 11
250.457
 21
60.8902
 31
0.0
  0
LINE
  8
0
 62
     0
 10
250.457
 20
60.8902
 30
0.0
 11
251.256
 21
60.8902
 31
0.0
  0
LINE
  8
0
 62
     0
 10
251.256
 20
60.8902
 30
0.0
 11
251.256
 21
63.9907
 31
0.0
  0
LINE
  8
0
 62
     0
 10
251.256
 20
63.9907
 30
0.0
 11
250.457
 21
63.9907
 31
0.0
  0
LINE
  8
0
 62
     0
 10
250.457
 20
63.9907
 30
0.0
 11
250.457
 21
64.9912
 31
0.0
  0
LINE
  8
0
 62
     0
 10
250.457
 20
64.9912
 30
0.0
 11
236.457
 21
64.9912
 31
0.0
  0
LINE
  8
0
 62
     0
 10
217.407
 20
64.9912
 30
0.0
 11
217.407
 21
63.9907
 31
0.0
  0
LINE
  8
0
 62
     0
 10
217.407
 20
63.9907
 30
0.0
 11
216.607
 21
63.9907
 31
0.0
  0
LINE
  8
0
 62
     0
 10
216.607
 20
63.9907
 30
0.0
 11
216.607
 21
60.8902
 31
0.0
  0
LINE
  8
0
 62
     0
 10
216.607
 20
60.8902
 30
0.0
 11
217.407
 21
60.8902
 31
0.0
  0
LINE
  8
0
 62
     0
 10
217.407
 20
60.8902
 30
0.0
 11
217.407
 21
55.0912
 31
0.0
  0
LINE
  8
0
 62
     0
 10
217.407
 20
55.0912
 30
0.0
 11
216.607
 21
55.0912
 31
0.0
  0
LINE
  8
0
 62
     0
 10
216.607
 20
55.0912
 30
0.0
 11
216.607
 21
51.9906
 31
0.0
  0
LINE
  8
0
 62
     0
 10
216.607
 20
51.9906
 30
0.0
 11
217.407
 21
51.9906
 31
0.0
  0
LINE
  8
0
 62
     0
 10
217.407
 20
51.9906
 30
0.0
 11
217.407
 21
50.9901
 31
0.0
  0
LINE
  8
0
 62
     0
 10
217.407
 20
50.9901
 30
0.0
 11
231.407
 21
50.9901
 31
0.0
  0
LINE
  8
0
 62
     0
 10
231.407
 20
50.9901
 30
0.0
 11
231.407
 21
51.9906
 31
0.0
  0
LINE
  8
0
 62
     0
 10
231.407
 20
51.9906
 30
0.0
 11
232.208
 21
51.9906
 31
0.0
  0
LINE
  8
0
 62
     0
 10
232.208
 20
51.9906
 30
0.0
 11
232.208
 21
55.0912
 31
0.0
  0
LINE
  8
0
 62
     0
 10
232.208
 20
55.0912
 30
0.0
 11
231.407
 21
55.0912
 31
0.0
  0
LINE
  8
0
 62
     0
 10
231.407
 20
55.0912
 30
0.0
 11
231.407
 21
60.8902
 31
0.0
  0
LINE
  8
0
 62
     0
 10
231.407
 20
60.8902
 30
0.0
 11
232.208
 21
60.8902
 31
0.0
  0
LINE
  8
0
 62
     0
 10
232.208
 20
60.8902
 30
0.0
 11
232.208
 21
63.9907
 31
0.0
  0
LINE
  8
0
 62
     0
 10
232.208
 20
63.9907
 30
0.0
 11
231.407
 21
63.9907
 31
0.0
  0
LINE
  8
0
 62
     0
 10
231.407
 20
63.9907
 30
0.0
 11
231.407
 21
64.9912
 31
0.0
  0
LINE
  8
0
 62
     0
 10
231.407
 20
64.9912
 30
0.0
 11
217.407
 21
64.9912
 31
0.0
  0
LINE
  8
0
 62
     0
 10
198.357
 20
64.9912
 30
0.0
 11
198.357
 21
63.9907
 31
0.0
  0
LINE
  8
0
 62
     0
 10
198.357
 20
63.9907
 30
0.0
 11
197.557
 21
63.9907
 31
0.0
  0
LINE
  8
0
 62
     0
 10
197.557
 20
63.9907
 30
0.0
 11
197.557
 21
60.8902
 31
0.0
  0
LINE
  8
0
 62
     0
 10
197.557
 20
60.8902
 30
0.0
 11
198.357
 21
60.8902
 31
0.0
  0
LINE
  8
0
 62
     0
 10
198.357
 20
60.8902
 30
0.0
 11
198.357
 21
55.0912
 31
0.0
  0
LINE
  8
0
 62
     0
 10
198.357
 20
55.0912
 30
0.0
 11
197.557
 21
55.0912
 31
0.0
  0
LINE
  8
0
 62
     0
 10
197.557
 20
55.0912
 30
0.0
 11
197.557
 21
51.9906
 31
0.0
  0
LINE
  8
0
 62
     0
 10
197.557
 20
51.9906
 30
0.0
 11
198.357
 21
51.9906
 31
0.0
  0
LINE
  8
0
 62
     0
 10
198.357
 20
51.9906
 30
0.0
 11
198.357
 21
50.9901
 31
0.0
  0
LINE
  8
0
 62
     0
 10
198.357
 20
50.9901
 30
0.0
 11
212.357
 21
50.9901
 31
0.0
  0
LINE
  8
0
 62
     0
 10
212.357
 20
50.9901
 30
0.0
 11
212.357
 21
51.9906
 31
0.0
  0
LINE
  8
0
 62
     0
 10
212.357
 20
51.9906
 30
0.0
 11
213.158
 21
51.9906
 31
0.0
  0
LINE
  8
0
 62
     0
 10
213.158
 20
51.9906
 30
0.0
 11
213.158
 21
55.0912
 31
0.0
  0
LINE
  8
0
 62
     0
 10
213.158
 20
55.0912
 30
0.0
 11
212.357
 21
55.0912
 31
0.0
  0
LINE
  8
0
 62
     0
 10
212.357
 20
55.0912
 30
0.0
 11
212.357
 21
60.8902
 31
0.0
  0
LINE
  8
0
 62
     0
 10
212.357
 20
60.8902
 30
0.0
 11
213.158
 21
60.8902
 31
0.0
  0
LINE
  8
0
 62
     0
 10
213.158
 20
60.8902
 30
0.0
 11
213.158
 21
63.9907
 31
0.0
  0
LINE
  8
0
 62
     0
 10
213.158
 20
63.9907
 30
0.0
 11
212.357
 21
63.9907
 31
0.0
  0
LINE
  8
0
 62
     0
 10
212.357
 20
63.9907
 30
0.0
 11
212.357
 21
64.9912
 31
0.0
  0
LINE
  8
0
 62
     0
 10
212.357
 20
64.9912
 30
0.0
 11
198.357
 21
64.9912
 31
0.0
  0
LINE
  8
0
 62
     0
 10
179.307
 20
64.9912
 30
0.0
 11
179.307
 21
63.9907
 31
0.0
  0
LINE
  8
0
 62
     0
 10
179.307
 20
63.9907
 30
0.0
 11
178.507
 21
63.9907
 31
0.0
  0
LINE
  8
0
 62
     0
 10
178.507
 20
63.9907
 30
0.0
 11
178.507
 21
60.8902
 31
0.0
  0
LINE
  8
0
 62
     0
 10
178.507
 20
60.8902
 30
0.0
 11
179.307
 21
60.8902
 31
0.0
  0
LINE
  8
0
 62
     0
 10
179.307
 20
60.8902
 30
0.0
 11
179.307
 21
55.0912
 31
0.0
  0
LINE
  8
0
 62
     0
 10
179.307
 20
55.0912
 30
0.0
 11
178.507
 21
55.0912
 31
0.0
  0
LINE
  8
0
 62
     0
 10
178.507
 20
55.0912
 30
0.0
 11
178.507
 21
51.9906
 31
0.0
  0
LINE
  8
0
 62
     0
 10
178.507
 20
51.9906
 30
0.0
 11
179.307
 21
51.9906
 31
0.0
  0
LINE
  8
0
 62
     0
 10
179.307
 20
51.9906
 30
0.0
 11
179.307
 21
50.9901
 31
0.0
  0
LINE
  8
0
 62
     0
 10
179.307
 20
50.9901
 30
0.0
 11
193.307
 21
50.9901
 31
0.0
  0
LINE
  8
0
 62
     0
 10
193.307
 20
50.9901
 30
0.0
 11
193.307
 21
51.9906
 31
0.0
  0
LINE
  8
0
 62
     0
 10
193.307
 20
51.9906
 30
0.0
 11
194.108
 21
51.9906
 31
0.0
  0
LINE
  8
0
 62
     0
 10
194.108
 20
51.9906
 30
0.0
 11
194.108
 21
55.0912
 31
0.0
  0
LINE
  8
0
 62
     0
 10
194.108
 20
55.0912
 30
0.0
 11
193.307
 21
55.0912
 31
0.0
  0
LINE
  8
0
 62
     0
 10
193.307
 20
55.0912
 30
0.0
 11
193.307
 21
60.8902
 31
0.0
  0
LINE
  8
0
 62
     0
 10
193.307
 20
60.8902
 30
0.0
 11
194.108
 21
60.8902
 31
0.0
  0
LINE
  8
0
 62
     0
 10
194.108
 20
60.8902
 30
0.0
 11
194.108
 21
63.9907
 31
0.0
  0
LINE
  8
0
 62
     0
 10
194.108
 20
63.9907
 30
0.0
 11
193.307
 21
63.9907
 31
0.0
  0
LINE
  8
0
 62
     0
 10
193.307
 20
63.9907
 30
0.0
 11
193.307
 21
64.9912
 31
0.0
  0
LINE
  8
0
 62
     0
 10
193.307
 20
64.9912
 30
0.0
 11
179.307
 21
64.9912
 31
0.0
  0
LINE
  8
0
 62
     0
 10
160.257
 20
64.9912
 30
0.0
 11
160.257
 21
63.9907
 31
0.0
  0
LINE
  8
0
 62
     0
 10
160.257
 20
63.9907
 30
0.0
 11
159.457
 21
63.9907
 31
0.0
  0
LINE
  8
0
 62
     0
 10
159.457
 20
63.9907
 30
0.0
 11
159.457
 21
60.8902
 31
0.0
  0
LINE
  8
0
 62
     0
 10
159.457
 20
60.8902
 30
0.0
 11
160.257
 21
60.8902
 31
0.0
  0
LINE
  8
0
 62
     0
 10
160.257
 20
60.8902
 30
0.0
 11
160.257
 21
55.0912
 31
0.0
  0
LINE
  8
0
 62
     0
 10
160.257
 20
55.0912
 30
0.0
 11
159.457
 21
55.0912
 31
0.0
  0
LINE
  8
0
 62
     0
 10
159.457
 20
55.0912
 30
0.0
 11
159.457
 21
51.9906
 31
0.0
  0
LINE
  8
0
 62
     0
 10
159.457
 20
51.9906
 30
0.0
 11
160.257
 21
51.9906
 31
0.0
  0
LINE
  8
0
 62
     0
 10
160.257
 20
51.9906
 30
0.0
 11
160.257
 21
50.9901
 31
0.0
  0
LINE
  8
0
 62
     0
 10
160.257
 20
50.9901
 30
0.0
 11
174.257
 21
50.9901
 31
0.0
  0
LINE
  8
0
 62
     0
 10
174.257
 20
50.9901
 30
0.0
 11
174.257
 21
51.9906
 31
0.0
  0
LINE
  8
0
 62
     0
 10
174.257
 20
51.9906
 30
0.0
 11
175.058
 21
51.9906
 31
0.0
  0
LINE
  8
0
 62
     0
 10
175.058
 20
51.9906
 30
0.0
 11
175.058
 21
55.0912
 31
0.0
  0
LINE
  8
0
 62
     0
 10
175.058
 20
55.0912
 30
0.0
 11
174.257
 21
55.0912
 31
0.0
  0
LINE
  8
0
 62
     0
 10
174.257
 20
55.0912
 30
0.0
 11
174.257
 21
60.8902
 31
0.0
  0
LINE
  8
0
 62
     0
 10
174.257
 20
60.8902
 30
0.0
 11
175.058
 21
60.8902
 31
0.0
  0
LINE
  8
0
 62
     0
 10
175.058
 20
60.8902
 30
0.0
 11
175.058
 21
63.9907
 31
0.0
  0
LINE
  8
0
 62
     0
 10
175.058
 20
63.9907
 30
0.0
 11
174.257
 21
63.9907
 31
0.0
  0
LINE
  8
0
 62
     0
 10
174.257
 20
63.9907
 30
0.0
 11
174.257
 21
64.9912
 31
0.0
  0
LINE
  8
0
 62
     0
 10
174.257
 20
64.9912
 30
0.0
 11
160.257
 21
64.9912
 31
0.0
  0
LINE
  8
0
 62
     0
 10
141.207
 20
64.9912
 30
0.0
 11
141.207
 21
63.9907
 31
0.0
  0
LINE
  8
0
 62
     0
 10
141.207
 20
63.9907
 30
0.0
 11
140.407
 21
63.9907
 31
0.0
  0
LINE
  8
0
 62
     0
 10
140.407
 20
63.9907
 30
0.0
 11
140.407
 21
60.8902
 31
0.0
  0
LINE
  8
0
 62
     0
 10
140.407
 20
60.8902
 30
0.0
 11
141.207
 21
60.8902
 31
0.0
  0
LINE
  8
0
 62
     0
 10
141.207
 20
60.8902
 30
0.0
 11
141.207
 21
55.0912
 31
0.0
  0
LINE
  8
0
 62
     0
 10
141.207
 20
55.0912
 30
0.0
 11
140.407
 21
55.0912
 31
0.0
  0
LINE
  8
0
 62
     0
 10
140.407
 20
55.0912
 30
0.0
 11
140.407
 21
51.9906
 31
0.0
  0
LINE
  8
0
 62
     0
 10
140.407
 20
51.9906
 30
0.0
 11
141.207
 21
51.9906
 31
0.0
  0
LINE
  8
0
 62
     0
 10
141.207
 20
51.9906
 30
0.0
 11
141.207
 21
50.9901
 31
0.0
  0
LINE
  8
0
 62
     0
 10
141.207
 20
50.9901
 30
0.0
 11
155.207
 21
50.9901
 31
0.0
  0
LINE
  8
0
 62
     0
 10
155.207
 20
50.9901
 30
0.0
 11
155.207
 21
51.9906
 31
0.0
  0
LINE
  8
0
 62
     0
 10
155.207
 20
51.9906
 30
0.0
 11
156.008
 21
51.9906
 31
0.0
  0
LINE
  8
0
 62
     0
 10
156.008
 20
51.9906
 30
0.0
 11
156.008
 21
55.0912
 31
0.0
  0
LINE
  8
0
 62
     0
 10
156.008
 20
55.0912
 30
0.0
 11
155.207
 21
55.0912
 31
0.0
  0
LINE
  8
0
 62
     0
 10
155.207
 20
55.0912
 30
0.0
 11
155.207
 21
60.8902
 31
0.0
  0
LINE
  8
0
 62
     0
 10
155.207
 20
60.8902
 30
0.0
 11
156.008
 21
60.8902
 31
0.0
  0
LINE
  8
0
 62
     0
 10
156.008
 20
60.8902
 30
0.0
 11
156.008
 21
63.9907
 31
0.0
  0
LINE
  8
0
 62
     0
 10
156.008
 20
63.9907
 30
0.0
 11
155.207
 21
63.9907
 31
0.0
  0
LINE
  8
0
 62
     0
 10
155.207
 20
63.9907
 30
0.0
 11
155.207
 21
64.9912
 31
0.0
  0
LINE
  8
0
 62
     0
 10
155.207
 20
64.9912
 30
0.0
 11
141.207
 21
64.9912
 31
0.0
  0
LINE
  8
0
 62
     0
 10
122.157
 20
64.9912
 30
0.0
 11
122.157
 21
63.9907
 31
0.0
  0
LINE
  8
0
 62
     0
 10
122.157
 20
63.9907
 30
0.0
 11
121.357
 21
63.9907
 31
0.0
  0
LINE
  8
0
 62
     0
 10
121.357
 20
63.9907
 30
0.0
 11
121.357
 21
60.8902
 31
0.0
  0
LINE
  8
0
 62
     0
 10
121.357
 20
60.8902
 30
0.0
 11
122.157
 21
60.8902
 31
0.0
  0
LINE
  8
0
 62
     0
 10
122.157
 20
60.8902
 30
0.0
 11
122.157
 21
55.0912
 31
0.0
  0
LINE
  8
0
 62
     0
 10
122.157
 20
55.0912
 30
0.0
 11
121.357
 21
55.0912
 31
0.0
  0
LINE
  8
0
 62
     0
 10
121.357
 20
55.0912
 30
0.0
 11
121.357
 21
51.9906
 31
0.0
  0
LINE
  8
0
 62
     0
 10
121.357
 20
51.9906
 30
0.0
 11
122.157
 21
51.9906
 31
0.0
  0
LINE
  8
0
 62
     0
 10
122.157
 20
51.9906
 30
0.0
 11
122.157
 21
50.9901
 31
0.0
  0
LINE
  8
0
 62
     0
 10
122.157
 20
50.9901
 30
0.0
 11
136.157
 21
50.9901
 31
0.0
  0
LINE
  8
0
 62
     0
 10
136.157
 20
50.9901
 30
0.0
 11
136.157
 21
51.9906
 31
0.0
  0
LINE
  8
0
 62
     0
 10
136.157
 20
51.9906
 30
0.0
 11
136.958
 21
51.9906
 31
0.0
  0
LINE
  8
0
 62
     0
 10
136.958
 20
51.9906
 30
0.0
 11
136.958
 21
55.0912
 31
0.0
  0
LINE
  8
0
 62
     0
 10
136.958
 20
55.0912
 30
0.0
 11
136.157
 21
55.0912
 31
0.0
  0
LINE
  8
0
 62
     0
 10
136.157
 20
55.0912
 30
0.0
 11
136.157
 21
60.8902
 31
0.0
  0
LINE
  8
0
 62
     0
 10
136.157
 20
60.8902
 30
0.0
 11
136.958
 21
60.8902
 31
0.0
  0
LINE
  8
0
 62
     0
 10
136.958
 20
60.8902
 30
0.0
 11
136.958
 21
63.9907
 31
0.0
  0
LINE
  8
0
 62
     0
 10
136.958
 20
63.9907
 30
0.0
 11
136.157
 21
63.9907
 31
0.0
  0
LINE
  8
0
 62
     0
 10
136.157
 20
63.9907
 30
0.0
 11
136.157
 21
64.9912
 31
0.0
  0
LINE
  8
0
 62
     0
 10
136.157
 20
64.9912
 30
0.0
 11
122.157
 21
64.9912
 31
0.0
  0
LINE
  8
0
 62
     0
 10
103.107
 20
64.9912
 30
0.0
 11
103.107
 21
63.9907
 31
0.0
  0
LINE
  8
0
 62
     0
 10
103.107
 20
63.9907
 30
0.0
 11
102.307
 21
63.9907
 31
0.0
  0
LINE
  8
0
 62
     0
 10
102.307
 20
63.9907
 30
0.0
 11
102.307
 21
60.8902
 31
0.0
  0
LINE
  8
0
 62
     0
 10
102.307
 20
60.8902
 30
0.0
 11
103.107
 21
60.8902
 31
0.0
  0
LINE
  8
0
 62
     0
 10
103.107
 20
60.8902
 30
0.0
 11
103.107
 21
55.0912
 31
0.0
  0
LINE
  8
0
 62
     0
 10
103.107
 20
55.0912
 30
0.0
 11
102.307
 21
55.0912
 31
0.0
  0
LINE
  8
0
 62
     0
 10
102.307
 20
55.0912
 30
0.0
 11
102.307
 21
51.9906
 31
0.0
  0
LINE
  8
0
 62
     0
 10
102.307
 20
51.9906
 30
0.0
 11
103.107
 21
51.9906
 31
0.0
  0
LINE
  8
0
 62
     0
 10
103.107
 20
51.9906
 30
0.0
 11
103.107
 21
50.9901
 31
0.0
  0
LINE
  8
0
 62
     0
 10
103.107
 20
50.9901
 30
0.0
 11
117.107
 21
50.9901
 31
0.0
  0
LINE
  8
0
 62
     0
 10
117.107
 20
50.9901
 30
0.0
 11
117.107
 21
51.9906
 31
0.0
  0
LINE
  8
0
 62
     0
 10
117.107
 20
51.9906
 30
0.0
 11
117.908
 21
51.9906
 31
0.0
  0
LINE
  8
0
 62
     0
 10
117.908
 20
51.9906
 30
0.0
 11
117.908
 21
55.0912
 31
0.0
  0
LINE
  8
0
 62
     0
 10
117.908
 20
55.0912
 30
0.0
 11
117.107
 21
55.0912
 31
0.0
  0
LINE
  8
0
 62
     0
 10
117.107
 20
55.0912
 30
0.0
 11
117.107
 21
60.8902
 31
0.0
  0
LINE
  8
0
 62
     0
 10
117.107
 20
60.8902
 30
0.0
 11
117.908
 21
60.8902
 31
0.0
  0
LINE
  8
0
 62
     0
 10
117.908
 20
60.8902
 30
0.0
 11
117.908
 21
63.9907
 31
0.0
  0
LINE
  8
0
 62
     0
 10
117.908
 20
63.9907
 30
0.0
 11
117.107
 21
63.9907
 31
0.0
  0
LINE
  8
0
 62
     0
 10
117.107
 20
63.9907
 30
0.0
 11
117.107
 21
64.9912
 31
0.0
  0
LINE
  8
0
 62
     0
 10
117.107
 20
64.9912
 30
0.0
 11
103.107
 21
64.9912
 31
0.0
  0
LINE
  8
0
 62
     0
 10
84.0574
 20
64.9912
 30
0.0
 11
84.0574
 21
63.9907
 31
0.0
  0
LINE
  8
0
 62
     0
 10
84.0574
 20
63.9907
 30
0.0
 11
83.257
 21
63.9907
 31
0.0
  0
LINE
  8
0
 62
     0
 10
83.257
 20
63.9907
 30
0.0
 11
83.257
 21
60.8902
 31
0.0
  0
LINE
  8
0
 62
     0
 10
83.257
 20
60.8902
 30
0.0
 11
84.0574
 21
60.8902
 31
0.0
  0
LINE
  8
0
 62
     0
 10
84.0574
 20
60.8902
 30
0.0
 11
84.0574
 21
55.0912
 31
0.0
  0
LINE
  8
0
 62
     0
 10
84.0574
 20
55.0912
 30
0.0
 11
83.257
 21
55.0912
 31
0.0
  0
LINE
  8
0
 62
     0
 10
83.257
 20
55.0912
 30
0.0
 11
83.257
 21
51.9906
 31
0.0
  0
LINE
  8
0
 62
     0
 10
83.257
 20
51.9906
 30
0.0
 11
84.0574
 21
51.9906
 31
0.0
  0
LINE
  8
0
 62
     0
 10
84.0574
 20
51.9906
 30
0.0
 11
84.0574
 21
50.9901
 31
0.0
  0
LINE
  8
0
 62
     0
 10
84.0574
 20
50.9901
 30
0.0
 11
98.0571
 21
50.9901
 31
0.0
  0
LINE
  8
0
 62
     0
 10
98.0571
 20
50.9901
 30
0.0
 11
98.0571
 21
51.9906
 31
0.0
  0
LINE
  8
0
 62
     0
 10
98.0571
 20
51.9906
 30
0.0
 11
98.8579
 21
51.9906
 31
0.0
  0
LINE
  8
0
 62
     0
 10
98.8579
 20
51.9906
 30
0.0
 11
98.8579
 21
55.0912
 31
0.0
  0
LINE
  8
0
 62
     0
 10
98.8579
 20
55.0912
 30
0.0
 11
98.0571
 21
55.0912
 31
0.0
  0
LINE
  8
0
 62
     0
 10
98.0571
 20
55.0912
 30
0.0
 11
98.0571
 21
60.8902
 31
0.0
  0
LINE
  8
0
 62
     0
 10
98.0571
 20
60.8902
 30
0.0
 11
98.8579
 21
60.8902
 31
0.0
  0
LINE
  8
0
 62
     0
 10
98.8579
 20
60.8902
 30
0.0
 11
98.8579
 21
63.9907
 31
0.0
  0
LINE
  8
0
 62
     0
 10
98.8579
 20
63.9907
 30
0.0
 11
98.0571
 21
63.9907
 31
0.0
  0
LINE
  8
0
 62
     0
 10
98.0571
 20
63.9907
 30
0.0
 11
98.0571
 21
64.9912
 31
0.0
  0
LINE
  8
0
 62
     0
 10
98.0571
 20
64.9912
 30
0.0
 11
84.0574
 21
64.9912
 31
0.0
  0
LINE
  8
0
 62
     0
 10
65.0074
 20
64.9912
 30
0.0
 11
65.0074
 21
63.9907
 31
0.0
  0
LINE
  8
0
 62
     0
 10
65.0074
 20
63.9907
 30
0.0
 11
64.207
 21
63.9907
 31
0.0
  0
LINE
  8
0
 62
     0
 10
64.207
 20
63.9907
 30
0.0
 11
64.207
 21
60.8902
 31
0.0
  0
LINE
  8
0
 62
     0
 10
64.207
 20
60.8902
 30
0.0
 11
65.0074
 21
60.8902
 31
0.0
  0
LINE
  8
0
 62
     0
 10
65.0074
 20
60.8902
 30
0.0
 11
65.0074
 21
55.0912
 31
0.0
  0
LINE
  8
0
 62
     0
 10
65.0074
 20
55.0912
 30
0.0
 11
64.207
 21
55.0912
 31
0.0
  0
LINE
  8
0
 62
     0
 10
64.207
 20
55.0912
 30
0.0
 11
64.207
 21
51.9906
 31
0.0
  0
LINE
  8
0
 62
     0
 10
64.207
 20
51.9906
 30
0.0
 11
65.0074
 21
51.9906
 31
0.0
  0
LINE
  8
0
 62
     0
 10
65.0074
 20
51.9906
 30
0.0
 11
65.0074
 21
50.9901
 31
0.0
  0
LINE
  8
0
 62
     0
 10
65.0074
 20
50.9901
 30
0.0
 11
79.0071
 21
50.9901
 31
0.0
  0
LINE
  8
0
 62
     0
 10
79.0071
 20
50.9901
 30
0.0
 11
79.0071
 21
51.9906
 31
0.0
  0
LINE
  8
0
 62
     0
 10
79.0071
 20
51.9906
 30
0.0
 11
79.8079
 21
51.9906
 31
0.0
  0
LINE
  8
0
 62
     0
 10
79.8079
 20
51.9906
 30
0.0
 11
79.8079
 21
55.0912
 31
0.0
  0
LINE
  8
0
 62
     0
 10
79.8079
 20
55.0912
 30
0.0
 11
79.0071
 21
55.0912
 31
0.0
  0
LINE
  8
0
 62
     0
 10
79.0071
 20
55.0912
 30
0.0
 11
79.0071
 21
60.8902
 31
0.0
  0
LINE
  8
0
 62
     0
 10
79.0071
 20
60.8902
 30
0.0
 11
79.8079
 21
60.8902
 31
0.0
  0
LINE
  8
0
 62
     0
 10
79.8079
 20
60.8902
 30
0.0
 11
79.8079
 21
63.9907
 31
0.0
  0
LINE
  8
0
 62
     0
 10
79.8079
 20
63.9907
 30
0.0
 11
79.0071
 21
63.9907
 31
0.0
  0
LINE
  8
0
 62
     0
 10
79.0071
 20
63.9907
 30
0.0
 11
79.0071
 21
64.9912
 31
0.0
  0
LINE
  8
0
 62
     0
 10
79.0071
 20
64.9912
 30
0.0
 11
65.0074
 21
64.9912
 31
0.0
  0
LINE
  8
0
 62
     0
 10
45.9574
 20
64.9912
 30
0.0
 11
45.9574
 21
63.9907
 31
0.0
  0
LINE
  8
0
 62
     0
 10
45.9574
 20
63.9907
 30
0.0
 11
45.157
 21
63.9907
 31
0.0
  0
LINE
  8
0
 62
     0
 10
45.157
 20
63.9907
 30
0.0
 11
45.157
 21
60.8902
 31
0.0
  0
LINE
  8
0
 62
     0
 10
45.157
 20
60.8902
 30
0.0
 11
45.9574
 21
60.8902
 31
0.0
  0
LINE
  8
0
 62
     0
 10
45.9574
 20
60.8902
 30
0.0
 11
45.9574
 21
55.0912
 31
0.0
  0
LINE
  8
0
 62
     0
 10
45.9574
 20
55.0912
 30
0.0
 11
45.157
 21
55.0912
 31
0.0
  0
LINE
  8
0
 62
     0
 10
45.157
 20
55.0912
 30
0.0
 11
45.157
 21
51.9906
 31
0.0
  0
LINE
  8
0
 62
     0
 10
45.157
 20
51.9906
 30
0.0
 11
45.9574
 21
51.9906
 31
0.0
  0
LINE
  8
0
 62
     0
 10
45.9574
 20
51.9906
 30
0.0
 11
45.9574
 21
50.9901
 31
0.0
  0
LINE
  8
0
 62
     0
 10
45.9574
 20
50.9901
 30
0.0
 11
59.9571
 21
50.9901
 31
0.0
  0
LINE
  8
0
 62
     0
 10
59.9571
 20
50.9901
 30
0.0
 11
59.9571
 21
51.9906
 31
0.0
  0
LINE
  8
0
 62
     0
 10
59.9571
 20
51.9906
 30
0.0
 11
60.7579
 21
51.9906
 31
0.0
  0
LINE
  8
0
 62
     0
 10
60.7579
 20
51.9906
 30
0.0
 11
60.7579
 21
55.0912
 31
0.0
  0
LINE
  8
0
 62
     0
 10
60.7579
 20
55.0912
 30
0.0
 11
59.9571
 21
55.0912
 31
0.0
  0
LINE
  8
0
 62
     0
 10
59.9571
 20
55.0912
 30
0.0
 11
59.9571
 21
60.8902
 31
0.0
  0
LINE
  8
0
 62
     0
 10
59.9571
 20
60.8902
 30
0.0
 11
60.7579
 21
60.8902
 31
0.0
  0
LINE
  8
0
 62
     0
 10
60.7579
 20
60.8902
 30
0.0
 11
60.7579
 21
63.9907
 31
0.0
  0
LINE
  8
0
 62
     0
 10
60.7579
 20
63.9907
 30
0.0
 11
59.9571
 21
63.9907
 31
0.0
  0
LINE
  8
0
 62
     0
 10
59.9571
 20
63.9907
 30
0.0
 11
59.9571
 21
64.9912
 31
0.0
  0
LINE
  8
0
 62
     0
 10
59.9571
 20
64.9912
 30
0.0
 11
45.9574
 21
64.9912
 31
0.0
  0
LINE
  8
0
 62
     0
 10
19.7638
 20
64.9912
 30
0.0
 11
19.7638
 21
63.9907
 31
0.0
  0
LINE
  8
0
 62
     0
 10
19.7638
 20
63.9907
 30
0.0
 11
18.9632
 21
63.9907
 31
0.0
  0
LINE
  8
0
 62
     0
 10
18.9632
 20
63.9907
 30
0.0
 11
18.9632
 21
60.8902
 31
0.0
  0
LINE
  8
0
 62
     0
 10
18.9632
 20
60.8902
 30
0.0
 11
19.7638
 21
60.8902
 31
0.0
  0
LINE
  8
0
 62
     0
 10
19.7638
 20
60.8902
 30
0.0
 11
19.7638
 21
55.0912
 31
0.0
  0
LINE
  8
0
 62
     0
 10
19.7638
 20
55.0912
 30
0.0
 11
18.9632
 21
55.0912
 31
0.0
  0
LINE
  8
0
 62
     0
 10
18.9632
 20
55.0912
 30
0.0
 11
18.9632
 21
51.9906
 31
0.0
  0
LINE
  8
0
 62
     0
 10
18.9632
 20
51.9906
 30
0.0
 11
19.7638
 21
51.9906
 31
0.0
  0
LINE
  8
0
 62
     0
 10
19.7638
 20
51.9906
 30
0.0
 11
19.7638
 21
50.9901
 31
0.0
  0
LINE
  8
0
 62
     0
 10
19.7638
 20
50.9901
 30
0.0
 11
33.7633
 21
50.9901
 31
0.0
  0
LINE
  8
0
 62
     0
 10
33.7633
 20
50.9901
 30
0.0
 11
33.7633
 21
51.9906
 31
0.0
  0
LINE
  8
0
 62
     0
 10
33.7633
 20
51.9906
 30
0.0
 11
34.564
 21
51.9906
 31
0.0
  0
LINE
  8
0
 62
     0
 10
34.564
 20
51.9906
 30
0.0
 11
34.564
 21
55.0912
 31
0.0
  0
LINE
  8
0
 62
     0
 10
34.564
 20
55.0912
 30
0.0
 11
33.7633
 21
55.0912
 31
0.0
  0
LINE
  8
0
 62
     0
 10
33.7633
 20
55.0912
 30
0.0
 11
33.7633
 21
60.8902
 31
0.0
  0
LINE
  8
0
 62
     0
 10
33.7633
 20
60.8902
 30
0.0
 11
34.564
 21
60.8902
 31
0.0
  0
LINE
  8
0
 62
     0
 10
34.564
 20
60.8902
 30
0.0
 11
34.564
 21
63.9907
 31
0.0
  0
LINE
  8
0
 62
     0
 10
34.564
 20
63.9907
 30
0.0
 11
33.7633
 21
63.9907
 31
0.0
  0
LINE
  8
0
 62
     0
 10
33.7633
 20
63.9907
 30
0.0
 11
33.7633
 21
64.9912
 31
0.0
  0
LINE
  8
0
 62
     0
 10
33.7633
 20
64.9912
 30
0.0
 11
19.7638
 21
64.9912
 31
0.0
  0
LINE
  8
0
 62
     0
 10
322.182
 20
84.0412
 30
0.0
 11
322.182
 21
83.0407
 31
0.0
  0
LINE
  8
0
 62
     0
 10
322.182
 20
83.0407
 30
0.0
 11
321.382
 21
83.0407
 31
0.0
  0
LINE
  8
0
 62
     0
 10
321.382
 20
83.0407
 30
0.0
 11
321.382
 21
79.9402
 31
0.0
  0
LINE
  8
0
 62
     0
 10
321.382
 20
79.9402
 30
0.0
 11
322.182
 21
79.9402
 31
0.0
  0
LINE
  8
0
 62
     0
 10
322.182
 20
79.9402
 30
0.0
 11
322.182
 21
74.1412
 31
0.0
  0
LINE
  8
0
 62
     0
 10
322.182
 20
74.1412
 30
0.0
 11
321.382
 21
74.1412
 31
0.0
  0
LINE
  8
0
 62
     0
 10
321.382
 20
74.1412
 30
0.0
 11
321.382
 21
71.0406
 31
0.0
  0
LINE
  8
0
 62
     0
 10
321.382
 20
71.0406
 30
0.0
 11
322.182
 21
71.0406
 31
0.0
  0
LINE
  8
0
 62
     0
 10
322.182
 20
71.0406
 30
0.0
 11
322.182
 21
70.0401
 31
0.0
  0
LINE
  8
0
 62
     0
 10
322.182
 20
70.0401
 30
0.0
 11
336.182
 21
70.0401
 31
0.0
  0
LINE
  8
0
 62
     0
 10
336.182
 20
70.0401
 30
0.0
 11
336.182
 21
71.0406
 31
0.0
  0
LINE
  8
0
 62
     0
 10
336.182
 20
71.0406
 30
0.0
 11
336.983
 21
71.0406
 31
0.0
  0
LINE
  8
0
 62
     0
 10
336.983
 20
71.0406
 30
0.0
 11
336.983
 21
74.1412
 31
0.0
  0
LINE
  8
0
 62
     0
 10
336.983
 20
74.1412
 30
0.0
 11
336.182
 21
74.1412
 31
0.0
  0
LINE
  8
0
 62
     0
 10
336.182
 20
74.1412
 30
0.0
 11
336.182
 21
79.9402
 31
0.0
  0
LINE
  8
0
 62
     0
 10
336.182
 20
79.9402
 30
0.0
 11
336.983
 21
79.9402
 31
0.0
  0
LINE
  8
0
 62
     0
 10
336.983
 20
79.9402
 30
0.0
 11
336.983
 21
83.0407
 31
0.0
  0
LINE
  8
0
 62
     0
 10
336.983
 20
83.0407
 30
0.0
 11
336.182
 21
83.0407
 31
0.0
  0
LINE
  8
0
 62
     0
 10
336.182
 20
83.0407
 30
0.0
 11
336.182
 21
84.0412
 31
0.0
  0
LINE
  8
0
 62
     0
 10
336.182
 20
84.0412
 30
0.0
 11
322.182
 21
84.0412
 31
0.0
  0
LINE
  8
0
 62
     0
 10
303.132
 20
84.0412
 30
0.0
 11
303.132
 21
83.0407
 31
0.0
  0
LINE
  8
0
 62
     0
 10
303.132
 20
83.0407
 30
0.0
 11
302.332
 21
83.0407
 31
0.0
  0
LINE
  8
0
 62
     0
 10
302.332
 20
83.0407
 30
0.0
 11
302.332
 21
79.9402
 31
0.0
  0
LINE
  8
0
 62
     0
 10
302.332
 20
79.9402
 30
0.0
 11
303.132
 21
79.9402
 31
0.0
  0
LINE
  8
0
 62
     0
 10
303.132
 20
79.9402
 30
0.0
 11
303.132
 21
74.1412
 31
0.0
  0
LINE
  8
0
 62
     0
 10
303.132
 20
74.1412
 30
0.0
 11
302.332
 21
74.1412
 31
0.0
  0
LINE
  8
0
 62
     0
 10
302.332
 20
74.1412
 30
0.0
 11
302.332
 21
71.0406
 31
0.0
  0
LINE
  8
0
 62
     0
 10
302.332
 20
71.0406
 30
0.0
 11
303.132
 21
71.0406
 31
0.0
  0
LINE
  8
0
 62
     0
 10
303.132
 20
71.0406
 30
0.0
 11
303.132
 21
70.0401
 31
0.0
  0
LINE
  8
0
 62
     0
 10
303.132
 20
70.0401
 30
0.0
 11
317.132
 21
70.0401
 31
0.0
  0
LINE
  8
0
 62
     0
 10
317.132
 20
70.0401
 30
0.0
 11
317.132
 21
71.0406
 31
0.0
  0
LINE
  8
0
 62
     0
 10
317.132
 20
71.0406
 30
0.0
 11
317.933
 21
71.0406
 31
0.0
  0
LINE
  8
0
 62
     0
 10
317.933
 20
71.0406
 30
0.0
 11
317.933
 21
74.1412
 31
0.0
  0
LINE
  8
0
 62
     0
 10
317.933
 20
74.1412
 30
0.0
 11
317.132
 21
74.1412
 31
0.0
  0
LINE
  8
0
 62
     0
 10
317.132
 20
74.1412
 30
0.0
 11
317.132
 21
79.9402
 31
0.0
  0
LINE
  8
0
 62
     0
 10
317.132
 20
79.9402
 30
0.0
 11
317.933
 21
79.9402
 31
0.0
  0
LINE
  8
0
 62
     0
 10
317.933
 20
79.9402
 30
0.0
 11
317.933
 21
83.0407
 31
0.0
  0
LINE
  8
0
 62
     0
 10
317.933
 20
83.0407
 30
0.0
 11
317.132
 21
83.0407
 31
0.0
  0
LINE
  8
0
 62
     0
 10
317.132
 20
83.0407
 30
0.0
 11
317.132
 21
84.0412
 31
0.0
  0
LINE
  8
0
 62
     0
 10
317.132
 20
84.0412
 30
0.0
 11
303.132
 21
84.0412
 31
0.0
  0
LINE
  8
0
 62
     0
 10
274.557
 20
84.0412
 30
0.0
 11
274.557
 21
83.0407
 31
0.0
  0
LINE
  8
0
 62
     0
 10
274.557
 20
83.0407
 30
0.0
 11
273.757
 21
83.0407
 31
0.0
  0
LINE
  8
0
 62
     0
 10
273.757
 20
83.0407
 30
0.0
 11
273.757
 21
79.9402
 31
0.0
  0
LINE
  8
0
 62
     0
 10
273.757
 20
79.9402
 30
0.0
 11
274.557
 21
79.9402
 31
0.0
  0
LINE
  8
0
 62
     0
 10
274.557
 20
79.9402
 30
0.0
 11
274.557
 21
74.1412
 31
0.0
  0
LINE
  8
0
 62
     0
 10
274.557
 20
74.1412
 30
0.0
 11
273.757
 21
74.1412
 31
0.0
  0
LINE
  8
0
 62
     0
 10
273.757
 20
74.1412
 30
0.0
 11
273.757
 21
71.0406
 31
0.0
  0
LINE
  8
0
 62
     0
 10
273.757
 20
71.0406
 30
0.0
 11
274.557
 21
71.0406
 31
0.0
  0
LINE
  8
0
 62
     0
 10
274.557
 20
71.0406
 30
0.0
 11
274.557
 21
70.0401
 31
0.0
  0
LINE
  8
0
 62
     0
 10
274.557
 20
70.0401
 30
0.0
 11
288.557
 21
70.0401
 31
0.0
  0
LINE
  8
0
 62
     0
 10
288.557
 20
70.0401
 30
0.0
 11
288.557
 21
71.0406
 31
0.0
  0
LINE
  8
0
 62
     0
 10
288.557
 20
71.0406
 30
0.0
 11
289.358
 21
71.0406
 31
0.0
  0
LINE
  8
0
 62
     0
 10
289.358
 20
71.0406
 30
0.0
 11
289.358
 21
74.1412
 31
0.0
  0
LINE
  8
0
 62
     0
 10
289.358
 20
74.1412
 30
0.0
 11
288.557
 21
74.1412
 31
0.0
  0
LINE
  8
0
 62
     0
 10
288.557
 20
74.1412
 30
0.0
 11
288.557
 21
79.9402
 31
0.0
  0
LINE
  8
0
 62
     0
 10
288.557
 20
79.9402
 30
0.0
 11
289.358
 21
79.9402
 31
0.0
  0
LINE
  8
0
 62
     0
 10
289.358
 20
79.9402
 30
0.0
 11
289.358
 21
83.0407
 31
0.0
  0
LINE
  8
0
 62
     0
 10
289.358
 20
83.0407
 30
0.0
 11
288.557
 21
83.0407
 31
0.0
  0
LINE
  8
0
 62
     0
 10
288.557
 20
83.0407
 30
0.0
 11
288.557
 21
84.0412
 31
0.0
  0
LINE
  8
0
 62
     0
 10
288.557
 20
84.0412
 30
0.0
 11
274.557
 21
84.0412
 31
0.0
  0
LINE
  8
0
 62
     0
 10
250.745
 20
84.0412
 30
0.0
 11
250.745
 21
83.0407
 31
0.0
  0
LINE
  8
0
 62
     0
 10
250.745
 20
83.0407
 30
0.0
 11
249.946
 21
83.0407
 31
0.0
  0
LINE
  8
0
 62
     0
 10
249.946
 20
83.0407
 30
0.0
 11
249.946
 21
79.9402
 31
0.0
  0
LINE
  8
0
 62
     0
 10
249.946
 20
79.9402
 30
0.0
 11
250.745
 21
79.9402
 31
0.0
  0
LINE
  8
0
 62
     0
 10
250.745
 20
79.9402
 30
0.0
 11
250.745
 21
74.1412
 31
0.0
  0
LINE
  8
0
 62
     0
 10
250.745
 20
74.1412
 30
0.0
 11
249.946
 21
74.1412
 31
0.0
  0
LINE
  8
0
 62
     0
 10
249.946
 20
74.1412
 30
0.0
 11
249.946
 21
71.0406
 31
0.0
  0
LINE
  8
0
 62
     0
 10
249.946
 20
71.0406
 30
0.0
 11
250.745
 21
71.0406
 31
0.0
  0
LINE
  8
0
 62
     0
 10
250.745
 20
71.0406
 30
0.0
 11
250.745
 21
70.0401
 31
0.0
  0
LINE
  8
0
 62
     0
 10
250.745
 20
70.0401
 30
0.0
 11
264.746
 21
70.0401
 31
0.0
  0
LINE
  8
0
 62
     0
 10
264.746
 20
70.0401
 30
0.0
 11
264.746
 21
71.0406
 31
0.0
  0
LINE
  8
0
 62
     0
 10
264.746
 20
71.0406
 30
0.0
 11
265.545
 21
71.0406
 31
0.0
  0
LINE
  8
0
 62
     0
 10
265.545
 20
71.0406
 30
0.0
 11
265.545
 21
74.1412
 31
0.0
  0
LINE
  8
0
 62
     0
 10
265.545
 20
74.1412
 30
0.0
 11
264.746
 21
74.1412
 31
0.0
  0
LINE
  8
0
 62
     0
 10
264.746
 20
74.1412
 30
0.0
 11
264.746
 21
79.9402
 31
0.0
  0
LINE
  8
0
 62
     0
 10
264.746
 20
79.9402
 30
0.0
 11
265.545
 21
79.9402
 31
0.0
  0
LINE
  8
0
 62
     0
 10
265.545
 20
79.9402
 30
0.0
 11
265.545
 21
83.0407
 31
0.0
  0
LINE
  8
0
 62
     0
 10
265.545
 20
83.0407
 30
0.0
 11
264.746
 21
83.0407
 31
0.0
  0
LINE
  8
0
 62
     0
 10
264.746
 20
83.0407
 30
0.0
 11
264.746
 21
84.0412
 31
0.0
  0
LINE
  8
0
 62
     0
 10
264.746
 20
84.0412
 30
0.0
 11
250.745
 21
84.0412
 31
0.0
  0
LINE
  8
0
 62
     0
 10
231.695
 20
84.0412
 30
0.0
 11
231.695
 21
83.0407
 31
0.0
  0
LINE
  8
0
 62
     0
 10
231.695
 20
83.0407
 30
0.0
 11
230.896
 21
83.0407
 31
0.0
  0
LINE
  8
0
 62
     0
 10
230.896
 20
83.0407
 30
0.0
 11
230.896
 21
79.9402
 31
0.0
  0
LINE
  8
0
 62
     0
 10
230.896
 20
79.9402
 30
0.0
 11
231.695
 21
79.9402
 31
0.0
  0
LINE
  8
0
 62
     0
 10
231.695
 20
79.9402
 30
0.0
 11
231.695
 21
74.1412
 31
0.0
  0
LINE
  8
0
 62
     0
 10
231.695
 20
74.1412
 30
0.0
 11
230.896
 21
74.1412
 31
0.0
  0
LINE
  8
0
 62
     0
 10
230.896
 20
74.1412
 30
0.0
 11
230.896
 21
71.0406
 31
0.0
  0
LINE
  8
0
 62
     0
 10
230.896
 20
71.0406
 30
0.0
 11
231.695
 21
71.0406
 31
0.0
  0
LINE
  8
0
 62
     0
 10
231.695
 20
71.0406
 30
0.0
 11
231.695
 21
70.0401
 31
0.0
  0
LINE
  8
0
 62
     0
 10
231.695
 20
70.0401
 30
0.0
 11
245.696
 21
70.0401
 31
0.0
  0
LINE
  8
0
 62
     0
 10
245.696
 20
70.0401
 30
0.0
 11
245.696
 21
71.0406
 31
0.0
  0
LINE
  8
0
 62
     0
 10
245.696
 20
71.0406
 30
0.0
 11
246.495
 21
71.0406
 31
0.0
  0
LINE
  8
0
 62
     0
 10
246.495
 20
71.0406
 30
0.0
 11
246.495
 21
74.1412
 31
0.0
  0
LINE
  8
0
 62
     0
 10
246.495
 20
74.1412
 30
0.0
 11
245.696
 21
74.1412
 31
0.0
  0
LINE
  8
0
 62
     0
 10
245.696
 20
74.1412
 30
0.0
 11
245.696
 21
79.9402
 31
0.0
  0
LINE
  8
0
 62
     0
 10
245.696
 20
79.9402
 30
0.0
 11
246.495
 21
79.9402
 31
0.0
  0
LINE
  8
0
 62
     0
 10
246.495
 20
79.9402
 30
0.0
 11
246.495
 21
83.0407
 31
0.0
  0
LINE
  8
0
 62
     0
 10
246.495
 20
83.0407
 30
0.0
 11
245.696
 21
83.0407
 31
0.0
  0
LINE
  8
0
 62
     0
 10
245.696
 20
83.0407
 30
0.0
 11
245.696
 21
84.0412
 31
0.0
  0
LINE
  8
0
 62
     0
 10
245.696
 20
84.0412
 30
0.0
 11
231.695
 21
84.0412
 31
0.0
  0
LINE
  8
0
 62
     0
 10
212.645
 20
84.0412
 30
0.0
 11
212.645
 21
83.0407
 31
0.0
  0
LINE
  8
0
 62
     0
 10
212.645
 20
83.0407
 30
0.0
 11
211.846
 21
83.0407
 31
0.0
  0
LINE
  8
0
 62
     0
 10
211.846
 20
83.0407
 30
0.0
 11
211.846
 21
79.9402
 31
0.0
  0
LINE
  8
0
 62
     0
 10
211.846
 20
79.9402
 30
0.0
 11
212.645
 21
79.9402
 31
0.0
  0
LINE
  8
0
 62
     0
 10
212.645
 20
79.9402
 30
0.0
 11
212.645
 21
74.1412
 31
0.0
  0
LINE
  8
0
 62
     0
 10
212.645
 20
74.1412
 30
0.0
 11
211.846
 21
74.1412
 31
0.0
  0
LINE
  8
0
 62
     0
 10
211.846
 20
74.1412
 30
0.0
 11
211.846
 21
71.0406
 31
0.0
  0
LINE
  8
0
 62
     0
 10
211.846
 20
71.0406
 30
0.0
 11
212.645
 21
71.0406
 31
0.0
  0
LINE
  8
0
 62
     0
 10
212.645
 20
71.0406
 30
0.0
 11
212.645
 21
70.0401
 31
0.0
  0
LINE
  8
0
 62
     0
 10
212.645
 20
70.0401
 30
0.0
 11
226.646
 21
70.0401
 31
0.0
  0
LINE
  8
0
 62
     0
 10
226.646
 20
70.0401
 30
0.0
 11
226.646
 21
71.0406
 31
0.0
  0
LINE
  8
0
 62
     0
 10
226.646
 20
71.0406
 30
0.0
 11
227.445
 21
71.0406
 31
0.0
  0
LINE
  8
0
 62
     0
 10
227.445
 20
71.0406
 30
0.0
 11
227.445
 21
74.1412
 31
0.0
  0
LINE
  8
0
 62
     0
 10
227.445
 20
74.1412
 30
0.0
 11
226.646
 21
74.1412
 31
0.0
  0
LINE
  8
0
 62
     0
 10
226.646
 20
74.1412
 30
0.0
 11
226.646
 21
79.9402
 31
0.0
  0
LINE
  8
0
 62
     0
 10
226.646
 20
79.9402
 30
0.0
 11
227.445
 21
79.9402
 31
0.0
  0
LINE
  8
0
 62
     0
 10
227.445
 20
79.9402
 30
0.0
 11
227.445
 21
83.0407
 31
0.0
  0
LINE
  8
0
 62
     0
 10
227.445
 20
83.0407
 30
0.0
 11
226.646
 21
83.0407
 31
0.0
  0
LINE
  8
0
 62
     0
 10
226.646
 20
83.0407
 30
0.0
 11
226.646
 21
84.0412
 31
0.0
  0
LINE
  8
0
 62
     0
 10
226.646
 20
84.0412
 30
0.0
 11
212.645
 21
84.0412
 31
0.0
  0
LINE
  8
0
 62
     0
 10
193.595
 20
84.0412
 30
0.0
 11
193.595
 21
83.0407
 31
0.0
  0
LINE
  8
0
 62
     0
 10
193.595
 20
83.0407
 30
0.0
 11
192.796
 21
83.0407
 31
0.0
  0
LINE
  8
0
 62
     0
 10
192.796
 20
83.0407
 30
0.0
 11
192.796
 21
79.9402
 31
0.0
  0
LINE
  8
0
 62
     0
 10
192.796
 20
79.9402
 30
0.0
 11
193.595
 21
79.9402
 31
0.0
  0
LINE
  8
0
 62
     0
 10
193.595
 20
79.9402
 30
0.0
 11
193.595
 21
74.1412
 31
0.0
  0
LINE
  8
0
 62
     0
 10
193.595
 20
74.1412
 30
0.0
 11
192.796
 21
74.1412
 31
0.0
  0
LINE
  8
0
 62
     0
 10
192.796
 20
74.1412
 30
0.0
 11
192.796
 21
71.0406
 31
0.0
  0
LINE
  8
0
 62
     0
 10
192.796
 20
71.0406
 30
0.0
 11
193.595
 21
71.0406
 31
0.0
  0
LINE
  8
0
 62
     0
 10
193.595
 20
71.0406
 30
0.0
 11
193.595
 21
70.0401
 31
0.0
  0
LINE
  8
0
 62
     0
 10
193.595
 20
70.0401
 30
0.0
 11
207.596
 21
70.0401
 31
0.0
  0
LINE
  8
0
 62
     0
 10
207.596
 20
70.0401
 30
0.0
 11
207.596
 21
71.0406
 31
0.0
  0
LINE
  8
0
 62
     0
 10
207.596
 20
71.0406
 30
0.0
 11
208.395
 21
71.0406
 31
0.0
  0
LINE
  8
0
 62
     0
 10
208.395
 20
71.0406
 30
0.0
 11
208.395
 21
74.1412
 31
0.0
  0
LINE
  8
0
 62
     0
 10
208.395
 20
74.1412
 30
0.0
 11
207.596
 21
74.1412
 31
0.0
  0
LINE
  8
0
 62
     0
 10
207.596
 20
74.1412
 30
0.0
 11
207.596
 21
79.9402
 31
0.0
  0
LINE
  8
0
 62
     0
 10
207.596
 20
79.9402
 30
0.0
 11
208.395
 21
79.9402
 31
0.0
  0
LINE
  8
0
 62
     0
 10
208.395
 20
79.9402
 30
0.0
 11
208.395
 21
83.0407
 31
0.0
  0
LINE
  8
0
 62
     0
 10
208.395
 20
83.0407
 30
0.0
 11
207.596
 21
83.0407
 31
0.0
  0
LINE
  8
0
 62
     0
 10
207.596
 20
83.0407
 30
0.0
 11
207.596
 21
84.0412
 31
0.0
  0
LINE
  8
0
 62
     0
 10
207.596
 20
84.0412
 30
0.0
 11
193.595
 21
84.0412
 31
0.0
  0
LINE
  8
0
 62
     0
 10
174.545
 20
84.0412
 30
0.0
 11
174.545
 21
83.0407
 31
0.0
  0
LINE
  8
0
 62
     0
 10
174.545
 20
83.0407
 30
0.0
 11
173.746
 21
83.0407
 31
0.0
  0
LINE
  8
0
 62
     0
 10
173.746
 20
83.0407
 30
0.0
 11
173.746
 21
79.9402
 31
0.0
  0
LINE
  8
0
 62
     0
 10
173.746
 20
79.9402
 30
0.0
 11
174.545
 21
79.9402
 31
0.0
  0
LINE
  8
0
 62
     0
 10
174.545
 20
79.9402
 30
0.0
 11
174.545
 21
74.1412
 31
0.0
  0
LINE
  8
0
 62
     0
 10
174.545
 20
74.1412
 30
0.0
 11
173.746
 21
74.1412
 31
0.0
  0
LINE
  8
0
 62
     0
 10
173.746
 20
74.1412
 30
0.0
 11
173.746
 21
71.0406
 31
0.0
  0
LINE
  8
0
 62
     0
 10
173.746
 20
71.0406
 30
0.0
 11
174.545
 21
71.0406
 31
0.0
  0
LINE
  8
0
 62
     0
 10
174.545
 20
71.0406
 30
0.0
 11
174.545
 21
70.0401
 31
0.0
  0
LINE
  8
0
 62
     0
 10
174.545
 20
70.0401
 30
0.0
 11
188.546
 21
70.0401
 31
0.0
  0
LINE
  8
0
 62
     0
 10
188.546
 20
70.0401
 30
0.0
 11
188.546
 21
71.0406
 31
0.0
  0
LINE
  8
0
 62
     0
 10
188.546
 20
71.0406
 30
0.0
 11
189.345
 21
71.0406
 31
0.0
  0
LINE
  8
0
 62
     0
 10
189.345
 20
71.0406
 30
0.0
 11
189.345
 21
74.1412
 31
0.0
  0
LINE
  8
0
 62
     0
 10
189.345
 20
74.1412
 30
0.0
 11
188.546
 21
74.1412
 31
0.0
  0
LINE
  8
0
 62
     0
 10
188.546
 20
74.1412
 30
0.0
 11
188.546
 21
79.9402
 31
0.0
  0
LINE
  8
0
 62
     0
 10
188.546
 20
79.9402
 30
0.0
 11
189.345
 21
79.9402
 31
0.0
  0
LINE
  8
0
 62
     0
 10
189.345
 20
79.9402
 30
0.0
 11
189.345
 21
83.0407
 31
0.0
  0
LINE
  8
0
 62
     0
 10
189.345
 20
83.0407
 30
0.0
 11
188.546
 21
83.0407
 31
0.0
  0
LINE
  8
0
 62
     0
 10
188.546
 20
83.0407
 30
0.0
 11
188.546
 21
84.0412
 31
0.0
  0
LINE
  8
0
 62
     0
 10
188.546
 20
84.0412
 30
0.0
 11
174.545
 21
84.0412
 31
0.0
  0
LINE
  8
0
 62
     0
 10
155.495
 20
84.0412
 30
0.0
 11
155.495
 21
83.0407
 31
0.0
  0
LINE
  8
0
 62
     0
 10
155.495
 20
83.0407
 30
0.0
 11
154.696
 21
83.0407
 31
0.0
  0
LINE
  8
0
 62
     0
 10
154.696
 20
83.0407
 30
0.0
 11
154.696
 21
79.9402
 31
0.0
  0
LINE
  8
0
 62
     0
 10
154.696
 20
79.9402
 30
0.0
 11
155.495
 21
79.9402
 31
0.0
  0
LINE
  8
0
 62
     0
 10
155.495
 20
79.9402
 30
0.0
 11
155.495
 21
74.1412
 31
0.0
  0
LINE
  8
0
 62
     0
 10
155.495
 20
74.1412
 30
0.0
 11
154.696
 21
74.1412
 31
0.0
  0
LINE
  8
0
 62
     0
 10
154.696
 20
74.1412
 30
0.0
 11
154.696
 21
71.0406
 31
0.0
  0
LINE
  8
0
 62
     0
 10
154.696
 20
71.0406
 30
0.0
 11
155.495
 21
71.0406
 31
0.0
  0
LINE
  8
0
 62
     0
 10
155.495
 20
71.0406
 30
0.0
 11
155.495
 21
70.0401
 31
0.0
  0
LINE
  8
0
 62
     0
 10
155.495
 20
70.0401
 30
0.0
 11
169.496
 21
70.0401
 31
0.0
  0
LINE
  8
0
 62
     0
 10
169.496
 20
70.0401
 30
0.0
 11
169.496
 21
71.0406
 31
0.0
  0
LINE
  8
0
 62
     0
 10
169.496
 20
71.0406
 30
0.0
 11
170.295
 21
71.0406
 31
0.0
  0
LINE
  8
0
 62
     0
 10
170.295
 20
71.0406
 30
0.0
 11
170.295
 21
74.1412
 31
0.0
  0
LINE
  8
0
 62
     0
 10
170.295
 20
74.1412
 30
0.0
 11
169.496
 21
74.1412
 31
0.0
  0
LINE
  8
0
 62
     0
 10
169.496
 20
74.1412
 30
0.0
 11
169.496
 21
79.9402
 31
0.0
  0
LINE
  8
0
 62
     0
 10
169.496
 20
79.9402
 30
0.0
 11
170.295
 21
79.9402
 31
0.0
  0
LINE
  8
0
 62
     0
 10
170.295
 20
79.9402
 30
0.0
 11
170.295
 21
83.0407
 31
0.0
  0
LINE
  8
0
 62
     0
 10
170.295
 20
83.0407
 30
0.0
 11
169.496
 21
83.0407
 31
0.0
  0
LINE
  8
0
 62
     0
 10
169.496
 20
83.0407
 30
0.0
 11
169.496
 21
84.0412
 31
0.0
  0
LINE
  8
0
 62
     0
 10
169.496
 20
84.0412
 30
0.0
 11
155.495
 21
84.0412
 31
0.0
  0
LINE
  8
0
 62
     0
 10
136.445
 20
84.0412
 30
0.0
 11
136.445
 21
83.0407
 31
0.0
  0
LINE
  8
0
 62
     0
 10
136.445
 20
83.0407
 30
0.0
 11
135.646
 21
83.0407
 31
0.0
  0
LINE
  8
0
 62
     0
 10
135.646
 20
83.0407
 30
0.0
 11
135.646
 21
79.9402
 31
0.0
  0
LINE
  8
0
 62
     0
 10
135.646
 20
79.9402
 30
0.0
 11
136.445
 21
79.9402
 31
0.0
  0
LINE
  8
0
 62
     0
 10
136.445
 20
79.9402
 30
0.0
 11
136.445
 21
74.1412
 31
0.0
  0
LINE
  8
0
 62
     0
 10
136.445
 20
74.1412
 30
0.0
 11
135.646
 21
74.1412
 31
0.0
  0
LINE
  8
0
 62
     0
 10
135.646
 20
74.1412
 30
0.0
 11
135.646
 21
71.0406
 31
0.0
  0
LINE
  8
0
 62
     0
 10
135.646
 20
71.0406
 30
0.0
 11
136.445
 21
71.0406
 31
0.0
  0
LINE
  8
0
 62
     0
 10
136.445
 20
71.0406
 30
0.0
 11
136.445
 21
70.0401
 31
0.0
  0
LINE
  8
0
 62
     0
 10
136.445
 20
70.0401
 30
0.0
 11
150.446
 21
70.0401
 31
0.0
  0
LINE
  8
0
 62
     0
 10
150.446
 20
70.0401
 30
0.0
 11
150.446
 21
71.0406
 31
0.0
  0
LINE
  8
0
 62
     0
 10
150.446
 20
71.0406
 30
0.0
 11
151.245
 21
71.0406
 31
0.0
  0
LINE
  8
0
 62
     0
 10
151.245
 20
71.0406
 30
0.0
 11
151.245
 21
74.1412
 31
0.0
  0
LINE
  8
0
 62
     0
 10
151.245
 20
74.1412
 30
0.0
 11
150.446
 21
74.1412
 31
0.0
  0
LINE
  8
0
 62
     0
 10
150.446
 20
74.1412
 30
0.0
 11
150.446
 21
79.9402
 31
0.0
  0
LINE
  8
0
 62
     0
 10
150.446
 20
79.9402
 30
0.0
 11
151.245
 21
79.9402
 31
0.0
  0
LINE
  8
0
 62
     0
 10
151.245
 20
79.9402
 30
0.0
 11
151.245
 21
83.0407
 31
0.0
  0
LINE
  8
0
 62
     0
 10
151.245
 20
83.0407
 30
0.0
 11
150.446
 21
83.0407
 31
0.0
  0
LINE
  8
0
 62
     0
 10
150.446
 20
83.0407
 30
0.0
 11
150.446
 21
84.0412
 31
0.0
  0
LINE
  8
0
 62
     0
 10
150.446
 20
84.0412
 30
0.0
 11
136.445
 21
84.0412
 31
0.0
  0
LINE
  8
0
 62
     0
 10
117.395
 20
84.0412
 30
0.0
 11
117.395
 21
83.0407
 31
0.0
  0
LINE
  8
0
 62
     0
 10
117.395
 20
83.0407
 30
0.0
 11
116.596
 21
83.0407
 31
0.0
  0
LINE
  8
0
 62
     0
 10
116.596
 20
83.0407
 30
0.0
 11
116.596
 21
79.9402
 31
0.0
  0
LINE
  8
0
 62
     0
 10
116.596
 20
79.9402
 30
0.0
 11
117.395
 21
79.9402
 31
0.0
  0
LINE
  8
0
 62
     0
 10
117.395
 20
79.9402
 30
0.0
 11
117.395
 21
74.1412
 31
0.0
  0
LINE
  8
0
 62
     0
 10
117.395
 20
74.1412
 30
0.0
 11
116.596
 21
74.1412
 31
0.0
  0
LINE
  8
0
 62
     0
 10
116.596
 20
74.1412
 30
0.0
 11
116.596
 21
71.0406
 31
0.0
  0
LINE
  8
0
 62
     0
 10
116.596
 20
71.0406
 30
0.0
 11
117.395
 21
71.0406
 31
0.0
  0
LINE
  8
0
 62
     0
 10
117.395
 20
71.0406
 30
0.0
 11
117.395
 21
70.0401
 31
0.0
  0
LINE
  8
0
 62
     0
 10
117.395
 20
70.0401
 30
0.0
 11
131.396
 21
70.0401
 31
0.0
  0
LINE
  8
0
 62
     0
 10
131.396
 20
70.0401
 30
0.0
 11
131.396
 21
71.0406
 31
0.0
  0
LINE
  8
0
 62
     0
 10
131.396
 20
71.0406
 30
0.0
 11
132.195
 21
71.0406
 31
0.0
  0
LINE
  8
0
 62
     0
 10
132.195
 20
71.0406
 30
0.0
 11
132.195
 21
74.1412
 31
0.0
  0
LINE
  8
0
 62
     0
 10
132.195
 20
74.1412
 30
0.0
 11
131.396
 21
74.1412
 31
0.0
  0
LINE
  8
0
 62
     0
 10
131.396
 20
74.1412
 30
0.0
 11
131.396
 21
79.9402
 31
0.0
  0
LINE
  8
0
 62
     0
 10
131.396
 20
79.9402
 30
0.0
 11
132.195
 21
79.9402
 31
0.0
  0
LINE
  8
0
 62
     0
 10
132.195
 20
79.9402
 30
0.0
 11
132.195
 21
83.0407
 31
0.0
  0
LINE
  8
0
 62
     0
 10
132.195
 20
83.0407
 30
0.0
 11
131.396
 21
83.0407
 31
0.0
  0
LINE
  8
0
 62
     0
 10
131.396
 20
83.0407
 30
0.0
 11
131.396
 21
84.0412
 31
0.0
  0
LINE
  8
0
 62
     0
 10
131.396
 20
84.0412
 30
0.0
 11
117.395
 21
84.0412
 31
0.0
  0
LINE
  8
0
 62
     0
 10
98.3449
 20
84.0412
 30
0.0
 11
98.3449
 21
83.0407
 31
0.0
  0
LINE
  8
0
 62
     0
 10
98.3449
 20
83.0407
 30
0.0
 11
97.5459
 21
83.0407
 31
0.0
  0
LINE
  8
0
 62
     0
 10
97.5459
 20
83.0407
 30
0.0
 11
97.5459
 21
79.9402
 31
0.0
  0
LINE
  8
0
 62
     0
 10
97.5459
 20
79.9402
 30
0.0
 11
98.3449
 21
79.9402
 31
0.0
  0
LINE
  8
0
 62
     0
 10
98.3449
 20
79.9402
 30
0.0
 11
98.3449
 21
74.1412
 31
0.0
  0
LINE
  8
0
 62
     0
 10
98.3449
 20
74.1412
 30
0.0
 11
97.5459
 21
74.1412
 31
0.0
  0
LINE
  8
0
 62
     0
 10
97.5459
 20
74.1412
 30
0.0
 11
97.5459
 21
71.0406
 31
0.0
  0
LINE
  8
0
 62
     0
 10
97.5459
 20
71.0406
 30
0.0
 11
98.3449
 21
71.0406
 31
0.0
  0
LINE
  8
0
 62
     0
 10
98.3449
 20
71.0406
 30
0.0
 11
98.3449
 21
70.0401
 31
0.0
  0
LINE
  8
0
 62
     0
 10
98.3449
 20
70.0401
 30
0.0
 11
112.346
 21
70.0401
 31
0.0
  0
LINE
  8
0
 62
     0
 10
112.346
 20
70.0401
 30
0.0
 11
112.346
 21
71.0406
 31
0.0
  0
LINE
  8
0
 62
     0
 10
112.346
 20
71.0406
 30
0.0
 11
113.145
 21
71.0406
 31
0.0
  0
LINE
  8
0
 62
     0
 10
113.145
 20
71.0406
 30
0.0
 11
113.145
 21
74.1412
 31
0.0
  0
LINE
  8
0
 62
     0
 10
113.145
 20
74.1412
 30
0.0
 11
112.346
 21
74.1412
 31
0.0
  0
LINE
  8
0
 62
     0
 10
112.346
 20
74.1412
 30
0.0
 11
112.346
 21
79.9402
 31
0.0
  0
LINE
  8
0
 62
     0
 10
112.346
 20
79.9402
 30
0.0
 11
113.145
 21
79.9402
 31
0.0
  0
LINE
  8
0
 62
     0
 10
113.145
 20
79.9402
 30
0.0
 11
113.145
 21
83.0407
 31
0.0
  0
LINE
  8
0
 62
     0
 10
113.145
 20
83.0407
 30
0.0
 11
112.346
 21
83.0407
 31
0.0
  0
LINE
  8
0
 62
     0
 10
112.346
 20
83.0407
 30
0.0
 11
112.346
 21
84.0412
 31
0.0
  0
LINE
  8
0
 62
     0
 10
112.346
 20
84.0412
 30
0.0
 11
98.3449
 21
84.0412
 31
0.0
  0
LINE
  8
0
 62
     0
 10
79.2949
 20
84.0412
 30
0.0
 11
79.2949
 21
83.0407
 31
0.0
  0
LINE
  8
0
 62
     0
 10
79.2949
 20
83.0407
 30
0.0
 11
78.4959
 21
83.0407
 31
0.0
  0
LINE
  8
0
 62
     0
 10
78.4959
 20
83.0407
 30
0.0
 11
78.4959
 21
79.9402
 31
0.0
  0
LINE
  8
0
 62
     0
 10
78.4959
 20
79.9402
 30
0.0
 11
79.2949
 21
79.9402
 31
0.0
  0
LINE
  8
0
 62
     0
 10
79.2949
 20
79.9402
 30
0.0
 11
79.2949
 21
74.1412
 31
0.0
  0
LINE
  8
0
 62
     0
 10
79.2949
 20
74.1412
 30
0.0
 11
78.4959
 21
74.1412
 31
0.0
  0
LINE
  8
0
 62
     0
 10
78.4959
 20
74.1412
 30
0.0
 11
78.4959
 21
71.0406
 31
0.0
  0
LINE
  8
0
 62
     0
 10
78.4959
 20
71.0406
 30
0.0
 11
79.2949
 21
71.0406
 31
0.0
  0
LINE
  8
0
 62
     0
 10
79.2949
 20
71.0406
 30
0.0
 11
79.2949
 21
70.0401
 31
0.0
  0
LINE
  8
0
 62
     0
 10
79.2949
 20
70.0401
 30
0.0
 11
93.296
 21
70.0401
 31
0.0
  0
LINE
  8
0
 62
     0
 10
93.296
 20
70.0401
 30
0.0
 11
93.296
 21
71.0406
 31
0.0
  0
LINE
  8
0
 62
     0
 10
93.296
 20
71.0406
 30
0.0
 11
94.0954
 21
71.0406
 31
0.0
  0
LINE
  8
0
 62
     0
 10
94.0954
 20
71.0406
 30
0.0
 11
94.0954
 21
74.1412
 31
0.0
  0
LINE
  8
0
 62
     0
 10
94.0954
 20
74.1412
 30
0.0
 11
93.296
 21
74.1412
 31
0.0
  0
LINE
  8
0
 62
     0
 10
93.296
 20
74.1412
 30
0.0
 11
93.296
 21
79.9402
 31
0.0
  0
LINE
  8
0
 62
     0
 10
93.296
 20
79.9402
 30
0.0
 11
94.0954
 21
79.9402
 31
0.0
  0
LINE
  8
0
 62
     0
 10
94.0954
 20
79.9402
 30
0.0
 11
94.0954
 21
83.0407
 31
0.0
  0
LINE
  8
0
 62
     0
 10
94.0954
 20
83.0407
 30
0.0
 11
93.296
 21
83.0407
 31
0.0
  0
LINE
  8
0
 62
     0
 10
93.296
 20
83.0407
 30
0.0
 11
93.296
 21
84.0412
 31
0.0
  0
LINE
  8
0
 62
     0
 10
93.296
 20
84.0412
 30
0.0
 11
79.2949
 21
84.0412
 31
0.0
  0
LINE
  8
0
 62
     0
 10
60.2449
 20
84.0412
 30
0.0
 11
60.2449
 21
83.0407
 31
0.0
  0
LINE
  8
0
 62
     0
 10
60.2449
 20
83.0407
 30
0.0
 11
59.4445
 21
83.0407
 31
0.0
  0
LINE
  8
0
 62
     0
 10
59.4445
 20
83.0407
 30
0.0
 11
59.4445
 21
79.9402
 31
0.0
  0
LINE
  8
0
 62
     0
 10
59.4445
 20
79.9402
 30
0.0
 11
60.2449
 21
79.9402
 31
0.0
  0
LINE
  8
0
 62
     0
 10
60.2449
 20
79.9402
 30
0.0
 11
60.2449
 21
74.1412
 31
0.0
  0
LINE
  8
0
 62
     0
 10
60.2449
 20
74.1412
 30
0.0
 11
59.4445
 21
74.1412
 31
0.0
  0
LINE
  8
0
 62
     0
 10
59.4445
 20
74.1412
 30
0.0
 11
59.4445
 21
71.0406
 31
0.0
  0
LINE
  8
0
 62
     0
 10
59.4445
 20
71.0406
 30
0.0
 11
60.2449
 21
71.0406
 31
0.0
  0
LINE
  8
0
 62
     0
 10
60.2449
 20
71.0406
 30
0.0
 11
60.2449
 21
70.0401
 31
0.0
  0
LINE
  8
0
 62
     0
 10
60.2449
 20
70.0401
 30
0.0
 11
74.246
 21
70.0401
 31
0.0
  0
LINE
  8
0
 62
     0
 10
74.246
 20
70.0401
 30
0.0
 11
74.246
 21
71.0406
 31
0.0
  0
LINE
  8
0
 62
     0
 10
74.246
 20
71.0406
 30
0.0
 11
75.0454
 21
71.0406
 31
0.0
  0
LINE
  8
0
 62
     0
 10
75.0454
 20
71.0406
 30
0.0
 11
75.0454
 21
74.1412
 31
0.0
  0
LINE
  8
0
 62
     0
 10
75.0454
 20
74.1412
 30
0.0
 11
74.246
 21
74.1412
 31
0.0
  0
LINE
  8
0
 62
     0
 10
74.246
 20
74.1412
 30
0.0
 11
74.246
 21
79.9402
 31
0.0
  0
LINE
  8
0
 62
     0
 10
74.246
 20
79.9402
 30
0.0
 11
75.0454
 21
79.9402
 31
0.0
  0
LINE
  8
0
 62
     0
 10
75.0454
 20
79.9402
 30
0.0
 11
75.0454
 21
83.0407
 31
0.0
  0
LINE
  8
0
 62
     0
 10
75.0454
 20
83.0407
 30
0.0
 11
74.246
 21
83.0407
 31
0.0
  0
LINE
  8
0
 62
     0
 10
74.246
 20
83.0407
 30
0.0
 11
74.246
 21
84.0412
 31
0.0
  0
LINE
  8
0
 62
     0
 10
74.246
 20
84.0412
 30
0.0
 11
60.2449
 21
84.0412
 31
0.0
  0
LINE
  8
0
 62
     0
 10
41.1949
 20
84.0412
 30
0.0
 11
41.1949
 21
83.0407
 31
0.0
  0
LINE
  8
0
 62
     0
 10
41.1949
 20
83.0407
 30
0.0
 11
40.3959
 21
83.0407
 31
0.0
  0
LINE
  8
0
 62
     0
 10
40.3959
 20
83.0407
 30
0.0
 11
40.3959
 21
79.9402
 31
0.0
  0
LINE
  8
0
 62
     0
 10
40.3959
 20
79.9402
 30
0.0
 11
41.1949
 21
79.9402
 31
0.0
  0
LINE
  8
0
 62
     0
 10
41.1949
 20
79.9402
 30
0.0
 11
41.1949
 21
74.1412
 31
0.0
  0
LINE
  8
0
 62
     0
 10
41.1949
 20
74.1412
 30
0.0
 11
40.3959
 21
74.1412
 31
0.0
  0
LINE
  8
0
 62
     0
 10
40.3959
 20
74.1412
 30
0.0
 11
40.3959
 21
71.0406
 31
0.0
  0
LINE
  8
0
 62
     0
 10
40.3959
 20
71.0406
 30
0.0
 11
41.1949
 21
71.0406
 31
0.0
  0
LINE
  8
0
 62
     0
 10
41.1949
 20
71.0406
 30
0.0
 11
41.1949
 21
70.0401
 31
0.0
  0
LINE
  8
0
 62
     0
 10
41.1949
 20
70.0401
 30
0.0
 11
55.196
 21
70.0401
 31
0.0
  0
LINE
  8
0
 62
     0
 10
55.196
 20
70.0401
 30
0.0
 11
55.196
 21
71.0406
 31
0.0
  0
LINE
  8
0
 62
     0
 10
55.196
 20
71.0406
 30
0.0
 11
55.9954
 21
71.0406
 31
0.0
  0
LINE
  8
0
 62
     0
 10
55.9954
 20
71.0406
 30
0.0
 11
55.9954
 21
74.1412
 31
0.0
  0
LINE
  8
0
 62
     0
 10
55.9954
 20
74.1412
 30
0.0
 11
55.196
 21
74.1412
 31
0.0
  0
LINE
  8
0
 62
     0
 10
55.196
 20
74.1412
 30
0.0
 11
55.196
 21
79.9402
 31
0.0
  0
LINE
  8
0
 62
     0
 10
55.196
 20
79.9402
 30
0.0
 11
55.9954
 21
79.9402
 31
0.0
  0
LINE
  8
0
 62
     0
 10
55.9954
 20
79.9402
 30
0.0
 11
55.9954
 21
83.0407
 31
0.0
  0
LINE
  8
0
 62
     0
 10
55.9954
 20
83.0407
 30
0.0
 11
55.196
 21
83.0407
 31
0.0
  0
LINE
  8
0
 62
     0
 10
55.196
 20
83.0407
 30
0.0
 11
55.196
 21
84.0412
 31
0.0
  0
LINE
  8
0
 62
     0
 10
55.196
 20
84.0412
 30
0.0
 11
41.1949
 21
84.0412
 31
0.0
  0
LINE
  8
0
 62
     0
 10
17.3826
 20
84.0412
 30
0.0
 11
17.3826
 21
83.0407
 31
0.0
  0
LINE
  8
0
 62
     0
 10
17.3826
 20
83.0407
 30
0.0
 11
16.5819
 21
83.0407
 31
0.0
  0
LINE
  8
0
 62
     0
 10
16.5819
 20
83.0407
 30
0.0
 11
16.5819
 21
79.9402
 31
0.0
  0
LINE
  8
0
 62
     0
 10
16.5819
 20
79.9402
 30
0.0
 11
17.3826
 21
79.9402
 31
0.0
  0
LINE
  8
0
 62
     0
 10
17.3826
 20
79.9402
 30
0.0
 11
17.3826
 21
74.1412
 31
0.0
  0
LINE
  8
0
 62
     0
 10
17.3826
 20
74.1412
 30
0.0
 11
16.5819
 21
74.1412
 31
0.0
  0
LINE
  8
0
 62
     0
 10
16.5819
 20
74.1412
 30
0.0
 11
16.5819
 21
71.0406
 31
0.0
  0
LINE
  8
0
 62
     0
 10
16.5819
 20
71.0406
 30
0.0
 11
17.3826
 21
71.0406
 31
0.0
  0
LINE
  8
0
 62
     0
 10
17.3826
 20
71.0406
 30
0.0
 11
17.3826
 21
70.0401
 31
0.0
  0
LINE
  8
0
 62
     0
 10
17.3826
 20
70.0401
 30
0.0
 11
31.3821
 21
70.0401
 31
0.0
  0
LINE
  8
0
 62
     0
 10
31.3821
 20
70.0401
 30
0.0
 11
31.3821
 21
71.0406
 31
0.0
  0
LINE
  8
0
 62
     0
 10
31.3821
 20
71.0406
 30
0.0
 11
32.1827
 21
71.0406
 31
0.0
  0
LINE
  8
0
 62
     0
 10
32.1827
 20
71.0406
 30
0.0
 11
32.1827
 21
74.1412
 31
0.0
  0
LINE
  8
0
 62
     0
 10
32.1827
 20
74.1412
 30
0.0
 11
31.3821
 21
74.1412
 31
0.0
  0
LINE
  8
0
 62
     0
 10
31.3821
 20
74.1412
 30
0.0
 11
31.3821
 21
79.9402
 31
0.0
  0
LINE
  8
0
 62
     0
 10
31.3821
 20
79.9402
 30
0.0
 11
32.1827
 21
79.9402
 31
0.0
  0
LINE
  8
0
 62
     0
 10
32.1827
 20
79.9402
 30
0.0
 11
32.1827
 21
83.0407
 31
0.0
  0
LINE
  8
0
 62
     0
 10
32.1827
 20
83.0407
 30
0.0
 11
31.3821
 21
83.0407
 31
0.0
  0
LINE
  8
0
 62
     0
 10
31.3821
 20
83.0407
 30
0.0
 11
31.3821
 21
84.0412
 31
0.0
  0
LINE
  8
0
 62
     0
 10
31.3821
 20
84.0412
 30
0.0
 11
17.3826
 21
84.0412
 31
0.0
  0
LINE
  8
0
 62
     0
 10
269.795
 20
103.091
 30
0.0
 11
269.795
 21
102.091
 31
0.0
  0
LINE
  8
0
 62
     0
 10
269.795
 20
102.091
 30
0.0
 11
268.996
 21
102.091
 31
0.0
  0
LINE
  8
0
 62
     0
 10
268.996
 20
102.091
 30
0.0
 11
268.996
 21
98.9901
 31
0.0
  0
LINE
  8
0
 62
     0
 10
268.996
 20
98.9901
 30
0.0
 11
269.795
 21
98.9901
 31
0.0
  0
LINE
  8
0
 62
     0
 10
269.795
 20
98.9901
 30
0.0
 11
269.795
 21
98.3918
 31
0.0
  0
LINE
  8
0
 62
     0
 10
269.795
 20
98.3918
 30
0.0
 11
268.271
 21
98.3918
 31
0.0
  0
LINE
  8
0
 62
     0
 10
268.271
 20
98.3918
 30
0.0
 11
268.271
 21
101.622
 31
0.0
  0
LINE
  8
0
 62
     0
 10
268.271
 20
101.622
 30
0.0
 11
266.546
 21
101.622
 31
0.0
  0
LINE
  8
0
 62
     0
 10
266.546
 20
101.622
 30
0.0
 11
266.546
 21
102.541
 31
0.0
  0
LINE
  8
0
 62
     0
 10
266.546
 20
102.541
 30
0.0
 11
263.245
 21
102.541
 31
0.0
  0
LINE
  8
0
 62
     0
 10
263.245
 20
102.541
 30
0.0
 11
263.245
 21
101.622
 31
0.0
  0
LINE
  8
0
 62
     0
 10
263.245
 20
101.622
 30
0.0
 11
261.52
 21
101.622
 31
0.0
  0
LINE
  8
0
 62
     0
 10
261.52
 20
101.622
 30
0.0
 11
261.52
 21
98.3918
 31
0.0
  0
LINE
  8
0
 62
     0
 10
261.52
 20
98.3918
 30
0.0
 11
260.696
 21
98.3918
 31
0.0
  0
LINE
  8
0
 62
     0
 10
260.696
 20
98.3918
 30
0.0
 11
260.696
 21
95.5904
 31
0.0
  0
LINE
  8
0
 62
     0
 10
260.696
 20
95.5904
 30
0.0
 11
261.52
 21
95.5904
 31
0.0
  0
LINE
  8
0
 62
     0
 10
261.52
 20
95.5904
 30
0.0
 11
261.52
 21
89.3216
 31
0.0
  0
LINE
  8
0
 62
     0
 10
261.52
 20
89.3216
 30
0.0
 11
263.245
 21
89.3216
 31
0.0
  0
LINE
  8
0
 62
     0
 10
263.245
 20
89.3216
 30
0.0
 11
263.245
 21
88.3405
 31
0.0
  0
LINE
  8
0
 62
     0
 10
263.245
 20
88.3405
 30
0.0
 11
266.546
 21
88.3405
 31
0.0
  0
LINE
  8
0
 62
     0
 10
266.546
 20
88.3405
 30
0.0
 11
266.546
 21
89.3216
 31
0.0
  0
LINE
  8
0
 62
     0
 10
266.546
 20
89.3216
 30
0.0
 11
268.271
 21
89.3216
 31
0.0
  0
LINE
  8
0
 62
     0
 10
268.271
 20
89.3216
 30
0.0
 11
268.271
 21
93.7906
 31
0.0
  0
LINE
  8
0
 62
     0
 10
268.271
 20
93.7906
 30
0.0
 11
269.795
 21
93.7906
 31
0.0
  0
LINE
  8
0
 62
     0
 10
269.795
 20
93.7906
 30
0.0
 11
269.795
 21
93.1912
 31
0.0
  0
LINE
  8
0
 62
     0
 10
269.795
 20
93.1912
 30
0.0
 11
268.996
 21
93.1912
 31
0.0
  0
LINE
  8
0
 62
     0
 10
268.996
 20
93.1912
 30
0.0
 11
268.996
 21
90.0906
 31
0.0
  0
LINE
  8
0
 62
     0
 10
268.996
 20
90.0906
 30
0.0
 11
269.795
 21
90.0906
 31
0.0
  0
LINE
  8
0
 62
     0
 10
269.795
 20
90.0906
 30
0.0
 11
269.795
 21
89.0901
 31
0.0
  0
LINE
  8
0
 62
     0
 10
269.795
 20
89.0901
 30
0.0
 11
283.796
 21
89.0901
 31
0.0
  0
LINE
  8
0
 62
     0
 10
283.796
 20
89.0901
 30
0.0
 11
283.796
 21
90.0906
 31
0.0
  0
LINE
  8
0
 62
     0
 10
283.796
 20
90.0906
 30
0.0
 11
284.595
 21
90.0906
 31
0.0
  0
LINE
  8
0
 62
     0
 10
284.595
 20
90.0906
 30
0.0
 11
284.595
 21
93.1912
 31
0.0
  0
LINE
  8
0
 62
     0
 10
284.595
 20
93.1912
 30
0.0
 11
283.796
 21
93.1912
 31
0.0
  0
LINE
  8
0
 62
     0
 10
283.796
 20
93.1912
 30
0.0
 11
283.796
 21
93.7906
 31
0.0
  0
LINE
  8
0
 62
     0
 10
283.796
 20
93.7906
 30
0.0
 11
285.32
 21
93.7906
 31
0.0
  0
LINE
  8
0
 62
     0
 10
285.32
 20
93.7906
 30
0.0
 11
285.32
 21
89.3216
 31
0.0
  0
LINE
  8
0
 62
     0
 10
285.32
 20
89.3216
 30
0.0
 11
287.045
 21
89.3216
 31
0.0
  0
LINE
  8
0
 62
     0
 10
287.045
 20
89.3216
 30
0.0
 11
287.045
 21
88.3405
 31
0.0
  0
LINE
  8
0
 62
     0
 10
287.045
 20
88.3405
 30
0.0
 11
290.346
 21
88.3405
 31
0.0
  0
LINE
  8
0
 62
     0
 10
290.346
 20
88.3405
 30
0.0
 11
290.346
 21
89.3216
 31
0.0
  0
LINE
  8
0
 62
     0
 10
290.346
 20
89.3216
 30
0.0
 11
292.071
 21
89.3216
 31
0.0
  0
LINE
  8
0
 62
     0
 10
292.071
 20
89.3216
 30
0.0
 11
292.071
 21
95.5904
 31
0.0
  0
LINE
  8
0
 62
     0
 10
292.071
 20
95.5904
 30
0.0
 11
292.895
 21
95.5904
 31
0.0
  0
LINE
  8
0
 62
     0
 10
292.895
 20
95.5904
 30
0.0
 11
292.895
 21
98.3918
 31
0.0
  0
LINE
  8
0
 62
     0
 10
292.895
 20
98.3918
 30
0.0
 11
292.071
 21
98.3918
 31
0.0
  0
LINE
  8
0
 62
     0
 10
292.071
 20
98.3918
 30
0.0
 11
292.071
 21
101.622
 31
0.0
  0
LINE
  8
0
 62
     0
 10
292.071
 20
101.622
 30
0.0
 11
290.346
 21
101.622
 31
0.0
  0
LINE
  8
0
 62
     0
 10
290.346
 20
101.622
 30
0.0
 11
290.346
 21
102.541
 31
0.0
  0
LINE
  8
0
 62
     0
 10
290.346
 20
102.541
 30
0.0
 11
287.045
 21
102.541
 31
0.0
  0
LINE
  8
0
 62
     0
 10
287.045
 20
102.541
 30
0.0
 11
287.045
 21
101.622
 31
0.0
  0
LINE
  8
0
 62
     0
 10
287.045
 20
101.622
 30
0.0
 11
285.32
 21
101.622
 31
0.0
  0
LINE
  8
0
 62
     0
 10
285.32
 20
101.622
 30
0.0
 11
285.32
 21
98.3918
 31
0.0
  0
LINE
  8
0
 62
     0
 10
285.32
 20
98.3918
 30
0.0
 11
283.796
 21
98.3918
 31
0.0
  0
LINE
  8
0
 62
     0
 10
283.796
 20
98.3918
 30
0.0
 11
283.796
 21
98.9901
 31
0.0
  0
LINE
  8
0
 62
     0
 10
283.796
 20
98.9901
 30
0.0
 11
284.595
 21
98.9901
 31
0.0
  0
LINE
  8
0
 62
     0
 10
284.595
 20
98.9901
 30
0.0
 11
284.595
 21
102.091
 31
0.0
  0
LINE
  8
0
 62
     0
 10
284.595
 20
102.091
 30
0.0
 11
283.796
 21
102.091
 31
0.0
  0
LINE
  8
0
 62
     0
 10
283.796
 20
102.091
 30
0.0
 11
283.796
 21
103.091
 31
0.0
  0
LINE
  8
0
 62
     0
 10
283.796
 20
103.091
 30
0.0
 11
269.795
 21
103.091
 31
0.0
  0
LINE
  8
0
 62
     0
 10
322.182
 20
103.091
 30
0.0
 11
322.182
 21
102.091
 31
0.0
  0
LINE
  8
0
 62
     0
 10
322.182
 20
102.091
 30
0.0
 11
321.382
 21
102.091
 31
0.0
  0
LINE
  8
0
 62
     0
 10
321.382
 20
102.091
 30
0.0
 11
321.382
 21
98.9901
 31
0.0
  0
LINE
  8
0
 62
     0
 10
321.382
 20
98.9901
 30
0.0
 11
322.182
 21
98.9901
 31
0.0
  0
LINE
  8
0
 62
     0
 10
322.182
 20
98.9901
 30
0.0
 11
322.182
 21
93.1912
 31
0.0
  0
LINE
  8
0
 62
     0
 10
322.182
 20
93.1912
 30
0.0
 11
321.382
 21
93.1912
 31
0.0
  0
LINE
  8
0
 62
     0
 10
321.382
 20
93.1912
 30
0.0
 11
321.382
 21
90.0906
 31
0.0
  0
LINE
  8
0
 62
     0
 10
321.382
 20
90.0906
 30
0.0
 11
322.182
 21
90.0906
 31
0.0
  0
LINE
  8
0
 62
     0
 10
322.182
 20
90.0906
 30
0.0
 11
322.182
 21
89.0901
 31
0.0
  0
LINE
  8
0
 62
     0
 10
322.182
 20
89.0901
 30
0.0
 11
336.182
 21
89.0901
 31
0.0
  0
LINE
  8
0
 62
     0
 10
336.182
 20
89.0901
 30
0.0
 11
336.182
 21
90.0906
 31
0.0
  0
LINE
  8
0
 62
     0
 10
336.182
 20
90.0906
 30
0.0
 11
336.983
 21
90.0906
 31
0.0
  0
LINE
  8
0
 62
     0
 10
336.983
 20
90.0906
 30
0.0
 11
336.983
 21
93.1912
 31
0.0
  0
LINE
  8
0
 62
     0
 10
336.983
 20
93.1912
 30
0.0
 11
336.182
 21
93.1912
 31
0.0
  0
LINE
  8
0
 62
     0
 10
336.182
 20
93.1912
 30
0.0
 11
336.182
 21
98.9901
 31
0.0
  0
LINE
  8
0
 62
     0
 10
336.182
 20
98.9901
 30
0.0
 11
336.983
 21
98.9901
 31
0.0
  0
LINE
  8
0
 62
     0
 10
336.983
 20
98.9901
 30
0.0
 11
336.983
 21
102.091
 31
0.0
  0
LINE
  8
0
 62
     0
 10
336.983
 20
102.091
 30
0.0
 11
336.182
 21
102.091
 31
0.0
  0
LINE
  8
0
 62
     0
 10
336.182
 20
102.091
 30
0.0
 11
336.182
 21
103.091
 31
0.0
  0
LINE
  8
0
 62
     0
 10
336.182
 20
103.091
 30
0.0
 11
322.182
 21
103.091
 31
0.0
  0
LINE
  8
0
 62
     0
 10
303.132
 20
103.091
 30
0.0
 11
303.132
 21
102.091
 31
0.0
  0
LINE
  8
0
 62
     0
 10
303.132
 20
102.091
 30
0.0
 11
302.332
 21
102.091
 31
0.0
  0
LINE
  8
0
 62
     0
 10
302.332
 20
102.091
 30
0.0
 11
302.332
 21
98.9901
 31
0.0
  0
LINE
  8
0
 62
     0
 10
302.332
 20
98.9901
 30
0.0
 11
303.132
 21
98.9901
 31
0.0
  0
LINE
  8
0
 62
     0
 10
303.132
 20
98.9901
 30
0.0
 11
303.132
 21
93.1912
 31
0.0
  0
LINE
  8
0
 62
     0
 10
303.132
 20
93.1912
 30
0.0
 11
302.332
 21
93.1912
 31
0.0
  0
LINE
  8
0
 62
     0
 10
302.332
 20
93.1912
 30
0.0
 11
302.332
 21
90.0906
 31
0.0
  0
LINE
  8
0
 62
     0
 10
302.332
 20
90.0906
 30
0.0
 11
303.132
 21
90.0906
 31
0.0
  0
LINE
  8
0
 62
     0
 10
303.132
 20
90.0906
 30
0.0
 11
303.132
 21
89.0901
 31
0.0
  0
LINE
  8
0
 62
     0
 10
303.132
 20
89.0901
 30
0.0
 11
317.132
 21
89.0901
 31
0.0
  0
LINE
  8
0
 62
     0
 10
317.132
 20
89.0901
 30
0.0
 11
317.132
 21
90.0906
 31
0.0
  0
LINE
  8
0
 62
     0
 10
317.132
 20
90.0906
 30
0.0
 11
317.933
 21
90.0906
 31
0.0
  0
LINE
  8
0
 62
     0
 10
317.933
 20
90.0906
 30
0.0
 11
317.933
 21
93.1912
 31
0.0
  0
LINE
  8
0
 62
     0
 10
317.933
 20
93.1912
 30
0.0
 11
317.132
 21
93.1912
 31
0.0
  0
LINE
  8
0
 62
     0
 10
317.132
 20
93.1912
 30
0.0
 11
317.132
 21
98.9901
 31
0.0
  0
LINE
  8
0
 62
     0
 10
317.132
 20
98.9901
 30
0.0
 11
317.933
 21
98.9901
 31
0.0
  0
LINE
  8
0
 62
     0
 10
317.933
 20
98.9901
 30
0.0
 11
317.933
 21
102.091
 31
0.0
  0
LINE
  8
0
 62
     0
 10
317.933
 20
102.091
 30
0.0
 11
317.132
 21
102.091
 31
0.0
  0
LINE
  8
0
 62
     0
 10
317.132
 20
102.091
 30
0.0
 11
317.132
 21
103.091
 31
0.0
  0
LINE
  8
0
 62
     0
 10
317.132
 20
103.091
 30
0.0
 11
303.132
 21
103.091
 31
0.0
  0
LINE
  8
0
 62
     0
 10
241.22
 20
103.091
 30
0.0
 11
241.22
 21
102.091
 31
0.0
  0
LINE
  8
0
 62
     0
 10
241.22
 20
102.091
 30
0.0
 11
240.421
 21
102.091
 31
0.0
  0
LINE
  8
0
 62
     0
 10
240.421
 20
102.091
 30
0.0
 11
240.421
 21
98.9901
 31
0.0
  0
LINE
  8
0
 62
     0
 10
240.421
 20
98.9901
 30
0.0
 11
241.22
 21
98.9901
 31
0.0
  0
LINE
  8
0
 62
     0
 10
241.22
 20
98.9901
 30
0.0
 11
241.22
 21
93.1912
 31
0.0
  0
LINE
  8
0
 62
     0
 10
241.22
 20
93.1912
 30
0.0
 11
240.421
 21
93.1912
 31
0.0
  0
LINE
  8
0
 62
     0
 10
240.421
 20
93.1912
 30
0.0
 11
240.421
 21
90.0906
 31
0.0
  0
LINE
  8
0
 62
     0
 10
240.421
 20
90.0906
 30
0.0
 11
241.22
 21
90.0906
 31
0.0
  0
LINE
  8
0
 62
     0
 10
241.22
 20
90.0906
 30
0.0
 11
241.22
 21
89.0901
 31
0.0
  0
LINE
  8
0
 62
     0
 10
241.22
 20
89.0901
 30
0.0
 11
255.221
 21
89.0901
 31
0.0
  0
LINE
  8
0
 62
     0
 10
255.221
 20
89.0901
 30
0.0
 11
255.221
 21
90.0906
 31
0.0
  0
LINE
  8
0
 62
     0
 10
255.221
 20
90.0906
 30
0.0
 11
256.02
 21
90.0906
 31
0.0
  0
LINE
  8
0
 62
     0
 10
256.02
 20
90.0906
 30
0.0
 11
256.02
 21
93.1912
 31
0.0
  0
LINE
  8
0
 62
     0
 10
256.02
 20
93.1912
 30
0.0
 11
255.221
 21
93.1912
 31
0.0
  0
LINE
  8
0
 62
     0
 10
255.221
 20
93.1912
 30
0.0
 11
255.221
 21
98.9901
 31
0.0
  0
LINE
  8
0
 62
     0
 10
255.221
 20
98.9901
 30
0.0
 11
256.02
 21
98.9901
 31
0.0
  0
LINE
  8
0
 62
     0
 10
256.02
 20
98.9901
 30
0.0
 11
256.02
 21
102.091
 31
0.0
  0
LINE
  8
0
 62
     0
 10
256.02
 20
102.091
 30
0.0
 11
255.221
 21
102.091
 31
0.0
  0
LINE
  8
0
 62
     0
 10
255.221
 20
102.091
 30
0.0
 11
255.221
 21
103.091
 31
0.0
  0
LINE
  8
0
 62
     0
 10
255.221
 20
103.091
 30
0.0
 11
241.22
 21
103.091
 31
0.0
  0
LINE
  8
0
 62
     0
 10
222.17
 20
103.091
 30
0.0
 11
222.17
 21
102.091
 31
0.0
  0
LINE
  8
0
 62
     0
 10
222.17
 20
102.091
 30
0.0
 11
221.371
 21
102.091
 31
0.0
  0
LINE
  8
0
 62
     0
 10
221.371
 20
102.091
 30
0.0
 11
221.371
 21
98.9901
 31
0.0
  0
LINE
  8
0
 62
     0
 10
221.371
 20
98.9901
 30
0.0
 11
222.17
 21
98.9901
 31
0.0
  0
LINE
  8
0
 62
     0
 10
222.17
 20
98.9901
 30
0.0
 11
222.17
 21
93.1912
 31
0.0
  0
LINE
  8
0
 62
     0
 10
222.17
 20
93.1912
 30
0.0
 11
221.371
 21
93.1912
 31
0.0
  0
LINE
  8
0
 62
     0
 10
221.371
 20
93.1912
 30
0.0
 11
221.371
 21
90.0906
 31
0.0
  0
LINE
  8
0
 62
     0
 10
221.371
 20
90.0906
 30
0.0
 11
222.17
 21
90.0906
 31
0.0
  0
LINE
  8
0
 62
     0
 10
222.17
 20
90.0906
 30
0.0
 11
222.17
 21
89.0901
 31
0.0
  0
LINE
  8
0
 62
     0
 10
222.17
 20
89.0901
 30
0.0
 11
236.171
 21
89.0901
 31
0.0
  0
LINE
  8
0
 62
     0
 10
236.171
 20
89.0901
 30
0.0
 11
236.171
 21
90.0906
 31
0.0
  0
LINE
  8
0
 62
     0
 10
236.171
 20
90.0906
 30
0.0
 11
236.97
 21
90.0906
 31
0.0
  0
LINE
  8
0
 62
     0
 10
236.97
 20
90.0906
 30
0.0
 11
236.97
 21
93.1912
 31
0.0
  0
LINE
  8
0
 62
     0
 10
236.97
 20
93.1912
 30
0.0
 11
236.171
 21
93.1912
 31
0.0
  0
LINE
  8
0
 62
     0
 10
236.171
 20
93.1912
 30
0.0
 11
236.171
 21
98.9901
 31
0.0
  0
LINE
  8
0
 62
     0
 10
236.171
 20
98.9901
 30
0.0
 11
236.97
 21
98.9901
 31
0.0
  0
LINE
  8
0
 62
     0
 10
236.97
 20
98.9901
 30
0.0
 11
236.97
 21
102.091
 31
0.0
  0
LINE
  8
0
 62
     0
 10
236.97
 20
102.091
 30
0.0
 11
236.171
 21
102.091
 31
0.0
  0
LINE
  8
0
 62
     0
 10
236.171
 20
102.091
 30
0.0
 11
236.171
 21
103.091
 31
0.0
  0
LINE
  8
0
 62
     0
 10
236.171
 20
103.091
 30
0.0
 11
222.17
 21
103.091
 31
0.0
  0
LINE
  8
0
 62
     0
 10
203.12
 20
103.091
 30
0.0
 11
203.12
 21
102.091
 31
0.0
  0
LINE
  8
0
 62
     0
 10
203.12
 20
102.091
 30
0.0
 11
202.321
 21
102.091
 31
0.0
  0
LINE
  8
0
 62
     0
 10
202.321
 20
102.091
 30
0.0
 11
202.321
 21
98.9901
 31
0.0
  0
LINE
  8
0
 62
     0
 10
202.321
 20
98.9901
 30
0.0
 11
203.12
 21
98.9901
 31
0.0
  0
LINE
  8
0
 62
     0
 10
203.12
 20
98.9901
 30
0.0
 11
203.12
 21
93.1912
 31
0.0
  0
LINE
  8
0
 62
     0
 10
203.12
 20
93.1912
 30
0.0
 11
202.321
 21
93.1912
 31
0.0
  0
LINE
  8
0
 62
     0
 10
202.321
 20
93.1912
 30
0.0
 11
202.321
 21
90.0906
 31
0.0
  0
LINE
  8
0
 62
     0
 10
202.321
 20
90.0906
 30
0.0
 11
203.12
 21
90.0906
 31
0.0
  0
LINE
  8
0
 62
     0
 10
203.12
 20
90.0906
 30
0.0
 11
203.12
 21
89.0901
 31
0.0
  0
LINE
  8
0
 62
     0
 10
203.12
 20
89.0901
 30
0.0
 11
217.121
 21
89.0901
 31
0.0
  0
LINE
  8
0
 62
     0
 10
217.121
 20
89.0901
 30
0.0
 11
217.121
 21
90.0906
 31
0.0
  0
LINE
  8
0
 62
     0
 10
217.121
 20
90.0906
 30
0.0
 11
217.92
 21
90.0906
 31
0.0
  0
LINE
  8
0
 62
     0
 10
217.92
 20
90.0906
 30
0.0
 11
217.92
 21
93.1912
 31
0.0
  0
LINE
  8
0
 62
     0
 10
217.92
 20
93.1912
 30
0.0
 11
217.121
 21
93.1912
 31
0.0
  0
LINE
  8
0
 62
     0
 10
217.121
 20
93.1912
 30
0.0
 11
217.121
 21
98.9901
 31
0.0
  0
LINE
  8
0
 62
     0
 10
217.121
 20
98.9901
 30
0.0
 11
217.92
 21
98.9901
 31
0.0
  0
LINE
  8
0
 62
     0
 10
217.92
 20
98.9901
 30
0.0
 11
217.92
 21
102.091
 31
0.0
  0
LINE
  8
0
 62
     0
 10
217.92
 20
102.091
 30
0.0
 11
217.121
 21
102.091
 31
0.0
  0
LINE
  8
0
 62
     0
 10
217.121
 20
102.091
 30
0.0
 11
217.121
 21
103.091
 31
0.0
  0
LINE
  8
0
 62
     0
 10
217.121
 20
103.091
 30
0.0
 11
203.12
 21
103.091
 31
0.0
  0
LINE
  8
0
 62
     0
 10
184.07
 20
103.091
 30
0.0
 11
184.07
 21
102.091
 31
0.0
  0
LINE
  8
0
 62
     0
 10
184.07
 20
102.091
 30
0.0
 11
183.271
 21
102.091
 31
0.0
  0
LINE
  8
0
 62
     0
 10
183.271
 20
102.091
 30
0.0
 11
183.271
 21
98.9901
 31
0.0
  0
LINE
  8
0
 62
     0
 10
183.271
 20
98.9901
 30
0.0
 11
184.07
 21
98.9901
 31
0.0
  0
LINE
  8
0
 62
     0
 10
184.07
 20
98.9901
 30
0.0
 11
184.07
 21
93.1912
 31
0.0
  0
LINE
  8
0
 62
     0
 10
184.07
 20
93.1912
 30
0.0
 11
183.271
 21
93.1912
 31
0.0
  0
LINE
  8
0
 62
     0
 10
183.271
 20
93.1912
 30
0.0
 11
183.271
 21
90.0906
 31
0.0
  0
LINE
  8
0
 62
     0
 10
183.271
 20
90.0906
 30
0.0
 11
184.07
 21
90.0906
 31
0.0
  0
LINE
  8
0
 62
     0
 10
184.07
 20
90.0906
 30
0.0
 11
184.07
 21
89.0901
 31
0.0
  0
LINE
  8
0
 62
     0
 10
184.07
 20
89.0901
 30
0.0
 11
198.071
 21
89.0901
 31
0.0
  0
LINE
  8
0
 62
     0
 10
198.071
 20
89.0901
 30
0.0
 11
198.071
 21
90.0906
 31
0.0
  0
LINE
  8
0
 62
     0
 10
198.071
 20
90.0906
 30
0.0
 11
198.87
 21
90.0906
 31
0.0
  0
LINE
  8
0
 62
     0
 10
198.87
 20
90.0906
 30
0.0
 11
198.87
 21
93.1912
 31
0.0
  0
LINE
  8
0
 62
     0
 10
198.87
 20
93.1912
 30
0.0
 11
198.071
 21
93.1912
 31
0.0
  0
LINE
  8
0
 62
     0
 10
198.071
 20
93.1912
 30
0.0
 11
198.071
 21
98.9901
 31
0.0
  0
LINE
  8
0
 62
     0
 10
198.071
 20
98.9901
 30
0.0
 11
198.87
 21
98.9901
 31
0.0
  0
LINE
  8
0
 62
     0
 10
198.87
 20
98.9901
 30
0.0
 11
198.87
 21
102.091
 31
0.0
  0
LINE
  8
0
 62
     0
 10
198.87
 20
102.091
 30
0.0
 11
198.071
 21
102.091
 31
0.0
  0
LINE
  8
0
 62
     0
 10
198.071
 20
102.091
 30
0.0
 11
198.071
 21
103.091
 31
0.0
  0
LINE
  8
0
 62
     0
 10
198.071
 20
103.091
 30
0.0
 11
184.07
 21
103.091
 31
0.0
  0
LINE
  8
0
 62
     0
 10
165.02
 20
103.091
 30
0.0
 11
165.02
 21
102.091
 31
0.0
  0
LINE
  8
0
 62
     0
 10
165.02
 20
102.091
 30
0.0
 11
164.221
 21
102.091
 31
0.0
  0
LINE
  8
0
 62
     0
 10
164.221
 20
102.091
 30
0.0
 11
164.221
 21
98.9901
 31
0.0
  0
LINE
  8
0
 62
     0
 10
164.221
 20
98.9901
 30
0.0
 11
165.02
 21
98.9901
 31
0.0
  0
LINE
  8
0
 62
     0
 10
165.02
 20
98.9901
 30
0.0
 11
165.02
 21
93.1912
 31
0.0
  0
LINE
  8
0
 62
     0
 10
165.02
 20
93.1912
 30
0.0
 11
164.221
 21
93.1912
 31
0.0
  0
LINE
  8
0
 62
     0
 10
164.221
 20
93.1912
 30
0.0
 11
164.221
 21
90.0906
 31
0.0
  0
LINE
  8
0
 62
     0
 10
164.221
 20
90.0906
 30
0.0
 11
165.02
 21
90.0906
 31
0.0
  0
LINE
  8
0
 62
     0
 10
165.02
 20
90.0906
 30
0.0
 11
165.02
 21
89.0901
 31
0.0
  0
LINE
  8
0
 62
     0
 10
165.02
 20
89.0901
 30
0.0
 11
179.021
 21
89.0901
 31
0.0
  0
LINE
  8
0
 62
     0
 10
179.021
 20
89.0901
 30
0.0
 11
179.021
 21
90.0906
 31
0.0
  0
LINE
  8
0
 62
     0
 10
179.021
 20
90.0906
 30
0.0
 11
179.82
 21
90.0906
 31
0.0
  0
LINE
  8
0
 62
     0
 10
179.82
 20
90.0906
 30
0.0
 11
179.82
 21
93.1912
 31
0.0
  0
LINE
  8
0
 62
     0
 10
179.82
 20
93.1912
 30
0.0
 11
179.021
 21
93.1912
 31
0.0
  0
LINE
  8
0
 62
     0
 10
179.021
 20
93.1912
 30
0.0
 11
179.021
 21
98.9901
 31
0.0
  0
LINE
  8
0
 62
     0
 10
179.021
 20
98.9901
 30
0.0
 11
179.82
 21
98.9901
 31
0.0
  0
LINE
  8
0
 62
     0
 10
179.82
 20
98.9901
 30
0.0
 11
179.82
 21
102.091
 31
0.0
  0
LINE
  8
0
 62
     0
 10
179.82
 20
102.091
 30
0.0
 11
179.021
 21
102.091
 31
0.0
  0
LINE
  8
0
 62
     0
 10
179.021
 20
102.091
 30
0.0
 11
179.021
 21
103.091
 31
0.0
  0
LINE
  8
0
 62
     0
 10
179.021
 20
103.091
 30
0.0
 11
165.02
 21
103.091
 31
0.0
  0
LINE
  8
0
 62
     0
 10
145.97
 20
103.091
 30
0.0
 11
145.97
 21
102.091
 31
0.0
  0
LINE
  8
0
 62
     0
 10
145.97
 20
102.091
 30
0.0
 11
145.171
 21
102.091
 31
0.0
  0
LINE
  8
0
 62
     0
 10
145.171
 20
102.091
 30
0.0
 11
145.171
 21
98.9901
 31
0.0
  0
LINE
  8
0
 62
     0
 10
145.171
 20
98.9901
 30
0.0
 11
145.97
 21
98.9901
 31
0.0
  0
LINE
  8
0
 62
     0
 10
145.97
 20
98.9901
 30
0.0
 11
145.97
 21
93.1912
 31
0.0
  0
LINE
  8
0
 62
     0
 10
145.97
 20
93.1912
 30
0.0
 11
145.171
 21
93.1912
 31
0.0
  0
LINE
  8
0
 62
     0
 10
145.171
 20
93.1912
 30
0.0
 11
145.171
 21
90.0906
 31
0.0
  0
LINE
  8
0
 62
     0
 10
145.171
 20
90.0906
 30
0.0
 11
145.97
 21
90.0906
 31
0.0
  0
LINE
  8
0
 62
     0
 10
145.97
 20
90.0906
 30
0.0
 11
145.97
 21
89.0901
 31
0.0
  0
LINE
  8
0
 62
     0
 10
145.97
 20
89.0901
 30
0.0
 11
159.971
 21
89.0901
 31
0.0
  0
LINE
  8
0
 62
     0
 10
159.971
 20
89.0901
 30
0.0
 11
159.971
 21
90.0906
 31
0.0
  0
LINE
  8
0
 62
     0
 10
159.971
 20
90.0906
 30
0.0
 11
160.77
 21
90.0906
 31
0.0
  0
LINE
  8
0
 62
     0
 10
160.77
 20
90.0906
 30
0.0
 11
160.77
 21
93.1912
 31
0.0
  0
LINE
  8
0
 62
     0
 10
160.77
 20
93.1912
 30
0.0
 11
159.971
 21
93.1912
 31
0.0
  0
LINE
  8
0
 62
     0
 10
159.971
 20
93.1912
 30
0.0
 11
159.971
 21
98.9901
 31
0.0
  0
LINE
  8
0
 62
     0
 10
159.971
 20
98.9901
 30
0.0
 11
160.77
 21
98.9901
 31
0.0
  0
LINE
  8
0
 62
     0
 10
160.77
 20
98.9901
 30
0.0
 11
160.77
 21
102.091
 31
0.0
  0
LINE
  8
0
 62
     0
 10
160.77
 20
102.091
 30
0.0
 11
159.971
 21
102.091
 31
0.0
  0
LINE
  8
0
 62
     0
 10
159.971
 20
102.091
 30
0.0
 11
159.971
 21
103.091
 31
0.0
  0
LINE
  8
0
 62
     0
 10
159.971
 20
103.091
 30
0.0
 11
145.97
 21
103.091
 31
0.0
  0
LINE
  8
0
 62
     0
 10
126.92
 20
103.091
 30
0.0
 11
126.92
 21
102.091
 31
0.0
  0
LINE
  8
0
 62
     0
 10
126.92
 20
102.091
 30
0.0
 11
126.119
 21
102.091
 31
0.0
  0
LINE
  8
0
 62
     0
 10
126.119
 20
102.091
 30
0.0
 11
126.119
 21
98.9901
 31
0.0
  0
LINE
  8
0
 62
     0
 10
126.119
 20
98.9901
 30
0.0
 11
126.92
 21
98.9901
 31
0.0
  0
LINE
  8
0
 62
     0
 10
126.92
 20
98.9901
 30
0.0
 11
126.92
 21
93.1912
 31
0.0
  0
LINE
  8
0
 62
     0
 10
126.92
 20
93.1912
 30
0.0
 11
126.119
 21
93.1912
 31
0.0
  0
LINE
  8
0
 62
     0
 10
126.119
 20
93.1912
 30
0.0
 11
126.119
 21
90.0906
 31
0.0
  0
LINE
  8
0
 62
     0
 10
126.119
 20
90.0906
 30
0.0
 11
126.92
 21
90.0906
 31
0.0
  0
LINE
  8
0
 62
     0
 10
126.92
 20
90.0906
 30
0.0
 11
126.92
 21
89.0901
 31
0.0
  0
LINE
  8
0
 62
     0
 10
126.92
 20
89.0901
 30
0.0
 11
140.921
 21
89.0901
 31
0.0
  0
LINE
  8
0
 62
     0
 10
140.921
 20
89.0901
 30
0.0
 11
140.921
 21
90.0906
 31
0.0
  0
LINE
  8
0
 62
     0
 10
140.921
 20
90.0906
 30
0.0
 11
141.72
 21
90.0906
 31
0.0
  0
LINE
  8
0
 62
     0
 10
141.72
 20
90.0906
 30
0.0
 11
141.72
 21
93.1912
 31
0.0
  0
LINE
  8
0
 62
     0
 10
141.72
 20
93.1912
 30
0.0
 11
140.921
 21
93.1912
 31
0.0
  0
LINE
  8
0
 62
     0
 10
140.921
 20
93.1912
 30
0.0
 11
140.921
 21
98.9901
 31
0.0
  0
LINE
  8
0
 62
     0
 10
140.921
 20
98.9901
 30
0.0
 11
141.72
 21
98.9901
 31
0.0
  0
LINE
  8
0
 62
     0
 10
141.72
 20
98.9901
 30
0.0
 11
141.72
 21
102.091
 31
0.0
  0
LINE
  8
0
 62
     0
 10
141.72
 20
102.091
 30
0.0
 11
140.921
 21
102.091
 31
0.0
  0
LINE
  8
0
 62
     0
 10
140.921
 20
102.091
 30
0.0
 11
140.921
 21
103.091
 31
0.0
  0
LINE
  8
0
 62
     0
 10
140.921
 20
103.091
 30
0.0
 11
126.92
 21
103.091
 31
0.0
  0
LINE
  8
0
 62
     0
 10
107.87
 20
103.091
 30
0.0
 11
107.87
 21
102.091
 31
0.0
  0
LINE
  8
0
 62
     0
 10
107.87
 20
102.091
 30
0.0
 11
107.071
 21
102.091
 31
0.0
  0
LINE
  8
0
 62
     0
 10
107.071
 20
102.091
 30
0.0
 11
107.071
 21
98.9901
 31
0.0
  0
LINE
  8
0
 62
     0
 10
107.071
 20
98.9901
 30
0.0
 11
107.87
 21
98.9901
 31
0.0
  0
LINE
  8
0
 62
     0
 10
107.87
 20
98.9901
 30
0.0
 11
107.87
 21
93.1912
 31
0.0
  0
LINE
  8
0
 62
     0
 10
107.87
 20
93.1912
 30
0.0
 11
107.071
 21
93.1912
 31
0.0
  0
LINE
  8
0
 62
     0
 10
107.071
 20
93.1912
 30
0.0
 11
107.071
 21
90.0906
 31
0.0
  0
LINE
  8
0
 62
     0
 10
107.071
 20
90.0906
 30
0.0
 11
107.87
 21
90.0906
 31
0.0
  0
LINE
  8
0
 62
     0
 10
107.87
 20
90.0906
 30
0.0
 11
107.87
 21
89.0901
 31
0.0
  0
LINE
  8
0
 62
     0
 10
107.87
 20
89.0901
 30
0.0
 11
121.87
 21
89.0901
 31
0.0
  0
LINE
  8
0
 62
     0
 10
121.87
 20
89.0901
 30
0.0
 11
121.87
 21
90.0906
 31
0.0
  0
LINE
  8
0
 62
     0
 10
121.87
 20
90.0906
 30
0.0
 11
122.669
 21
90.0906
 31
0.0
  0
LINE
  8
0
 62
     0
 10
122.669
 20
90.0906
 30
0.0
 11
122.669
 21
93.1912
 31
0.0
  0
LINE
  8
0
 62
     0
 10
122.669
 20
93.1912
 30
0.0
 11
121.87
 21
93.1912
 31
0.0
  0
LINE
  8
0
 62
     0
 10
121.87
 20
93.1912
 30
0.0
 11
121.87
 21
98.9901
 31
0.0
  0
LINE
  8
0
 62
     0
 10
121.87
 20
98.9901
 30
0.0
 11
122.669
 21
98.9901
 31
0.0
  0
LINE
  8
0
 62
     0
 10
122.669
 20
98.9901
 30
0.0
 11
122.669
 21
102.091
 31
0.0
  0
LINE
  8
0
 62
     0
 10
122.669
 20
102.091
 30
0.0
 11
121.87
 21
102.091
 31
0.0
  0
LINE
  8
0
 62
     0
 10
121.87
 20
102.091
 30
0.0
 11
121.87
 21
103.091
 31
0.0
  0
LINE
  8
0
 62
     0
 10
121.87
 20
103.091
 30
0.0
 11
107.87
 21
103.091
 31
0.0
  0
LINE
  8
0
 62
     0
 10
88.8199
 20
103.091
 30
0.0
 11
88.8199
 21
102.091
 31
0.0
  0
LINE
  8
0
 62
     0
 10
88.8199
 20
102.091
 30
0.0
 11
88.0209
 21
102.091
 31
0.0
  0
LINE
  8
0
 62
     0
 10
88.0209
 20
102.091
 30
0.0
 11
88.0209
 21
98.9901
 31
0.0
  0
LINE
  8
0
 62
     0
 10
88.0209
 20
98.9901
 30
0.0
 11
88.8199
 21
98.9901
 31
0.0
  0
LINE
  8
0
 62
     0
 10
88.8199
 20
98.9901
 30
0.0
 11
88.8199
 21
93.1912
 31
0.0
  0
LINE
  8
0
 62
     0
 10
88.8199
 20
93.1912
 30
0.0
 11
88.0209
 21
93.1912
 31
0.0
  0
LINE
  8
0
 62
     0
 10
88.0209
 20
93.1912
 30
0.0
 11
88.0209
 21
90.0906
 31
0.0
  0
LINE
  8
0
 62
     0
 10
88.0209
 20
90.0906
 30
0.0
 11
88.8199
 21
90.0906
 31
0.0
  0
LINE
  8
0
 62
     0
 10
88.8199
 20
90.0906
 30
0.0
 11
88.8199
 21
89.0901
 31
0.0
  0
LINE
  8
0
 62
     0
 10
88.8199
 20
89.0901
 30
0.0
 11
102.821
 21
89.0901
 31
0.0
  0
LINE
  8
0
 62
     0
 10
102.821
 20
89.0901
 30
0.0
 11
102.821
 21
90.0906
 31
0.0
  0
LINE
  8
0
 62
     0
 10
102.821
 20
90.0906
 30
0.0
 11
103.619
 21
90.0906
 31
0.0
  0
LINE
  8
0
 62
     0
 10
103.619
 20
90.0906
 30
0.0
 11
103.619
 21
93.1912
 31
0.0
  0
LINE
  8
0
 62
     0
 10
103.619
 20
93.1912
 30
0.0
 11
102.821
 21
93.1912
 31
0.0
  0
LINE
  8
0
 62
     0
 10
102.821
 20
93.1912
 30
0.0
 11
102.821
 21
98.9901
 31
0.0
  0
LINE
  8
0
 62
     0
 10
102.821
 20
98.9901
 30
0.0
 11
103.619
 21
98.9901
 31
0.0
  0
LINE
  8
0
 62
     0
 10
103.619
 20
98.9901
 30
0.0
 11
103.619
 21
102.091
 31
0.0
  0
LINE
  8
0
 62
     0
 10
103.619
 20
102.091
 30
0.0
 11
102.821
 21
102.091
 31
0.0
  0
LINE
  8
0
 62
     0
 10
102.821
 20
102.091
 30
0.0
 11
102.821
 21
103.091
 31
0.0
  0
LINE
  8
0
 62
     0
 10
102.821
 20
103.091
 30
0.0
 11
88.8199
 21
103.091
 31
0.0
  0
LINE
  8
0
 62
     0
 10
69.7699
 20
103.091
 30
0.0
 11
69.7699
 21
102.091
 31
0.0
  0
LINE
  8
0
 62
     0
 10
69.7699
 20
102.091
 30
0.0
 11
68.9709
 21
102.091
 31
0.0
  0
LINE
  8
0
 62
     0
 10
68.9709
 20
102.091
 30
0.0
 11
68.9709
 21
98.9901
 31
0.0
  0
LINE
  8
0
 62
     0
 10
68.9709
 20
98.9901
 30
0.0
 11
69.7699
 21
98.9901
 31
0.0
  0
LINE
  8
0
 62
     0
 10
69.7699
 20
98.9901
 30
0.0
 11
69.7699
 21
93.1912
 31
0.0
  0
LINE
  8
0
 62
     0
 10
69.7699
 20
93.1912
 30
0.0
 11
68.9709
 21
93.1912
 31
0.0
  0
LINE
  8
0
 62
     0
 10
68.9709
 20
93.1912
 30
0.0
 11
68.9709
 21
90.0906
 31
0.0
  0
LINE
  8
0
 62
     0
 10
68.9709
 20
90.0906
 30
0.0
 11
69.7699
 21
90.0906
 31
0.0
  0
LINE
  8
0
 62
     0
 10
69.7699
 20
90.0906
 30
0.0
 11
69.7699
 21
89.0901
 31
0.0
  0
LINE
  8
0
 62
     0
 10
69.7699
 20
89.0901
 30
0.0
 11
83.771
 21
89.0901
 31
0.0
  0
LINE
  8
0
 62
     0
 10
83.771
 20
89.0901
 30
0.0
 11
83.771
 21
90.0906
 31
0.0
  0
LINE
  8
0
 62
     0
 10
83.771
 20
90.0906
 30
0.0
 11
84.5704
 21
90.0906
 31
0.0
  0
LINE
  8
0
 62
     0
 10
84.5704
 20
90.0906
 30
0.0
 11
84.5704
 21
93.1912
 31
0.0
  0
LINE
  8
0
 62
     0
 10
84.5704
 20
93.1912
 30
0.0
 11
83.771
 21
93.1912
 31
0.0
  0
LINE
  8
0
 62
     0
 10
83.771
 20
93.1912
 30
0.0
 11
83.771
 21
98.9901
 31
0.0
  0
LINE
  8
0
 62
     0
 10
83.771
 20
98.9901
 30
0.0
 11
84.5704
 21
98.9901
 31
0.0
  0
LINE
  8
0
 62
     0
 10
84.5704
 20
98.9901
 30
0.0
 11
84.5704
 21
102.091
 31
0.0
  0
LINE
  8
0
 62
     0
 10
84.5704
 20
102.091
 30
0.0
 11
83.771
 21
102.091
 31
0.0
  0
LINE
  8
0
 62
     0
 10
83.771
 20
102.091
 30
0.0
 11
83.771
 21
103.091
 31
0.0
  0
LINE
  8
0
 62
     0
 10
83.771
 20
103.091
 30
0.0
 11
69.7699
 21
103.091
 31
0.0
  0
LINE
  8
0
 62
     0
 10
50.7199
 20
103.091
 30
0.0
 11
50.7199
 21
102.091
 31
0.0
  0
LINE
  8
0
 62
     0
 10
50.7199
 20
102.091
 30
0.0
 11
49.9209
 21
102.091
 31
0.0
  0
LINE
  8
0
 62
     0
 10
49.9209
 20
102.091
 30
0.0
 11
49.9209
 21
98.9901
 31
0.0
  0
LINE
  8
0
 62
     0
 10
49.9209
 20
98.9901
 30
0.0
 11
50.7199
 21
98.9901
 31
0.0
  0
LINE
  8
0
 62
     0
 10
50.7199
 20
98.9901
 30
0.0
 11
50.7199
 21
93.1912
 31
0.0
  0
LINE
  8
0
 62
     0
 10
50.7199
 20
93.1912
 30
0.0
 11
49.9209
 21
93.1912
 31
0.0
  0
LINE
  8
0
 62
     0
 10
49.9209
 20
93.1912
 30
0.0
 11
49.9209
 21
90.0906
 31
0.0
  0
LINE
  8
0
 62
     0
 10
49.9209
 20
90.0906
 30
0.0
 11
50.7199
 21
90.0906
 31
0.0
  0
LINE
  8
0
 62
     0
 10
50.7199
 20
90.0906
 30
0.0
 11
50.7199
 21
89.0901
 31
0.0
  0
LINE
  8
0
 62
     0
 10
50.7199
 20
89.0901
 30
0.0
 11
64.721
 21
89.0901
 31
0.0
  0
LINE
  8
0
 62
     0
 10
64.721
 20
89.0901
 30
0.0
 11
64.721
 21
90.0906
 31
0.0
  0
LINE
  8
0
 62
     0
 10
64.721
 20
90.0906
 30
0.0
 11
65.5204
 21
90.0906
 31
0.0
  0
LINE
  8
0
 62
     0
 10
65.5204
 20
90.0906
 30
0.0
 11
65.5204
 21
93.1912
 31
0.0
  0
LINE
  8
0
 62
     0
 10
65.5204
 20
93.1912
 30
0.0
 11
64.721
 21
93.1912
 31
0.0
  0
LINE
  8
0
 62
     0
 10
64.721
 20
93.1912
 30
0.0
 11
64.721
 21
98.9901
 31
0.0
  0
LINE
  8
0
 62
     0
 10
64.721
 20
98.9901
 30
0.0
 11
65.5204
 21
98.9901
 31
0.0
  0
LINE
  8
0
 62
     0
 10
65.5204
 20
98.9901
 30
0.0
 11
65.5204
 21
102.091
 31
0.0
  0
LINE
  8
0
 62
     0
 10
65.5204
 20
102.091
 30
0.0
 11
64.721
 21
102.091
 31
0.0
  0
LINE
  8
0
 62
     0
 10
64.721
 20
102.091
 30
0.0
 11
64.721
 21
103.091
 31
0.0
  0
LINE
  8
0
 62
     0
 10
64.721
 20
103.091
 30
0.0
 11
50.7199
 21
103.091
 31
0.0
  0
LINE
  8
0
 62
     0
 10
31.6701
 20
103.091
 30
0.0
 11
31.6701
 21
102.091
 31
0.0
  0
LINE
  8
0
 62
     0
 10
31.6701
 20
102.091
 30
0.0
 11
30.8708
 21
102.091
 31
0.0
  0
LINE
  8
0
 62
     0
 10
30.8708
 20
102.091
 30
0.0
 11
30.8708
 21
98.9901
 31
0.0
  0
LINE
  8
0
 62
     0
 10
30.8708
 20
98.9901
 30
0.0
 11
31.6701
 21
98.9901
 31
0.0
  0
LINE
  8
0
 62
     0
 10
31.6701
 20
98.9901
 30
0.0
 11
31.6701
 21
93.1912
 31
0.0
  0
LINE
  8
0
 62
     0
 10
31.6701
 20
93.1912
 30
0.0
 11
30.8708
 21
93.1912
 31
0.0
  0
LINE
  8
0
 62
     0
 10
30.8708
 20
93.1912
 30
0.0
 11
30.8708
 21
90.0906
 31
0.0
  0
LINE
  8
0
 62
     0
 10
30.8708
 20
90.0906
 30
0.0
 11
31.6701
 21
90.0906
 31
0.0
  0
LINE
  8
0
 62
     0
 10
31.6701
 20
90.0906
 30
0.0
 11
31.6701
 21
89.0901
 31
0.0
  0
LINE
  8
0
 62
     0
 10
31.6701
 20
89.0901
 30
0.0
 11
45.671
 21
89.0901
 31
0.0
  0
LINE
  8
0
 62
     0
 10
45.671
 20
89.0901
 30
0.0
 11
45.671
 21
90.0906
 31
0.0
  0
LINE
  8
0
 62
     0
 10
45.671
 20
90.0906
 30
0.0
 11
46.4704
 21
90.0906
 31
0.0
  0
LINE
  8
0
 62
     0
 10
46.4704
 20
90.0906
 30
0.0
 11
46.4704
 21
93.1912
 31
0.0
  0
LINE
  8
0
 62
     0
 10
46.4704
 20
93.1912
 30
0.0
 11
45.671
 21
93.1912
 31
0.0
  0
LINE
  8
0
 62
     0
 10
45.671
 20
93.1912
 30
0.0
 11
45.671
 21
98.9901
 31
0.0
  0
LINE
  8
0
 62
     0
 10
45.671
 20
98.9901
 30
0.0
 11
46.4704
 21
98.9901
 31
0.0
  0
LINE
  8
0
 62
     0
 10
46.4704
 20
98.9901
 30
0.0
 11
46.4704
 21
102.091
 31
0.0
  0
LINE
  8
0
 62
     0
 10
46.4704
 20
102.091
 30
0.0
 11
45.671
 21
102.091
 31
0.0
  0
LINE
  8
0
 62
     0
 10
45.671
 20
102.091
 30
0.0
 11
45.671
 21
103.091
 31
0.0
  0
LINE
  8
0
 62
     0
 10
45.671
 20
103.091
 30
0.0
 11
31.6701
 21
103.091
 31
0.0
  0
LINE
  8
0
 62
     0
 10
12.6201
 20
103.091
 30
0.0
 11
12.6201
 21
102.091
 31
0.0
  0
LINE
  8
0
 62
     0
 10
12.6201
 20
102.091
 30
0.0
 11
11.8194
 21
102.091
 31
0.0
  0
LINE
  8
0
 62
     0
 10
11.8194
 20
102.091
 30
0.0
 11
11.8194
 21
98.9901
 31
0.0
  0
LINE
  8
0
 62
     0
 10
11.8194
 20
98.9901
 30
0.0
 11
12.6201
 21
98.9901
 31
0.0
  0
LINE
  8
0
 62
     0
 10
12.6201
 20
98.9901
 30
0.0
 11
12.6201
 21
93.1912
 31
0.0
  0
LINE
  8
0
 62
     0
 10
12.6201
 20
93.1912
 30
0.0
 11
11.8194
 21
93.1912
 31
0.0
  0
LINE
  8
0
 62
     0
 10
11.8194
 20
93.1912
 30
0.0
 11
11.8194
 21
90.0906
 31
0.0
  0
LINE
  8
0
 62
     0
 10
11.8194
 20
90.0906
 30
0.0
 11
12.6201
 21
90.0906
 31
0.0
  0
LINE
  8
0
 62
     0
 10
12.6201
 20
90.0906
 30
0.0
 11
12.6201
 21
89.0901
 31
0.0
  0
LINE
  8
0
 62
     0
 10
12.6201
 20
89.0901
 30
0.0
 11
26.6209
 21
89.0901
 31
0.0
  0
LINE
  8
0
 62
     0
 10
26.6209
 20
89.0901
 30
0.0
 11
26.6209
 21
90.0906
 31
0.0
  0
LINE
  8
0
 62
     0
 10
26.6209
 20
90.0906
 30
0.0
 11
27.4188
 21
90.0906
 31
0.0
  0
LINE
  8
0
 62
     0
 10
27.4188
 20
90.0906
 30
0.0
 11
27.4188
 21
93.1912
 31
0.0
  0
LINE
  8
0
 62
     0
 10
27.4188
 20
93.1912
 30
0.0
 11
26.6209
 21
93.1912
 31
0.0
  0
LINE
  8
0
 62
     0
 10
26.6209
 20
93.1912
 30
0.0
 11
26.6209
 21
98.9901
 31
0.0
  0
LINE
  8
0
 62
     0
 10
26.6209
 20
98.9901
 30
0.0
 11
27.4188
 21
98.9901
 31
0.0
  0
LINE
  8
0
 62
     0
 10
27.4188
 20
98.9901
 30
0.0
 11
27.4188
 21
102.091
 31
0.0
  0
LINE
  8
0
 62
     0
 10
27.4188
 20
102.091
 30
0.0
 11
26.6209
 21
102.091
 31
0.0
  0
LINE
  8
0
 62
     0
 10
26.6209
 20
102.091
 30
0.0
 11
26.6209
 21
103.091
 31
0.0
  0
LINE
  8
0
 62
     0
 10
26.6209
 20
103.091
 30
0.0
 11
12.6201
 21
103.091
 31
0.0
  0
LINE
  8
0
 62
     0
 10
4.55443
 20
112.281
 30
0.0
 11
4.06658
 21
112.032
 31
0.0
  0
LINE
  8
0
 62
     0
 10
4.06658
 20
112.032
 30
0.0
 11
3.67937
 21
111.645
 31
0.0
  0
LINE
  8
0
 62
     0
 10
3.67937
 20
111.645
 30
0.0
 11
3.42994
 21
111.157
 31
0.0
  0
LINE
  8
0
 62
     0
 10
3.42994
 20
111.157
 30
0.0
 11
3.3445
 21
110.615
 31
0.0
  0
LINE
  8
0
 62
     0
 10
3.3445
 20
110.615
 30
0.0
 11
3.42994
 21
110.075
 31
0.0
  0
LINE
  8
0
 62
     0
 10
3.42994
 20
110.075
 30
0.0
 11
3.67937
 21
109.587
 31
0.0
  0
LINE
  8
0
 62
     0
 10
3.67937
 20
109.587
 30
0.0
 11
4.06658
 21
109.201
 31
0.0
  0
LINE
  8
0
 62
     0
 10
4.06658
 20
109.201
 30
0.0
 11
4.55443
 21
108.952
 31
0.0
  0
LINE
  8
0
 62
     0
 10
4.55443
 20
108.952
 30
0.0
 11
5.0946
 21
108.865
 31
0.0
  0
LINE
  8
0
 62
     0
 10
5.0946
 20
108.865
 30
0.0
 11
5.63619
 21
108.952
 31
0.0
  0
LINE
  8
0
 62
     0
 10
5.63619
 20
108.952
 30
0.0
 11
6.12401
 21
109.201
 31
0.0
  0
LINE
  8
0
 62
     0
 10
6.12401
 20
109.201
 30
0.0
 11
6.50984
 21
109.587
 31
0.0
  0
LINE
  8
0
 62
     0
 10
6.50984
 20
109.587
 30
0.0
 11
6.75929
 21
110.075
 31
0.0
  0
LINE
  8
0
 62
     0
 10
6.75929
 20
110.075
 30
0.0
 11
6.8447
 21
110.615
 31
0.0
  0
LINE
  8
0
 62
     0
 10
6.8447
 20
110.615
 30
0.0
 11
6.75929
 21
111.157
 31
0.0
  0
LINE
  8
0
 62
     0
 10
6.75929
 20
111.157
 30
0.0
 11
6.50984
 21
111.645
 31
0.0
  0
LINE
  8
0
 62
     0
 10
6.50984
 20
111.645
 30
0.0
 11
6.12401
 21
112.032
 31
0.0
  0
LINE
  8
0
 62
     0
 10
6.12401
 20
112.032
 30
0.0
 11
5.63619
 21
112.281
 31
0.0
  0
LINE
  8
0
 62
     0
 10
5.63619
 20
112.281
 30
0.0
 11
5.0946
 21
112.365
 31
0.0
  0
LINE
  8
0
 62
     0
 10
5.0946
 20
112.365
 30
0.0
 11
4.55443
 21
112.281
 31
0.0
  0
LINE
  8
0
 62
     0
 10
343.167
 20
112.281
 30
0.0
 11
342.68
 21
112.032
 31
0.0
  0
LINE
  8
0
 62
     0
 10
342.68
 20
112.032
 30
0.0
 11
342.292
 21
111.645
 31
0.0
  0
LINE
  8
0
 62
     0
 10
342.292
 20
111.645
 30
0.0
 11
342.044
 21
111.157
 31
0.0
  0
LINE
  8
0
 62
     0
 10
342.044
 20
111.157
 30
0.0
 11
341.959
 21
110.615
 31
0.0
  0
LINE
  8
0
 62
     0
 10
341.959
 20
110.615
 30
0.0
 11
342.044
 21
110.075
 31
0.0
  0
LINE
  8
0
 62
     0
 10
342.044
 20
110.075
 30
0.0
 11
342.292
 21
109.587
 31
0.0
  0
LINE
  8
0
 62
     0
 10
342.292
 20
109.587
 30
0.0
 11
342.68
 21
109.201
 31
0.0
  0
LINE
  8
0
 62
     0
 10
342.68
 20
109.201
 30
0.0
 11
343.167
 21
108.952
 31
0.0
  0
LINE
  8
0
 62
     0
 10
343.167
 20
108.952
 30
0.0
 11
343.709
 21
108.865
 31
0.0
  0
LINE
  8
0
 62
     0
 10
343.709
 20
108.865
 30
0.0
 11
344.249
 21
108.952
 31
0.0
  0
LINE
  8
0
 62
     0
 10
344.249
 20
108.952
 30
0.0
 11
344.737
 21
109.201
 31
0.0
  0
LINE
  8
0
 62
     0
 10
344.737
 20
109.201
 30
0.0
 11
345.124
 21
109.587
 31
0.0
  0
LINE
  8
0
 62
     0
 10
345.124
 20
109.587
 30
0.0
 11
345.372
 21
110.075
 31
0.0
  0
LINE
  8
0
 62
     0
 10
345.372
 20
110.075
 30
0.0
 11
345.459
 21
110.615
 31
0.0
  0
LINE
  8
0
 62
     0
 10
345.459
 20
110.615
 30
0.0
 11
345.372
 21
111.157
 31
0.0
  0
LINE
  8
0
 62
     0
 10
345.372
 20
111.157
 30
0.0
 11
345.124
 21
111.645
 31
0.0
  0
LINE
  8
0
 62
     0
 10
345.124
 20
111.645
 30
0.0
 11
344.737
 21
112.032
 31
0.0
  0
LINE
  8
0
 62
     0
 10
344.737
 20
112.032
 30
0.0
 11
344.249
 21
112.281
 31
0.0
  0
LINE
  8
0
 62
     0
 10
344.249
 20
112.281
 30
0.0
 11
343.709
 21
112.365
 31
0.0
  0
LINE
  8
0
 62
     0
 10
343.709
 20
112.365
 30
0.0
 11
343.167
 21
112.281
 31
0.0
  0
LINE
  8
0
 62
     0
 10
258.514
 20
112.281
 30
0.0
 11
258.027
 21
112.032
 31
0.0
  0
LINE
  8
0
 62
     0
 10
258.027
 20
112.032
 30
0.0
 11
257.639
 21
111.645
 31
0.0
  0
LINE
  8
0
 62
     0
 10
257.639
 20
111.645
 30
0.0
 11
257.39
 21
111.157
 31
0.0
  0
LINE
  8
0
 62
     0
 10
257.39
 20
111.157
 30
0.0
 11
257.306
 21
110.615
 31
0.0
  0
LINE
  8
0
 62
     0
 10
257.306
 20
110.615
 30
0.0
 11
257.39
 21
110.075
 31
0.0
  0
LINE
  8
0
 62
     0
 10
257.39
 20
110.075
 30
0.0
 11
257.639
 21
109.587
 31
0.0
  0
LINE
  8
0
 62
     0
 10
257.639
 20
109.587
 30
0.0
 11
258.027
 21
109.201
 31
0.0
  0
LINE
  8
0
 62
     0
 10
258.027
 20
109.201
 30
0.0
 11
258.514
 21
108.952
 31
0.0
  0
LINE
  8
0
 62
     0
 10
258.514
 20
108.952
 30
0.0
 11
259.056
 21
108.865
 31
0.0
  0
LINE
  8
0
 62
     0
 10
259.056
 20
108.865
 30
0.0
 11
259.595
 21
108.952
 31
0.0
  0
LINE
  8
0
 62
     0
 10
259.595
 20
108.952
 30
0.0
 11
260.084
 21
109.201
 31
0.0
  0
LINE
  8
0
 62
     0
 10
260.084
 20
109.201
 30
0.0
 11
260.47
 21
109.587
 31
0.0
  0
LINE
  8
0
 62
     0
 10
260.47
 20
109.587
 30
0.0
 11
260.719
 21
110.075
 31
0.0
  0
LINE
  8
0
 62
     0
 10
260.719
 20
110.075
 30
0.0
 11
260.806
 21
110.615
 31
0.0
  0
LINE
  8
0
 62
     0
 10
260.806
 20
110.615
 30
0.0
 11
260.719
 21
111.157
 31
0.0
  0
LINE
  8
0
 62
     0
 10
260.719
 20
111.157
 30
0.0
 11
260.47
 21
111.645
 31
0.0
  0
LINE
  8
0
 62
     0
 10
260.47
 20
111.645
 30
0.0
 11
260.084
 21
112.032
 31
0.0
  0
LINE
  8
0
 62
     0
 10
260.084
 20
112.032
 30
0.0
 11
259.595
 21
112.281
 31
0.0
  0
LINE
  8
0
 62
     0
 10
259.595
 20
112.281
 30
0.0
 11
259.056
 21
112.365
 31
0.0
  0
LINE
  8
0
 62
     0
 10
259.056
 20
112.365
 30
0.0
 11
258.514
 21
112.281
 31
0.0
  0
LINE
  8
0
 62
     0
 10
173.86
 20
112.281
 30
0.0
 11
173.374
 21
112.032
 31
0.0
  0
LINE
  8
0
 62
     0
 10
173.374
 20
112.032
 30
0.0
 11
172.985
 21
111.645
 31
0.0
  0
LINE
  8
0
 62
     0
 10
172.985
 20
111.645
 30
0.0
 11
172.737
 21
111.157
 31
0.0
  0
LINE
  8
0
 62
     0
 10
172.737
 20
111.157
 30
0.0
 11
172.652
 21
110.615
 31
0.0
  0
LINE
  8
0
 62
     0
 10
172.652
 20
110.615
 30
0.0
 11
172.737
 21
110.075
 31
0.0
  0
LINE
  8
0
 62
     0
 10
172.737
 20
110.075
 30
0.0
 11
172.985
 21
109.587
 31
0.0
  0
LINE
  8
0
 62
     0
 10
172.985
 20
109.587
 30
0.0
 11
173.374
 21
109.201
 31
0.0
  0
LINE
  8
0
 62
     0
 10
173.374
 20
109.201
 30
0.0
 11
173.86
 21
108.952
 31
0.0
  0
LINE
  8
0
 62
     0
 10
173.86
 20
108.952
 30
0.0
 11
174.402
 21
108.865
 31
0.0
  0
LINE
  8
0
 62
     0
 10
174.402
 20
108.865
 30
0.0
 11
174.942
 21
108.952
 31
0.0
  0
LINE
  8
0
 62
     0
 10
174.942
 20
108.952
 30
0.0
 11
175.431
 21
109.201
 31
0.0
  0
LINE
  8
0
 62
     0
 10
175.431
 20
109.201
 30
0.0
 11
175.817
 21
109.587
 31
0.0
  0
LINE
  8
0
 62
     0
 10
175.817
 20
109.587
 30
0.0
 11
176.066
 21
110.075
 31
0.0
  0
LINE
  8
0
 62
     0
 10
176.066
 20
110.075
 30
0.0
 11
176.152
 21
110.615
 31
0.0
  0
LINE
  8
0
 62
     0
 10
176.152
 20
110.615
 30
0.0
 11
176.066
 21
111.157
 31
0.0
  0
LINE
  8
0
 62
     0
 10
176.066
 20
111.157
 30
0.0
 11
175.817
 21
111.645
 31
0.0
  0
LINE
  8
0
 62
     0
 10
175.817
 20
111.645
 30
0.0
 11
175.431
 21
112.032
 31
0.0
  0
LINE
  8
0
 62
     0
 10
175.431
 20
112.032
 30
0.0
 11
174.942
 21
112.281
 31
0.0
  0
LINE
  8
0
 62
     0
 10
174.942
 20
112.281
 30
0.0
 11
174.402
 21
112.365
 31
0.0
  0
LINE
  8
0
 62
     0
 10
174.402
 20
112.365
 30
0.0
 11
173.86
 21
112.281
 31
0.0
  0
LINE
  8
0
 62
     0
 10
89.2073
 20
112.281
 30
0.0
 11
88.7194
 21
112.032
 31
0.0
  0
LINE
  8
0
 62
     0
 10
88.7194
 20
112.032
 30
0.0
 11
88.3324
 21
111.645
 31
0.0
  0
LINE
  8
0
 62
     0
 10
88.3324
 20
111.645
 30
0.0
 11
88.0844
 21
111.157
 31
0.0
  0
LINE
  8
0
 62
     0
 10
88.0844
 20
111.157
 30
0.0
 11
87.9987
 21
110.615
 31
0.0
  0
LINE
  8
0
 62
     0
 10
87.9987
 20
110.615
 30
0.0
 11
88.0844
 21
110.075
 31
0.0
  0
LINE
  8
0
 62
     0
 10
88.0844
 20
110.075
 30
0.0
 11
88.3324
 21
109.587
 31
0.0
  0
LINE
  8
0
 62
     0
 10
88.3324
 20
109.587
 30
0.0
 11
88.7194
 21
109.201
 31
0.0
  0
LINE
  8
0
 62
     0
 10
88.7194
 20
109.201
 30
0.0
 11
89.2073
 21
108.952
 31
0.0
  0
LINE
  8
0
 62
     0
 10
89.2073
 20
108.952
 30
0.0
 11
89.7488
 21
108.865
 31
0.0
  0
LINE
  8
0
 62
     0
 10
89.7488
 20
108.865
 30
0.0
 11
90.2892
 21
108.952
 31
0.0
  0
LINE
  8
0
 62
     0
 10
90.2892
 20
108.952
 30
0.0
 11
90.7768
 21
109.201
 31
0.0
  0
LINE
  8
0
 62
     0
 10
90.7768
 20
109.201
 30
0.0
 11
91.1641
 21
109.587
 31
0.0
  0
LINE
  8
0
 62
     0
 10
91.1641
 20
109.587
 30
0.0
 11
91.4121
 21
110.075
 31
0.0
  0
LINE
  8
0
 62
     0
 10
91.4121
 20
110.075
 30
0.0
 11
91.4989
 21
110.615
 31
0.0
  0
LINE
  8
0
 62
     0
 10
91.4989
 20
110.615
 30
0.0
 11
91.4121
 21
111.157
 31
0.0
  0
LINE
  8
0
 62
     0
 10
91.4121
 20
111.157
 30
0.0
 11
91.1641
 21
111.645
 31
0.0
  0
LINE
  8
0
 62
     0
 10
91.1641
 20
111.645
 30
0.0
 11
90.7768
 21
112.032
 31
0.0
  0
LINE
  8
0
 62
     0
 10
90.7768
 20
112.032
 30
0.0
 11
90.2892
 21
112.281
 31
0.0
  0
LINE
  8
0
 62
     0
 10
90.2892
 20
112.281
 30
0.0
 11
89.7488
 21
112.365
 31
0.0
  0
LINE
  8
0
 62
     0
 10
89.7488
 20
112.365
 30
0.0
 11
89.2073
 21
112.281
 31
0.0
  0
ENDSEC
  0
EOF
