  0
SECTION
  2
HEADER
  9
$ACADVER
  1
AC1009
  9
$EXTMIN
 10
0.0
 20
0.0
 30
0.0
  9
$EXTMAX
 10
1000.0
 20
1000.0
 30
0.0
  9
$FILLMODE
 70
 0
  9
$SPLFRAME
 70
 1
  0
ENDSEC
  0
SECTION
  2
TABLES
  0
TABLE
  2
LAYER
 70
1
  0
LAYER
  2
0
 70
     0
 62
     7
  6
CONTINUOUS
  0
ENDTAB
  0
ENDSEC
  0
SECTION
  2
ENTITIES
  0
LINE
  8
0
 62
     0
 10
91.2964
 20
58.4659
 30
0.0
 11
91.6891
 21
58.451
 31
0.0
  0
LINE
  8
0
 62
     0
 10
91.6891
 20
58.451
 30
0.0
 11
92.0792
 21
58.4041
 31
0.0
  0
LINE
  8
0
 62
     0
 10
92.0792
 20
58.4041
 30
0.0
 11
92.4638
 21
58.3283
 31
0.0
  0
LINE
  8
0
 62
     0
 10
92.4638
 20
58.3283
 30
0.0
 11
92.8412
 21
58.2221
 31
0.0
  0
LINE
  8
0
 62
     0
 10
92.8412
 20
58.2221
 30
0.0
 11
93.2092
 21
58.0856
 31
0.0
  0
LINE
  8
0
 62
     0
 10
93.2092
 20
58.0856
 30
0.0
 11
93.5662
 21
57.9219
 31
0.0
  0
LINE
  8
0
 62
     0
 10
93.5662
 20
57.9219
 30
0.0
 11
93.9091
 21
57.7303
 31
0.0
  0
LINE
  8
0
 62
     0
 10
93.9091
 20
57.7303
 30
0.0
 11
94.2344
 21
57.5109
 31
0.0
  0
LINE
  8
0
 62
     0
 10
94.2344
 20
57.5109
 30
0.0
 11
94.543
 21
57.2685
 31
0.0
  0
LINE
  8
0
 62
     0
 10
94.543
 20
57.2685
 30
0.0
 11
94.8312
 21
57.0011
 31
0.0
  0
LINE
  8
0
 62
     0
 10
94.8312
 20
57.0011
 30
0.0
 11
95.0983
 21
56.7133
 31
0.0
  0
LINE
  8
0
 62
     0
 10
95.0983
 20
56.7133
 30
0.0
 11
95.341
 21
56.4046
 31
0.0
  0
LINE
  8
0
 62
     0
 10
95.341
 20
56.4046
 30
0.0
 11
95.5601
 21
56.0793
 31
0.0
  0
LINE
  8
0
 62
     0
 10
95.5601
 20
56.0793
 30
0.0
 11
95.7516
 21
55.7361
 31
0.0
  0
LINE
  8
0
 62
     0
 10
95.7516
 20
55.7361
 30
0.0
 11
95.9157
 21
55.3791
 31
0.0
  0
LINE
  8
0
 62
     0
 10
95.9157
 20
55.3791
 30
0.0
 11
96.0519
 21
55.0115
 31
0.0
  0
LINE
  8
0
 62
     0
 10
96.0519
 20
55.0115
 30
0.0
 11
96.1581
 21
54.6336
 31
0.0
  0
LINE
  8
0
 62
     0
 10
96.1581
 20
54.6336
 30
0.0
 11
96.2339
 21
54.2491
 31
0.0
  0
LINE
  8
0
 62
     0
 10
96.2339
 20
54.2491
 30
0.0
 11
96.2808
 21
53.8593
 31
0.0
  0
LINE
  8
0
 62
     0
 10
96.2808
 20
53.8593
 30
0.0
 11
96.296
 21
53.4652
 31
0.0
  0
LINE
  8
0
 62
     0
 10
96.296
 20
53.4652
 30
0.0
 11
96.296
 21
5.36469
 31
0.0
  0
LINE
  8
0
 62
     0
 10
96.296
 20
5.36469
 30
0.0
 11
96.2808
 21
4.97198
 31
0.0
  0
LINE
  8
0
 62
     0
 10
96.2808
 20
4.97198
 30
0.0
 11
96.2339
 21
4.58198
 31
0.0
  0
LINE
  8
0
 62
     0
 10
96.2339
 20
4.58198
 30
0.0
 11
96.1581
 21
4.19749
 31
0.0
  0
LINE
  8
0
 62
     0
 10
96.1581
 20
4.19749
 30
0.0
 11
96.0519
 21
3.81991
 31
0.0
  0
LINE
  8
0
 62
     0
 10
96.0519
 20
3.81991
 30
0.0
 11
95.9157
 21
3.45199
 31
0.0
  0
LINE
  8
0
 62
     0
 10
95.9157
 20
3.45199
 30
0.0
 11
95.7516
 21
3.09507
 31
0.0
  0
LINE
  8
0
 62
     0
 10
95.7516
 20
3.09507
 30
0.0
 11
95.5601
 21
2.75194
 31
0.0
  0
LINE
  8
0
 62
     0
 10
95.5601
 20
2.75194
 30
0.0
 11
95.341
 21
2.42673
 31
0.0
  0
LINE
  8
0
 62
     0
 10
95.341
 20
2.42673
 30
0.0
 11
95.0983
 21
2.11805
 31
0.0
  0
LINE
  8
0
 62
     0
 10
95.0983
 20
2.11805
 30
0.0
 11
94.8312
 21
1.83003
 31
0.0
  0
LINE
  8
0
 62
     0
 10
94.8312
 20
1.83003
 30
0.0
 11
94.543
 21
1.5627
 31
0.0
  0
LINE
  8
0
 62
     0
 10
94.543
 20
1.5627
 30
0.0
 11
94.2344
 21
1.32016
 31
0.0
  0
LINE
  8
0
 62
     0
 10
94.2344
 20
1.32016
 30
0.0
 11
93.9091
 21
1.10105
 31
0.0
  0
LINE
  8
0
 62
     0
 10
93.9091
 20
1.10105
 30
0.0
 11
93.5662
 21
0.909507
 31
0.0
  0
LINE
  8
0
 62
     0
 10
93.5662
 20
0.909507
 30
0.0
 11
93.2092
 21
0.745518
 31
0.0
  0
LINE
  8
0
 62
     0
 10
93.2092
 20
0.745518
 30
0.0
 11
92.8412
 21
0.609092
 31
0.0
  0
LINE
  8
0
 62
     0
 10
92.8412
 20
0.609092
 30
0.0
 11
92.4638
 21
0.502984
 31
0.0
  0
LINE
  8
0
 62
     0
 10
92.4638
 20
0.502984
 30
0.0
 11
92.0792
 21
0.427193
 31
0.0
  0
LINE
  8
0
 62
     0
 10
92.0792
 20
0.427193
 30
0.0
 11
91.6891
 21
0.38034
 31
0.0
  0
LINE
  8
0
 62
     0
 10
91.6891
 20
0.38034
 30
0.0
 11
91.295
 21
0.365181
 31
0.0
  0
LINE
  8
0
 62
     0
 10
91.295
 20
0.365181
 30
0.0
 11
5.09598
 21
0.365181
 31
0.0
  0
LINE
  8
0
 62
     0
 10
5.09598
 20
0.365181
 30
0.0
 11
4.70186
 21
0.38034
 31
0.0
  0
LINE
  8
0
 62
     0
 10
4.70186
 20
0.38034
 30
0.0
 11
4.3119
 21
0.427193
 31
0.0
  0
LINE
  8
0
 62
     0
 10
4.3119
 20
0.427193
 30
0.0
 11
3.9274
 21
0.502984
 31
0.0
  0
LINE
  8
0
 62
     0
 10
3.9274
 20
0.502984
 30
0.0
 11
3.54983
 21
0.609092
 31
0.0
  0
LINE
  8
0
 62
     0
 10
3.54983
 20
0.609092
 30
0.0
 11
3.18189
 21
0.745518
 31
0.0
  0
LINE
  8
0
 62
     0
 10
3.18189
 20
0.745518
 30
0.0
 11
2.82498
 21
0.909507
 31
0.0
  0
LINE
  8
0
 62
     0
 10
2.82498
 20
0.909507
 30
0.0
 11
2.48185
 21
1.10105
 31
0.0
  0
LINE
  8
0
 62
     0
 10
2.48185
 20
1.10105
 30
0.0
 11
2.15663
 21
1.32016
 31
0.0
  0
LINE
  8
0
 62
     0
 10
2.15663
 20
1.32016
 30
0.0
 11
1.84795
 21
1.5627
 31
0.0
  0
LINE
  8
0
 62
     0
 10
1.84795
 20
1.5627
 30
0.0
 11
1.55994
 21
1.83003
 31
0.0
  0
LINE
  8
0
 62
     0
 10
1.55994
 20
1.83003
 30
0.0
 11
1.2926
 21
2.11805
 31
0.0
  0
LINE
  8
0
 62
     0
 10
1.2926
 20
2.11805
 30
0.0
 11
1.05006
 21
2.42673
 31
0.0
  0
LINE
  8
0
 62
     0
 10
1.05006
 20
2.42673
 30
0.0
 11
0.830957
 21
2.75194
 31
0.0
  0
LINE
  8
0
 62
     0
 10
0.830957
 20
2.75194
 30
0.0
 11
0.63941
 21
3.09507
 31
0.0
  0
LINE
  8
0
 62
     0
 10
0.63941
 20
3.09507
 30
0.0
 11
0.475424
 21
3.45199
 31
0.0
  0
LINE
  8
0
 62
     0
 10
0.475424
 20
3.45199
 30
0.0
 11
0.338998
 21
3.81991
 31
0.0
  0
LINE
  8
0
 62
     0
 10
0.338998
 20
3.81991
 30
0.0
 11
0.232888
 21
4.19749
 31
0.0
  0
LINE
  8
0
 62
     0
 10
0.232888
 20
4.19749
 30
0.0
 11
0.157097
 21
4.58198
 31
0.0
  0
LINE
  8
0
 62
     0
 10
0.157097
 20
4.58198
 30
0.0
 11
0.110243
 21
4.97198
 31
0.0
  0
LINE
  8
0
 62
     0
 10
0.110243
 20
4.97198
 30
0.0
 11
0.0950846
 21
5.36607
 31
0.0
  0
LINE
  8
0
 62
     0
 10
0.0950846
 20
5.36607
 30
0.0
 11
0.0950846
 21
53.4652
 31
0.0
  0
LINE
  8
0
 62
     0
 10
0.0950846
 20
53.4652
 30
0.0
 11
0.110243
 21
53.8593
 31
0.0
  0
LINE
  8
0
 62
     0
 10
0.110243
 20
53.8593
 30
0.0
 11
0.157097
 21
54.2491
 31
0.0
  0
LINE
  8
0
 62
     0
 10
0.157097
 20
54.2491
 30
0.0
 11
0.232888
 21
54.6336
 31
0.0
  0
LINE
  8
0
 62
     0
 10
0.232888
 20
54.6336
 30
0.0
 11
0.338998
 21
55.0115
 31
0.0
  0
LINE
  8
0
 62
     0
 10
0.338998
 20
55.0115
 30
0.0
 11
0.475424
 21
55.3791
 31
0.0
  0
LINE
  8
0
 62
     0
 10
0.475424
 20
55.3791
 30
0.0
 11
0.63941
 21
55.7361
 31
0.0
  0
LINE
  8
0
 62
     0
 10
0.63941
 20
55.7361
 30
0.0
 11
0.830957
 21
56.0793
 31
0.0
  0
LINE
  8
0
 62
     0
 10
0.830957
 20
56.0793
 30
0.0
 11
1.05006
 21
56.4046
 31
0.0
  0
LINE
  8
0
 62
     0
 10
1.05006
 20
56.4046
 30
0.0
 11
1.2926
 21
56.7133
 31
0.0
  0
LINE
  8
0
 62
     0
 10
1.2926
 20
56.7133
 30
0.0
 11
1.55994
 21
57.0011
 31
0.0
  0
LINE
  8
0
 62
     0
 10
1.55994
 20
57.0011
 30
0.0
 11
1.84795
 21
57.2685
 31
0.0
  0
LINE
  8
0
 62
     0
 10
1.84795
 20
57.2685
 30
0.0
 11
2.15663
 21
57.5109
 31
0.0
  0
LINE
  8
0
 62
     0
 10
2.15663
 20
57.5109
 30
0.0
 11
2.48185
 21
57.7303
 31
0.0
  0
LINE
  8
0
 62
     0
 10
2.48185
 20
57.7303
 30
0.0
 11
2.82498
 21
57.9219
 31
0.0
  0
LINE
  8
0
 62
     0
 10
2.82498
 20
57.9219
 30
0.0
 11
3.18189
 21
58.0856
 31
0.0
  0
LINE
  8
0
 62
     0
 10
3.18189
 20
58.0856
 30
0.0
 11
3.54983
 21
58.2221
 31
0.0
  0
LINE
  8
0
 62
     0
 10
3.54983
 20
58.2221
 30
0.0
 11
3.9274
 21
58.3283
 31
0.0
  0
LINE
  8
0
 62
     0
 10
3.9274
 20
58.3283
 30
0.0
 11
4.3119
 21
58.4041
 31
0.0
  0
LINE
  8
0
 62
     0
 10
4.3119
 20
58.4041
 30
0.0
 11
4.70186
 21
58.451
 31
0.0
  0
LINE
  8
0
 62
     0
 10
4.70186
 20
58.451
 30
0.0
 11
5.09598
 21
58.4659
 31
0.0
  0
LINE
  8
0
 62
     0
 10
5.09598
 20
58.4659
 30
0.0
 11
91.2964
 21
58.4659
 31
0.0
  0
LINE
  8
0
 62
     0
 10
4.55443
 20
7.02938
 30
0.0
 11
4.06658
 21
6.77997
 31
0.0
  0
LINE
  8
0
 62
     0
 10
4.06658
 20
6.77997
 30
0.0
 11
3.67937
 21
6.3941
 31
0.0
  0
LINE
  8
0
 62
     0
 10
3.67937
 20
6.3941
 30
0.0
 11
3.42994
 21
5.90628
 31
0.0
  0
LINE
  8
0
 62
     0
 10
3.42994
 20
5.90628
 30
0.0
 11
3.34588
 21
5.36469
 31
0.0
  0
LINE
  8
0
 62
     0
 10
3.34588
 20
5.36469
 30
0.0
 11
3.42994
 21
4.82452
 31
0.0
  0
LINE
  8
0
 62
     0
 10
3.42994
 20
4.82452
 30
0.0
 11
3.67937
 21
4.3367
 31
0.0
  0
LINE
  8
0
 62
     0
 10
3.67937
 20
4.3367
 30
0.0
 11
4.06658
 21
3.94945
 31
0.0
  0
LINE
  8
0
 62
     0
 10
4.06658
 20
3.94945
 30
0.0
 11
4.55443
 21
3.70004
 31
0.0
  0
LINE
  8
0
 62
     0
 10
4.55443
 20
3.70004
 30
0.0
 11
5.09598
 21
3.6146
 31
0.0
  0
LINE
  8
0
 62
     0
 10
5.09598
 20
3.6146
 30
0.0
 11
5.63619
 21
3.70004
 31
0.0
  0
LINE
  8
0
 62
     0
 10
5.63619
 20
3.70004
 30
0.0
 11
6.12401
 21
3.94945
 31
0.0
  0
LINE
  8
0
 62
     0
 10
6.12401
 20
3.94945
 30
0.0
 11
6.50984
 21
4.3367
 31
0.0
  0
LINE
  8
0
 62
     0
 10
6.50984
 20
4.3367
 30
0.0
 11
6.75929
 21
4.82452
 31
0.0
  0
LINE
  8
0
 62
     0
 10
6.75929
 20
4.82452
 30
0.0
 11
6.84611
 21
5.36469
 31
0.0
  0
LINE
  8
0
 62
     0
 10
6.84611
 20
5.36469
 30
0.0
 11
6.75929
 21
5.90628
 31
0.0
  0
LINE
  8
0
 62
     0
 10
6.75929
 20
5.90628
 30
0.0
 11
6.50984
 21
6.3941
 31
0.0
  0
LINE
  8
0
 62
     0
 10
6.50984
 20
6.3941
 30
0.0
 11
6.12401
 21
6.77997
 31
0.0
  0
LINE
  8
0
 62
     0
 10
6.12401
 20
6.77997
 30
0.0
 11
5.63619
 21
7.02938
 31
0.0
  0
LINE
  8
0
 62
     0
 10
5.63619
 20
7.02938
 30
0.0
 11
5.09598
 21
7.11482
 31
0.0
  0
LINE
  8
0
 62
     0
 10
5.09598
 20
7.11482
 30
0.0
 11
4.55443
 21
7.02938
 31
0.0
  0
LINE
  8
0
 62
     0
 10
90.7549
 20
7.02938
 30
0.0
 11
90.267
 21
6.77997
 31
0.0
  0
LINE
  8
0
 62
     0
 10
90.267
 20
6.77997
 30
0.0
 11
89.8811
 21
6.3941
 31
0.0
  0
LINE
  8
0
 62
     0
 10
89.8811
 20
6.3941
 30
0.0
 11
89.6317
 21
5.90628
 31
0.0
  0
LINE
  8
0
 62
     0
 10
89.6317
 20
5.90628
 30
0.0
 11
89.5463
 21
5.36469
 31
0.0
  0
LINE
  8
0
 62
     0
 10
89.5463
 20
5.36469
 30
0.0
 11
89.6317
 21
4.82452
 31
0.0
  0
LINE
  8
0
 62
     0
 10
89.6317
 20
4.82452
 30
0.0
 11
89.8811
 21
4.3367
 31
0.0
  0
LINE
  8
0
 62
     0
 10
89.8811
 20
4.3367
 30
0.0
 11
90.267
 21
3.94945
 31
0.0
  0
LINE
  8
0
 62
     0
 10
90.267
 20
3.94945
 30
0.0
 11
90.7549
 21
3.70004
 31
0.0
  0
LINE
  8
0
 62
     0
 10
90.7549
 20
3.70004
 30
0.0
 11
91.2964
 21
3.6146
 31
0.0
  0
LINE
  8
0
 62
     0
 10
91.2964
 20
3.6146
 30
0.0
 11
91.8365
 21
3.70004
 31
0.0
  0
LINE
  8
0
 62
     0
 10
91.8365
 20
3.70004
 30
0.0
 11
92.3244
 21
3.94945
 31
0.0
  0
LINE
  8
0
 62
     0
 10
92.3244
 20
3.94945
 30
0.0
 11
92.7118
 21
4.3367
 31
0.0
  0
LINE
  8
0
 62
     0
 10
92.7118
 20
4.3367
 30
0.0
 11
92.9612
 21
4.82452
 31
0.0
  0
LINE
  8
0
 62
     0
 10
92.9612
 20
4.82452
 30
0.0
 11
93.0465
 21
5.36469
 31
0.0
  0
LINE
  8
0
 62
     0
 10
93.0465
 20
5.36469
 30
0.0
 11
92.9612
 21
5.90628
 31
0.0
  0
LINE
  8
0
 62
     0
 10
92.9612
 20
5.90628
 30
0.0
 11
92.7118
 21
6.3941
 31
0.0
  0
LINE
  8
0
 62
     0
 10
92.7118
 20
6.3941
 30
0.0
 11
92.3244
 21
6.77997
 31
0.0
  0
LINE
  8
0
 62
     0
 10
92.3244
 20
6.77997
 30
0.0
 11
91.8365
 21
7.02938
 31
0.0
  0
LINE
  8
0
 62
     0
 10
91.8365
 20
7.02938
 30
0.0
 11
91.2964
 21
7.11482
 31
0.0
  0
LINE
  8
0
 62
     0
 10
91.2964
 20
7.11482
 30
0.0
 11
90.7549
 21
7.02938
 31
0.0
  0
LINE
  8
0
 62
     0
 10
69.7699
 20
26.8911
 30
0.0
 11
69.7699
 21
25.8906
 31
0.0
  0
LINE
  8
0
 62
     0
 10
69.7699
 20
25.8906
 30
0.0
 11
68.9709
 21
25.8906
 31
0.0
  0
LINE
  8
0
 62
     0
 10
68.9709
 20
25.8906
 30
0.0
 11
68.9709
 21
22.79
 31
0.0
  0
LINE
  8
0
 62
     0
 10
68.9709
 20
22.79
 30
0.0
 11
69.7699
 21
22.79
 31
0.0
  0
LINE
  8
0
 62
     0
 10
69.7699
 20
22.79
 30
0.0
 11
69.7699
 21
16.9912
 31
0.0
  0
LINE
  8
0
 62
     0
 10
69.7699
 20
16.9912
 30
0.0
 11
68.9709
 21
16.9912
 31
0.0
  0
LINE
  8
0
 62
     0
 10
68.9709
 20
16.9912
 30
0.0
 11
68.9709
 21
13.8906
 31
0.0
  0
LINE
  8
0
 62
     0
 10
68.9709
 20
13.8906
 30
0.0
 11
69.7699
 21
13.8906
 31
0.0
  0
LINE
  8
0
 62
     0
 10
69.7699
 20
13.8906
 30
0.0
 11
69.7699
 21
12.8902
 31
0.0
  0
LINE
  8
0
 62
     0
 10
69.7699
 20
12.8902
 30
0.0
 11
83.771
 21
12.8902
 31
0.0
  0
LINE
  8
0
 62
     0
 10
83.771
 20
12.8902
 30
0.0
 11
83.771
 21
13.8906
 31
0.0
  0
LINE
  8
0
 62
     0
 10
83.771
 20
13.8906
 30
0.0
 11
84.5704
 21
13.8906
 31
0.0
  0
LINE
  8
0
 62
     0
 10
84.5704
 20
13.8906
 30
0.0
 11
84.5704
 21
16.9912
 31
0.0
  0
LINE
  8
0
 62
     0
 10
84.5704
 20
16.9912
 30
0.0
 11
83.771
 21
16.9912
 31
0.0
  0
LINE
  8
0
 62
     0
 10
83.771
 20
16.9912
 30
0.0
 11
83.771
 21
22.79
 31
0.0
  0
LINE
  8
0
 62
     0
 10
83.771
 20
22.79
 30
0.0
 11
84.5704
 21
22.79
 31
0.0
  0
LINE
  8
0
 62
     0
 10
84.5704
 20
22.79
 30
0.0
 11
84.5704
 21
25.8906
 31
0.0
  0
LINE
  8
0
 62
     0
 10
84.5704
 20
25.8906
 30
0.0
 11
83.771
 21
25.8906
 31
0.0
  0
LINE
  8
0
 62
     0
 10
83.771
 20
25.8906
 30
0.0
 11
83.771
 21
26.8911
 31
0.0
  0
LINE
  8
0
 62
     0
 10
83.771
 20
26.8911
 30
0.0
 11
69.7699
 21
26.8911
 31
0.0
  0
LINE
  8
0
 62
     0
 10
50.7199
 20
26.8911
 30
0.0
 11
50.7199
 21
25.8906
 31
0.0
  0
LINE
  8
0
 62
     0
 10
50.7199
 20
25.8906
 30
0.0
 11
49.9209
 21
25.8906
 31
0.0
  0
LINE
  8
0
 62
     0
 10
49.9209
 20
25.8906
 30
0.0
 11
49.9209
 21
22.79
 31
0.0
  0
LINE
  8
0
 62
     0
 10
49.9209
 20
22.79
 30
0.0
 11
50.7199
 21
22.79
 31
0.0
  0
LINE
  8
0
 62
     0
 10
50.7199
 20
22.79
 30
0.0
 11
50.7199
 21
16.9912
 31
0.0
  0
LINE
  8
0
 62
     0
 10
50.7199
 20
16.9912
 30
0.0
 11
49.9209
 21
16.9912
 31
0.0
  0
LINE
  8
0
 62
     0
 10
49.9209
 20
16.9912
 30
0.0
 11
49.9209
 21
13.8906
 31
0.0
  0
LINE
  8
0
 62
     0
 10
49.9209
 20
13.8906
 30
0.0
 11
50.7199
 21
13.8906
 31
0.0
  0
LINE
  8
0
 62
     0
 10
50.7199
 20
13.8906
 30
0.0
 11
50.7199
 21
12.8902
 31
0.0
  0
LINE
  8
0
 62
     0
 10
50.7199
 20
12.8902
 30
0.0
 11
64.721
 21
12.8902
 31
0.0
  0
LINE
  8
0
 62
     0
 10
64.721
 20
12.8902
 30
0.0
 11
64.721
 21
13.8906
 31
0.0
  0
LINE
  8
0
 62
     0
 10
64.721
 20
13.8906
 30
0.0
 11
65.5204
 21
13.8906
 31
0.0
  0
LINE
  8
0
 62
     0
 10
65.5204
 20
13.8906
 30
0.0
 11
65.5204
 21
16.9912
 31
0.0
  0
LINE
  8
0
 62
     0
 10
65.5204
 20
16.9912
 30
0.0
 11
64.721
 21
16.9912
 31
0.0
  0
LINE
  8
0
 62
     0
 10
64.721
 20
16.9912
 30
0.0
 11
64.721
 21
22.79
 31
0.0
  0
LINE
  8
0
 62
     0
 10
64.721
 20
22.79
 30
0.0
 11
65.5204
 21
22.79
 31
0.0
  0
LINE
  8
0
 62
     0
 10
65.5204
 20
22.79
 30
0.0
 11
65.5204
 21
25.8906
 31
0.0
  0
LINE
  8
0
 62
     0
 10
65.5204
 20
25.8906
 30
0.0
 11
64.721
 21
25.8906
 31
0.0
  0
LINE
  8
0
 62
     0
 10
64.721
 20
25.8906
 30
0.0
 11
64.721
 21
26.8911
 31
0.0
  0
LINE
  8
0
 62
     0
 10
64.721
 20
26.8911
 30
0.0
 11
50.7199
 21
26.8911
 31
0.0
  0
LINE
  8
0
 62
     0
 10
31.6701
 20
26.8911
 30
0.0
 11
31.6701
 21
25.8906
 31
0.0
  0
LINE
  8
0
 62
     0
 10
31.6701
 20
25.8906
 30
0.0
 11
30.8708
 21
25.8906
 31
0.0
  0
LINE
  8
0
 62
     0
 10
30.8708
 20
25.8906
 30
0.0
 11
30.8708
 21
22.79
 31
0.0
  0
LINE
  8
0
 62
     0
 10
30.8708
 20
22.79
 30
0.0
 11
31.6701
 21
22.79
 31
0.0
  0
LINE
  8
0
 62
     0
 10
31.6701
 20
22.79
 30
0.0
 11
31.6701
 21
16.9912
 31
0.0
  0
LINE
  8
0
 62
     0
 10
31.6701
 20
16.9912
 30
0.0
 11
30.8708
 21
16.9912
 31
0.0
  0
LINE
  8
0
 62
     0
 10
30.8708
 20
16.9912
 30
0.0
 11
30.8708
 21
13.8906
 31
0.0
  0
LINE
  8
0
 62
     0
 10
30.8708
 20
13.8906
 30
0.0
 11
31.6701
 21
13.8906
 31
0.0
  0
LINE
  8
0
 62
     0
 10
31.6701
 20
13.8906
 30
0.0
 11
31.6701
 21
12.8902
 31
0.0
  0
LINE
  8
0
 62
     0
 10
31.6701
 20
12.8902
 30
0.0
 11
45.671
 21
12.8902
 31
0.0
  0
LINE
  8
0
 62
     0
 10
45.671
 20
12.8902
 30
0.0
 11
45.671
 21
13.8906
 31
0.0
  0
LINE
  8
0
 62
     0
 10
45.671
 20
13.8906
 30
0.0
 11
46.4704
 21
13.8906
 31
0.0
  0
LINE
  8
0
 62
     0
 10
46.4704
 20
13.8906
 30
0.0
 11
46.4704
 21
16.9912
 31
0.0
  0
LINE
  8
0
 62
     0
 10
46.4704
 20
16.9912
 30
0.0
 11
45.671
 21
16.9912
 31
0.0
  0
LINE
  8
0
 62
     0
 10
45.671
 20
16.9912
 30
0.0
 11
45.671
 21
22.79
 31
0.0
  0
LINE
  8
0
 62
     0
 10
45.671
 20
22.79
 30
0.0
 11
46.4704
 21
22.79
 31
0.0
  0
LINE
  8
0
 62
     0
 10
46.4704
 20
22.79
 30
0.0
 11
46.4704
 21
25.8906
 31
0.0
  0
LINE
  8
0
 62
     0
 10
46.4704
 20
25.8906
 30
0.0
 11
45.671
 21
25.8906
 31
0.0
  0
LINE
  8
0
 62
     0
 10
45.671
 20
25.8906
 30
0.0
 11
45.671
 21
26.8911
 31
0.0
  0
LINE
  8
0
 62
     0
 10
45.671
 20
26.8911
 30
0.0
 11
31.6701
 21
26.8911
 31
0.0
  0
LINE
  8
0
 62
     0
 10
12.6201
 20
26.8911
 30
0.0
 11
12.6201
 21
25.8906
 31
0.0
  0
LINE
  8
0
 62
     0
 10
12.6201
 20
25.8906
 30
0.0
 11
11.8194
 21
25.8906
 31
0.0
  0
LINE
  8
0
 62
     0
 10
11.8194
 20
25.8906
 30
0.0
 11
11.8194
 21
22.79
 31
0.0
  0
LINE
  8
0
 62
     0
 10
11.8194
 20
22.79
 30
0.0
 11
12.6201
 21
22.79
 31
0.0
  0
LINE
  8
0
 62
     0
 10
12.6201
 20
22.79
 30
0.0
 11
12.6201
 21
16.9912
 31
0.0
  0
LINE
  8
0
 62
     0
 10
12.6201
 20
16.9912
 30
0.0
 11
11.8194
 21
16.9912
 31
0.0
  0
LINE
  8
0
 62
     0
 10
11.8194
 20
16.9912
 30
0.0
 11
11.8194
 21
13.8906
 31
0.0
  0
LINE
  8
0
 62
     0
 10
11.8194
 20
13.8906
 30
0.0
 11
12.6201
 21
13.8906
 31
0.0
  0
LINE
  8
0
 62
     0
 10
12.6201
 20
13.8906
 30
0.0
 11
12.6201
 21
12.8902
 31
0.0
  0
LINE
  8
0
 62
     0
 10
12.6201
 20
12.8902
 30
0.0
 11
26.6209
 21
12.8902
 31
0.0
  0
LINE
  8
0
 62
     0
 10
26.6209
 20
12.8902
 30
0.0
 11
26.6209
 21
13.8906
 31
0.0
  0
LINE
  8
0
 62
     0
 10
26.6209
 20
13.8906
 30
0.0
 11
27.4188
 21
13.8906
 31
0.0
  0
LINE
  8
0
 62
     0
 10
27.4188
 20
13.8906
 30
0.0
 11
27.4188
 21
16.9912
 31
0.0
  0
LINE
  8
0
 62
     0
 10
27.4188
 20
16.9912
 30
0.0
 11
26.6209
 21
16.9912
 31
0.0
  0
LINE
  8
0
 62
     0
 10
26.6209
 20
16.9912
 30
0.0
 11
26.6209
 21
22.79
 31
0.0
  0
LINE
  8
0
 62
     0
 10
26.6209
 20
22.79
 30
0.0
 11
27.4188
 21
22.79
 31
0.0
  0
LINE
  8
0
 62
     0
 10
27.4188
 20
22.79
 30
0.0
 11
27.4188
 21
25.8906
 31
0.0
  0
LINE
  8
0
 62
     0
 10
27.4188
 20
25.8906
 30
0.0
 11
26.6209
 21
25.8906
 31
0.0
  0
LINE
  8
0
 62
     0
 10
26.6209
 20
25.8906
 30
0.0
 11
26.6209
 21
26.8911
 31
0.0
  0
LINE
  8
0
 62
     0
 10
26.6209
 20
26.8911
 30
0.0
 11
12.6201
 21
26.8911
 31
0.0
  0
LINE
  8
0
 62
     0
 10
69.7699
 20
45.9412
 30
0.0
 11
69.7699
 21
44.9407
 31
0.0
  0
LINE
  8
0
 62
     0
 10
69.7699
 20
44.9407
 30
0.0
 11
68.9709
 21
44.9407
 31
0.0
  0
LINE
  8
0
 62
     0
 10
68.9709
 20
44.9407
 30
0.0
 11
68.9709
 21
41.8401
 31
0.0
  0
LINE
  8
0
 62
     0
 10
68.9709
 20
41.8401
 30
0.0
 11
69.7699
 21
41.8401
 31
0.0
  0
LINE
  8
0
 62
     0
 10
69.7699
 20
41.8401
 30
0.0
 11
69.7699
 21
36.0412
 31
0.0
  0
LINE
  8
0
 62
     0
 10
69.7699
 20
36.0412
 30
0.0
 11
68.9709
 21
36.0412
 31
0.0
  0
LINE
  8
0
 62
     0
 10
68.9709
 20
36.0412
 30
0.0
 11
68.9709
 21
32.9406
 31
0.0
  0
LINE
  8
0
 62
     0
 10
68.9709
 20
32.9406
 30
0.0
 11
69.7699
 21
32.9406
 31
0.0
  0
LINE
  8
0
 62
     0
 10
69.7699
 20
32.9406
 30
0.0
 11
69.7699
 21
31.9402
 31
0.0
  0
LINE
  8
0
 62
     0
 10
69.7699
 20
31.9402
 30
0.0
 11
83.771
 21
31.9402
 31
0.0
  0
LINE
  8
0
 62
     0
 10
83.771
 20
31.9402
 30
0.0
 11
83.771
 21
32.9406
 31
0.0
  0
LINE
  8
0
 62
     0
 10
83.771
 20
32.9406
 30
0.0
 11
84.5704
 21
32.9406
 31
0.0
  0
LINE
  8
0
 62
     0
 10
84.5704
 20
32.9406
 30
0.0
 11
84.5704
 21
36.0412
 31
0.0
  0
LINE
  8
0
 62
     0
 10
84.5704
 20
36.0412
 30
0.0
 11
83.771
 21
36.0412
 31
0.0
  0
LINE
  8
0
 62
     0
 10
83.771
 20
36.0412
 30
0.0
 11
83.771
 21
41.8401
 31
0.0
  0
LINE
  8
0
 62
     0
 10
83.771
 20
41.8401
 30
0.0
 11
84.5704
 21
41.8401
 31
0.0
  0
LINE
  8
0
 62
     0
 10
84.5704
 20
41.8401
 30
0.0
 11
84.5704
 21
44.9407
 31
0.0
  0
LINE
  8
0
 62
     0
 10
84.5704
 20
44.9407
 30
0.0
 11
83.771
 21
44.9407
 31
0.0
  0
LINE
  8
0
 62
     0
 10
83.771
 20
44.9407
 30
0.0
 11
83.771
 21
45.9412
 31
0.0
  0
LINE
  8
0
 62
     0
 10
83.771
 20
45.9412
 30
0.0
 11
69.7699
 21
45.9412
 31
0.0
  0
LINE
  8
0
 62
     0
 10
50.7199
 20
45.9412
 30
0.0
 11
50.7199
 21
44.9407
 31
0.0
  0
LINE
  8
0
 62
     0
 10
50.7199
 20
44.9407
 30
0.0
 11
49.9209
 21
44.9407
 31
0.0
  0
LINE
  8
0
 62
     0
 10
49.9209
 20
44.9407
 30
0.0
 11
49.9209
 21
41.8401
 31
0.0
  0
LINE
  8
0
 62
     0
 10
49.9209
 20
41.8401
 30
0.0
 11
50.7199
 21
41.8401
 31
0.0
  0
LINE
  8
0
 62
     0
 10
50.7199
 20
41.8401
 30
0.0
 11
50.7199
 21
36.0412
 31
0.0
  0
LINE
  8
0
 62
     0
 10
50.7199
 20
36.0412
 30
0.0
 11
49.9209
 21
36.0412
 31
0.0
  0
LINE
  8
0
 62
     0
 10
49.9209
 20
36.0412
 30
0.0
 11
49.9209
 21
32.9406
 31
0.0
  0
LINE
  8
0
 62
     0
 10
49.9209
 20
32.9406
 30
0.0
 11
50.7199
 21
32.9406
 31
0.0
  0
LINE
  8
0
 62
     0
 10
50.7199
 20
32.9406
 30
0.0
 11
50.7199
 21
31.9402
 31
0.0
  0
LINE
  8
0
 62
     0
 10
50.7199
 20
31.9402
 30
0.0
 11
64.721
 21
31.9402
 31
0.0
  0
LINE
  8
0
 62
     0
 10
64.721
 20
31.9402
 30
0.0
 11
64.721
 21
32.9406
 31
0.0
  0
LINE
  8
0
 62
     0
 10
64.721
 20
32.9406
 30
0.0
 11
65.5204
 21
32.9406
 31
0.0
  0
LINE
  8
0
 62
     0
 10
65.5204
 20
32.9406
 30
0.0
 11
65.5204
 21
36.0412
 31
0.0
  0
LINE
  8
0
 62
     0
 10
65.5204
 20
36.0412
 30
0.0
 11
64.721
 21
36.0412
 31
0.0
  0
LINE
  8
0
 62
     0
 10
64.721
 20
36.0412
 30
0.0
 11
64.721
 21
41.8401
 31
0.0
  0
LINE
  8
0
 62
     0
 10
64.721
 20
41.8401
 30
0.0
 11
65.5204
 21
41.8401
 31
0.0
  0
LINE
  8
0
 62
     0
 10
65.5204
 20
41.8401
 30
0.0
 11
65.5204
 21
44.9407
 31
0.0
  0
LINE
  8
0
 62
     0
 10
65.5204
 20
44.9407
 30
0.0
 11
64.721
 21
44.9407
 31
0.0
  0
LINE
  8
0
 62
     0
 10
64.721
 20
44.9407
 30
0.0
 11
64.721
 21
45.9412
 31
0.0
  0
LINE
  8
0
 62
     0
 10
64.721
 20
45.9412
 30
0.0
 11
50.7199
 21
45.9412
 31
0.0
  0
LINE
  8
0
 62
     0
 10
31.6701
 20
45.9412
 30
0.0
 11
31.6701
 21
44.9407
 31
0.0
  0
LINE
  8
0
 62
     0
 10
31.6701
 20
44.9407
 30
0.0
 11
30.8708
 21
44.9407
 31
0.0
  0
LINE
  8
0
 62
     0
 10
30.8708
 20
44.9407
 30
0.0
 11
30.8708
 21
41.8401
 31
0.0
  0
LINE
  8
0
 62
     0
 10
30.8708
 20
41.8401
 30
0.0
 11
31.6701
 21
41.8401
 31
0.0
  0
LINE
  8
0
 62
     0
 10
31.6701
 20
41.8401
 30
0.0
 11
31.6701
 21
36.0412
 31
0.0
  0
LINE
  8
0
 62
     0
 10
31.6701
 20
36.0412
 30
0.0
 11
30.8708
 21
36.0412
 31
0.0
  0
LINE
  8
0
 62
     0
 10
30.8708
 20
36.0412
 30
0.0
 11
30.8708
 21
32.9406
 31
0.0
  0
LINE
  8
0
 62
     0
 10
30.8708
 20
32.9406
 30
0.0
 11
31.6701
 21
32.9406
 31
0.0
  0
LINE
  8
0
 62
     0
 10
31.6701
 20
32.9406
 30
0.0
 11
31.6701
 21
31.9402
 31
0.0
  0
LINE
  8
0
 62
     0
 10
31.6701
 20
31.9402
 30
0.0
 11
45.671
 21
31.9402
 31
0.0
  0
LINE
  8
0
 62
     0
 10
45.671
 20
31.9402
 30
0.0
 11
45.671
 21
32.9406
 31
0.0
  0
LINE
  8
0
 62
     0
 10
45.671
 20
32.9406
 30
0.0
 11
46.4704
 21
32.9406
 31
0.0
  0
LINE
  8
0
 62
     0
 10
46.4704
 20
32.9406
 30
0.0
 11
46.4704
 21
36.0412
 31
0.0
  0
LINE
  8
0
 62
     0
 10
46.4704
 20
36.0412
 30
0.0
 11
45.671
 21
36.0412
 31
0.0
  0
LINE
  8
0
 62
     0
 10
45.671
 20
36.0412
 30
0.0
 11
45.671
 21
41.8401
 31
0.0
  0
LINE
  8
0
 62
     0
 10
45.671
 20
41.8401
 30
0.0
 11
46.4704
 21
41.8401
 31
0.0
  0
LINE
  8
0
 62
     0
 10
46.4704
 20
41.8401
 30
0.0
 11
46.4704
 21
44.9407
 31
0.0
  0
LINE
  8
0
 62
     0
 10
46.4704
 20
44.9407
 30
0.0
 11
45.671
 21
44.9407
 31
0.0
  0
LINE
  8
0
 62
     0
 10
45.671
 20
44.9407
 30
0.0
 11
45.671
 21
45.9412
 31
0.0
  0
LINE
  8
0
 62
     0
 10
45.671
 20
45.9412
 30
0.0
 11
31.6701
 21
45.9412
 31
0.0
  0
LINE
  8
0
 62
     0
 10
12.6201
 20
45.9412
 30
0.0
 11
12.6201
 21
44.9407
 31
0.0
  0
LINE
  8
0
 62
     0
 10
12.6201
 20
44.9407
 30
0.0
 11
11.8194
 21
44.9407
 31
0.0
  0
LINE
  8
0
 62
     0
 10
11.8194
 20
44.9407
 30
0.0
 11
11.8194
 21
41.8401
 31
0.0
  0
LINE
  8
0
 62
     0
 10
11.8194
 20
41.8401
 30
0.0
 11
12.6201
 21
41.8401
 31
0.0
  0
LINE
  8
0
 62
     0
 10
12.6201
 20
41.8401
 30
0.0
 11
12.6201
 21
36.0412
 31
0.0
  0
LINE
  8
0
 62
     0
 10
12.6201
 20
36.0412
 30
0.0
 11
11.8194
 21
36.0412
 31
0.0
  0
LINE
  8
0
 62
     0
 10
11.8194
 20
36.0412
 30
0.0
 11
11.8194
 21
32.9406
 31
0.0
  0
LINE
  8
0
 62
     0
 10
11.8194
 20
32.9406
 30
0.0
 11
12.6201
 21
32.9406
 31
0.0
  0
LINE
  8
0
 62
     0
 10
12.6201
 20
32.9406
 30
0.0
 11
12.6201
 21
31.9402
 31
0.0
  0
LINE
  8
0
 62
     0
 10
12.6201
 20
31.9402
 30
0.0
 11
26.6209
 21
31.9402
 31
0.0
  0
LINE
  8
0
 62
     0
 10
26.6209
 20
31.9402
 30
0.0
 11
26.6209
 21
32.9406
 31
0.0
  0
LINE
  8
0
 62
     0
 10
26.6209
 20
32.9406
 30
0.0
 11
27.4188
 21
32.9406
 31
0.0
  0
LINE
  8
0
 62
     0
 10
27.4188
 20
32.9406
 30
0.0
 11
27.4188
 21
36.0412
 31
0.0
  0
LINE
  8
0
 62
     0
 10
27.4188
 20
36.0412
 30
0.0
 11
26.6209
 21
36.0412
 31
0.0
  0
LINE
  8
0
 62
     0
 10
26.6209
 20
36.0412
 30
0.0
 11
26.6209
 21
41.8401
 31
0.0
  0
LINE
  8
0
 62
     0
 10
26.6209
 20
41.8401
 30
0.0
 11
27.4188
 21
41.8401
 31
0.0
  0
LINE
  8
0
 62
     0
 10
27.4188
 20
41.8401
 30
0.0
 11
27.4188
 21
44.9407
 31
0.0
  0
LINE
  8
0
 62
     0
 10
27.4188
 20
44.9407
 30
0.0
 11
26.6209
 21
44.9407
 31
0.0
  0
LINE
  8
0
 62
     0
 10
26.6209
 20
44.9407
 30
0.0
 11
26.6209
 21
45.9412
 31
0.0
  0
LINE
  8
0
 62
     0
 10
26.6209
 20
45.9412
 30
0.0
 11
12.6201
 21
45.9412
 31
0.0
  0
LINE
  8
0
 62
     0
 10
4.55443
 20
55.1311
 30
0.0
 11
4.06658
 21
54.8816
 31
0.0
  0
LINE
  8
0
 62
     0
 10
4.06658
 20
54.8816
 30
0.0
 11
3.67937
 21
54.4946
 31
0.0
  0
LINE
  8
0
 62
     0
 10
3.67937
 20
54.4946
 30
0.0
 11
3.42994
 21
54.0067
 31
0.0
  0
LINE
  8
0
 62
     0
 10
3.42994
 20
54.0067
 30
0.0
 11
3.34588
 21
53.4652
 31
0.0
  0
LINE
  8
0
 62
     0
 10
3.34588
 20
53.4652
 30
0.0
 11
3.42994
 21
52.9248
 31
0.0
  0
LINE
  8
0
 62
     0
 10
3.42994
 20
52.9248
 30
0.0
 11
3.67937
 21
52.4372
 31
0.0
  0
LINE
  8
0
 62
     0
 10
3.67937
 20
52.4372
 30
0.0
 11
4.06658
 21
52.0513
 31
0.0
  0
LINE
  8
0
 62
     0
 10
4.06658
 20
52.0513
 30
0.0
 11
4.55443
 21
51.8019
 31
0.0
  0
LINE
  8
0
 62
     0
 10
4.55443
 20
51.8019
 30
0.0
 11
5.09598
 21
51.7151
 31
0.0
  0
LINE
  8
0
 62
     0
 10
5.09598
 20
51.7151
 30
0.0
 11
5.63619
 21
51.8019
 31
0.0
  0
LINE
  8
0
 62
     0
 10
5.63619
 20
51.8019
 30
0.0
 11
6.12401
 21
52.0513
 31
0.0
  0
LINE
  8
0
 62
     0
 10
6.12401
 20
52.0513
 30
0.0
 11
6.50984
 21
52.4372
 31
0.0
  0
LINE
  8
0
 62
     0
 10
6.50984
 20
52.4372
 30
0.0
 11
6.75929
 21
52.9248
 31
0.0
  0
LINE
  8
0
 62
     0
 10
6.75929
 20
52.9248
 30
0.0
 11
6.84611
 21
53.4652
 31
0.0
  0
LINE
  8
0
 62
     0
 10
6.84611
 20
53.4652
 30
0.0
 11
6.75929
 21
54.0067
 31
0.0
  0
LINE
  8
0
 62
     0
 10
6.75929
 20
54.0067
 30
0.0
 11
6.50984
 21
54.4946
 31
0.0
  0
LINE
  8
0
 62
     0
 10
6.50984
 20
54.4946
 30
0.0
 11
6.12401
 21
54.8816
 31
0.0
  0
LINE
  8
0
 62
     0
 10
6.12401
 20
54.8816
 30
0.0
 11
5.63619
 21
55.1311
 31
0.0
  0
LINE
  8
0
 62
     0
 10
5.63619
 20
55.1311
 30
0.0
 11
5.09598
 21
55.2154
 31
0.0
  0
LINE
  8
0
 62
     0
 10
5.09598
 20
55.2154
 30
0.0
 11
4.55443
 21
55.1311
 31
0.0
  0
LINE
  8
0
 62
     0
 10
90.7549
 20
55.1311
 30
0.0
 11
90.267
 21
54.8816
 31
0.0
  0
LINE
  8
0
 62
     0
 10
90.267
 20
54.8816
 30
0.0
 11
89.8811
 21
54.4946
 31
0.0
  0
LINE
  8
0
 62
     0
 10
89.8811
 20
54.4946
 30
0.0
 11
89.6317
 21
54.0067
 31
0.0
  0
LINE
  8
0
 62
     0
 10
89.6317
 20
54.0067
 30
0.0
 11
89.5463
 21
53.4652
 31
0.0
  0
LINE
  8
0
 62
     0
 10
89.5463
 20
53.4652
 30
0.0
 11
89.6317
 21
52.9248
 31
0.0
  0
LINE
  8
0
 62
     0
 10
89.6317
 20
52.9248
 30
0.0
 11
89.8811
 21
52.4372
 31
0.0
  0
LINE
  8
0
 62
     0
 10
89.8811
 20
52.4372
 30
0.0
 11
90.267
 21
52.0513
 31
0.0
  0
LINE
  8
0
 62
     0
 10
90.267
 20
52.0513
 30
0.0
 11
90.7549
 21
51.8019
 31
0.0
  0
LINE
  8
0
 62
     0
 10
90.7549
 20
51.8019
 30
0.0
 11
91.2964
 21
51.7151
 31
0.0
  0
LINE
  8
0
 62
     0
 10
91.2964
 20
51.7151
 30
0.0
 11
91.8365
 21
51.8019
 31
0.0
  0
LINE
  8
0
 62
     0
 10
91.8365
 20
51.8019
 30
0.0
 11
92.3244
 21
52.0513
 31
0.0
  0
LINE
  8
0
 62
     0
 10
92.3244
 20
52.0513
 30
0.0
 11
92.7118
 21
52.4372
 31
0.0
  0
LINE
  8
0
 62
     0
 10
92.7118
 20
52.4372
 30
0.0
 11
92.9612
 21
52.9248
 31
0.0
  0
LINE
  8
0
 62
     0
 10
92.9612
 20
52.9248
 30
0.0
 11
93.0465
 21
53.4652
 31
0.0
  0
LINE
  8
0
 62
     0
 10
93.0465
 20
53.4652
 30
0.0
 11
92.9612
 21
54.0067
 31
0.0
  0
LINE
  8
0
 62
     0
 10
92.9612
 20
54.0067
 30
0.0
 11
92.7118
 21
54.4946
 31
0.0
  0
LINE
  8
0
 62
     0
 10
92.7118
 20
54.4946
 30
0.0
 11
92.3244
 21
54.8816
 31
0.0
  0
LINE
  8
0
 62
     0
 10
92.3244
 20
54.8816
 30
0.0
 11
91.8365
 21
55.1311
 31
0.0
  0
LINE
  8
0
 62
     0
 10
91.8365
 20
55.1311
 30
0.0
 11
91.2964
 21
55.2154
 31
0.0
  0
LINE
  8
0
 62
     0
 10
91.2964
 20
55.2154
 30
0.0
 11
90.7549
 21
55.1311
 31
0.0
  0
ENDSEC
  0
EOF
